<?xml version="1.0" encoding="utf-8"?>
<!-- Generator: Adobe Illustrator 23.0.3, SVG Export Plug-In . SVG Version: 6.00 Build 0)  -->
<svg version="1.1" id="圖層_1" xmlns="http://www.w3.org/2000/svg" xmlns:xlink="http://www.w3.org/1999/xlink" x="0px" y="0px"
	 viewBox="0 0 1402.98 737.01" style="enable-background:new 0 0 1402.98 737.01;" xml:space="preserve">
<style type="text/css">
	.st0{fill:#F2A38A;}
	.st1{fill-rule:evenodd;clip-rule:evenodd;fill:#F2A38A;}
</style>
<g>
	<path class="st0" d="M994.83,487.27h-3.67c0-7.19-5.85-13.04-13.03-13.04v-3.67C987.34,470.56,994.83,478.06,994.83,487.27z"/>
	<path class="st0" d="M994.83,487.27h-3.67c0-9.21,7.5-16.71,16.71-16.71v3.67C1000.68,474.24,994.83,480.09,994.83,487.27z"/>
</g>
<path class="st1" d="M1250.64,474.67c-0.01-0.16-0.02-0.33-0.02-0.5c0-3.27,2.65-5.92,5.92-5.92c0.58,0,1.14,0.08,1.67,0.24
	c-0.14-0.67-0.22-1.37-0.22-2.09c0-5.46,4.44-9.9,9.9-9.9c5.27,0,9.59,4.13,9.88,9.32c0.81-0.29,1.69-0.45,2.6-0.45
	c4.23,0,7.66,3.43,7.66,7.66c0,0.73-0.1,1.44-0.29,2.11l12.54,3.73h-14.96c-0.02,0.01-0.03,0.03-0.05,0.04l-9.8-0.01
	c-0.01-0.01-0.02-0.02-0.04-0.03l-15.31,0.01l-0.02,0.02h-7.13l-0.01-0.01l-16.38,0.01L1250.64,474.67z"/>
<path class="st1" d="M396.18,565.02c-0.02-0.21-0.03-0.42-0.03-0.63c0-4.12,3.34-7.46,7.46-7.46c0.73,0,1.44,0.11,2.11,0.3
	c-0.18-0.85-0.28-1.73-0.28-2.63c0-6.89,5.59-12.48,12.48-12.48c6.64,0,12.08,5.2,12.46,11.75c1.02-0.37,2.13-0.57,3.27-0.57
	c5.33,0,9.65,4.32,9.65,9.65c0,0.92-0.13,1.81-0.37,2.65l15.81,4.71h-18.86c-0.02,0.02-0.04,0.03-0.06,0.05l-12.36-0.01
	c-0.02-0.01-0.03-0.03-0.05-0.04l-19.3,0.01l-0.03,0.02l-8.99-0.01l-0.01-0.01l-20.65,0.01L396.18,565.02z"/>
</svg>
