<?xml version="1.0" encoding="utf-8"?>
<!-- Generator: Adobe Illustrator 23.0.3, SVG Export Plug-In . SVG Version: 6.00 Build 0)  -->
<svg version="1.1" id="圖層_1" xmlns="http://www.w3.org/2000/svg" xmlns:xlink="http://www.w3.org/1999/xlink" x="0px" y="0px"
	 viewBox="0 0 1393.98 737.01" style="enable-background:new 0 0 1393.98 737.01;" xml:space="preserve">
<style type="text/css">
	.st0{fill:#F2A38A;}
	.st1{fill-rule:evenodd;clip-rule:evenodd;fill:#F2A38A;}
</style>
<g>
	<path class="st0" d="M83.58,536.19h-4.03c0-7.88-6.41-14.29-14.29-14.29c-5.29,0-10.12,2.9-12.61,7.56l-3.55-1.9
		c3.19-5.98,9.39-9.69,16.17-9.69C75.36,517.87,83.58,526.09,83.58,536.19z"/>
	<path class="st0" d="M83.58,536.19h-4.03c0-10.1,8.22-18.32,18.32-18.32c6.78,0,12.97,3.72,16.16,9.69l-3.55,1.9
		c-2.49-4.67-7.32-7.56-12.61-7.56C89.99,521.9,83.58,528.31,83.58,536.19z"/>
</g>
<path class="st1" d="M332.61,533.14c-0.02-0.26-0.03-0.52-0.03-0.78c0-5.14,4.17-9.31,9.31-9.31c0.91,0,1.79,0.13,2.63,0.38
	c-0.23-1.06-0.35-2.16-0.35-3.28c0-8.59,6.97-15.56,15.56-15.56c8.29,0,15.07,6.49,15.54,14.66c1.28-0.46,2.65-0.71,4.08-0.71
	c6.64,0,12.04,5.39,12.04,12.04c0,1.15-0.16,2.26-0.46,3.31l19.72,5.87l-23.52,0.01c-0.03,0.02-0.05,0.04-0.08,0.06l-15.41-0.01
	c-0.02-0.02-0.04-0.03-0.06-0.05l-24.07,0.01l-0.03,0.02l-11.21-0.01l-0.02-0.01l-25.76,0.01L332.61,533.14z"/>
<path class="st1" d="M1281.24,500.01c-0.02-0.21-0.03-0.43-0.03-0.65c0-4.25,3.45-7.7,7.7-7.7c0.76,0,1.49,0.11,2.18,0.31
	c-0.19-0.88-0.29-1.78-0.29-2.72c0-7.11,5.77-12.88,12.88-12.88c6.86,0,12.47,5.37,12.86,12.13c1.06-0.38,2.19-0.59,3.38-0.59
	c5.5,0,9.96,4.46,9.96,9.96c0,0.95-0.13,1.87-0.38,2.74l16.32,4.86h-19.46c-0.02,0.02-0.04,0.04-0.06,0.05l-12.75-0.01
	c-0.02-0.01-0.03-0.03-0.05-0.04l-19.92,0.01l-0.03,0.02l-9.28-0.01l-0.01-0.01l-21.31,0.01L1281.24,500.01z"/>
</svg>
