<?xml version="1.0" encoding="utf-8"?>
<!-- Generator: Adobe Illustrator 23.0.3, SVG Export Plug-In . SVG Version: 6.00 Build 0)  -->
<svg version="1.1" id="圖層_1" xmlns="http://www.w3.org/2000/svg" xmlns:xlink="http://www.w3.org/1999/xlink" x="0px" y="0px"
	 viewBox="0 0 1401 735.01" style="enable-background:new 0 0 1401 735.01;" xml:space="preserve">
<style type="text/css">
	.st0{fill:#EC746B;}
	.st1{fill:#F2A38A;}
	.st2{fill:#F0A085;}
</style>
<g>
	<path class="st0" d="M188.43,143.29c2.4-4.76,4.81-9.51,7.21-14.27c6.29-12.43,12.59-24.85,18.81-37.32
		c1.82-3.64,3.65-7.29,5.45-10.94c4.28-8.61,8.52-17.24,12.79-25.86c1.56-3.15,3.39-7.25,2.66-10.24c-0.69-2.83-3.22-2.9-5.49-0.28
		c-4.11,4.74-6.22,11.17-8.77,17.12c-3.05,7.11-6.03,14.24-8.96,21.39c-4,9.77-7.89,19.58-11.66,29.41
		c-2,5.21-3.98,10.42-6.01,15.62C192.47,133.06,190.36,138.13,188.43,143.29z"/>
	<path class="st0" d="M229.97,134.94c-4.33,3.51-8.66,7.03-13.01,10.53c-4.3,3.45-8.67,6.78-12.91,10.29
		c4.46-2.92,8.92-5.83,13.38-8.75c11.66-7.62,23.33-15.23,34.95-22.91c3.4-2.25,6.81-4.48,10.19-6.75c8.01-5.32,16-10.67,24.01-16
		c2.93-1.95,6.56-4.58,7.42-7.54c0.82-2.8-1.34-4.12-4.62-2.99c-5.93,2.05-10.97,6.56-16.15,10.44
		c-6.19,4.63-12.35,9.31-18.45,14.04C246.43,121.75,238.16,128.3,229.97,134.94z"/>
	<path class="st0" d="M317.71,160.78c-6.16-1.19-12.78,0.2-19.21,0.97c-7.68,0.91-15.35,1.89-23,2.93
		c-10.46,1.42-20.9,2.96-31.3,4.61c-5.51,0.87-11.01,1.76-16.53,2.61c-5.45,0.83-10.9,1.54-16.33,2.46
		c5.32-0.3,10.64-0.59,15.96-0.89c13.91-0.77,27.82-1.53,41.73-2.37c4.07-0.25,8.14-0.48,12.2-0.75c9.6-0.6,19.19-1.24,28.79-1.85
		c3.51-0.22,7.97-0.69,10.19-2.82C322.32,163.67,321.11,161.44,317.71,160.78z"/>
	<path class="st0" d="M290.14,226.77c-7.11-3.05-14.24-6.04-21.39-8.96c-9.77-4-19.58-7.89-29.41-11.66
		c-5.21-2-10.42-3.98-15.62-6.01c-5.13-2-10.21-4.11-15.37-6.04c4.76,2.4,9.51,4.81,14.27,7.21c12.43,6.29,24.85,12.59,37.32,18.81
		c3.64,1.82,7.29,3.65,10.94,5.45c8.61,4.28,17.24,8.52,25.86,12.79c3.15,1.56,7.25,3.39,10.24,2.66c2.83-0.69,2.9-3.22,0.28-5.49
		C302.53,231.43,296.09,229.32,290.14,226.77z"/>
	<path class="st0" d="M260.83,295.06c-2.05-5.93-6.56-10.97-10.44-16.15c-4.63-6.19-9.31-12.35-14.04-18.46
		c-6.46-8.35-13.01-16.62-19.64-24.8c-3.51-4.33-7.03-8.66-10.53-13.01c-3.45-4.3-6.79-8.67-10.29-12.91
		c2.92,4.46,5.83,8.92,8.75,13.38c7.62,11.66,15.23,23.33,22.91,34.95c2.25,3.4,4.48,6.81,6.75,10.19c5.32,8.01,10.67,16,16,24.01
		c1.95,2.93,4.58,6.56,7.54,7.42C260.63,300.49,261.96,298.33,260.83,295.06z"/>
	<path class="st0" d="M180.54,274.7c0.25,4.07,0.48,8.14,0.75,12.2c0.6,9.6,1.24,19.19,1.85,28.79c0.22,3.51,0.69,7.97,2.82,10.19
		c2.01,2.1,4.24,0.9,4.9-2.5c1.19-6.16-0.2-12.78-0.97-19.21c-0.91-7.68-1.89-15.35-2.93-23c-1.42-10.46-2.96-20.9-4.61-31.3
		c-0.87-5.51-1.76-11.01-2.61-16.53c-0.84-5.45-1.54-10.9-2.46-16.33c0.3,5.32,0.59,10.64,0.89,15.96
		C178.94,246.89,179.7,260.79,180.54,274.7z"/>
	<path class="st0" d="M157.54,214.03c-2.4,4.76-4.81,9.51-7.21,14.27c-6.29,12.43-12.59,24.85-18.81,37.32
		c-1.82,3.64-3.65,7.29-5.45,10.94c-4.28,8.61-8.52,17.24-12.79,25.86c-1.56,3.15-3.39,7.25-2.66,10.24
		c0.69,2.83,3.22,2.9,5.49,0.28c4.11-4.74,6.22-11.17,8.77-17.12c3.05-7.11,6.03-14.24,8.96-21.39c4-9.77,7.89-19.58,11.66-29.41
		c2-5.21,3.98-10.42,6.01-15.62C153.5,224.26,155.61,219.19,157.54,214.03z"/>
	<path class="st0" d="M116,222.38c4.33-3.51,8.66-7.03,13.01-10.53c4.3-3.45,8.67-6.78,12.91-10.29c-4.46,2.92-8.92,5.83-13.38,8.75
		c-11.66,7.62-23.33,15.23-34.95,22.91c-3.4,2.25-6.81,4.48-10.19,6.75c-8.01,5.32-16,10.67-24.01,16
		c-2.93,1.95-6.56,4.58-7.42,7.54c-0.82,2.8,1.34,4.12,4.62,2.99c5.93-2.05,10.97-6.56,16.15-10.44
		c6.19-4.63,12.35-9.31,18.45-14.04C99.54,235.57,107.81,229.02,116,222.38z"/>
	<path class="st0" d="M47.47,195.57c7.68-0.91,15.35-1.89,23-2.93c10.46-1.42,20.9-2.96,31.3-4.61c5.51-0.88,11.01-1.76,16.53-2.61
		c5.45-0.83,10.9-1.54,16.33-2.46c-5.32,0.3-10.64,0.59-15.96,0.89c-13.91,0.77-27.82,1.53-41.73,2.37
		c-4.07,0.25-8.13,0.48-12.2,0.75c-9.6,0.6-19.19,1.24-28.79,1.85c-3.51,0.22-7.97,0.69-10.19,2.82c-2.1,2.01-0.9,4.24,2.5,4.9
		C34.41,197.73,41.04,196.34,47.47,195.57z"/>
	<path class="st0" d="M55.83,130.55c7.11,3.05,14.24,6.04,21.39,8.96c9.77,4,19.58,7.89,29.41,11.66c5.21,2,10.42,3.98,15.62,6.01
		c5.13,2,10.21,4.11,15.37,6.04c-4.76-2.4-9.51-4.81-14.27-7.21c-12.43-6.29-24.85-12.59-37.32-18.81
		c-3.65-1.82-7.29-3.65-10.94-5.45c-8.61-4.28-17.24-8.52-25.86-12.79c-3.15-1.56-7.25-3.39-10.24-2.66
		c-2.83,0.69-2.9,3.22-0.28,5.49C43.44,125.89,49.88,128,55.83,130.55z"/>
	<path class="st0" d="M85.14,62.26c2.05,5.93,6.56,10.97,10.44,16.15c4.63,6.19,9.31,12.35,14.04,18.46
		c6.46,8.35,13.01,16.62,19.64,24.8c3.51,4.33,7.03,8.66,10.53,13.01c3.45,4.3,6.79,8.67,10.29,12.91
		c-2.92-4.46-5.83-8.92-8.75-13.38c-7.62-11.66-15.23-23.33-22.91-34.95c-2.25-3.4-4.48-6.81-6.75-10.19
		c-5.32-8.01-10.67-16-16-24.01c-1.95-2.93-4.58-6.56-7.54-7.42C85.33,56.83,84.01,58.99,85.14,62.26z"/>
	<path class="st0" d="M165.42,82.62c-0.25-4.07-0.48-8.14-0.75-12.2c-0.6-9.6-1.24-19.19-1.85-28.79
		c-0.22-3.51-0.69-7.97-2.82-10.19c-2.01-2.1-4.24-0.9-4.9,2.5c-1.19,6.16,0.2,12.78,0.97,19.21c0.91,7.68,1.89,15.35,2.93,23
		c1.42,10.46,2.96,20.9,4.61,31.3c0.87,5.51,1.76,11.01,2.61,16.53c0.83,5.45,1.54,10.9,2.46,16.33c-0.3-5.32-0.59-10.64-0.89-15.96
		C167.02,110.44,166.26,96.53,165.42,82.62z"/>
	<path class="st0" d="M78.13,50.63c5.63-1.94,2.62-10.7-3.02-8.75C69.48,43.82,72.49,52.58,78.13,50.63z"/>
	<path class="st0" d="M24.29,113.79c5.63-1.94,2.62-10.7-3.02-8.75C15.64,106.98,18.65,115.74,24.29,113.79z"/>
	<path class="st0" d="M8,191.21c-5.63,1.94-2.62,10.7,3.02,8.75C16.65,198.02,13.64,189.26,8,191.21z"/>
	<path class="st0" d="M41.48,269.42c-5.63,1.94-2.62,10.7,3.02,8.75C50.13,276.23,47.13,267.47,41.48,269.42z"/>
	<path class="st0" d="M103.19,323.76c-5.63,1.94-2.62,10.7,3.02,8.75C111.83,330.57,108.83,321.82,103.19,323.76z"/>
	<path class="st0" d="M189.04,337.69c-5.63,1.94-2.62,10.7,3.02,8.75C197.68,344.5,194.68,335.74,189.04,337.69z"/>
	<path class="st0" d="M267.26,305.83c-5.63,1.94-2.62,10.7,3.02,8.75C275.91,312.64,272.9,303.89,267.26,305.83z"/>
	<path class="st0" d="M318.47,239.77c-5.63,1.94-2.62,10.7,3.02,8.75C327.12,246.58,324.11,237.82,318.47,239.77z"/>
	<path class="st0" d="M332.11,157.83c-5.63,1.94-2.62,10.7,3.02,8.75C340.76,164.64,337.75,155.88,332.11,157.83z"/>
	<path class="st0" d="M307.66,88.47c5.63-1.94,2.62-10.7-3.02-8.75C299.02,81.66,302.02,90.41,307.66,88.47z"/>
	<path class="st0" d="M240.75,33.2c5.63-1.94,2.62-10.7-3.02-8.75C232.1,26.39,235.11,35.15,240.75,33.2z"/>
	<path class="st0" d="M157.51,20.55c5.63-1.94,2.62-10.7-3.02-8.75C148.87,13.74,151.87,22.49,157.51,20.55z"/>
	<path class="st0" d="M188.33,89.53c-1.41-0.27-5.79,16.13-9.77,36.65c-3.98,20.52-6.06,37.37-4.65,37.64s5.79-16.13,9.77-36.65
		C187.66,106.65,189.74,89.8,188.33,89.53z"/>
	
		<ellipse transform="matrix(0.6558 -0.7549 0.7549 0.6558 -33.4834 203.3979)" class="st0" cx="206.32" cy="138.42" rx="37.84" ry="2.61"/>
	<path class="st0" d="M258.1,148.87c-0.47-1.36-16.87,3.05-36.62,9.86c-19.76,6.81-35.39,13.43-34.92,14.8
		c0.47,1.36,16.87-3.05,36.62-9.86S258.57,150.24,258.1,148.87z"/>
	<path class="st0" d="M224.27,191.49c20.52,3.98,37.37,6.06,37.64,4.65s-16.13-5.79-36.65-9.77c-20.52-3.98-37.37-6.06-37.64-4.65
		S203.75,187.51,224.27,191.49z"/>
	<path class="st0" d="M241.59,238.97c0.95-1.09-11.08-13.08-26.85-26.79c-15.78-13.71-29.33-23.93-30.28-22.85
		c-0.95,1.09,11.08,13.08,26.85,26.79S240.64,240.06,241.59,238.97z"/>
	
		<ellipse transform="matrix(0.9454 -0.3259 0.3259 0.9454 -64.6098 74.5628)" class="st0" cx="190.24" cy="230.12" rx="2.61" ry="37.84"/>
	<path class="st0" d="M159.95,232.07c-3.98,20.52-6.06,37.37-4.65,37.64c1.41,0.27,5.79-16.13,9.77-36.65
		c3.98-20.52,6.06-37.37,4.65-37.64C168.31,195.15,163.93,211.56,159.95,232.07z"/>
	<path class="st0" d="M112.47,249.39c1.09,0.95,13.08-11.08,26.79-26.85c13.71-15.78,23.93-29.33,22.85-30.28
		c-1.09-0.95-13.08,11.08-26.79,26.85C121.61,234.89,111.38,248.45,112.47,249.39z"/>
	
		<ellipse transform="matrix(0.9454 -0.3259 0.3259 0.9454 -57.9144 50.3499)" class="st0" cx="121.32" cy="198.03" rx="37.84" ry="2.61"/>
	<path class="st0" d="M156.01,177.53c0.27-1.41-16.13-5.79-36.65-9.77c-20.52-3.98-37.37-6.06-37.64-4.65s16.13,5.79,36.65,9.77
		C138.88,176.86,155.74,178.94,156.01,177.53z"/>
	<path class="st0" d="M159.18,169.91c0.95-1.09-11.08-13.08-26.85-26.79c-15.78-13.71-29.33-23.93-30.28-22.85
		c-0.95,1.09,11.08,13.08,26.85,26.79C144.68,160.77,158.23,170.99,159.18,169.91z"/>
	<path class="st0" d="M165.73,164.89c1.36-0.47-3.05-16.87-9.86-36.62c-6.81-19.76-13.43-35.39-14.8-34.92
		c-1.36,0.47,3.05,16.87,9.86,36.62S164.37,165.36,165.73,164.89z"/>
</g>
<g>
	<g>
		<g>
			<path class="st1" d="M1203.31,141.52c0,0,1.46-26.61,1.58-28.78c0.28-4.93-0.13-7.27-1.58-7.27l0,0c-1.45,0-1.84,2.34-1.58,7.27
				C1201.85,115.09,1203.31,141.52,1203.31,141.52z"/>
		</g>
		<g>
			<path class="st1" d="M1215.7,143.7c0,0,10.47-24.51,11.33-26.5c1.95-4.53,2.36-6.87,1-7.37l0,0c-1.36-0.5-2.53,1.57-3.97,6.29
				C1223.37,118.37,1215.7,143.7,1215.7,143.7z"/>
		</g>
		<g>
			<path class="st1" d="M1226.6,149.99c0,0,18.22-19.45,19.71-21.03c3.38-3.59,4.57-5.65,3.46-6.58l0,0
				c-1.11-0.93-2.91,0.61-5.88,4.55C1242.47,128.81,1226.6,149.99,1226.6,149.99z"/>
		</g>
		<g>
			<path class="st1" d="M1234.69,159.63c0,0,23.77-12.04,25.71-13.02c4.41-2.22,6.23-3.75,5.5-5l0,0c-0.73-1.26-2.95-0.42-7.09,2.26
				C1256.85,145.15,1234.69,159.63,1234.69,159.63z"/>
		</g>
		<g>
			<path class="st1" d="M1239,171.46c0,0,26.46-3.18,28.61-3.44c4.9-0.58,7.14-1.39,6.88-2.82l0,0c-0.25-1.43-2.63-1.41-7.43-0.3
				C1264.77,165.43,1239,171.46,1239,171.46z"/>
		</g>
		<g>
			<path class="st1" d="M1239,184.04c0,0,25.95,6.06,28.07,6.55c4.8,1.13,7.18,1.13,7.43-0.3l0,0c0.25-1.43-1.99-2.22-6.88-2.82
				C1265.28,187.19,1239,184.04,1239,184.04z"/>
		</g>
		<g>
			<path class="st1" d="M1234.7,195.87c0,0,22.32,14.57,24.13,15.76c4.13,2.71,6.36,3.52,7.09,2.26l0,0c0.73-1.26-1.11-2.76-5.5-5
				C1258.32,207.82,1234.7,195.87,1234.7,195.87z"/>
		</g>
		<g>
			<path class="st1" d="M1226.62,205.51c0,0,15.99,21.32,17.29,23.06c2.95,3.95,4.77,5.48,5.88,4.55l0,0
				c1.11-0.93-0.1-2.98-3.46-6.58C1244.72,224.82,1226.62,205.51,1226.62,205.51z"/>
		</g>
		<g>
			<path class="st1" d="M1215.72,211.81c0,0,7.73,25.5,8.36,27.58c1.42,4.72,2.61,6.79,3.97,6.29l0,0c1.36-0.5,0.93-2.83-1-7.37
				C1226.13,236.14,1215.72,211.81,1215.72,211.81z"/>
		</g>
		<g>
			<path class="st1" d="M1203.33,213.99c0,0-1.46,26.61-1.58,28.78c-0.28,4.93,0.13,7.27,1.58,7.27l0,0c1.45,0,1.84-2.34,1.58-7.27
				C1204.78,240.42,1203.33,213.99,1203.33,213.99z"/>
		</g>
		<g>
			<path class="st1" d="M1190.93,211.81c0,0-10.47,24.51-11.33,26.5c-1.95,4.53-2.36,6.87-1,7.37l0,0c1.36,0.5,2.53-1.57,3.97-6.29
				C1183.26,237.14,1190.93,211.81,1190.93,211.81z"/>
		</g>
		<g>
			<path class="st1" d="M1180.03,205.52c0,0-18.22,19.45-19.71,21.03c-3.38,3.59-4.57,5.65-3.46,6.58l0,0
				c1.11,0.93,2.91-0.61,5.88-4.55C1164.16,226.7,1180.03,205.52,1180.03,205.52z"/>
		</g>
		<g>
			<path class="st1" d="M1171.94,195.88c0,0-23.77,12.04-25.71,13.02c-4.41,2.22-6.23,3.75-5.5,5l0,0c0.73,1.26,2.95,0.42,7.09-2.26
				C1149.78,210.36,1171.94,195.88,1171.94,195.88z"/>
		</g>
		<g>
			<path class="st1" d="M1167.63,184.06c0,0-26.46,3.18-28.61,3.44c-4.9,0.58-7.14,1.39-6.88,2.82l0,0c0.25,1.43,2.63,1.41,7.43,0.3
				C1141.86,190.08,1167.63,184.06,1167.63,184.06z"/>
		</g>
		<g>
			<path class="st1" d="M1167.63,171.47c0,0-25.95-6.06-28.07-6.55c-4.8-1.13-7.18-1.13-7.43,0.3l0,0
				c-0.25,1.43,1.99,2.22,6.88,2.82C1141.35,168.32,1167.63,171.47,1167.63,171.47z"/>
		</g>
		<g>
			<path class="st1" d="M1171.93,159.65c0,0-22.32-14.57-24.13-15.76c-4.13-2.71-6.36-3.52-7.09-2.26l0,0
				c-0.73,1.26,1.11,2.76,5.5,5C1148.31,147.7,1171.93,159.65,1171.93,159.65z"/>
		</g>
		<g>
			<path class="st1" d="M1180.02,150c0,0-15.99-21.32-17.29-23.06c-2.95-3.95-4.77-5.48-5.88-4.55l0,0
				c-1.11,0.93,0.1,2.98,3.46,6.58C1161.91,130.7,1180.02,150,1180.02,150z"/>
		</g>
		<g>
			<path class="st1" d="M1190.91,143.71c0,0-7.73-25.5-8.36-27.58c-1.42-4.72-2.61-6.79-3.97-6.29l0,0c-1.36,0.5-0.93,2.83,1,7.37
				C1180.51,119.37,1190.91,143.71,1190.91,143.71z"/>
		</g>
		<g>
			<path class="st1" d="M1203.31,141.52c0,0,1.46-26.61,1.58-28.78c0.28-4.93-0.13-7.27-1.58-7.27l0,0c-1.45,0-1.84,2.34-1.58,7.27
				C1201.85,115.09,1203.31,141.52,1203.31,141.52z"/>
		</g>
	</g>
	<g>
		<g>
			<path class="st1" d="M1200.89,154.39c0,0-0.84-17.25-0.9-18.66c-0.15-3.19-0.57-4.68-1.51-4.58l0,0
				c-0.94,0.1-1.03,1.63-0.53,4.79C1198.18,137.45,1200.89,154.39,1200.89,154.39z"/>
		</g>
		<g>
			<path class="st1" d="M1209.03,154.97c0,0,5.11-16.5,5.53-17.84c0.95-3.05,1.07-4.59,0.15-4.82l0,0
				c-0.91-0.23-1.53,1.18-2.14,4.32C1212.28,138.13,1209.03,154.97,1209.03,154.97z"/>
		</g>
		<g>
			<path class="st1" d="M1216.48,158.3c0,0,10.45-13.76,11.3-14.88c1.94-2.54,2.57-3.95,1.79-4.48l0,0
				c-0.78-0.53-1.84,0.59-3.49,3.33C1225.29,143.58,1216.48,158.3,1216.48,158.3z"/>
		</g>
		<g>
			<path class="st1" d="M1222.34,163.97c0,0,14.52-9.35,15.71-10.11c2.69-1.73,3.77-2.83,3.21-3.59l0,0
				c-0.55-0.76-1.93-0.08-4.42,1.93C1235.66,153.16,1222.34,163.97,1222.34,163.97z"/>
		</g>
		<g>
			<path class="st1" d="M1225.9,171.31c0,0,16.85-3.82,18.22-4.13c3.12-0.7,4.51-1.37,4.25-2.28l0,0c-0.26-0.91-1.79-0.73-4.81,0.31
				C1242.12,165.7,1225.9,171.31,1225.9,171.31z"/>
		</g>
		<g>
			<path class="st1" d="M1226.75,179.42c0,0,17.14,2.17,18.53,2.35c3.17,0.41,4.71,0.25,4.77-0.69l0,0c0.07-0.94-1.43-1.3-4.63-1.36
				C1243.9,179.7,1226.75,179.42,1226.75,179.42z"/>
		</g>
		<g>
			<path class="st1" d="M1224.76,187.34c0,0,15.36,7.9,16.61,8.55c2.84,1.47,4.34,1.85,4.72,0.99l0,0c0.38-0.86-0.9-1.71-3.88-2.86
				C1240.79,193.47,1224.76,187.34,1224.76,187.34z"/>
		</g>
		<g>
			<path class="st1" d="M1220.19,194.1c0,0,11.73,12.68,12.69,13.71c2.17,2.35,3.44,3.22,4.1,2.54l0,0
				c0.65-0.68-0.26-1.91-2.67-4.01C1233.16,205.33,1220.19,194.1,1220.19,194.1z"/>
		</g>
		<g>
			<path class="st1" d="M1213.59,198.88c0,0,6.69,15.93,7.23,17.23c1.23,2.95,2.13,4.2,2.98,3.79l0,0c0.85-0.41,0.41-1.89-1.14-4.69
				C1221.92,213.88,1213.59,198.88,1213.59,198.88z"/>
		</g>
		<g>
			<path class="st1" d="M1205.74,201.12c0,0,0.84,17.25,0.9,18.66c0.15,3.19,0.57,4.68,1.51,4.58l0,0c0.94-0.1,1.03-1.63,0.53-4.79
				C1208.45,218.06,1205.74,201.12,1205.74,201.12z"/>
		</g>
		<g>
			<path class="st1" d="M1197.61,200.54c0,0-5.11,16.5-5.53,17.84c-0.95,3.05-1.07,4.59-0.15,4.82l0,0
				c0.91,0.23,1.53-1.18,2.14-4.32C1194.35,217.39,1197.61,200.54,1197.61,200.54z"/>
		</g>
		<g>
			<path class="st1" d="M1190.16,197.21c0,0-10.45,13.76-11.3,14.88c-1.94,2.54-2.57,3.95-1.79,4.48l0,0
				c0.78,0.53,1.84-0.59,3.49-3.33C1181.34,211.93,1190.16,197.21,1190.16,197.21z"/>
		</g>
		<g>
			<path class="st1" d="M1184.3,191.54c0,0-14.52,9.35-15.71,10.11c-2.69,1.73-3.77,2.83-3.21,3.59l0,0
				c0.55,0.76,1.93,0.08,4.42-1.93C1170.98,202.35,1184.3,191.54,1184.3,191.54z"/>
		</g>
		<g>
			<path class="st1" d="M1180.73,184.2c0,0-16.85,3.82-18.22,4.13c-3.12,0.7-4.51,1.37-4.25,2.28l0,0c0.26,0.91,1.79,0.73,4.81-0.31
				C1164.51,189.81,1180.73,184.2,1180.73,184.2z"/>
		</g>
		<g>
			<path class="st1" d="M1179.89,176.09c0,0-17.14-2.17-18.53-2.35c-3.17-0.41-4.71-0.25-4.77,0.69l0,0
				c-0.07,0.94,1.43,1.3,4.63,1.36C1162.73,175.81,1179.89,176.09,1179.89,176.09z"/>
		</g>
		<g>
			<path class="st1" d="M1181.87,168.18c0,0-15.36-7.9-16.61-8.55c-2.84-1.47-4.34-1.85-4.72-0.99l0,0
				c-0.38,0.86,0.9,1.71,3.88,2.86C1165.84,162.05,1181.87,168.18,1181.87,168.18z"/>
		</g>
		<g>
			<path class="st1" d="M1186.44,161.42c0,0-11.73-12.68-12.69-13.71c-2.17-2.35-3.44-3.22-4.1-2.54l0,0
				c-0.65,0.68,0.26,1.91,2.67,4.01C1173.48,150.18,1186.44,161.42,1186.44,161.42z"/>
		</g>
		<g>
			<path class="st1" d="M1193.05,156.63c0,0-6.69-15.93-7.23-17.23c-1.23-2.95-2.13-4.2-2.98-3.79l0,0
				c-0.85,0.41-0.41,1.89,1.14,4.69C1184.71,141.64,1193.05,156.63,1193.05,156.63z"/>
		</g>
		<g>
			<path class="st1" d="M1200.89,154.39c0,0-0.84-17.25-0.9-18.66c-0.15-3.19-0.57-4.68-1.51-4.58l0,0
				c-0.94,0.1-1.03,1.63-0.53,4.79C1198.18,137.45,1200.89,154.39,1200.89,154.39z"/>
		</g>
	</g>
	<g>
		<g>
			<path class="st1" d="M1198.92,161.13c0,0-2.56-12.38-2.76-13.39c-0.47-2.29-0.94-3.32-1.61-3.14l0,0
				c-0.67,0.18-0.56,1.3,0.16,3.53C1195.05,149.19,1198.92,161.13,1198.92,161.13z"/>
		</g>
		<g>
			<path class="st1" d="M1204.87,160.63c0,0,1.83-12.51,1.98-13.53c0.34-2.32,0.25-3.44-0.43-3.5l0,0
				c-0.69-0.06-0.97,1.03-1.06,3.37C1205.32,148.08,1204.87,160.63,1204.87,160.63z"/>
		</g>
		<g>
			<path class="st1" d="M1210.63,162.2c0,0,6-11.13,6.49-12.04c1.12-2.06,1.41-3.15,0.79-3.44l0,0c-0.62-0.29-1.26,0.63-2.15,2.8
				C1215.35,150.55,1210.63,162.2,1210.63,162.2z"/>
		</g>
		<g>
			<path class="st1" d="M1215.51,165.64c0,0,9.45-8.41,10.22-9.09c1.75-1.55,2.4-2.47,1.92-2.96l0,0c-0.49-0.49-1.4,0.16-2.98,1.9
				C1223.92,156.31,1215.51,165.64,1215.51,165.64z"/>
		</g>
		<g>
			<path class="st1" d="M1218.92,170.54c0,0,11.75-4.67,12.71-5.05c2.18-0.86,3.11-1.5,2.82-2.13l0,0
				c-0.29-0.63-1.38-0.33-3.45,0.77C1230.02,164.65,1218.92,170.54,1218.92,170.54z"/>
		</g>
		<g>
			<path class="st1" d="M1220.45,176.31c0,0,12.64-0.37,13.67-0.4c2.34-0.06,3.43-0.35,3.37-1.04l0,0c-0.06-0.69-1.18-0.78-3.5-0.46
				C1232.89,174.57,1220.45,176.31,1220.45,176.31z"/>
		</g>
		<g>
			<path class="st1" d="M1219.91,182.26c0,0,12,3.98,12.98,4.3c2.22,0.74,3.34,0.84,3.53,0.18l0,0c0.18-0.66-0.84-1.13-3.13-1.63
				C1232.2,184.88,1219.91,182.26,1219.91,182.26z"/>
		</g>
		<g>
			<path class="st1" d="M1217.37,187.66c0,0,9.92,7.84,10.73,8.48c1.83,1.46,2.85,1.94,3.25,1.37l0,0c0.4-0.56-0.4-1.35-2.39-2.6
				C1228.02,194.33,1217.37,187.66,1217.37,187.66z"/>
		</g>
		<g>
			<path class="st1" d="M1213.13,191.87c0,0,6.64,10.76,7.18,11.64c1.22,1.99,2.02,2.8,2.58,2.4l0,0c0.57-0.39,0.08-1.41-1.35-3.26
				C1220.86,201.78,1213.13,191.87,1213.13,191.87z"/>
		</g>
		<g>
			<path class="st1" d="M1207.71,194.38c0,0,2.56,12.38,2.76,13.39c0.47,2.29,0.94,3.32,1.61,3.14l0,0c0.67-0.18,0.56-1.3-0.16-3.53
				C1211.59,206.33,1207.71,194.38,1207.71,194.38z"/>
		</g>
		<g>
			<path class="st1" d="M1201.76,194.88c0,0-1.83,12.51-1.98,13.53c-0.34,2.32-0.25,3.44,0.43,3.5l0,0
				c0.69,0.06,0.97-1.03,1.06-3.37C1201.32,207.43,1201.76,194.88,1201.76,194.88z"/>
		</g>
		<g>
			<path class="st1" d="M1196,193.32c0,0-6,11.13-6.49,12.04c-1.12,2.06-1.41,3.15-0.79,3.44l0,0c0.62,0.29,1.26-0.63,2.15-2.8
				C1191.29,204.96,1196,193.32,1196,193.32z"/>
		</g>
		<g>
			<path class="st1" d="M1191.12,189.88c0,0-9.45,8.41-10.22,9.09c-1.75,1.55-2.4,2.47-1.92,2.96l0,0c0.49,0.49,1.4-0.16,2.98-1.9
				C1182.71,199.21,1191.12,189.88,1191.12,189.88z"/>
		</g>
		<g>
			<path class="st1" d="M1187.71,184.97c0,0-11.75,4.67-12.71,5.05c-2.18,0.86-3.11,1.5-2.82,2.13l0,0
				c0.29,0.63,1.38,0.33,3.45-0.77C1176.61,190.86,1187.71,184.97,1187.71,184.97z"/>
		</g>
		<g>
			<path class="st1" d="M1186.18,179.2c0,0-12.64,0.37-13.67,0.4c-2.34,0.06-3.43,0.35-3.37,1.04l0,0c0.06,0.69,1.18,0.78,3.5,0.46
				C1173.74,180.94,1186.18,179.2,1186.18,179.2z"/>
		</g>
		<g>
			<path class="st1" d="M1186.72,173.25c0,0-12-3.98-12.98-4.3c-2.22-0.74-3.34-0.84-3.53-0.18l0,0c-0.18,0.66,0.84,1.13,3.13,1.63
				C1174.44,170.63,1186.72,173.25,1186.72,173.25z"/>
		</g>
		<g>
			<path class="st1" d="M1189.26,167.85c0,0-9.92-7.84-10.73-8.48c-1.83-1.46-2.85-1.94-3.25-1.37l0,0c-0.4,0.56,0.4,1.35,2.39,2.6
				C1178.62,161.19,1189.26,167.85,1189.26,167.85z"/>
		</g>
		<g>
			<path class="st1" d="M1193.5,163.64c0,0-6.64-10.76-7.18-11.64c-1.22-2-2.02-2.8-2.58-2.4l0,0c-0.57,0.39-0.08,1.41,1.35,3.26
				C1185.77,153.74,1193.5,163.64,1193.5,163.64z"/>
		</g>
		<g>
			<path class="st1" d="M1198.92,161.13c0,0-2.56-12.38-2.76-13.39c-0.47-2.29-0.94-3.32-1.61-3.14l0,0
				c-0.67,0.18-0.56,1.3,0.16,3.53C1195.05,149.19,1198.92,161.13,1198.92,161.13z"/>
		</g>
	</g>
	<g>
		<g>
			<path class="st1" d="M1210.11,132.7c0,0,6.81-32.81,7.37-35.48c1.27-6.07,1.2-9.06-0.6-9.33l0,0c-1.81-0.27-2.73,2.57-3.33,8.74
				C1213.26,99.57,1210.11,132.7,1210.11,132.7z"/>
		</g>
		<g>
			<path class="st1" d="M1225.11,137.74c0,0,17.62-28.5,19.06-30.82c3.27-5.27,4.23-8.1,2.63-8.98l0,0
				c-1.6-0.87-3.44,1.48-6.12,7.07C1239.41,107.69,1225.11,137.74,1225.11,137.74z"/>
		</g>
		<g>
			<path class="st1" d="M1237.48,147.61c0,0,26.31-20.76,28.46-22.44c4.88-3.83,6.75-6.17,5.54-7.54l0,0
				c-1.21-1.37-3.74,0.21-8.17,4.55C1261.2,124.26,1237.48,147.61,1237.48,147.61z"/>
		</g>
		<g>
			<path class="st1" d="M1245.73,161.11c0,0,31.82-10.51,34.42-11.36c5.89-1.93,8.45-3.49,7.78-5.19l0,0
				c-0.67-1.7-3.59-1.08-9.24,1.48C1276,147.28,1245.73,161.11,1245.73,161.11z"/>
		</g>
		<g>
			<path class="st1" d="M1248.87,176.63c0,0,33.5,1.01,36.22,1.1c6.2,0.2,9.13-0.39,9.09-2.21l0,0c-0.04-1.83-3-2.24-9.19-1.76
				C1282.04,173.98,1248.87,176.63,1248.87,176.63z"/>
		</g>
		<g>
			<path class="st1" d="M1246.51,192.27c0,0,31.13,12.41,33.66,13.42c5.76,2.31,8.71,2.76,9.3,1.03l0,0
				c0.58-1.73-2.05-3.13-8.03-4.8C1278.59,201.13,1246.51,192.27,1246.51,192.27z"/>
		</g>
		<g>
			<path class="st1" d="M1238.94,206.17c0,0,25.01,22.3,27.04,24.13c4.62,4.14,7.25,5.57,8.38,4.15l0,0
				c1.14-1.43-0.86-3.65-5.9-7.26C1266.06,225.47,1238.94,206.17,1238.94,206.17z"/>
		</g>
		<g>
			<path class="st1" d="M1227.07,216.64c0,0,15.87,29.51,17.16,31.92c2.93,5.47,4.9,7.72,6.46,6.76l0,0
				c1.56-0.95,0.44-3.72-3.07-8.84C1245.95,244.05,1227.07,216.64,1227.07,216.64z"/>
		</g>
		<g>
			<path class="st1" d="M1212.34,222.42c0,0,4.82,33.16,5.21,35.87c0.88,6.14,1.97,8.93,3.76,8.57l0,0
				c1.79-0.36,1.69-3.34,0.14-9.35C1220.71,254.63,1212.34,222.42,1212.34,222.42z"/>
		</g>
		<g>
			<path class="st1" d="M1196.52,222.81c0,0-6.81,32.81-7.37,35.48c-1.27,6.07-1.2,9.06,0.6,9.33l0,0c1.81,0.27,2.73-2.57,3.33-8.74
				C1193.37,255.95,1196.52,222.81,1196.52,222.81z"/>
		</g>
		<g>
			<path class="st1" d="M1181.52,217.77c0,0-17.62,28.5-19.06,30.82c-3.27,5.27-4.23,8.1-2.63,8.98l0,0
				c1.6,0.87,3.44-1.48,6.12-7.07C1167.23,247.83,1181.52,217.77,1181.52,217.77z"/>
		</g>
		<g>
			<path class="st1" d="M1169.15,207.9c0,0-26.31,20.76-28.46,22.44c-4.88,3.83-6.75,6.17-5.54,7.54l0,0
				c1.21,1.37,3.74-0.21,8.17-4.55C1145.44,231.26,1169.15,207.9,1169.15,207.9z"/>
		</g>
		<g>
			<path class="st1" d="M1160.9,194.4c0,0-31.82,10.51-34.42,11.36c-5.89,1.93-8.45,3.49-7.78,5.19l0,0
				c0.67,1.7,3.59,1.08,9.23-1.48C1130.63,208.24,1160.9,194.4,1160.9,194.4z"/>
		</g>
		<g>
			<path class="st1" d="M1157.76,178.89c0,0-33.5-1.01-36.22-1.1c-6.2-0.2-9.13,0.39-9.09,2.21l0,0c0.04,1.83,3,2.24,9.19,1.76
				C1124.59,181.54,1157.76,178.89,1157.76,178.89z"/>
		</g>
		<g>
			<path class="st1" d="M1160.12,163.24c0,0-31.13-12.41-33.66-13.42c-5.76-2.31-8.71-2.76-9.3-1.03l0,0
				c-0.58,1.73,2.05,3.13,8.03,4.8C1128.04,154.38,1160.12,163.24,1160.12,163.24z"/>
		</g>
		<g>
			<path class="st1" d="M1167.69,149.34c0,0-25.01-22.3-27.04-24.13c-4.62-4.14-7.25-5.57-8.38-4.15l0,0
				c-1.14,1.43,0.86,3.65,5.9,7.26C1140.58,130.05,1167.69,149.34,1167.69,149.34z"/>
		</g>
		<g>
			<path class="st1" d="M1179.56,138.87c0,0-15.87-29.51-17.16-31.92c-2.93-5.47-4.9-7.72-6.46-6.76l0,0
				c-1.56,0.95-0.44,3.72,3.07,8.84C1160.68,111.47,1179.56,138.87,1179.56,138.87z"/>
		</g>
		<g>
			<path class="st1" d="M1194.29,133.09c0,0-4.82-33.16-5.21-35.87c-0.88-6.14-1.97-8.93-3.76-8.57l0,0
				c-1.79,0.36-1.69,3.34-0.14,9.35C1185.92,100.88,1194.29,133.09,1194.29,133.09z"/>
		</g>
		<g>
			<path class="st1" d="M1210.11,132.7c0,0,6.81-32.81,7.37-35.48c1.27-6.07,1.2-9.06-0.6-9.33l0,0c-1.81-0.27-2.73,2.57-3.33,8.74
				C1213.26,99.57,1210.11,132.7,1210.11,132.7z"/>
		</g>
	</g>
	<g>
		<g>
			<path class="st1" d="M1202.68,104.08c0,0,2.51-54.13,2.73-58.54c0.49-10.02-0.39-14.78-3.34-14.75l0,0
				c-2.95,0.02-3.7,4.79-3.09,14.81C1199.27,50.37,1202.68,104.08,1202.68,104.08z"/>
		</g>
		<g>
			<path class="st1" d="M1227.92,108.3c0,0,20.88-50,22.59-54.08c3.88-9.25,4.69-14.02,1.91-15l0,0c-2.78-0.99-5.12,3.24-7.97,12.86
				C1243.09,56.67,1227.92,108.3,1227.92,108.3z"/>
		</g>
		<g>
			<path class="st1" d="M1250.19,120.91c0,0,36.72-39.85,39.72-43.09c6.81-7.36,9.2-11.57,6.93-13.45l0,0
				c-2.28-1.88-5.92,1.29-11.89,9.35C1282.1,77.57,1250.19,120.91,1250.19,120.91z"/>
		</g>
		<g>
			<path class="st1" d="M1266.81,140.37c0,0,48.13-24.89,52.06-26.91c8.92-4.59,12.6-7.72,11.11-10.27l0,0
				c-1.5-2.54-6-0.81-14.37,4.72C1311.62,110.56,1266.81,140.37,1266.81,140.37z"/>
		</g>
		<g>
			<path class="st1" d="M1275.77,164.34c0,0,53.74-6.92,58.12-7.48c9.95-1.26,14.49-2.95,13.95-5.85l0,0
				c-0.54-2.9-5.36-2.81-15.12-0.47C1328.07,151.65,1275.77,164.34,1275.77,164.34z"/>
		</g>
		<g>
			<path class="st1" d="M1275.99,189.93c0,0,52.87,11.88,57.18,12.85c9.78,2.22,14.62,2.19,15.11-0.73l0,0
				c0.49-2.91-4.08-4.48-14.04-5.62C1329.47,195.9,1275.99,189.93,1275.99,189.93z"/>
		</g>
		<g>
			<path class="st1" d="M1267.44,214.05c0,0,45.62,29.24,49.33,31.63c8.43,5.43,12.99,7.05,14.44,4.48l0,0
				c1.45-2.57-2.3-5.6-11.28-10.08C1315.66,237.95,1267.44,214.05,1267.44,214.05z"/>
		</g>
		<g>
			<path class="st1" d="M1251.16,233.79c0,0,32.87,43.08,35.54,46.6c6.07,7.99,9.79,11.07,12.04,9.15l0,0
				c2.25-1.92-0.25-6.05-7.15-13.33C1288.3,272.74,1251.16,233.79,1251.16,233.79z"/>
		</g>
		<g>
			<path class="st1" d="M1229.11,246.78c0,0,16.15,51.72,17.46,55.94c2.97,9.58,5.42,13.75,8.18,12.72l0,0
				c2.77-1.03,1.84-5.77-2.16-14.97C1250.69,296.08,1229.11,246.78,1229.11,246.78z"/>
		</g>
		<g>
			<path class="st1" d="M1203.95,251.44c0,0-2.51,54.13-2.73,58.54c-0.49,10.02,0.39,14.78,3.34,14.75l0,0
				c2.95-0.02,3.7-4.79,3.09-14.81C1207.36,305.15,1203.95,251.44,1203.95,251.44z"/>
		</g>
		<g>
			<path class="st1" d="M1178.71,247.21c0,0-20.88,50-22.59,54.08c-3.88,9.25-4.69,14.02-1.91,15l0,0
				c2.78,0.99,5.12-3.24,7.97-12.86C1163.55,298.85,1178.71,247.21,1178.71,247.21z"/>
		</g>
		<g>
			<path class="st1" d="M1156.44,234.61c0,0-36.72,39.85-39.72,43.09c-6.81,7.36-9.2,11.57-6.93,13.45l0,0
				c2.28,1.88,5.92-1.29,11.89-9.35C1124.53,277.94,1156.44,234.61,1156.44,234.61z"/>
		</g>
		<g>
			<path class="st1" d="M1139.82,215.14c0,0-48.13,24.89-52.06,26.91c-8.92,4.59-12.6,7.72-11.11,10.27l0,0
				c1.5,2.54,6,0.81,14.37-4.72C1095.02,244.95,1139.82,215.14,1139.82,215.14z"/>
		</g>
		<g>
			<path class="st1" d="M1130.87,191.17c0,0-53.74,6.92-58.12,7.48c-9.95,1.26-14.49,2.95-13.95,5.85l0,0
				c0.54,2.9,5.36,2.81,15.12,0.47C1078.57,203.86,1130.87,191.17,1130.87,191.17z"/>
		</g>
		<g>
			<path class="st1" d="M1130.65,165.59c0,0-52.87-11.88-57.18-12.85c-9.78-2.22-14.62-2.19-15.11,0.73l0,0
				c-0.49,2.91,4.08,4.48,14.04,5.62C1077.16,159.62,1130.65,165.59,1130.65,165.59z"/>
		</g>
		<g>
			<path class="st1" d="M1139.19,141.46c0,0-45.62-29.24-49.33-31.63c-8.43-5.43-12.99-7.05-14.44-4.48l0,0
				c-1.45,2.57,2.3,5.6,11.28,10.08C1090.97,117.57,1139.19,141.46,1139.19,141.46z"/>
		</g>
		<g>
			<path class="st1" d="M1155.47,121.72c0,0-32.87-43.08-35.54-46.6c-6.07-7.99-9.79-11.07-12.04-9.15l0,0
				c-2.25,1.92,0.25,6.05,7.15,13.33C1118.33,82.77,1155.47,121.72,1155.47,121.72z"/>
		</g>
		<g>
			<path class="st1" d="M1177.52,108.74c0,0-16.15-51.72-17.46-55.94c-2.97-9.58-5.42-13.75-8.18-12.72l0,0
				c-2.77,1.03-1.84,5.77,2.16,14.97C1155.95,59.43,1177.52,108.74,1177.52,108.74z"/>
		</g>
		<g>
			<path class="st1" d="M1202.68,104.08c0,0,2.51-54.13,2.73-58.54c0.49-10.02-0.39-14.78-3.34-14.75l0,0
				c-2.95,0.02-3.7,4.79-3.09,14.81C1199.27,50.37,1202.68,104.08,1202.68,104.08z"/>
		</g>
	</g>
</g>
<g>
	<path class="st0" d="M1170.58,362.75c2.22-1.94,4.44-3.88,6.66-5.82c5.81-5.07,11.61-10.13,17.4-15.23
		c1.69-1.49,3.39-2.98,5.07-4.48c3.98-3.53,7.95-7.07,11.93-10.61c1.45-1.29,3.24-3.01,3.49-4.7c0.23-1.59-1.05-2.16-2.76-1.29
		c-3.09,1.58-5.51,4.44-8.05,6.96c-3.04,3.01-6.05,6.05-9.04,9.11c-4.08,4.18-8.11,8.4-12.08,12.66c-2.11,2.26-4.2,4.52-6.32,6.76
		C1174.77,358.34,1172.64,360.5,1170.58,362.75z"/>
	<path class="st0" d="M1193.62,367.09c-2.95,0.9-5.9,1.81-8.86,2.7c-2.92,0.87-5.85,1.68-8.76,2.6c2.89-0.57,5.78-1.14,8.68-1.71
		c7.56-1.49,15.12-2.97,22.68-4.49c2.21-0.45,4.42-0.89,6.63-1.35c5.21-1.07,10.42-2.15,15.63-3.22c1.91-0.39,4.31-0.99,5.37-2.32
		c1-1.26,0.17-2.39-1.75-2.49c-3.46-0.18-6.99,1.09-10.45,2c-4.14,1.09-8.26,2.21-12.38,3.37
		C1204.79,363.74,1199.19,365.38,1193.62,367.09z"/>
	<path class="st0" d="M1233.25,398.56c-2.91-1.89-6.6-2.55-10.05-3.49c-4.13-1.13-8.26-2.22-12.41-3.27
		c-5.66-1.44-11.33-2.82-17.01-4.13c-3.01-0.7-6.01-1.38-9.02-2.09c-2.97-0.7-5.91-1.47-8.88-2.13c2.79,0.95,5.58,1.9,8.37,2.86
		c7.29,2.49,14.58,4.99,21.89,7.45c2.14,0.72,4.27,1.44,6.41,2.15c5.05,1.68,10.1,3.35,15.15,5.03c1.85,0.61,4.23,1.3,5.81,0.67
		C1235.01,400.99,1234.85,399.6,1233.25,398.56z"/>
	<path class="st0" d="M1205.41,426.68c-3.01-3.04-6.05-6.05-9.11-9.04c-4.18-4.08-8.4-8.11-12.66-12.08
		c-2.26-2.11-4.52-4.2-6.76-6.32c-2.22-2.09-4.38-4.23-6.63-6.29c1.94,2.22,3.88,4.44,5.82,6.66c5.07,5.81,10.13,11.61,15.23,17.4
		c1.49,1.69,2.98,3.39,4.48,5.07c3.53,3.98,7.07,7.95,10.61,11.93c1.29,1.45,3.01,3.24,4.7,3.49c1.59,0.23,2.16-1.05,1.29-2.76
		C1210.79,431.64,1207.93,429.22,1205.41,426.68z"/>
	<path class="st0" d="M1176.2,455.61c0.18-3.46-1.09-6.99-2-10.45c-1.09-4.14-2.21-8.26-3.37-12.38c-1.58-5.62-3.22-11.22-4.92-16.8
		c-0.9-2.95-1.81-5.9-2.7-8.86c-0.88-2.92-1.68-5.85-2.6-8.76c0.57,2.89,1.14,5.78,1.71,8.68c1.49,7.56,2.97,15.12,4.49,22.68
		c0.45,2.21,0.89,4.42,1.35,6.63c1.07,5.21,2.15,10.42,3.22,15.63c0.39,1.91,0.99,4.31,2.32,5.37
		C1174.97,458.35,1176.1,457.52,1176.2,455.61z"/>
	<path class="st0" d="M1139.25,428.5c-0.72,2.14-1.44,4.27-2.15,6.41c-1.68,5.05-3.35,10.1-5.03,15.15
		c-0.61,1.85-1.3,4.23-0.67,5.81c0.6,1.5,1.99,1.34,3.03-0.27c1.89-2.91,2.55-6.6,3.49-10.05c1.12-4.13,2.22-8.26,3.27-12.41
		c1.44-5.66,2.82-11.33,4.13-17.01c0.7-3.01,1.38-6.01,2.09-9.02c0.7-2.97,1.47-5.91,2.13-8.88c-0.95,2.79-1.9,5.58-2.86,8.37
		C1144.21,413.9,1141.71,421.2,1139.25,428.5z"/>
	<path class="st0" d="M1140.05,392.61c-2.22,1.94-4.44,3.88-6.66,5.82c-5.81,5.07-11.61,10.13-17.4,15.23
		c-1.69,1.49-3.39,2.98-5.07,4.48c-3.98,3.53-7.95,7.07-11.93,10.61c-1.45,1.29-3.24,3.01-3.49,4.7c-0.23,1.59,1.05,2.16,2.76,1.29
		c3.09-1.58,5.51-4.44,8.05-6.96c3.04-3.01,6.05-6.05,9.04-9.11c4.08-4.18,8.11-8.4,12.08-12.66c2.11-2.26,4.2-4.52,6.32-6.76
		C1135.85,397.02,1137.99,394.86,1140.05,392.61z"/>
	<path class="st0" d="M1117.01,388.27c2.95-0.9,5.9-1.81,8.86-2.7c2.92-0.87,5.85-1.68,8.76-2.6c-2.89,0.57-5.78,1.14-8.68,1.71
		c-7.56,1.49-15.12,2.97-22.68,4.49c-2.21,0.45-4.42,0.89-6.63,1.35c-5.21,1.07-10.42,2.15-15.63,3.22
		c-1.91,0.39-4.31,0.99-5.37,2.32c-1,1.26-0.17,2.39,1.75,2.49c3.46,0.18,6.99-1.09,10.45-2c4.14-1.09,8.26-2.21,12.38-3.37
		C1105.84,391.62,1111.44,389.97,1117.01,388.27z"/>
	<path class="st0" d="M1087.43,360.29c4.13,1.13,8.26,2.22,12.41,3.27c5.66,1.44,11.33,2.82,17.01,4.13
		c3.01,0.69,6.01,1.38,9.02,2.09c2.97,0.7,5.91,1.47,8.88,2.13c-2.79-0.95-5.58-1.9-8.37-2.86c-7.29-2.49-14.58-4.99-21.89-7.45
		c-2.14-0.72-4.27-1.44-6.41-2.15c-5.05-1.68-10.1-3.35-15.15-5.03c-1.85-0.61-4.23-1.3-5.81-0.67c-1.5,0.6-1.34,1.99,0.27,3.03
		C1080.29,358.69,1083.98,359.35,1087.43,360.29z"/>
	<path class="st0" d="M1105.22,328.68c3.01,3.04,6.05,6.05,9.11,9.04c4.18,4.08,8.4,8.11,12.66,12.08c2.26,2.11,4.52,4.2,6.76,6.32
		c2.22,2.09,4.38,4.23,6.63,6.29c-1.94-2.22-3.88-4.44-5.82-6.66c-5.07-5.81-10.13-11.61-15.23-17.4c-1.49-1.69-2.98-3.39-4.48-5.07
		c-3.53-3.98-7.07-7.95-10.61-11.93c-1.29-1.45-3.01-3.24-4.7-3.49c-1.59-0.23-2.16,1.05-1.29,2.76
		C1099.84,323.72,1102.7,326.14,1105.22,328.68z"/>
	<path class="st0" d="M1134.43,299.75c-0.18,3.46,1.09,6.99,2,10.45c1.09,4.14,2.21,8.26,3.37,12.38c1.58,5.62,3.22,11.22,4.92,16.8
		c0.9,2.95,1.81,5.9,2.7,8.86c0.88,2.92,1.68,5.85,2.6,8.76c-0.57-2.89-1.14-5.78-1.71-8.68c-1.49-7.56-2.97-15.12-4.49-22.68
		c-0.45-2.21-0.89-4.42-1.35-6.63c-1.07-5.21-2.15-10.42-3.22-15.63c-0.39-1.91-0.99-4.31-2.32-5.37
		C1135.66,297,1134.53,297.84,1134.43,299.75z"/>
	<path class="st0" d="M1171.38,326.86c0.72-2.14,1.44-4.27,2.15-6.41c1.68-5.05,3.35-10.1,5.03-15.15c0.61-1.85,1.3-4.23,0.67-5.81
		c-0.6-1.5-1.99-1.34-3.03,0.27c-1.89,2.91-2.55,6.6-3.49,10.05c-1.12,4.13-2.22,8.26-3.27,12.41c-1.44,5.66-2.82,11.33-4.13,17.01
		c-0.7,3.01-1.38,6.01-2.09,9.02c-0.7,2.97-1.47,5.91-2.13,8.88c0.95-2.79,1.9-5.58,2.86-8.37
		C1166.42,341.45,1168.92,334.16,1171.38,326.86z"/>
	<path class="st0" d="M1133.25,292.33c3.29,0.17,3.57-4.94,0.27-5.11C1130.23,287.04,1129.95,292.15,1133.25,292.33z"/>
	<path class="st0" d="M1092.53,313.54c3.29,0.17,3.57-4.94,0.27-5.11C1089.5,308.25,1089.23,313.37,1092.53,313.54z"/>
	<path class="st0" d="M1068.1,349.86c-3.29-0.17-3.57,4.94-0.27,5.11C1071.12,355.15,1071.4,350.04,1068.1,349.86z"/>
	<path class="st0" d="M1069.03,396.92c-3.29-0.17-3.57,4.94-0.27,5.11C1072.05,402.21,1072.33,397.1,1069.03,396.92z"/>
	<path class="st0" d="M1089.4,437.6c-3.29-0.17-3.57,4.94-0.27,5.11C1092.42,442.89,1092.69,437.78,1089.4,437.6z"/>
	<path class="st0" d="M1130.53,462.57c-3.29-0.17-3.57,4.94-0.27,5.11C1133.55,467.86,1133.83,462.74,1130.53,462.57z"/>
	<path class="st0" d="M1177.26,462.47c-3.29-0.17-3.57,4.94-0.27,5.11C1180.28,467.76,1180.56,462.64,1177.26,462.47z"/>
	<path class="st0" d="M1217.24,439.22c-3.29-0.17-3.57,4.94-0.27,5.11C1220.26,444.51,1220.54,439.4,1217.24,439.22z"/>
	<path class="st0" d="M1241.25,400.03c-3.29-0.17-3.57,4.94-0.27,5.11C1244.27,405.32,1244.54,400.2,1241.25,400.03z"/>
	<path class="st0" d="M1243.11,359.39c3.29,0.17,3.57-4.94,0.27-5.11C1240.09,354.1,1239.81,359.21,1243.11,359.39z"/>
	<path class="st0" d="M1220.26,317.15c3.29,0.17,3.57-4.94,0.27-5.11C1217.24,311.86,1216.97,316.98,1220.26,317.15z"/>
	<path class="st0" d="M1180.2,293.38c3.29,0.17,3.57-4.94,0.27-5.11C1177.18,288.09,1176.91,293.21,1180.2,293.38z"/>
	<path class="st0" d="M1181.69,335.15c-0.67-0.43-6.32,7.07-12.62,16.77c-6.3,9.69-10.87,17.91-10.2,18.34s6.32-7.07,12.62-16.77
		C1177.79,343.8,1182.36,335.59,1181.69,335.15z"/>
	
		<ellipse transform="matrix(0.8912 -0.4537 0.4537 0.8912 -36.5603 575.3876)" class="st0" cx="1180.97" cy="363.89" rx="20.94" ry="1.44"/>
	<path class="st0" d="M1205.15,380.07c0.04-0.8-9.28-1.94-20.83-2.55c-11.55-0.61-20.94-0.46-20.98,0.34s9.28,1.94,20.83,2.55
		C1195.71,381.02,1205.11,380.87,1205.15,380.07z"/>
	<path class="st0" d="M1178.95,394.9c9.69,6.3,17.91,10.87,18.34,10.2c0.43-0.67-7.07-6.32-16.77-12.62
		c-9.69-6.3-17.91-10.87-18.34-10.2C1161.75,382.95,1169.26,388.6,1178.95,394.9z"/>
	<path class="st0" d="M1177.98,422.85c0.71-0.36-2.97-9.01-8.21-19.31c-5.25-10.3-10.07-18.36-10.78-18
		c-0.71,0.36,2.97,9.01,8.21,19.31S1177.26,423.21,1177.98,422.85z"/>
	
		<ellipse transform="matrix(0.0527 -0.9986 0.9986 0.0527 685.527 1538.0481)" class="st0" cx="1153.44" cy="407.69" rx="20.94" ry="1.44"/>
	<path class="st0" d="M1137.54,402.37c-6.3,9.69-10.87,17.91-10.2,18.34s6.32-7.07,12.62-16.77c6.3-9.69,10.87-17.91,10.2-18.34
		S1143.84,392.67,1137.54,402.37z"/>
	<path class="st0" d="M1109.59,401.39c0.36,0.71,9.01-2.97,19.31-8.21c10.3-5.25,18.36-10.07,18-10.78s-9.01,2.97-19.31,8.21
		C1117.29,395.85,1109.23,400.68,1109.59,401.39z"/>
	
		<ellipse transform="matrix(0.0527 -0.9986 0.9986 0.0527 689.066 1480.251)" class="st0" cx="1124.75" cy="376.93" rx="1.44" ry="20.94"/>
	<path class="st0" d="M1146.85,373.58c0.43-0.67-7.07-6.32-16.77-12.62c-9.69-6.3-17.91-10.87-18.34-10.2
		c-0.43,0.67,7.07,6.32,16.77,12.62S1146.41,374.24,1146.85,373.58z"/>
	<path class="st0" d="M1150.05,370.32c0.71-0.36-2.97-9.01-8.21-19.31c-5.25-10.3-10.07-18.36-10.78-18s2.97,9.01,8.21,19.31
		C1144.51,362.63,1149.34,370.69,1150.05,370.32z"/>
	<path class="st0" d="M1154.45,369.11c0.8,0.04,1.94-9.28,2.55-20.83c0.61-11.55,0.46-20.94-0.34-20.98
		c-0.8-0.04-1.94,9.28-2.55,20.83C1153.5,359.67,1153.66,369.07,1154.45,369.11z"/>
</g>
<g>
	<path class="st2" d="M1048.06,271.22c1.59-1.39,3.18-2.78,4.77-4.17c4.16-3.63,8.32-7.26,12.46-10.91
		c1.21-1.07,2.43-2.13,3.63-3.21c2.85-2.53,5.7-5.07,8.55-7.6c1.04-0.93,2.32-2.16,2.5-3.37c0.17-1.14-0.75-1.54-1.98-0.92
		c-2.21,1.13-3.95,3.18-5.77,4.99c-2.18,2.16-4.33,4.33-6.47,6.52c-2.92,2.99-5.81,6.02-8.66,9.07c-1.51,1.62-3.01,3.24-4.53,4.85
		C1051.06,268.06,1049.53,269.61,1048.06,271.22z"/>
	<path class="st2" d="M1064.56,274.33c-2.11,0.65-4.23,1.3-6.35,1.93c-2.09,0.63-4.19,1.2-6.27,1.86c2.07-0.41,4.14-0.82,6.22-1.22
		c5.42-1.06,10.84-2.13,16.25-3.22c1.58-0.32,3.17-0.64,4.75-0.97c3.73-0.76,7.47-1.54,11.2-2.31c1.37-0.28,3.09-0.71,3.85-1.67
		c0.72-0.91,0.12-1.71-1.25-1.79c-2.48-0.13-5.01,0.78-7.49,1.43c-2.96,0.78-5.92,1.59-8.87,2.41
		C1072.57,271.93,1068.55,273.11,1064.56,274.33z"/>
	<path class="st2" d="M1092.95,296.87c-2.08-1.35-4.73-1.83-7.2-2.5c-2.96-0.81-5.92-1.59-8.89-2.34
		c-4.05-1.03-8.12-2.02-12.19-2.96c-2.15-0.5-4.31-0.99-6.46-1.5c-2.13-0.5-4.23-1.05-6.36-1.53c2,0.68,4,1.36,6,2.05
		c5.22,1.79,10.45,3.58,15.68,5.34c1.53,0.51,3.06,1.03,4.59,1.54c3.62,1.21,7.24,2.4,10.85,3.6c1.32,0.44,3.03,0.93,4.16,0.48
		C1094.21,298.62,1094.1,297.62,1092.95,296.87z"/>
	<path class="st2" d="M1073.01,317.02c-2.16-2.18-4.33-4.33-6.52-6.47c-2.99-2.92-6.02-5.81-9.07-8.66
		c-1.62-1.51-3.24-3.01-4.85-4.53c-1.59-1.5-3.14-3.03-4.75-4.5c1.39,1.59,2.78,3.18,4.17,4.77c3.63,4.16,7.26,8.32,10.91,12.46
		c1.07,1.21,2.13,2.42,3.21,3.63c2.53,2.85,5.07,5.7,7.6,8.55c0.93,1.04,2.16,2.32,3.37,2.5c1.14,0.17,1.54-0.75,0.92-1.98
		C1076.87,320.57,1074.82,318.84,1073.01,317.02z"/>
	<path class="st2" d="M1052.08,337.74c0.13-2.48-0.78-5.01-1.43-7.49c-0.78-2.96-1.59-5.92-2.41-8.87
		c-1.13-4.03-2.31-8.04-3.53-12.03c-0.65-2.11-1.3-4.23-1.93-6.35c-0.63-2.09-1.2-4.19-1.86-6.27c0.41,2.07,0.82,4.14,1.22,6.22
		c1.06,5.42,2.13,10.84,3.22,16.25c0.32,1.58,0.64,3.17,0.96,4.75c0.76,3.73,1.54,7.47,2.31,11.2c0.28,1.37,0.71,3.09,1.67,3.85
		C1051.2,339.71,1052.01,339.11,1052.08,337.74z"/>
	<path class="st2" d="M1025.61,318.33c-0.51,1.53-1.03,3.06-1.54,4.59c-1.21,3.62-2.4,7.24-3.6,10.85
		c-0.44,1.32-0.93,3.03-0.48,4.16c0.43,1.07,1.42,0.96,2.17-0.19c1.35-2.08,1.83-4.73,2.5-7.2c0.81-2.96,1.59-5.92,2.34-8.89
		c1.03-4.05,2.02-8.12,2.96-12.19c0.5-2.15,0.99-4.31,1.5-6.46c0.5-2.13,1.05-4.23,1.53-6.36c-0.68,2-1.36,4-2.05,6
		C1029.16,307.87,1027.37,313.09,1025.61,318.33z"/>
	<path class="st2" d="M1026.18,292.61c-1.59,1.39-3.18,2.78-4.77,4.17c-4.16,3.63-8.32,7.26-12.46,10.91
		c-1.21,1.07-2.43,2.13-3.63,3.21c-2.85,2.53-5.7,5.07-8.55,7.6c-1.04,0.93-2.32,2.16-2.5,3.37c-0.17,1.14,0.75,1.54,1.98,0.92
		c2.21-1.13,3.95-3.18,5.77-4.99c2.18-2.16,4.33-4.33,6.47-6.52c2.92-2.99,5.81-6.02,8.66-9.07c1.51-1.62,3.01-3.24,4.53-4.85
		C1023.18,295.77,1024.71,294.22,1026.18,292.61z"/>
	<path class="st2" d="M1009.68,289.5c2.11-0.65,4.23-1.3,6.35-1.93c2.09-0.63,4.19-1.2,6.27-1.86c-2.07,0.41-4.14,0.82-6.22,1.22
		c-5.42,1.06-10.84,2.13-16.25,3.22c-1.58,0.32-3.17,0.64-4.75,0.96c-3.73,0.76-7.47,1.54-11.2,2.31c-1.37,0.28-3.09,0.71-3.85,1.67
		c-0.72,0.91-0.12,1.71,1.25,1.79c2.48,0.13,5.01-0.78,7.49-1.43c2.96-0.78,5.92-1.59,8.87-2.41
		C1001.68,291.9,1005.69,290.72,1009.68,289.5z"/>
	<path class="st2" d="M988.49,269.46c2.96,0.81,5.92,1.59,8.89,2.34c4.05,1.03,8.12,2.02,12.19,2.96c2.15,0.5,4.31,0.99,6.46,1.5
		c2.13,0.5,4.23,1.05,6.36,1.53c-2-0.68-4-1.36-6-2.05c-5.22-1.79-10.45-3.58-15.68-5.34c-1.53-0.51-3.06-1.03-4.59-1.54
		c-3.62-1.21-7.24-2.4-10.85-3.6c-1.32-0.44-3.03-0.93-4.16-0.48c-1.07,0.43-0.96,1.42,0.19,2.17
		C983.37,268.31,986.02,268.79,988.49,269.46z"/>
	<path class="st2" d="M1001.23,246.81c2.16,2.18,4.33,4.33,6.52,6.47c2.99,2.92,6.02,5.81,9.07,8.66c1.62,1.51,3.24,3.01,4.85,4.53
		c1.59,1.5,3.14,3.03,4.75,4.5c-1.39-1.59-2.78-3.18-4.17-4.77c-3.63-4.16-7.26-8.32-10.91-12.46c-1.07-1.21-2.13-2.43-3.21-3.63
		c-2.53-2.85-5.07-5.7-7.6-8.55c-0.93-1.04-2.16-2.32-3.37-2.5c-1.14-0.17-1.54,0.75-0.92,1.98
		C997.38,243.26,999.43,244.99,1001.23,246.81z"/>
	<path class="st2" d="M1022.16,226.09c-0.13,2.48,0.78,5.01,1.43,7.49c0.78,2.96,1.59,5.92,2.41,8.87
		c1.13,4.03,2.31,8.04,3.53,12.03c0.65,2.11,1.3,4.23,1.93,6.35c0.63,2.09,1.2,4.19,1.86,6.27c-0.41-2.07-0.82-4.14-1.22-6.22
		c-1.06-5.42-2.13-10.84-3.22-16.25c-0.32-1.58-0.64-3.17-0.97-4.75c-0.76-3.73-1.54-7.47-2.31-11.2c-0.28-1.37-0.71-3.09-1.67-3.85
		C1023.04,224.12,1022.23,224.72,1022.16,226.09z"/>
	<path class="st2" d="M1048.63,245.51c0.51-1.53,1.03-3.06,1.54-4.59c1.21-3.62,2.4-7.24,3.6-10.85c0.44-1.32,0.93-3.03,0.48-4.16
		c-0.43-1.07-1.42-0.96-2.17,0.19c-1.35,2.08-1.83,4.73-2.5,7.2c-0.81,2.96-1.59,5.92-2.34,8.89c-1.03,4.05-2.02,8.12-2.96,12.19
		c-0.5,2.15-0.99,4.31-1.5,6.46c-0.5,2.13-1.05,4.23-1.53,6.36c0.68-2,1.36-4,2.05-6C1045.08,255.96,1046.87,250.74,1048.63,245.51z
		"/>
	<path class="st2" d="M1021.31,220.77c2.36,0.12,2.55-3.54,0.19-3.66C1019.15,216.98,1018.95,220.65,1021.31,220.77z"/>
	<path class="st2" d="M992.14,235.97c2.36,0.12,2.55-3.54,0.19-3.66C989.98,232.18,989.78,235.84,992.14,235.97z"/>
	<path class="st2" d="M974.64,261.99c-2.36-0.12-2.55,3.54-0.19,3.66C976.81,265.78,977,262.11,974.64,261.99z"/>
	<path class="st2" d="M975.31,295.7c-2.36-0.12-2.55,3.54-0.19,3.66C977.47,299.49,977.67,295.83,975.31,295.7z"/>
	<path class="st2" d="M989.9,324.84c-2.36-0.12-2.55,3.54-0.19,3.66C992.06,328.63,992.26,324.97,989.9,324.84z"/>
	<path class="st2" d="M1019.37,342.73c-2.36-0.12-2.55,3.54-0.19,3.66C1021.53,346.52,1021.73,342.85,1019.37,342.73z"/>
	<path class="st2" d="M1052.85,342.66c-2.36-0.12-2.55,3.54-0.19,3.66C1055.01,346.45,1055.21,342.78,1052.85,342.66z"/>
	<path class="st2" d="M1081.48,326c-2.36-0.12-2.55,3.54-0.19,3.66C1083.65,329.79,1083.85,326.13,1081.48,326z"/>
	<path class="st2" d="M1098.68,297.93c-2.36-0.12-2.55,3.54-0.19,3.66C1100.85,301.72,1101.04,298.05,1098.68,297.93z"/>
	<path class="st2" d="M1100.02,268.81c2.36,0.12,2.55-3.54,0.19-3.66C1097.85,265.02,1097.65,268.69,1100.02,268.81z"/>
	<path class="st2" d="M1083.65,238.55c2.36,0.12,2.55-3.54,0.19-3.66C1081.49,234.77,1081.29,238.43,1083.65,238.55z"/>
	<path class="st2" d="M1054.95,221.53c2.36,0.12,2.55-3.54,0.19-3.66C1052.79,217.74,1052.59,221.4,1054.95,221.53z"/>
	<path class="st2" d="M1056.02,251.45c-0.48-0.31-4.53,5.07-9.04,12.01c-4.51,6.95-7.78,12.83-7.31,13.14
		c0.48,0.31,4.53-5.07,9.04-12.01C1053.22,257.64,1056.49,251.76,1056.02,251.45z"/>
	
		<ellipse transform="matrix(0.8912 -0.4537 0.4537 0.8912 -8.5298 508.4855)" class="st2" cx="1055.54" cy="272.02" rx="15" ry="1.03"/>
	<path class="st2" d="M1072.82,283.63c0.03-0.57-6.65-1.39-14.92-1.82c-8.27-0.44-15-0.33-15.03,0.24s6.65,1.39,14.92,1.82
		C1066.06,284.31,1072.79,284.2,1072.82,283.63z"/>
	<path class="st2" d="M1054.06,294.26c6.95,4.51,12.83,7.78,13.14,7.31c0.31-0.48-5.07-4.53-12.01-9.04
		c-6.94-4.51-12.83-7.78-13.14-7.31C1041.73,285.69,1047.11,289.74,1054.06,294.26z"/>
	<path class="st2" d="M1053.36,314.28c0.51-0.26-2.12-6.45-5.88-13.83c-3.76-7.38-7.22-13.16-7.73-12.9s2.12,6.45,5.88,13.83
		C1049.39,308.76,1052.85,314.54,1053.36,314.28z"/>
	
		<ellipse transform="matrix(0.0527 -0.9986 0.9986 0.0527 678.1651 1321.7789)" class="st2" cx="1035.77" cy="303.44" rx="15" ry="1.03"/>
	<path class="st2" d="M1024.39,299.6c-4.51,6.95-7.78,12.83-7.31,13.14c0.48,0.31,4.53-5.07,9.04-12.01
		c4.51-6.95,7.78-12.83,7.31-13.14C1032.95,287.28,1028.9,292.66,1024.39,299.6z"/>
	<path class="st2" d="M1004.37,298.9c0.26,0.51,6.45-2.12,13.83-5.88c7.38-3.76,13.16-7.22,12.9-7.73s-6.45,2.12-13.83,5.88
		C1009.88,294.93,1004.11,298.39,1004.37,298.9z"/>
	
		<ellipse transform="matrix(0.0527 -0.9986 0.9986 0.0527 680.7052 1280.3824)" class="st2" cx="1015.22" cy="281.4" rx="1.03" ry="15"/>
	<path class="st2" d="M1031.05,278.98c0.31-0.48-5.07-4.53-12.01-9.04c-6.95-4.51-12.83-7.78-13.14-7.31
		c-0.31,0.48,5.07,4.53,12.01,9.04C1024.86,276.18,1030.74,279.45,1031.05,278.98z"/>
	<path class="st2" d="M1033.35,276.65c0.51-0.26-2.12-6.45-5.88-13.83c-3.76-7.38-7.22-13.16-7.73-12.9
		c-0.51,0.26,2.12,6.45,5.88,13.83C1029.38,271.13,1032.84,276.91,1033.35,276.65z"/>
	<path class="st2" d="M1036.5,275.78c0.57,0.03,1.39-6.65,1.82-14.92s0.33-15-0.24-15.03s-1.39,6.65-1.82,14.92
		S1035.93,275.75,1036.5,275.78z"/>
</g>
<g>
	<path class="st2" d="M394.36,272.59c1.74-1.52,3.48-3.05,5.23-4.57c4.56-3.98,9.12-7.95,13.65-11.96c1.33-1.17,2.66-2.34,3.98-3.52
		c3.12-2.77,6.24-5.55,9.36-8.33c1.14-1.01,2.55-2.37,2.74-3.69c0.18-1.25-0.83-1.69-2.17-1.01c-2.43,1.24-4.32,3.48-6.32,5.46
		c-2.38,2.36-4.75,4.75-7.09,7.15c-3.2,3.28-6.37,6.6-9.49,9.94c-1.65,1.77-3.3,3.55-4.96,5.31
		C397.65,269.13,395.97,270.83,394.36,272.59z"/>
	<path class="st2" d="M412.44,276c-2.32,0.71-4.63,1.42-6.95,2.12c-2.29,0.69-4.6,1.32-6.88,2.04c2.27-0.45,4.54-0.9,6.81-1.34
		c5.94-1.17,11.87-2.33,17.8-3.53c1.73-0.35,3.47-0.7,5.2-1.06c4.09-0.84,8.18-1.69,12.27-2.53c1.5-0.31,3.39-0.78,4.22-1.82
		c0.78-0.99,0.13-1.88-1.37-1.96c-2.72-0.14-5.49,0.86-8.2,1.57c-3.25,0.86-6.49,1.74-9.72,2.64
		C421.21,273.37,416.82,274.66,412.44,276z"/>
	<path class="st2" d="M443.55,300.7c-2.28-1.48-5.18-2-7.89-2.74c-3.24-0.88-6.49-1.74-9.74-2.57c-4.44-1.13-8.89-2.21-13.35-3.24
		c-2.36-0.55-4.72-1.08-7.08-1.64c-2.33-0.55-4.64-1.16-6.97-1.67c2.19,0.75,4.38,1.49,6.57,2.24c5.72,1.96,11.45,3.92,17.18,5.85
		c1.68,0.56,3.35,1.13,5.03,1.69c3.96,1.32,7.93,2.63,11.89,3.95c1.45,0.48,3.32,1.02,4.56,0.53
		C444.93,302.61,444.81,301.52,443.55,300.7z"/>
	<path class="st2" d="M421.7,322.77c-2.36-2.39-4.75-4.75-7.15-7.09c-3.28-3.2-6.6-6.37-9.94-9.49c-1.77-1.65-3.55-3.3-5.31-4.96
		c-1.74-1.64-3.44-3.32-5.2-4.93c1.52,1.74,3.05,3.48,4.57,5.23c3.98,4.56,7.95,9.12,11.96,13.65c1.17,1.33,2.34,2.66,3.52,3.98
		c2.77,3.13,5.55,6.24,8.33,9.36c1.01,1.14,2.37,2.54,3.69,2.74c1.25,0.18,1.69-0.83,1.01-2.16
		C425.92,326.67,423.68,324.77,421.7,322.77z"/>
	<path class="st2" d="M398.77,345.49c0.14-2.72-0.85-5.49-1.57-8.2c-0.86-3.25-1.74-6.49-2.64-9.72c-1.24-4.41-2.53-8.81-3.87-13.19
		c-0.71-2.32-1.42-4.63-2.12-6.95c-0.69-2.29-1.32-4.6-2.04-6.88c0.45,2.27,0.9,4.54,1.34,6.81c1.17,5.94,2.33,11.87,3.53,17.8
		c0.35,1.73,0.7,3.47,1.06,5.2c0.84,4.09,1.69,8.18,2.53,12.27c0.31,1.5,0.78,3.39,1.82,4.22
		C397.81,347.64,398.69,346.99,398.77,345.49z"/>
	<path class="st2" d="M369.77,324.21c-0.56,1.68-1.13,3.35-1.69,5.03c-1.32,3.96-2.63,7.93-3.95,11.89
		c-0.48,1.45-1.02,3.32-0.53,4.56c0.47,1.17,1.56,1.05,2.38-0.21c1.48-2.28,2-5.18,2.74-7.89c0.88-3.24,1.74-6.49,2.57-9.74
		c1.13-4.44,2.21-8.89,3.24-13.35c0.55-2.36,1.08-4.72,1.64-7.08c0.55-2.33,1.16-4.64,1.67-6.97c-0.75,2.19-1.49,4.38-2.24,6.57
		C373.65,312.75,371.69,318.47,369.77,324.21z"/>
	<path class="st2" d="M370.39,296.03c-1.74,1.52-3.48,3.05-5.23,4.57c-4.56,3.98-9.12,7.95-13.65,11.96
		c-1.33,1.17-2.66,2.34-3.98,3.52c-3.13,2.77-6.24,5.55-9.36,8.33c-1.14,1.01-2.55,2.37-2.74,3.69c-0.18,1.25,0.83,1.69,2.16,1.01
		c2.43-1.24,4.32-3.48,6.32-5.46c2.38-2.36,4.75-4.75,7.09-7.15c3.2-3.28,6.37-6.6,9.49-9.94c1.65-1.77,3.3-3.55,4.96-5.31
		C367.1,299.49,368.78,297.8,370.39,296.03z"/>
	<path class="st2" d="M352.31,292.63c2.32-0.71,4.63-1.42,6.95-2.12c2.29-0.69,4.6-1.32,6.88-2.04c-2.27,0.45-4.54,0.9-6.81,1.34
		c-5.94,1.17-11.87,2.33-17.8,3.53c-1.73,0.35-3.47,0.7-5.2,1.06c-4.09,0.84-8.18,1.69-12.27,2.53c-1.5,0.31-3.39,0.78-4.22,1.82
		c-0.78,0.99-0.13,1.88,1.37,1.96c2.72,0.14,5.49-0.86,8.2-1.57c3.25-0.86,6.49-1.74,9.72-2.64
		C343.54,295.25,347.93,293.96,352.31,292.63z"/>
	<path class="st2" d="M329.09,270.66c3.24,0.88,6.49,1.74,9.74,2.57c4.44,1.13,8.89,2.21,13.35,3.25c2.36,0.55,4.72,1.08,7.08,1.64
		c2.33,0.55,4.64,1.16,6.97,1.67c-2.19-0.75-4.38-1.49-6.57-2.24c-5.72-1.96-11.45-3.92-17.18-5.85c-1.68-0.56-3.35-1.13-5.03-1.69
		c-3.96-1.32-7.93-2.63-11.89-3.95c-1.45-0.48-3.32-1.02-4.56-0.53c-1.17,0.47-1.05,1.56,0.21,2.38
		C323.48,269.4,326.38,269.93,329.09,270.66z"/>
	<path class="st2" d="M343.05,245.85c2.36,2.38,4.75,4.75,7.15,7.09c3.28,3.2,6.6,6.37,9.94,9.49c1.77,1.65,3.55,3.3,5.31,4.96
		c1.74,1.64,3.44,3.32,5.2,4.93c-1.52-1.74-3.05-3.48-4.57-5.23c-3.98-4.56-7.95-9.12-11.96-13.65c-1.17-1.33-2.34-2.66-3.52-3.98
		c-2.77-3.13-5.55-6.24-8.33-9.36c-1.01-1.14-2.37-2.55-3.69-2.74c-1.25-0.18-1.69,0.83-1.01,2.16
		C338.83,241.96,341.07,243.85,343.05,245.85z"/>
	<path class="st2" d="M365.98,223.14c-0.14,2.72,0.85,5.49,1.57,8.2c0.86,3.25,1.74,6.49,2.64,9.72c1.24,4.41,2.53,8.81,3.87,13.19
		c0.71,2.32,1.42,4.63,2.12,6.95c0.69,2.29,1.32,4.6,2.04,6.88c-0.45-2.27-0.9-4.54-1.34-6.81c-1.17-5.94-2.33-11.87-3.53-17.8
		c-0.35-1.73-0.7-3.47-1.06-5.2c-0.84-4.09-1.69-8.18-2.53-12.27c-0.31-1.5-0.78-3.39-1.82-4.22
		C366.94,220.98,366.06,221.64,365.98,223.14z"/>
	<path class="st2" d="M394.98,244.42c0.56-1.68,1.13-3.35,1.69-5.03c1.32-3.96,2.63-7.93,3.95-11.89c0.48-1.45,1.02-3.32,0.53-4.56
		c-0.47-1.18-1.56-1.05-2.38,0.21c-1.48,2.28-2,5.18-2.74,7.89c-0.88,3.24-1.74,6.49-2.57,9.74c-1.13,4.44-2.21,8.89-3.24,13.35
		c-0.55,2.36-1.08,4.72-1.64,7.08c-0.55,2.33-1.16,4.64-1.67,6.97c0.75-2.19,1.5-4.38,2.24-6.57
		C391.09,255.87,393.05,250.15,394.98,244.42z"/>
	<path class="st2" d="M365.05,217.31c2.58,0.14,2.8-3.88,0.21-4.01C362.68,213.16,362.47,217.18,365.05,217.31z"/>
	<path class="st2" d="M333.09,233.97c2.58,0.14,2.8-3.88,0.21-4.01C330.71,229.81,330.5,233.83,333.09,233.97z"/>
	<path class="st2" d="M313.91,262.48c-2.58-0.14-2.8,3.88-0.21,4.01C316.28,266.63,316.5,262.61,313.91,262.48z"/>
	<path class="st2" d="M314.65,299.42c-2.58-0.14-2.8,3.88-0.21,4.01C317.02,303.57,317.23,299.55,314.65,299.42z"/>
	<path class="st2" d="M330.63,331.35c-2.58-0.14-2.8,3.88-0.21,4.01C333,335.5,333.22,331.49,330.63,331.35z"/>
	<path class="st2" d="M362.92,350.95c-2.58-0.14-2.8,3.88-0.21,4.01C365.29,355.1,365.51,351.08,362.92,350.95z"/>
	<path class="st2" d="M399.6,350.87c-2.58-0.14-2.8,3.88-0.21,4.01C401.97,355.02,402.19,351.01,399.6,350.87z"/>
	<path class="st2" d="M430.98,332.62c-2.58-0.14-2.8,3.88-0.21,4.01C433.35,336.77,433.57,332.76,430.98,332.62z"/>
	<path class="st2" d="M449.83,301.86c-2.58-0.14-2.8,3.88-0.21,4.01C452.2,306.01,452.42,301.99,449.83,301.86z"/>
	<path class="st2" d="M451.29,269.95c2.58,0.14,2.8-3.88,0.21-4.01C448.92,265.8,448.7,269.81,451.29,269.95z"/>
	<path class="st2" d="M433.36,236.8c2.58,0.14,2.8-3.88,0.21-4.01C430.99,232.65,430.77,236.66,433.36,236.8z"/>
	<path class="st2" d="M401.91,218.14c2.58,0.14,2.8-3.88,0.21-4.01C399.54,213.99,399.33,218,401.91,218.14z"/>
	<path class="st2" d="M403.08,250.93c-0.52-0.34-4.96,5.55-9.91,13.16c-4.95,7.61-8.53,14.06-8.01,14.4s4.96-5.55,9.91-13.16
		C400.02,257.72,403.6,251.27,403.08,250.93z"/>
	
		<ellipse transform="matrix(0.8912 -0.4537 0.4537 0.8912 -80.3013 212.35)" class="st2" cx="402.44" cy="273.54" rx="16.43" ry="1.13"/>
	<path class="st2" d="M421.49,286.19c0.03-0.63-7.29-1.52-16.35-2s-16.44-0.36-16.47,0.27c-0.03,0.63,7.29,1.52,16.35,2
		C414.08,286.93,421.46,286.82,421.49,286.19z"/>
	<path class="st2" d="M400.93,297.83c7.61,4.95,14.06,8.53,14.4,8.01s-5.55-4.96-13.16-9.91c-7.61-4.95-14.06-8.53-14.4-8.01
		C387.43,288.45,393.32,292.89,400.93,297.83z"/>
	<path class="st2" d="M400.16,319.77c0.56-0.28-2.33-7.07-6.45-15.16c-4.12-8.09-7.91-14.42-8.47-14.13
		c-0.56,0.28,2.33,7.07,6.45,15.16C395.81,313.73,399.6,320.05,400.16,319.77z"/>
	
		<ellipse transform="matrix(0.0527 -0.9986 0.9986 0.0527 53.4096 672.0088)" class="st2" cx="380.91" cy="307.85" rx="16.43" ry="1.13"/>
	<path class="st2" d="M368.42,303.69c-4.95,7.61-8.53,14.06-8.01,14.4s4.96-5.55,9.91-13.16c4.95-7.61,8.53-14.06,8.01-14.4
		C377.8,290.19,373.37,296.08,368.42,303.69z"/>
	<path class="st2" d="M346.49,302.92c0.28,0.56,7.07-2.33,15.16-6.45c8.09-4.12,14.42-7.91,14.13-8.47s-7.07,2.33-15.16,6.45
		C352.53,298.58,346.2,302.37,346.49,302.92z"/>
	
		<ellipse transform="matrix(0.0527 -0.9986 0.9986 0.0527 56.1912 626.6472)" class="st2" cx="358.39" cy="283.71" rx="1.13" ry="16.43"/>
	<path class="st2" d="M375.73,281.09c0.34-0.52-5.55-4.96-13.16-9.91c-7.61-4.95-14.06-8.53-14.4-8.01s5.55,4.96,13.16,9.91
		C368.94,278.03,375.38,281.61,375.73,281.09z"/>
	<path class="st2" d="M378.24,278.54c0.56-0.28-2.33-7.07-6.45-15.16c-4.12-8.09-7.91-14.42-8.47-14.13
		c-0.56,0.28,2.33,7.07,6.45,15.16C373.89,272.49,377.68,278.82,378.24,278.54z"/>
	<path class="st2" d="M381.7,277.58c0.62,0.03,1.52-7.29,2-16.35s0.36-16.44-0.27-16.47c-0.63-0.03-1.52,7.29-2,16.35
		C380.95,270.18,381.07,277.55,381.7,277.58z"/>
</g>
</svg>
