<?xml version="1.0" encoding="utf-8"?>
<!-- Generator: Adobe Illustrator 23.0.3, SVG Export Plug-In . SVG Version: 6.00 Build 0)  -->
<svg version="1.1" id="圖層_1" xmlns="http://www.w3.org/2000/svg" xmlns:xlink="http://www.w3.org/1999/xlink" x="0px" y="0px"
	 viewBox="0 0 1431.98 737.01" style="enable-background:new 0 0 1431.98 737.01;" xml:space="preserve">
<style type="text/css">
	.st0{fill:#F2A38A;}
</style>
<g>
	<polygon class="st0" points="889.02,636.5 889.02,586.49 829.7,586.49 829.7,636.5 821.63,636.5 821.63,608.86 815.13,608.86 
		815.13,598.67 778.51,598.67 778.51,607.93 774.93,607.93 723.19,620.49 723.19,635.63 707.6,635.63 707.6,576.92 668.28,576.92 
		668.28,552.2 611.44,552.2 611.44,615.72 599.28,605.93 578.46,619.17 578.46,635.19 557.32,635.19 557.32,532.61 499.75,532.61 
		499.75,647.2 492.85,647.2 492.85,590.45 486.77,590.45 486.77,584.87 441.36,584.87 441.36,590.45 435.29,590.45 435.29,618.16 
		340.42,618.16 340.5,621.97 439.44,621.97 439.44,594.27 445.52,594.27 445.52,588.69 482.61,588.69 482.61,594.27 488.7,594.27 
		488.7,651.01 503.91,651.01 503.91,536.42 509.04,536.42 509.04,634.39 512.36,634.39 512.36,536.42 518,536.42 518,634.39 
		521.34,634.39 521.34,536.42 527.33,536.42 527.33,634.39 530.65,634.39 530.65,536.42 536.29,536.42 536.29,634.39 539.63,634.39 
		539.63,536.42 544.45,536.42 544.45,634.39 547.79,634.39 547.79,536.42 553.16,536.42 553.16,639.71 557.32,639.98 557.32,639.72 
		582.99,639.72 582.99,621.66 598.97,611.49 611.39,621.5 611.39,638.33 611.44,620.95 615.96,620.95 615.96,556.73 663.75,556.73 
		663.75,637.46 663.8,639.72 668.33,639.72 668.33,581.45 703.08,581.45 703.08,640.16 727.72,640.16 727.72,624.05 775.47,612.46 
		783.04,612.46 783.04,603.19 810.61,603.19 810.61,613.39 817.11,613.39 817.11,641.03 834.23,641.03 834.23,591.02 884.49,591.02 
		884.49,641.03 939.58,641.03 939.58,636.5 	"/>
	<rect x="622.59" y="587.87" class="st0" width="7.18" height="5.98"/>
	<rect x="622.59" y="577.09" class="st0" width="7.18" height="5.96"/>
	<rect x="622.59" y="566.3" class="st0" width="7.18" height="5.97"/>
	<rect x="635.59" y="598.66" class="st0" width="7.18" height="5.96"/>
	<rect x="635.59" y="587.87" class="st0" width="7.18" height="5.98"/>
	<rect x="635.59" y="566.3" class="st0" width="7.18" height="5.97"/>
	<rect x="648.6" y="598.66" class="st0" width="7.18" height="5.96"/>
	<rect x="622.59" y="608.88" class="st0" width="7.18" height="5.96"/>
	<rect x="635.59" y="608.88" class="st0" width="7.18" height="5.96"/>
	<rect x="648.6" y="608.88" class="st0" width="7.18" height="5.96"/>
	<rect x="648.6" y="577.09" class="st0" width="7.18" height="5.96"/>
	<rect x="648.6" y="566.3" class="st0" width="7.18" height="5.97"/>
	<rect x="688.6" y="630.25" class="st0" width="7.18" height="5.96"/>
	<rect x="688.6" y="619.45" class="st0" width="7.18" height="5.98"/>
	<rect x="688.6" y="597.88" class="st0" width="7.18" height="5.97"/>
	<rect x="688.6" y="587.1" class="st0" width="7.18" height="5.98"/>
	<rect x="592.56" y="621.28" class="st0" width="11.28" height="11.28"/>
	<rect x="841.78" y="604.87" class="st0" width="3.48" height="12.68"/>
	<rect x="851.18" y="604.87" class="st0" width="3.5" height="12.68"/>
	<rect x="860.97" y="604.87" class="st0" width="3.48" height="12.68"/>
	<rect x="870.37" y="604.87" class="st0" width="3.5" height="12.68"/>
	<rect x="789.16" y="638.31" class="st0" width="5.04" height="4.99"/>
	<rect x="789.16" y="629.3" class="st0" width="5.04" height="4.99"/>
	<rect x="789.16" y="620.29" class="st0" width="5.04" height="4.99"/>
	<rect x="799.63" y="638.31" class="st0" width="5.04" height="4.99"/>
	<rect x="799.63" y="620.29" class="st0" width="5.04" height="4.99"/>
	<rect x="799.63" y="611.28" class="st0" width="5.04" height="4.99"/>
</g>
<g>
	<path class="st0" d="M464.07,709.92h-17.18v-9.25c0-1.23-1-2.23-2.23-2.23h-16.12v-9.25c0-1.23-1-2.23-2.23-2.23h-67.84
		c0-0.14-0.01-0.28-0.05-0.41l-16.81-59.92l4.21-8.08c0.25-0.47,0.23-1.04-0.05-1.5s-0.77-0.74-1.31-0.74h-13.94v-6.03
		c0-0.84-0.68-1.53-1.53-1.53h-6.82v-5.37h12.13c0.18,0,0.37-0.02,0.54-0.07l19.02-5.26c0.84-0.23,1.43-0.97,1.49-1.83
		c0.06-0.87-0.44-1.67-1.24-2.01l-37.89-16.08c-0.25-0.11-0.52-0.16-0.8-0.16h-29.19h-54.56h-29.19c-0.27,0-0.54,0.06-0.8,0.16
		l-37.89,16.08c-0.8,0.34-1.3,1.15-1.24,2.01s0.65,1.6,1.49,1.83l19.02,5.26c0.18,0.05,0.36,0.07,0.54,0.07h8v5.37h-5.5
		c-0.84,0-1.53,0.68-1.53,1.53v6.03h-13.94c-0.53,0-1.03,0.28-1.31,0.74c-0.28,0.46-0.3,1.03-0.05,1.5l4.21,8.08l-16.81,59.92
		c-0.04,0.14-0.05,0.28-0.05,0.41H85.89c-1.23,0-2.23,1-2.23,2.23v9.25H67.54c-1.23,0-2.23,1-2.23,2.23v9.25H48.14
		c-1.23,0-2.23,1-2.23,2.23v11.48c0,1.23,1,2.23,2.23,2.23h93.66c0.17,0.04,0.33,0.08,0.51,0.08h45.47h136.87h43.88
		c0.28,0,0.54-0.07,0.79-0.16c0.19,0.05,0.38,0.09,0.58,0.09h94.17c1.23,0,2.23-1,2.23-2.23v-11.48
		C466.3,710.92,465.3,709.92,464.07,709.92z M442.44,709.92h-84.89l-8.07-7.02h92.96L442.44,709.92L442.44,709.92z M424.09,698.44
		h-79.73l-8.07-7.02h87.8L424.09,698.44L424.09,698.44z M351.56,683.03h-48.61v-53.97h33.47L351.56,683.03z M337.8,621.76
		l-0.96,1.84h-33.89v-1.84H337.8z M324.85,614.2v2.11H298.8c-0.84,0-1.53,0.68-1.53,1.53v68.51h-11.85V647.3
		c0-11.05-7.62-20.5-18.28-24.14v-8.96L324.85,614.2L324.85,614.2z M257.43,627.18c12.2,0,22.13,9.02,22.13,20.12v35.58H235.3V647.3
		C235.29,636.21,245.22,627.18,257.43,627.18z M252.9,621.63v-11.98h8.56v11.98h-2.1c-0.64-0.04-1.28-0.07-1.93-0.07
		s-1.29,0.03-1.93,0.07H252.9z M315.02,582.03l32.13,13.63l-13.12,3.63h-22.32l-9.41-4.85l-11.42-12.41L315.02,582.03L315.02,582.03
		z M232.58,582.03h52.77l12.39,13.47l-7.35,3.79h-62.86l-7.35-3.79L232.58,582.03z M170.77,595.66l32.13-13.63h24.13l-11.42,12.41
		l-9.4,4.85H183.9L170.77,595.66z M206.71,603.37c0.33,0,0.65-0.08,0.93-0.23l9.23-4.76l9.23,4.76c0.29,0.15,0.61,0.23,0.93,0.23
		h63.85c0.33,0,0.65-0.08,0.93-0.23l9.23-4.76l9.23,4.76c0.29,0.15,0.61,0.23,0.93,0.23h5.28v5.37h-49.36v-3.03
		c0-0.84-0.68-1.53-1.53-1.53h-16.86c-0.84,0-1.53,0.68-1.53,1.53v3.03h-49.9v-5.37H206.71z M190.28,614.2h56.95v9.14
		c-10.4,3.76-17.79,13.08-17.79,23.96v39.04h-11.58v-68.51c0-0.84-0.68-1.53-1.53-1.53h-26.05V614.2z M148.17,721.47l8.79-7.65
		l13.18-11.48l0,0l13.18-11.48c0.02-0.02,0.04-0.05,0.06-0.07h21.77l-18.63,30.68H148.17z M212.18,621.76v1.84h-33.89l-0.96-1.84
		H212.18z M178.71,629.06h33.47v53.97h-48.61L178.71,629.06z M88.12,691.42h87.19l-7.91,7.02H88.12V691.42z M69.77,702.89h92.61
		l-7.91,7.02h-84.7C69.77,709.91,69.77,702.89,69.77,702.89z M50.37,714.37h17.18h81.92l-4.21,3.74l-3.78,3.29H50.37V714.37z
		 M191.73,721.47l18.63-30.68h91.69l18.63,30.68H191.73z M325.9,721.47l-18.63-30.68h20.86l34.54,30.68H325.9z M461.84,721.4h-91.11
		l-8.07-7.02h82h17.18L461.84,721.4L461.84,721.4z"/>
	<path class="st0" d="M172.73,573.5l17.29,3.76c0.14,0.03,0.29,0.05,0.43,0.05h21c0.26,0,0.52-0.05,0.76-0.15l8.48-3.43l8.48,3.43
		c0.24,0.1,0.5,0.15,0.76,0.15h58.05c0.26,0,0.52-0.05,0.76-0.15l8.48-3.43l8.48,3.43c0.24,0.1,0.5,0.15,0.76,0.15h20.99
		c0.15,0,0.29-0.02,0.43-0.05l17.3-3.76c0.94-0.2,1.61-1.03,1.61-1.99s-0.67-1.79-1.61-1.99l-23.08-5.01
		c-19.56-6.87-42.92-17.82-55.39-23.88l-1.5-1.83c0.95-1.3,2.18-3.52,2.19-6.23v-0.01c0-4.11-3.79-7.45-8.46-7.45
		c-4.66,0-8.46,3.34-8.46,7.45c0,0.02,0,0.05,0,0.07c0.02,2.69,1.24,4.88,2.18,6.17l-1.5,1.83c-12.46,6.06-35.83,17.01-55.39,23.88
		l-23.08,5.01c-0.94,0.2-1.61,1.03-1.61,1.99S171.79,573.29,172.73,573.5z M287.59,573.22h-57.26l-5.76-2.33l10.9-9.3l20.45-17.28
		H262l20.45,17.28l10.91,9.31L287.59,573.22z M320.89,568.39c0.08,0.03,0.16,0.05,0.24,0.07l14.03,3.05l-7.91,1.72h-20.38
		l-8.57-3.47l-13.22-11.28l-12.38-10.46C285.88,554.24,304.67,562.7,320.89,568.39z M258.96,529.19c2.37,0,4.38,1.54,4.38,3.37h2.04
		l-2.04,0.01c0,1.74-0.93,3.23-1.52,4h-5.71c-0.6-0.78-1.52-2.26-1.52-4c0-0.02,0-0.03,0-0.05
		C254.61,530.68,256.57,529.19,258.96,529.19z M196.79,568.46c0.08-0.02,0.16-0.04,0.24-0.07c16.22-5.68,35.02-14.15,48.19-20.38
		l-12.39,10.47l-13.21,11.28l-8.57,3.47h-20.38l-7.91-1.72L196.79,568.46z"/>
</g>
<path class="st0" d="M147.7,674.26l-12.91-38.37c-0.23-0.68-0.87-1.14-1.59-1.14s-1.36,0.46-1.59,1.14l-12.91,38.37
	c-0.17,0.51-0.09,1.07,0.23,1.51s0.82,0.7,1.36,0.7h10.6v10.72c0,0.86,0.7,1.56,1.56,1.56h0.6c0.86,0,1.56-0.7,1.56-1.56v-10.72
	h11.51c0.54,0,1.05-0.26,1.36-0.7S147.88,674.77,147.7,674.26z"/>
<path class="st0" d="M1375.53,707.81l-15.45-42.11c-0.27-0.75-1.04-1.25-1.9-1.25s-1.62,0.5-1.9,1.25l-15.45,42.11
	c-0.21,0.56-0.1,1.18,0.27,1.66c0.38,0.48,0.98,0.77,1.63,0.77h14.62c-0.45,0.33-0.74,0.85-0.74,1.44v13.22
	c0,0.98,0.8,1.79,1.79,1.79h0.88c0.98,0,1.79-0.8,1.79-1.79v-13.22c0-0.59-0.29-1.11-0.74-1.44h13.32c0.65,0,1.25-0.29,1.63-0.77
	C1375.64,708.99,1375.74,708.37,1375.53,707.81z M1345.52,706.55l12.66-34.51l12.66,34.51H1345.52z"/>
<path class="st0" d="M1407.52,714.86l-11.93-32.51c-0.21-0.58-0.8-0.97-1.47-0.97s-1.25,0.39-1.47,0.97l-11.93,32.51
	c-0.16,0.43-0.08,0.91,0.21,1.28c0.29,0.37,0.76,0.59,1.26,0.59h9.79v9.02c0,0.76,0.62,1.38,1.38,1.38h0.68
	c0.76,0,1.38-0.62,1.38-1.38v-9.02h10.63c0.5,0,0.97-0.22,1.26-0.59C1407.6,715.77,1407.68,715.29,1407.52,714.86z"/>
<path class="st0" d="M425.98,677.83l-9.84-29.22c-0.18-0.52-0.66-0.87-1.21-0.87s-1.03,0.35-1.21,0.87l-9.84,29.22
	c-0.13,0.39-0.07,0.82,0.17,1.15c0.24,0.33,0.62,0.53,1.04,0.53h8.07v8.16c0,0.65,0.53,1.19,1.19,1.19h0.46
	c0.65,0,1.19-0.53,1.19-1.19v-8.16h8.76c0.41,0,0.8-0.2,1.04-0.53C426.04,678.64,426.11,678.22,425.98,677.83z"/>
<path class="st0" d="M511.55,707.06l-16.49-48.98c-0.29-0.87-1.11-1.46-2.03-1.46s-1.73,0.59-2.03,1.46l-16.49,48.98
	c-0.22,0.65-0.11,1.37,0.29,1.93s1.05,0.89,1.74,0.89h13.54v13.68c0,1.09,0.9,1.99,1.99,1.99h0.77c1.09,0,1.99-0.9,1.99-1.99v-13.68
	h14.69c0.69,0,1.33-0.33,1.74-0.89C511.66,708.43,511.77,707.72,511.55,707.06z M479.53,705.61l13.51-40.14l13.51,40.14H479.53z"/>
<path class="st0" d="M397.9,672.7l-14.31-42.51c-0.25-0.76-0.96-1.26-1.76-1.26c-0.8,0-1.51,0.51-1.76,1.26l-14.31,42.51
	c-0.19,0.57-0.1,1.19,0.25,1.68s0.91,0.77,1.51,0.77h11.75v11.87c0,0.95,0.78,1.73,1.73,1.73h0.67c0.95,0,1.73-0.78,1.73-1.73
	v-11.87h12.75c0.6,0,1.16-0.29,1.51-0.77S398.09,673.26,397.9,672.7z M370.11,671.43l11.72-34.83l11.73,34.83H370.11z"/>
<path class="st0" d="M76.81,689.48l-19.5-57.92c-0.35-1.03-1.31-1.72-2.4-1.72s-2.05,0.69-2.4,1.72l-19.5,57.92
	c-0.26,0.77-0.13,1.62,0.34,2.28c0.47,0.66,1.24,1.05,2.05,1.05h16.01v16.18c0,1.29,1.06,2.35,2.35,2.35h0.91
	c1.29,0,2.35-1.06,2.35-2.35v-16.18h17.37c0.81,0,1.58-0.39,2.05-1.05C76.94,691.1,77.07,690.25,76.81,689.48z M38.94,687.76
	l15.98-47.46l15.98,47.46H38.94z"/>
<g>
	<path class="st0" d="M1195.53,529.1c-1.42,1.37-7.3,6.49-16.7,7.39c-1.09,0.1-1.96,0.97-2.05,2.07c-0.1,1.09,0.6,2.1,1.65,2.4
		c1.18,0.33,20.08,5.52,44.88,5.52c12.8,0,27.17-1.38,41.48-5.53c1-0.29,1.68-1.22,1.65-2.26c-0.03-1.04-0.76-1.93-1.77-2.16
		c-3.65-0.83-13.26-3.58-16.99-6.9v-7.25c0-1.26-1.02-2.28-2.28-2.28h-47.57c-1.26,0-2.28,1.02-2.28,2.28v6.72H1195.53z
		 M1188.97,538.61c4.9-2.04,8.15-4.74,9.53-6.04h45.63c2.62,2.56,7.22,4.6,11.32,6.03C1228.73,544.4,1202.45,541.13,1188.97,538.61z
		 M1200.09,524.67h43.01v3.34h-43.01V524.67z"/>
	<path class="st0" d="M1329.87,578.24h-11.19v-11.43h3.71c1.26,0,2.28-1.02,2.28-2.28v-5.79c0-1.26-1.02-2.28-2.28-2.28
		s-2.28,1.02-2.28,2.28v3.51h-49.74v-3.51c0-1.26-1.02-2.28-2.28-2.28s-2.28,1.02-2.28,2.28v5.79c0,1.26,1.02,2.28,2.28,2.28h3.72
		v11.43h-8.36v-6.07c0-1.26-1.02-2.28-2.28-2.28h-13.11v-13.71h4.57c1.26,0,2.28-1.02,2.28-2.28v-6.62c0-1.26-1.02-2.28-2.28-2.28
		s-2.28,1.02-2.28,2.28v4.34h-57.5v-4.34c0-1.26-1.02-2.28-2.28-2.28s-2.28,1.02-2.28,2.28v6.62c0,1.26,1.02,2.28,2.28,2.28h4.57
		v13.71h-7.32v-12.54c0-1.26-1.02-2.28-2.28-2.28h-18.03V537.3h6.09c1.26,0,2.28-1.02,2.28-2.28v-8.08c0-0.91-0.53-1.68-1.3-2.05
		c11.97-1.72,19.38-3.54,19.58-3.59c1.08-0.27,1.81-1.29,1.72-2.4c-0.09-1.11-0.97-1.99-2.08-2.09c-15.01-1.29-23.71-9.62-23.8-9.7
		c-0.43-0.42-1-0.66-1.6-0.66h-64.75c-0.65,0-1.26,0.27-1.69,0.75c-4.18,4.63-19.22,8.53-24.66,9.64c-1.04,0.21-1.8,1.11-1.82,2.17
		s0.68,2,1.71,2.27c6.37,1.66,12.77,2.94,19.12,3.92c-0.49,0.42-0.81,1.03-0.81,1.73v8.08c0,1.26,1.02,2.28,2.28,2.28h6.09v17.77
		h-18.03c-1.26,0-2.28,1.02-2.28,2.28v12.54h-8.11v-13.71h4.57c1.26,0,2.28-1.02,2.28-2.28v-6.62c0-1.26-1.02-2.28-2.28-2.28
		s-2.28,1.02-2.28,2.28v4.34h-57.5v-4.34c0-0.91-0.53-1.68-1.3-2.05c9.84,1.79,19.46,2.45,28.34,2.45c24.8,0,43.7-5.19,44.88-5.52
		c1.06-0.3,1.75-1.31,1.65-2.4s-0.96-1.96-2.05-2.07c-9.34-0.89-15.27-6.03-16.7-7.39v-6.7c0-1.26-1.02-2.28-2.28-2.28h-47.57
		c-1.26,0-2.28,1.02-2.28,2.28v7.25c-3.73,3.31-13.34,6.07-16.99,6.9c-1.01,0.23-1.74,1.12-1.77,2.16s0.65,1.97,1.65,2.26
		c4.01,1.16,8.02,2.1,12,2.86c-1.19,0.08-2.13,1.06-2.13,2.26v6.62c0,1.26,1.02,2.28,2.28,2.28h4.57v13.71h-13.11
		c-1.26,0-2.28,1.02-2.28,2.28v6.07h-8.36v-11.43h3.71c1.26,0,2.28-1.02,2.28-2.28v-5.79c0-1.26-1.02-2.28-2.28-2.28
		s-2.28,1.02-2.28,2.28v3.51h-49.74v-3.51c0-0.96-0.59-1.77-1.42-2.11c8.61,1.56,17.03,2.14,24.8,2.14
		c21.74,0,38.31-4.55,39.35-4.84c1.06-0.3,1.75-1.31,1.65-2.4s-0.96-1.96-2.05-2.07c-7.93-0.76-13.01-5.04-14.36-6.31v-5.74
		c0-1.26-1.02-2.28-2.28-2.28h-41.62c-1.26,0-2.28,1.02-2.28,2.28v6.2c-2.96,2.53-10.31,4.91-14.65,5.89
		c-1.01,0.23-1.74,1.12-1.77,2.16s0.65,1.97,1.65,2.26c3.57,1.03,7.14,1.87,10.69,2.54c-1.25,0.01-2.26,1.03-2.26,2.28v5.79
		c0,1.26,1.02,2.28,2.28,2.28h3.71v11.43H940.7c-1.26,0-2.28,1.02-2.28,2.28v9.1c0,0.55,0.19,1.05,0.51,1.44v47.9
		c0,1.26,1.02,2.28,2.28,2.28h15.89c1.26,0,2.28-1.02,2.28-2.28v-14.65c0-8.79,7.15-15.94,15.94-15.94s15.94,7.15,15.94,15.94v14.65
		c0,1.26,1.02,2.28,2.28,2.28h15.89c0.09,0,0.18-0.02,0.27-0.03c0.09,0.01,0.18,0.03,0.27,0.03h18.16c1.26,0,2.28-1.02,2.28-2.28
		v-16.74c0-10.22,8.32-18.54,18.54-18.54c10.23,0,18.54,8.32,18.54,18.54v16.74c0,1.26,1.02,2.28,2.28,2.28h18.16
		c0.01,0,0.03,0,0.04,0s0.03,0,0.04,0h22.19c1.26,0,2.28-1.02,2.28-2.28V618.5c0-12.77,10.39-23.16,23.17-23.16
		c12.77,0,23.16,10.39,23.16,23.16v20.46c0,1.26,1.02,2.28,2.28,2.28h21.49h0.71h17.46c1.26,0,2.28-1.02,2.28-2.28v-16.74
		c0-10.22,8.32-18.54,18.54-18.54c10.23,0,18.54,8.32,18.54,18.54v16.74c0,1.26,1.02,2.28,2.28,2.28h18.16
		c0.09,0,0.18-0.02,0.27-0.03c0.09,0.01,0.18,0.03,0.27,0.03h15.89c1.26,0,2.28-1.02,2.28-2.28v-14.65
		c0-8.79,7.15-15.94,15.94-15.94c8.79,0,15.94,7.15,15.94,15.94v14.65c0,1.26,1.02,2.28,2.28,2.28h15.89c1.26,0,2.28-1.02,2.28-2.28
		v-47.9c0.32-0.39,0.51-0.89,0.51-1.44v-9.1C1332.15,579.26,1331.13,578.24,1329.87,578.24z M1104.6,511.02h62.93
		c1.79,1.55,6.82,5.46,14.67,8.05c-18.09,3.17-56.23,7.84-94.75-0.08C1093.47,517.22,1100.82,514.5,1104.6,511.02z M1099.67,525.7
		c11.5,1.59,22.77,2.2,33.29,2.2c15.09,0,28.64-1.25,39.13-2.67c-0.47,0.42-0.78,1.02-0.78,1.7v5.8h-71.28v-5.8
		C1100.04,526.48,1099.9,526.05,1099.67,525.7z M1027.47,525.89h43.01v3.34h-43.01V525.89z M1026.45,533.79h45.63
		c1.38,1.3,4.63,4,9.53,6.04c-13.48,2.52-39.76,5.79-66.47-0.01C1019.22,538.38,1023.83,536.34,1026.45,533.79z M956.79,539.7h37.06
		v2.35h-37.06V539.7z M955.73,546.61h39.7c1.18,1.1,3.72,3.19,7.48,4.89c-11.85,2.14-33.76,4.69-56.16,0.03
		C950.06,550.31,953.59,548.65,955.73,546.61z M1327.59,586.87h-64.69v-2.83c0.29-0.34,0.48-0.77,0.52-1.24h10.66h42.31h11.19v4.07
		H1327.59z M1276.37,566.95h37.75v11.29h-37.75V566.95z M1258.89,579.06c-0.17,0.21-0.31,0.44-0.41,0.7h-72.88v-5.3h11.82h48.36
		h13.11L1258.89,579.06L1258.89,579.06z M1179.8,571.68c-0.03,0.16-0.06,0.32-0.06,0.49v10.4c0,0.59,0.22,1.12,0.58,1.52v52.59
		h-4.69v-64.99h4.17V571.68z M1199.7,556.34h43.8v13.55h-43.8V556.34z M1108.41,537.49h54.53v17.57h-54.53V537.49z M1106.13,559.63
		L1106.13,559.63h59.1l0,0h18.02v7.5h-95.14v-7.5H1106.13z M1027.07,556.34h43.8v13.55h-43.8V556.34z M1024.79,574.45h48.36h12.61
		v5.3h-73.67c-0.09-0.26-0.23-0.49-0.41-0.7v-4.6H1024.79z M956.45,566.95h37.75v11.29h-37.75V566.95z M954.17,582.8h42.31h10.66
		c0.05,0.47,0.23,0.9,0.52,1.24v2.83h-64.69v-4.07H954.17z M995.83,636.68v-12.37c0-11.3-9.2-20.5-20.5-20.5s-20.5,9.2-20.5,20.5
		v12.37H943.5v-45.24h63.66v45.24H995.83z M1072.08,636.68v-14.46c0-12.74-10.36-23.1-23.1-23.1s-23.1,10.36-23.1,23.1v14.46h-13.6
		v-52.36h73.41v52.36H1072.08z M1090.32,583.98c0.31-0.39,0.5-0.88,0.5-1.42v-10.4c0-0.17-0.02-0.33-0.05-0.49h4.61v64.99h-5.06
		L1090.32,583.98L1090.32,583.98z M1135.68,590.77c-15.29,0-27.73,12.44-27.73,27.73v18.18h-8.01v-64.99h71.13v64.99h-7.67V618.5
		C1163.41,603.21,1150.97,590.77,1135.68,590.77z M1244.7,636.68v-14.46c0-12.74-10.36-23.1-23.1-23.1s-23.1,10.36-23.1,23.1v14.46
		h-12.89v-52.36h72.7v52.36H1244.7z M1315.75,636.68v-12.37c0-11.3-9.2-20.5-20.5-20.5s-20.5,9.2-20.5,20.5v12.37h-11.33v-45.24
		h63.66v45.24H1315.75z"/>
	<path class="st0" d="M1332.98,548.3c-4.34-0.99-11.68-3.37-14.65-5.89v-6.2c0-1.26-1.02-2.28-2.28-2.28h-41.62
		c-1.26,0-2.28,1.02-2.28,2.28v5.75c-1.34,1.27-6.37,5.54-14.36,6.31c-1.09,0.1-1.96,0.97-2.05,2.07c-0.1,1.09,0.6,2.1,1.65,2.4
		c1.04,0.29,17.6,4.84,39.35,4.84c11.22,0,23.82-1.21,36.37-4.85c1-0.29,1.68-1.22,1.65-2.26
		C1334.73,549.42,1334,548.53,1332.98,548.3z M1276.71,538.48h37.06v2.35h-37.06V538.48z M1267.67,550.28
		c3.75-1.7,6.29-3.79,7.48-4.89h39.7c2.14,2.04,5.67,3.7,8.99,4.92C1301.43,554.97,1279.51,552.42,1267.67,550.28z"/>
</g>
<path class="st0" d="M1398.09,641.11c6.75-0.03,0.03-5.12,0.03-5.12c-13.22-18.41-6.78-35.12-0.67-38.31
	c0.66-0.34,1.3-0.53,1.93-0.55c6.41-0.16,4.17-6.36,4.17-6.36c2.39-0.35,0.27-1.72,0.27-1.72c2.72-0.35,0.28-1.57,0.28-1.57l1.2-3.3
	c3.24,1.05,2.94-4.34-0.15-5.98c-3.09-1.62-5.77-5.82-5.87-9.8c-0.05-1.94-0.08-3.27-0.41-4.14c-0.33-0.91-0.99-1.3-2.3-1.34
	c-2.57-0.08-4.66-0.16-7-3.94c-1.81-2.92-4.76-5.05-8.9-5.59c-1.2-0.17-2.51-0.18-3.92-0.05c-1.14,0.11-2.06,0.06-2.83-0.06
	c-3.45-0.62-3.52-3.19-3.52-3.19c-7.83,0.91-6.27-6.67-6.27-6.67s-5.38,2.7-8.19,5.9c-2.8,3.2-4.62,7.8-4.65,12.78
	c-0.03,4.98,5.57,3.98,5.94,6.25c0.38,2.27,2.11,7.19,4.55,8.27c2.43,1.08,2.61,1.78,4.75,4.85c2.14,3.08,5.63-0.56,5.74,3.56
	c0.09,3.51,3.32,6.38,4.27,7.14c0.16,0.14,0.26,0.21,0.26,0.21s-0.11,1.92-0.59,8.33c-0.48,6.42-11.93,23.07-30.28,27.09
	c-18.35,4.03-19.59,13.38-19.59,13.38L1398.09,641.11z"/>
<path class="st0" d="M1346.64,706.58h-28.76c-0.11-0.13-0.21-0.26-0.32-0.39c-1.23-1.42-2.5-2.8-3.8-4.17h31.49
	c1.36,0,2.46-0.89,2.46-1.99s-1.1-1.99-2.46-1.99h-35.42c-28.71-27.82-71.79-44.17-117.64-44.17c-45.9,0-88.94,16.33-117.65,44.17
	h-30.96c-28.71-27.82-71.79-44.17-117.64-44.17c-45.9,0-88.94,16.33-117.65,44.17H774c-28.71-27.82-71.8-44.17-117.64-44.17
	c-45.9,0-88.94,16.33-117.65,44.17h-28.59c-1.36,0-2.46,0.89-2.46,1.99s1.1,1.99,2.46,1.99h24.67c-1.41,1.49-2.8,3.01-4.13,4.56
	h-20.55c-1.36,0-2.46,0.89-2.46,1.99s1.1,1.99,2.46,1.99h17.28c-2.9,3.69-5.57,7.52-7.93,11.42c-0.6,0.99-0.09,2.18,1.13,2.66
	c0.35,0.14,0.72,0.2,1.08,0.2c0.91,0,1.78-0.41,2.21-1.11c2.75-4.53,5.92-8.94,9.41-13.17h22.8c-0.43,0.58-0.87,1.15-1.29,1.74
	c-2.8,3.9-5.36,7.99-7.63,12.17c-0.55,1.01,0.02,2.18,1.27,2.62c0.32,0.11,0.66,0.17,0.99,0.17c0.95,0,1.85-0.45,2.26-1.19
	c2.19-4.05,4.67-8.01,7.38-11.77c0.91-1.27,1.86-2.51,2.82-3.74h188.97c0.84,1.07,1.67,2.16,2.48,3.27
	c2.29,3.16,4.43,6.46,6.36,9.81c0.57,1,2.04,1.43,3.27,0.97c1.23-0.46,1.77-1.65,1.2-2.64c-1.99-3.47-4.21-6.88-6.58-10.15
	c-0.31-0.42-0.63-0.83-0.94-1.25h22.81c2.91,3.52,5.6,7.18,8,10.92c0.31,0.48,0.82,0.81,1.41,0.97c-0.23,0.87,0.29,1.78,1.32,2.19
	c0.35,0.14,0.72,0.2,1.08,0.2c0.91,0,1.78-0.41,2.21-1.11c2.75-4.53,5.92-8.95,9.41-13.17h22.8c-0.43,0.58-0.87,1.15-1.29,1.74
	c-2.8,3.9-5.36,7.99-7.63,12.17c-0.55,1.01,0.02,2.18,1.27,2.62c0.32,0.11,0.66,0.17,0.99,0.17c0.95,0,1.85-0.45,2.26-1.19
	c2.19-4.05,4.67-8.01,7.38-11.77c0.91-1.27,1.86-2.51,2.82-3.74h188.97c0.84,1.07,1.67,2.16,2.48,3.27
	c2.29,3.16,4.43,6.46,6.36,9.81c0.57,1,2.04,1.43,3.27,0.97s1.77-1.65,1.2-2.64c-1.99-3.47-4.21-6.88-6.58-10.15
	c-0.31-0.42-0.63-0.83-0.94-1.25H1049c2.63,3.19,5.07,6.48,7.28,9.85c-0.33,0.52-0.68,1.04-1,1.57c-0.6,0.99-0.09,2.18,1.13,2.66
	c0.35,0.14,0.72,0.2,1.08,0.2c0.91,0,1.78-0.41,2.21-1.11c0.33-0.54,0.69-1.08,1.03-1.62c0.54-0.35,0.85-0.87,0.9-1.41
	c2.27-3.47,4.78-6.86,7.48-10.14h22.8c-0.43,0.58-0.87,1.15-1.29,1.74c-2.8,3.9-5.36,7.99-7.63,12.17
	c-0.55,1.01,0.02,2.18,1.27,2.62c0.32,0.11,0.66,0.17,0.99,0.17c0.95,0,1.85-0.45,2.26-1.19c2.19-4.05,4.67-8.01,7.38-11.77
	c0.91-1.27,1.86-2.51,2.82-3.74h188.97c0.84,1.07,1.67,2.16,2.48,3.27c2.29,3.16,4.43,6.46,6.36,9.81c0.57,1,2.04,1.43,3.27,0.97
	s1.77-1.65,1.2-2.64c-1.99-3.47-4.21-6.88-6.58-10.15c-0.31-0.42-0.63-0.83-0.94-1.25h22.81c2.91,3.52,5.6,7.18,8,10.92
	c0.63,0.98,2.11,1.36,3.32,0.85s1.68-1.71,1.05-2.68c-1.98-3.09-4.17-6.13-6.49-9.09h25.5c1.36,0,2.46-0.89,2.46-1.99
	C1349.1,707.47,1348,706.58,1346.64,706.58z M1311.83,706.58h-22.48c-1.2-1.47-2.44-2.9-3.7-4.31c0.04-0.08,0.07-0.17,0.1-0.25
	h21.75C1308.99,703.51,1310.43,705.03,1311.83,706.58z M656.36,665.57c31.44,0,61.22,11.87,83.06,32.47H573.3
	C595.13,677.43,624.88,665.57,656.36,665.57z M745.09,681.86v15.46c-4.21-4.15-8.71-7.99-13.49-11.48c0.16-0.26,0.26-0.56,0.26-0.87
	v-10.62c4.58,2.17,9.01,4.54,13.28,7.1C745.11,681.59,745.09,681.73,745.09,681.86z M726.95,672.23v10.38
	c-4.34-2.87-8.87-5.48-13.56-7.8c0.21-0.29,0.33-0.62,0.33-0.98v-6.76c4.52,1.51,8.93,3.21,13.24,5.07
	C726.95,672.17,726.95,672.2,726.95,672.23z M708.8,672.67c-4.3-1.91-8.73-3.59-13.25-5.03c0.01-0.06,0.02-0.12,0.02-0.19v-5.39
	c4.48,0.98,8.9,2.12,13.23,3.43V672.67z M690.65,666.19c-4.33-1.19-8.75-2.15-13.22-2.88v-4.25c4.46,0.51,8.87,1.18,13.22,2V666.19z
	 M672.5,662.6c-4.51-0.56-9.08-0.89-13.68-0.98v-3.74c4.6,0.06,9.16,0.29,13.68,0.68V662.6z M653.9,661.63
	c-4.45,0.08-8.86,0.39-13.23,0.91v-4.01c4.37-0.37,8.78-0.59,13.23-0.64V661.63z M635.75,663.23c-4.48,0.72-8.89,1.65-13.23,2.82
	v-5.08c4.35-0.81,8.77-1.47,13.23-1.97V663.23z M617.6,667.49c-4.52,1.41-8.93,3.07-13.23,4.96v-7.1c4.33-1.29,8.74-2.42,13.23-3.39
	v5.49C617.6,667.47,617.6,667.48,617.6,667.49z M599.67,674.64c-4.65,2.28-9.14,4.83-13.45,7.65v-10.06c0-0.1-0.02-0.19-0.04-0.29
	c4.31-1.85,8.73-3.54,13.26-5.05v6.93C599.45,674.11,599.53,674.39,599.67,674.64z M581.44,685.61c-4.72,3.43-9.19,7.19-13.36,11.27
	v-15.02c0-0.22-0.06-0.44-0.14-0.64c4.29-2.56,8.76-4.92,13.37-7.08v10.84C581.3,685.2,581.35,685.41,581.44,685.61z M569.29,702.02
	h174.13c1.42,1.48,2.81,3,4.15,4.56H565.14C566.48,705.02,567.87,703.5,569.29,702.02z M749.82,702.28c0.04-0.08,0.07-0.17,0.1-0.25
	h21.75c1.49,1.49,2.93,3.01,4.33,4.56h-22.48C752.32,705.11,751.09,703.68,749.82,702.28z M781.73,706.19
	c-1.23-1.42-2.5-2.8-3.8-4.17h26.43c-1.41,1.49-2.8,3.01-4.13,4.56h-18.18C781.94,706.45,781.84,706.32,781.73,706.19z
	 M810.62,702.02h22.08c-1.35,1.49-2.67,3-3.94,4.56h-22.47C807.68,705.03,809.13,703.51,810.62,702.02z M925.93,665.57
	c31.44,0,61.22,11.87,83.07,32.47H842.86C864.7,677.43,894.45,665.57,925.93,665.57z M1014.66,681.86v15.46
	c-4.21-4.15-8.71-7.99-13.48-11.48c0.16-0.26,0.26-0.56,0.26-0.87v-10.62c4.58,2.17,9.01,4.54,13.28,7.1
	C1014.68,681.59,1014.66,681.73,1014.66,681.86z M996.52,672.23v10.38c-4.34-2.87-8.87-5.48-13.56-7.8
	c0.21-0.29,0.33-0.62,0.33-0.98v-6.76c4.52,1.51,8.94,3.21,13.24,5.07C996.53,672.17,996.52,672.2,996.52,672.23z M978.37,672.67
	c-4.3-1.91-8.73-3.59-13.25-5.03c0.01-0.06,0.02-0.12,0.02-0.19v-5.39c4.48,0.98,8.9,2.12,13.23,3.43V672.67z M960.22,666.19
	c-4.33-1.19-8.75-2.15-13.23-2.88v-4.25c4.46,0.51,8.87,1.18,13.23,2V666.19z M942.07,662.6c-4.51-0.56-9.08-0.89-13.68-0.98v-3.74
	c4.6,0.06,9.16,0.29,13.68,0.68V662.6z M923.47,661.63c-4.45,0.08-8.86,0.39-13.23,0.91v-4.01c4.37-0.37,8.78-0.59,13.23-0.64
	V661.63z M905.32,663.23c-4.48,0.72-8.89,1.65-13.22,2.82v-5.08c4.35-0.81,8.76-1.47,13.22-1.97V663.23z M887.17,667.49
	c-4.52,1.41-8.93,3.07-13.23,4.96v-7.1c4.33-1.29,8.74-2.42,13.23-3.39v5.49C887.17,667.47,887.17,667.48,887.17,667.49z
	 M869.24,674.64c-4.65,2.28-9.14,4.83-13.44,7.65v-10.06c0-0.1-0.02-0.19-0.04-0.29c4.31-1.85,8.73-3.54,13.26-5.05v6.93
	C869.02,674.11,869.1,674.39,869.24,674.64z M851.01,685.61c-4.72,3.43-9.19,7.19-13.36,11.27v-15.02c0-0.22-0.06-0.44-0.14-0.64
	c4.29-2.56,8.76-4.92,13.37-7.08v10.84C850.87,685.2,850.93,685.41,851.01,685.61z M838.86,702.02h174.13
	c1.42,1.48,2.81,3,4.15,4.56H834.71C836.05,705.02,837.44,703.5,838.86,702.02z M1019.39,702.28c0.04-0.08,0.07-0.17,0.1-0.25h21.75
	c1.49,1.49,2.93,3.01,4.33,4.56h-22.48C1021.89,705.11,1020.66,703.68,1019.39,702.28z M1051.3,706.19c-1.23-1.42-2.5-2.8-3.8-4.17
	h23.12c-1.41,1.49-2.8,3.01-4.13,4.56h-14.87C1051.51,706.45,1051.41,706.32,1051.3,706.19z M1076.88,702.02h22.08
	c-1.35,1.49-2.67,3-3.94,4.56h-22.47C1073.94,705.03,1075.39,703.51,1076.88,702.02z M1192.19,665.57
	c31.44,0,61.22,11.87,83.06,32.47h-166.13C1130.96,677.43,1160.71,665.57,1192.19,665.57z M1280.92,681.86v15.46
	c-4.21-4.15-8.71-7.99-13.49-11.48c0.16-0.26,0.26-0.56,0.26-0.87v-10.62c4.58,2.17,9.01,4.54,13.28,7.1
	C1280.94,681.59,1280.92,681.73,1280.92,681.86z M1262.77,672.23v10.38c-4.34-2.87-8.87-5.48-13.56-7.8
	c0.21-0.29,0.33-0.62,0.33-0.98v-6.76c4.52,1.51,8.94,3.21,13.24,5.07C1262.78,672.17,1262.77,672.2,1262.77,672.23z
	 M1244.62,672.67c-4.3-1.91-8.72-3.59-13.25-5.03c0.01-0.06,0.02-0.12,0.02-0.19v-5.39c4.48,0.98,8.9,2.12,13.22,3.43v7.18
	L1244.62,672.67L1244.62,672.67z M1226.48,666.19c-4.33-1.19-8.75-2.15-13.23-2.88v-4.25c4.46,0.51,8.87,1.18,13.23,2V666.19z
	 M1208.33,662.6c-4.51-0.56-9.08-0.89-13.68-0.98v-3.74c4.6,0.06,9.16,0.29,13.68,0.68V662.6z M1189.72,661.63
	c-4.45,0.08-8.86,0.39-13.23,0.91v-4.01c4.37-0.37,8.78-0.59,13.23-0.64V661.63z M1171.58,663.23c-4.48,0.72-8.89,1.65-13.23,2.82
	v-5.08c4.35-0.81,8.77-1.47,13.23-1.97V663.23z M1153.43,667.49c-4.52,1.41-8.93,3.07-13.23,4.96v-7.1
	c4.33-1.29,8.74-2.42,13.23-3.39v5.49C1153.43,667.47,1153.43,667.48,1153.43,667.49z M1135.5,674.64
	c-4.65,2.28-9.14,4.83-13.44,7.65v-10.06c0-0.1-0.02-0.19-0.04-0.29c4.31-1.85,8.73-3.54,13.26-5.05v6.93
	C1135.28,674.11,1135.36,674.39,1135.5,674.64z M1117.27,685.61c-4.72,3.43-9.19,7.19-13.36,11.27v-15.02
	c0-0.22-0.06-0.44-0.14-0.64c4.29-2.56,8.76-4.92,13.37-7.08v10.84C1117.13,685.2,1117.18,685.41,1117.27,685.61z M1105.12,702.02
	h174.13c1.42,1.48,2.81,3,4.15,4.56h-182.43C1102.31,705.02,1103.7,703.5,1105.12,702.02z M1285.85,698.04V684.5
	c6.26,4.09,12.11,8.62,17.49,13.54H1285.85z M1098.98,684.21v13.83h-17.95C1086.54,693,1092.55,688.38,1098.98,684.21z
	 M1019.59,698.04V684.5c6.26,4.09,12.11,8.62,17.49,13.54H1019.59z M832.72,684.21v13.83h-17.96
	C820.28,693,826.29,688.38,832.72,684.21z M750.02,698.04V684.5c6.26,4.09,12.11,8.62,17.49,13.54H750.02z M563.15,684.21v13.83
	H545.2C550.71,693,556.72,688.38,563.15,684.21z M541.05,702.02h22.08c-1.35,1.49-2.67,3-3.94,4.56h-22.47
	C538.11,705.03,539.56,703.51,541.05,702.02z M791.14,718.66c-1.8-2.75-3.76-5.46-5.83-8.1h11.65
	C794.89,713.2,792.95,715.91,791.14,718.66z M1059.07,716.2c-1.33-1.91-2.74-3.79-4.19-5.64h8.34
	C1061.77,712.41,1060.4,714.3,1059.07,716.2z"/>
</svg>
