<?xml version="1.0" encoding="utf-8"?>
<!-- Generator: Adobe Illustrator 23.0.3, SVG Export Plug-In . SVG Version: 6.00 Build 0)  -->
<svg version="1.1" id="圖層_1" xmlns="http://www.w3.org/2000/svg" xmlns:xlink="http://www.w3.org/1999/xlink" x="0px" y="0px"
	 viewBox="0 0 1431.98 737.01" style="enable-background:new 0 0 1431.98 737.01;" xml:space="preserve">
<style type="text/css">
	.st0{fill:#EC746B;}
	.st1{fill:#F2A38A;}
	.st2{fill:#F0A085;}
	.st3{fill-rule:evenodd;clip-rule:evenodd;fill:#F2A38A;}
</style>
<g>
	<path class="st0" d="M203.43,145.29c2.4-4.76,4.81-9.51,7.21-14.27c6.29-12.43,12.59-24.85,18.81-37.32
		c1.82-3.64,3.65-7.29,5.45-10.94c4.28-8.61,8.52-17.24,12.79-25.86c1.56-3.15,3.39-7.25,2.66-10.24c-0.69-2.83-3.22-2.9-5.49-0.28
		c-4.11,4.74-6.22,11.17-8.77,17.12c-3.05,7.11-6.03,14.24-8.96,21.39c-4,9.77-7.89,19.58-11.66,29.41
		c-2,5.21-3.98,10.42-6.01,15.62C207.47,135.06,205.36,140.13,203.43,145.29z"/>
	<path class="st0" d="M244.97,136.94c-4.33,3.51-8.66,7.03-13.01,10.53c-4.3,3.45-8.67,6.78-12.91,10.29
		c4.46-2.92,8.92-5.83,13.38-8.75c11.66-7.62,23.33-15.23,34.95-22.91c3.4-2.25,6.81-4.48,10.19-6.75c8.01-5.32,16-10.67,24.01-16
		c2.93-1.95,6.56-4.58,7.42-7.54c0.82-2.8-1.34-4.12-4.62-2.99c-5.93,2.05-10.97,6.56-16.15,10.44
		c-6.19,4.63-12.35,9.31-18.45,14.04C261.43,123.75,253.16,130.3,244.97,136.94z"/>
	<path class="st0" d="M332.71,162.78c-6.16-1.19-12.78,0.2-19.21,0.97c-7.68,0.91-15.35,1.89-23,2.93
		c-10.46,1.42-20.9,2.96-31.3,4.61c-5.51,0.87-11.01,1.76-16.53,2.61c-5.45,0.83-10.9,1.54-16.33,2.46
		c5.32-0.3,10.64-0.59,15.96-0.89c13.91-0.77,27.82-1.53,41.73-2.37c4.07-0.25,8.14-0.48,12.2-0.75c9.6-0.6,19.19-1.24,28.79-1.85
		c3.51-0.22,7.97-0.69,10.19-2.82C337.32,165.67,336.11,163.44,332.71,162.78z"/>
	<path class="st0" d="M305.14,228.77c-7.11-3.05-14.24-6.04-21.39-8.96c-9.77-4-19.58-7.89-29.41-11.66
		c-5.21-2-10.42-3.98-15.62-6.01c-5.13-2-10.21-4.11-15.37-6.04c4.76,2.4,9.51,4.81,14.27,7.21c12.43,6.29,24.85,12.59,37.32,18.81
		c3.64,1.82,7.29,3.65,10.94,5.45c8.61,4.28,17.24,8.52,25.86,12.79c3.15,1.56,7.25,3.39,10.24,2.66c2.83-0.69,2.9-3.22,0.28-5.49
		C317.53,233.43,311.09,231.32,305.14,228.77z"/>
	<path class="st0" d="M275.83,297.06c-2.05-5.93-6.56-10.97-10.44-16.15c-4.63-6.19-9.31-12.35-14.04-18.46
		c-6.46-8.35-13.01-16.62-19.64-24.8c-3.51-4.33-7.03-8.66-10.53-13.01c-3.45-4.3-6.79-8.67-10.29-12.91
		c2.92,4.46,5.83,8.92,8.75,13.38c7.62,11.66,15.23,23.33,22.91,34.95c2.25,3.4,4.48,6.81,6.75,10.19c5.32,8.01,10.67,16,16,24.01
		c1.95,2.93,4.58,6.56,7.54,7.42C275.63,302.49,276.96,300.33,275.83,297.06z"/>
	<path class="st0" d="M195.54,276.7c0.25,4.07,0.48,8.14,0.75,12.2c0.6,9.6,1.24,19.19,1.85,28.79c0.22,3.51,0.69,7.97,2.82,10.19
		c2.01,2.1,4.24,0.9,4.9-2.5c1.19-6.16-0.2-12.78-0.97-19.21c-0.91-7.68-1.89-15.35-2.93-23c-1.42-10.46-2.96-20.9-4.61-31.3
		c-0.87-5.51-1.76-11.01-2.61-16.53c-0.84-5.45-1.54-10.9-2.46-16.33c0.3,5.32,0.59,10.64,0.89,15.96
		C193.94,248.89,194.7,262.79,195.54,276.7z"/>
	<path class="st0" d="M172.54,216.03c-2.4,4.76-4.81,9.51-7.21,14.27c-6.29,12.43-12.59,24.85-18.81,37.32
		c-1.82,3.64-3.65,7.29-5.45,10.94c-4.28,8.61-8.52,17.24-12.79,25.86c-1.56,3.15-3.39,7.25-2.66,10.24
		c0.69,2.83,3.22,2.9,5.49,0.28c4.11-4.74,6.22-11.17,8.77-17.12c3.05-7.11,6.03-14.24,8.96-21.39c4-9.77,7.89-19.58,11.66-29.41
		c2-5.21,3.98-10.42,6.01-15.62C168.5,226.26,170.61,221.19,172.54,216.03z"/>
	<path class="st0" d="M131,224.38c4.33-3.51,8.66-7.03,13.01-10.53c4.3-3.45,8.67-6.78,12.91-10.29c-4.46,2.92-8.92,5.83-13.38,8.75
		c-11.66,7.62-23.33,15.23-34.95,22.91c-3.4,2.25-6.81,4.48-10.19,6.75c-8.01,5.32-16,10.67-24.01,16
		c-2.93,1.95-6.56,4.58-7.42,7.54c-0.82,2.8,1.34,4.12,4.62,2.99c5.93-2.05,10.97-6.56,16.15-10.44
		c6.19-4.63,12.35-9.31,18.45-14.04C114.54,237.57,122.81,231.02,131,224.38z"/>
	<path class="st0" d="M62.47,197.57c7.68-0.91,15.35-1.89,23-2.93c10.46-1.42,20.9-2.96,31.3-4.61c5.51-0.88,11.01-1.76,16.53-2.61
		c5.45-0.83,10.9-1.54,16.33-2.46c-5.32,0.3-10.64,0.59-15.96,0.89c-13.91,0.77-27.82,1.53-41.73,2.37
		c-4.07,0.25-8.13,0.48-12.2,0.75c-9.6,0.6-19.19,1.24-28.79,1.85c-3.51,0.22-7.97,0.69-10.19,2.82c-2.1,2.01-0.9,4.24,2.5,4.9
		C49.41,199.73,56.04,198.34,62.47,197.57z"/>
	<path class="st0" d="M70.83,132.55c7.11,3.05,14.24,6.04,21.39,8.96c9.77,4,19.58,7.89,29.41,11.66c5.21,2,10.42,3.98,15.62,6.01
		c5.13,2,10.21,4.11,15.37,6.04c-4.76-2.4-9.51-4.81-14.27-7.21c-12.43-6.29-24.85-12.59-37.32-18.81
		c-3.65-1.82-7.29-3.65-10.94-5.45c-8.61-4.28-17.24-8.52-25.86-12.79c-3.15-1.56-7.25-3.39-10.24-2.66
		c-2.83,0.69-2.9,3.22-0.28,5.49C58.44,127.89,64.88,130,70.83,132.55z"/>
	<path class="st0" d="M100.14,64.26c2.05,5.93,6.56,10.97,10.44,16.15c4.63,6.19,9.31,12.35,14.04,18.46
		c6.46,8.35,13.01,16.62,19.64,24.8c3.51,4.33,7.03,8.66,10.53,13.01c3.45,4.3,6.79,8.67,10.29,12.91
		c-2.92-4.46-5.83-8.92-8.75-13.38c-7.62-11.66-15.23-23.33-22.91-34.95c-2.25-3.4-4.48-6.81-6.75-10.19
		c-5.32-8.01-10.67-16-16-24.01c-1.95-2.93-4.58-6.56-7.54-7.42C100.33,58.83,99.01,60.99,100.14,64.26z"/>
	<path class="st0" d="M180.42,84.62c-0.25-4.07-0.48-8.14-0.75-12.2c-0.6-9.6-1.24-19.19-1.85-28.79
		c-0.22-3.51-0.69-7.97-2.82-10.19c-2.01-2.1-4.24-0.9-4.9,2.5c-1.19,6.16,0.2,12.78,0.97,19.21c0.91,7.68,1.89,15.35,2.93,23
		c1.42,10.46,2.96,20.9,4.61,31.3c0.87,5.51,1.76,11.01,2.61,16.53c0.83,5.45,1.54,10.9,2.46,16.33c-0.3-5.32-0.59-10.64-0.89-15.96
		C182.02,112.44,181.26,98.53,180.42,84.62z"/>
	<path class="st0" d="M93.13,52.63c5.63-1.94,2.62-10.7-3.02-8.75C84.48,45.82,87.49,54.58,93.13,52.63z"/>
	<path class="st0" d="M39.29,115.79c5.63-1.94,2.62-10.7-3.02-8.75C30.64,108.98,33.65,117.74,39.29,115.79z"/>
	<path class="st0" d="M23,193.21c-5.63,1.94-2.62,10.7,3.02,8.75C31.65,200.02,28.64,191.26,23,193.21z"/>
	<path class="st0" d="M56.48,271.42c-5.63,1.94-2.62,10.7,3.02,8.75C65.13,278.23,62.13,269.47,56.48,271.42z"/>
	<path class="st0" d="M118.19,325.76c-5.63,1.94-2.62,10.7,3.02,8.75C126.83,332.57,123.83,323.82,118.19,325.76z"/>
	<path class="st0" d="M204.04,339.69c-5.63,1.94-2.62,10.7,3.02,8.75C212.68,346.5,209.68,337.74,204.04,339.69z"/>
	<path class="st0" d="M282.26,307.83c-5.63,1.94-2.62,10.7,3.02,8.75C290.91,314.64,287.9,305.89,282.26,307.83z"/>
	<path class="st0" d="M333.47,241.77c-5.63,1.94-2.62,10.7,3.02,8.75C342.12,248.58,339.11,239.82,333.47,241.77z"/>
	<path class="st0" d="M347.11,159.83c-5.63,1.94-2.62,10.7,3.02,8.75C355.76,166.64,352.75,157.88,347.11,159.83z"/>
	<path class="st0" d="M322.66,90.47c5.63-1.94,2.62-10.7-3.02-8.75C314.02,83.66,317.02,92.41,322.66,90.47z"/>
	<path class="st0" d="M255.75,35.2c5.63-1.94,2.62-10.7-3.02-8.75C247.1,28.39,250.11,37.15,255.75,35.2z"/>
	<path class="st0" d="M172.51,22.55c5.63-1.94,2.62-10.7-3.02-8.75C163.87,15.74,166.87,24.49,172.51,22.55z"/>
	<path class="st0" d="M203.33,91.53c-1.41-0.27-5.79,16.13-9.77,36.65c-3.98,20.52-6.06,37.37-4.65,37.64
		c1.41,0.27,5.79-16.13,9.77-36.65C202.66,108.65,204.74,91.8,203.33,91.53z"/>
	
		<ellipse transform="matrix(0.6558 -0.7549 0.7549 0.6558 -29.8211 215.4246)" class="st0" cx="221.35" cy="140.42" rx="37.84" ry="2.61"/>
	<path class="st0" d="M273.1,150.87c-0.47-1.36-16.87,3.05-36.62,9.86c-19.76,6.81-35.39,13.43-34.92,14.8
		c0.47,1.36,16.87-3.05,36.62-9.86C257.93,158.86,273.57,152.24,273.1,150.87z"/>
	<path class="st0" d="M239.27,193.49c20.52,3.98,37.37,6.06,37.64,4.65c0.27-1.41-16.13-5.79-36.65-9.77
		c-20.52-3.98-37.37-6.06-37.64-4.65C202.35,185.13,218.75,189.51,239.27,193.49z"/>
	<path class="st0" d="M256.59,240.97c0.95-1.09-11.08-13.08-26.85-26.79c-15.78-13.71-29.33-23.93-30.28-22.85
		c-0.95,1.09,11.08,13.08,26.85,26.79S255.64,242.06,256.59,240.97z"/>
	
		<ellipse transform="matrix(0.9454 -0.3259 0.3259 0.9454 -64.4387 79.5463)" class="st0" cx="205.23" cy="232.13" rx="2.61" ry="37.84"/>
	<path class="st0" d="M174.95,234.07c-3.98,20.52-6.06,37.37-4.65,37.64c1.41,0.27,5.79-16.13,9.77-36.65
		c3.98-20.52,6.06-37.37,4.65-37.64C183.31,197.15,178.93,213.56,174.95,234.07z"/>
	<path class="st0" d="M127.47,251.39c1.09,0.95,13.08-11.08,26.79-26.85c13.71-15.78,23.93-29.33,22.85-30.28
		c-1.09-0.95-13.08,11.08-26.79,26.85C136.61,236.89,126.38,250.45,127.47,251.39z"/>
	
		<ellipse transform="matrix(0.9454 -0.3259 0.3259 0.9454 -57.7444 55.335)" class="st0" cx="136.31" cy="200.04" rx="37.84" ry="2.61"/>
	<path class="st0" d="M171.01,179.53c0.27-1.41-16.13-5.79-36.65-9.77c-20.52-3.98-37.37-6.06-37.64-4.65
		c-0.27,1.41,16.13,5.79,36.65,9.77C153.88,178.86,170.74,180.94,171.01,179.53z"/>
	<path class="st0" d="M174.18,171.91c0.95-1.09-11.08-13.08-26.85-26.79c-15.78-13.71-29.33-23.93-30.28-22.85
		c-0.95,1.09,11.08,13.08,26.85,26.79C159.68,162.77,173.23,172.99,174.18,171.91z"/>
	<path class="st0" d="M180.73,166.89c1.36-0.47-3.05-16.87-9.86-36.62c-6.81-19.76-13.43-35.39-14.8-34.92
		c-1.36,0.47,3.05,16.87,9.86,36.62S179.37,167.36,180.73,166.89z"/>
</g>
<g>
	<g>
		<g>
			<path class="st1" d="M1233.19,145.27c0,0,1.46-26.61,1.58-28.78c0.28-4.93-0.13-7.27-1.58-7.27h0c-1.45,0-1.84,2.34-1.58,7.27
				C1231.73,118.84,1233.19,145.27,1233.19,145.27z"/>
		</g>
		<g>
			<path class="st1" d="M1245.58,147.45c0,0,10.47-24.51,11.33-26.5c1.95-4.53,2.36-6.87,1-7.37l0,0c-1.36-0.5-2.53,1.57-3.97,6.29
				C1253.25,122.12,1245.58,147.45,1245.58,147.45z"/>
		</g>
		<g>
			<path class="st1" d="M1256.48,153.74c0,0,18.22-19.45,19.71-21.03c3.38-3.59,4.57-5.65,3.46-6.58l0,0
				c-1.11-0.93-2.91,0.61-5.88,4.55C1272.35,132.56,1256.48,153.74,1256.48,153.74z"/>
		</g>
		<g>
			<path class="st1" d="M1264.57,163.38c0,0,23.77-12.04,25.71-13.02c4.41-2.22,6.23-3.75,5.5-5l0,0c-0.73-1.26-2.95-0.42-7.09,2.26
				C1286.73,148.9,1264.57,163.38,1264.57,163.38z"/>
		</g>
		<g>
			<path class="st1" d="M1268.88,175.21c0,0,26.46-3.18,28.61-3.44c4.9-0.58,7.14-1.39,6.88-2.82l0,0c-0.25-1.43-2.63-1.41-7.43-0.3
				C1294.65,169.18,1268.88,175.21,1268.88,175.21z"/>
		</g>
		<g>
			<path class="st1" d="M1268.88,187.79c0,0,25.95,6.06,28.07,6.55c4.8,1.13,7.18,1.13,7.43-0.3l0,0c0.25-1.43-1.99-2.22-6.88-2.82
				C1295.16,190.94,1268.88,187.79,1268.88,187.79z"/>
		</g>
		<g>
			<path class="st1" d="M1264.58,199.62c0,0,22.32,14.57,24.13,15.76c4.13,2.71,6.36,3.52,7.09,2.26h0c0.73-1.26-1.11-2.76-5.5-5
				C1288.2,211.57,1264.58,199.62,1264.58,199.62z"/>
		</g>
		<g>
			<path class="st1" d="M1256.5,209.26c0,0,15.99,21.32,17.29,23.06c2.95,3.95,4.77,5.48,5.88,4.55l0,0
				c1.11-0.93-0.1-2.98-3.46-6.58C1274.6,228.57,1256.5,209.26,1256.5,209.26z"/>
		</g>
		<g>
			<path class="st1" d="M1245.6,215.56c0,0,7.73,25.5,8.36,27.58c1.42,4.72,2.61,6.79,3.97,6.29l0,0c1.36-0.5,0.93-2.83-1-7.37
				C1256.01,239.89,1245.6,215.56,1245.6,215.56z"/>
		</g>
		<g>
			<path class="st1" d="M1233.21,217.74c0,0-1.46,26.61-1.58,28.78c-0.28,4.93,0.13,7.27,1.58,7.27l0,0c1.45,0,1.84-2.34,1.58-7.27
				C1234.66,244.17,1233.21,217.74,1233.21,217.74z"/>
		</g>
		<g>
			<path class="st1" d="M1220.81,215.56c0,0-10.47,24.51-11.33,26.5c-1.95,4.53-2.36,6.87-1,7.37l0,0c1.36,0.5,2.53-1.57,3.97-6.29
				C1213.14,240.89,1220.81,215.56,1220.81,215.56z"/>
		</g>
		<g>
			<path class="st1" d="M1209.91,209.27c0,0-18.22,19.45-19.71,21.03c-3.38,3.59-4.57,5.65-3.46,6.58l0,0
				c1.11,0.93,2.91-0.61,5.88-4.55C1194.04,230.45,1209.91,209.27,1209.91,209.27z"/>
		</g>
		<g>
			<path class="st1" d="M1201.82,199.63c0,0-23.77,12.04-25.71,13.02c-4.41,2.22-6.23,3.75-5.5,5l0,0c0.73,1.26,2.95,0.42,7.09-2.26
				C1179.66,214.11,1201.82,199.63,1201.82,199.63z"/>
		</g>
		<g>
			<path class="st1" d="M1197.51,187.81c0,0-26.46,3.18-28.61,3.44c-4.9,0.58-7.14,1.39-6.88,2.82l0,0c0.25,1.43,2.63,1.41,7.43,0.3
				C1171.74,193.83,1197.51,187.81,1197.51,187.81z"/>
		</g>
		<g>
			<path class="st1" d="M1197.51,175.22c0,0-25.95-6.06-28.07-6.55c-4.8-1.13-7.18-1.13-7.43,0.3l0,0
				c-0.25,1.43,1.99,2.22,6.88,2.82C1171.23,172.07,1197.51,175.22,1197.51,175.22z"/>
		</g>
		<g>
			<path class="st1" d="M1201.81,163.4c0,0-22.32-14.57-24.13-15.76c-4.13-2.71-6.36-3.52-7.09-2.26l0,0c-0.73,1.26,1.11,2.76,5.5,5
				C1178.19,151.45,1201.81,163.4,1201.81,163.4z"/>
		</g>
		<g>
			<path class="st1" d="M1209.9,153.75c0,0-15.99-21.32-17.29-23.06c-2.95-3.95-4.77-5.48-5.88-4.55l0,0
				c-1.11,0.93,0.1,2.98,3.46,6.58C1191.79,134.45,1209.9,153.75,1209.9,153.75z"/>
		</g>
		<g>
			<path class="st1" d="M1220.79,147.46c0,0-7.73-25.5-8.36-27.58c-1.42-4.72-2.61-6.79-3.97-6.29l0,0c-1.36,0.5-0.93,2.83,1,7.37
				C1210.39,123.12,1220.79,147.46,1220.79,147.46z"/>
		</g>
		<g>
			<path class="st1" d="M1233.19,145.27c0,0,1.46-26.61,1.58-28.78c0.28-4.93-0.13-7.27-1.58-7.27h0c-1.45,0-1.84,2.34-1.58,7.27
				C1231.73,118.84,1233.19,145.27,1233.19,145.27z"/>
		</g>
	</g>
	<g>
		<g>
			<path class="st1" d="M1230.77,158.14c0,0-0.84-17.25-0.9-18.66c-0.15-3.19-0.57-4.68-1.51-4.58l0,0
				c-0.94,0.1-1.03,1.63-0.53,4.79C1228.06,141.2,1230.77,158.14,1230.77,158.14z"/>
		</g>
		<g>
			<path class="st1" d="M1238.91,158.72c0,0,5.11-16.5,5.53-17.84c0.95-3.05,1.07-4.59,0.15-4.82l0,0
				c-0.91-0.23-1.53,1.18-2.14,4.32C1242.16,141.88,1238.91,158.72,1238.91,158.72z"/>
		</g>
		<g>
			<path class="st1" d="M1246.36,162.05c0,0,10.45-13.76,11.3-14.88c1.94-2.54,2.57-3.95,1.79-4.48l0,0
				c-0.78-0.53-1.84,0.59-3.49,3.33C1255.17,147.33,1246.36,162.05,1246.36,162.05z"/>
		</g>
		<g>
			<path class="st1" d="M1252.22,167.72c0,0,14.52-9.35,15.71-10.11c2.69-1.73,3.77-2.83,3.21-3.59l0,0
				c-0.55-0.76-1.93-0.08-4.42,1.93C1265.54,156.91,1252.22,167.72,1252.22,167.72z"/>
		</g>
		<g>
			<path class="st1" d="M1255.78,175.06c0,0,16.85-3.82,18.22-4.13c3.12-0.7,4.51-1.37,4.25-2.28v0c-0.26-0.91-1.79-0.73-4.81,0.31
				C1272,169.45,1255.78,175.06,1255.78,175.06z"/>
		</g>
		<g>
			<path class="st1" d="M1256.63,183.17c0,0,17.14,2.17,18.53,2.35c3.17,0.41,4.71,0.25,4.77-0.69l0,0c0.07-0.94-1.43-1.3-4.63-1.36
				C1273.78,183.45,1256.63,183.17,1256.63,183.17z"/>
		</g>
		<g>
			<path class="st1" d="M1254.64,191.09c0,0,15.36,7.9,16.61,8.55c2.84,1.47,4.34,1.85,4.72,0.99l0,0c0.38-0.86-0.9-1.71-3.88-2.86
				C1270.67,197.22,1254.64,191.09,1254.64,191.09z"/>
		</g>
		<g>
			<path class="st1" d="M1250.07,197.85c0,0,11.73,12.68,12.69,13.71c2.17,2.35,3.44,3.22,4.1,2.54l0,0
				c0.65-0.68-0.26-1.91-2.67-4.01C1263.04,209.08,1250.07,197.85,1250.07,197.85z"/>
		</g>
		<g>
			<path class="st1" d="M1243.47,202.63c0,0,6.69,15.93,7.23,17.23c1.23,2.95,2.13,4.2,2.98,3.79h0c0.85-0.41,0.41-1.89-1.14-4.69
				C1251.8,217.63,1243.47,202.63,1243.47,202.63z"/>
		</g>
		<g>
			<path class="st1" d="M1235.62,204.87c0,0,0.84,17.25,0.9,18.66c0.15,3.19,0.57,4.68,1.51,4.58l0,0c0.94-0.1,1.03-1.63,0.53-4.79
				C1238.33,221.81,1235.62,204.87,1235.62,204.87z"/>
		</g>
		<g>
			<path class="st1" d="M1227.49,204.29c0,0-5.11,16.5-5.53,17.84c-0.95,3.05-1.07,4.59-0.15,4.82h0c0.91,0.23,1.53-1.18,2.14-4.32
				C1224.23,221.14,1227.49,204.29,1227.49,204.29z"/>
		</g>
		<g>
			<path class="st1" d="M1220.04,200.96c0,0-10.45,13.76-11.3,14.88c-1.94,2.54-2.57,3.95-1.79,4.48l0,0
				c0.78,0.53,1.84-0.59,3.49-3.33C1211.22,215.68,1220.04,200.96,1220.04,200.96z"/>
		</g>
		<g>
			<path class="st1" d="M1214.18,195.29c0,0-14.52,9.35-15.71,10.11c-2.69,1.73-3.77,2.83-3.21,3.59l0,0
				c0.55,0.76,1.93,0.08,4.42-1.93C1200.86,206.1,1214.18,195.29,1214.18,195.29z"/>
		</g>
		<g>
			<path class="st1" d="M1210.61,187.95c0,0-16.85,3.82-18.22,4.13c-3.12,0.7-4.51,1.37-4.25,2.28l0,0
				c0.26,0.91,1.79,0.73,4.81-0.31C1194.39,193.56,1210.61,187.95,1210.61,187.95z"/>
		</g>
		<g>
			<path class="st1" d="M1209.77,179.84c0,0-17.14-2.17-18.53-2.35c-3.17-0.41-4.71-0.25-4.77,0.69v0c-0.07,0.94,1.43,1.3,4.63,1.36
				C1192.61,179.56,1209.77,179.84,1209.77,179.84z"/>
		</g>
		<g>
			<path class="st1" d="M1211.75,171.93c0,0-15.36-7.9-16.61-8.55c-2.84-1.47-4.34-1.85-4.72-0.99l0,0
				c-0.38,0.86,0.9,1.71,3.88,2.86C1195.72,165.8,1211.75,171.93,1211.75,171.93z"/>
		</g>
		<g>
			<path class="st1" d="M1216.32,165.17c0,0-11.73-12.68-12.69-13.71c-2.17-2.35-3.44-3.22-4.1-2.54l0,0
				c-0.65,0.68,0.26,1.91,2.67,4.01C1203.36,153.93,1216.32,165.17,1216.32,165.17z"/>
		</g>
		<g>
			<path class="st1" d="M1222.93,160.38c0,0-6.69-15.93-7.23-17.23c-1.23-2.95-2.13-4.2-2.98-3.79l0,0
				c-0.85,0.41-0.41,1.89,1.14,4.69C1214.59,145.39,1222.93,160.38,1222.93,160.38z"/>
		</g>
		<g>
			<path class="st1" d="M1230.77,158.14c0,0-0.84-17.25-0.9-18.66c-0.15-3.19-0.57-4.68-1.51-4.58l0,0
				c-0.94,0.1-1.03,1.63-0.53,4.79C1228.06,141.2,1230.77,158.14,1230.77,158.14z"/>
		</g>
	</g>
	<g>
		<g>
			<path class="st1" d="M1228.8,164.88c0,0-2.56-12.38-2.76-13.39c-0.47-2.29-0.94-3.32-1.61-3.14l0,0
				c-0.67,0.18-0.56,1.3,0.16,3.53C1224.93,152.94,1228.8,164.88,1228.8,164.88z"/>
		</g>
		<g>
			<path class="st1" d="M1234.75,164.38c0,0,1.83-12.51,1.98-13.53c0.34-2.32,0.25-3.44-0.43-3.5l0,0
				c-0.69-0.06-0.97,1.03-1.06,3.37C1235.2,151.83,1234.75,164.38,1234.75,164.38z"/>
		</g>
		<g>
			<path class="st1" d="M1240.51,165.95c0,0,6-11.13,6.49-12.04c1.12-2.06,1.41-3.15,0.79-3.44l0,0c-0.62-0.29-1.26,0.63-2.15,2.8
				C1245.23,154.3,1240.51,165.95,1240.51,165.95z"/>
		</g>
		<g>
			<path class="st1" d="M1245.39,169.39c0,0,9.45-8.41,10.22-9.09c1.75-1.55,2.4-2.47,1.92-2.96l0,0c-0.49-0.49-1.4,0.16-2.98,1.9
				C1253.8,160.06,1245.39,169.39,1245.39,169.39z"/>
		</g>
		<g>
			<path class="st1" d="M1248.8,174.29c0,0,11.75-4.67,12.71-5.05c2.18-0.86,3.11-1.5,2.82-2.13l0,0c-0.29-0.63-1.38-0.33-3.45,0.77
				C1259.9,168.4,1248.8,174.29,1248.8,174.29z"/>
		</g>
		<g>
			<path class="st1" d="M1250.33,180.06c0,0,12.64-0.37,13.67-0.4c2.34-0.06,3.43-0.35,3.37-1.04l0,0c-0.06-0.69-1.18-0.78-3.5-0.46
				C1262.77,178.32,1250.33,180.06,1250.33,180.06z"/>
		</g>
		<g>
			<path class="st1" d="M1249.79,186.01c0,0,12,3.98,12.98,4.3c2.22,0.74,3.34,0.84,3.53,0.18l0,0c0.18-0.66-0.84-1.13-3.13-1.63
				C1262.08,188.63,1249.79,186.01,1249.79,186.01z"/>
		</g>
		<g>
			<path class="st1" d="M1247.25,191.41c0,0,9.92,7.84,10.73,8.48c1.83,1.46,2.85,1.94,3.25,1.37l0,0c0.4-0.56-0.4-1.35-2.39-2.6
				C1257.9,198.08,1247.25,191.41,1247.25,191.41z"/>
		</g>
		<g>
			<path class="st1" d="M1243.01,195.62c0,0,6.64,10.76,7.18,11.64c1.22,1.99,2.02,2.8,2.58,2.4l0,0c0.57-0.39,0.08-1.41-1.35-3.26
				C1250.74,205.53,1243.01,195.62,1243.01,195.62z"/>
		</g>
		<g>
			<path class="st1" d="M1237.59,198.13c0,0,2.56,12.38,2.76,13.39c0.47,2.29,0.94,3.32,1.61,3.14l0,0c0.67-0.18,0.56-1.3-0.16-3.53
				C1241.47,210.08,1237.59,198.13,1237.59,198.13z"/>
		</g>
		<g>
			<path class="st1" d="M1231.64,198.63c0,0-1.83,12.51-1.98,13.53c-0.34,2.32-0.25,3.44,0.43,3.5l0,0
				c0.69,0.06,0.97-1.03,1.06-3.37C1231.2,211.18,1231.64,198.63,1231.64,198.63z"/>
		</g>
		<g>
			<path class="st1" d="M1225.88,197.07c0,0-6,11.13-6.49,12.04c-1.12,2.06-1.41,3.15-0.79,3.44l0,0c0.62,0.29,1.26-0.63,2.15-2.8
				C1221.17,208.71,1225.88,197.07,1225.88,197.07z"/>
		</g>
		<g>
			<path class="st1" d="M1221,193.63c0,0-9.45,8.41-10.22,9.09c-1.75,1.55-2.4,2.47-1.92,2.96l0,0c0.49,0.49,1.4-0.16,2.98-1.9
				C1212.59,202.96,1221,193.63,1221,193.63z"/>
		</g>
		<g>
			<path class="st1" d="M1217.59,188.72c0,0-11.75,4.67-12.71,5.05c-2.18,0.86-3.11,1.5-2.82,2.13l0,0
				c0.29,0.63,1.38,0.33,3.45-0.77C1206.49,194.61,1217.59,188.72,1217.59,188.72z"/>
		</g>
		<g>
			<path class="st1" d="M1216.06,182.95c0,0-12.64,0.37-13.67,0.4c-2.34,0.06-3.43,0.35-3.37,1.04l0,0c0.06,0.69,1.18,0.78,3.5,0.46
				C1203.62,184.69,1216.06,182.95,1216.06,182.95z"/>
		</g>
		<g>
			<path class="st1" d="M1216.6,177c0,0-12-3.98-12.98-4.3c-2.22-0.74-3.34-0.84-3.53-0.18l0,0c-0.18,0.66,0.84,1.13,3.13,1.63
				C1204.32,174.38,1216.6,177,1216.6,177z"/>
		</g>
		<g>
			<path class="st1" d="M1219.14,171.6c0,0-9.92-7.84-10.73-8.48c-1.83-1.46-2.85-1.94-3.25-1.37v0c-0.4,0.56,0.4,1.35,2.39,2.6
				C1208.5,164.94,1219.14,171.6,1219.14,171.6z"/>
		</g>
		<g>
			<path class="st1" d="M1223.38,167.39c0,0-6.64-10.76-7.18-11.64c-1.22-2-2.02-2.8-2.58-2.4l0,0c-0.57,0.39-0.08,1.41,1.35,3.26
				C1215.65,157.49,1223.38,167.39,1223.38,167.39z"/>
		</g>
		<g>
			<path class="st1" d="M1228.8,164.88c0,0-2.56-12.38-2.76-13.39c-0.47-2.29-0.94-3.32-1.61-3.14l0,0
				c-0.67,0.18-0.56,1.3,0.16,3.53C1224.93,152.94,1228.8,164.88,1228.8,164.88z"/>
		</g>
	</g>
	<g>
		<g>
			<path class="st1" d="M1239.99,136.45c0,0,6.81-32.81,7.37-35.48c1.27-6.07,1.2-9.06-0.6-9.33l0,0c-1.81-0.27-2.73,2.57-3.33,8.74
				C1243.14,103.32,1239.99,136.45,1239.99,136.45z"/>
		</g>
		<g>
			<path class="st1" d="M1254.99,141.49c0,0,17.62-28.5,19.06-30.82c3.27-5.27,4.23-8.1,2.63-8.98l0,0
				c-1.6-0.87-3.44,1.48-6.12,7.07C1269.29,111.44,1254.99,141.49,1254.99,141.49z"/>
		</g>
		<g>
			<path class="st1" d="M1267.36,151.36c0,0,26.31-20.76,28.46-22.44c4.88-3.83,6.75-6.17,5.54-7.54l0,0
				c-1.21-1.37-3.74,0.21-8.17,4.55C1291.08,128.01,1267.36,151.36,1267.36,151.36z"/>
		</g>
		<g>
			<path class="st1" d="M1275.61,164.86c0,0,31.82-10.51,34.42-11.36c5.89-1.93,8.45-3.49,7.78-5.19l0,0
				c-0.67-1.7-3.59-1.08-9.24,1.48C1305.88,151.03,1275.61,164.86,1275.61,164.86z"/>
		</g>
		<g>
			<path class="st1" d="M1278.75,180.38c0,0,33.5,1.01,36.22,1.1c6.2,0.2,9.13-0.39,9.09-2.21l0,0c-0.04-1.83-3-2.24-9.19-1.76
				C1311.92,177.73,1278.75,180.38,1278.75,180.38z"/>
		</g>
		<g>
			<path class="st1" d="M1276.39,196.02c0,0,31.13,12.41,33.66,13.42c5.76,2.31,8.71,2.76,9.3,1.03l0,0
				c0.58-1.73-2.05-3.13-8.03-4.8C1308.47,204.88,1276.39,196.02,1276.39,196.02z"/>
		</g>
		<g>
			<path class="st1" d="M1268.82,209.92c0,0,25.01,22.3,27.04,24.13c4.62,4.14,7.25,5.57,8.38,4.15l0,0
				c1.14-1.43-0.86-3.65-5.9-7.26C1295.94,229.22,1268.82,209.92,1268.82,209.92z"/>
		</g>
		<g>
			<path class="st1" d="M1256.95,220.39c0,0,15.87,29.51,17.16,31.92c2.93,5.47,4.9,7.72,6.46,6.76l0,0
				c1.56-0.95,0.44-3.72-3.07-8.84C1275.83,247.8,1256.95,220.39,1256.95,220.39z"/>
		</g>
		<g>
			<path class="st1" d="M1242.22,226.17c0,0,4.82,33.16,5.21,35.87c0.88,6.14,1.97,8.93,3.76,8.57h0c1.79-0.36,1.69-3.34,0.14-9.35
				C1250.59,258.38,1242.22,226.17,1242.22,226.17z"/>
		</g>
		<g>
			<path class="st1" d="M1226.4,226.56c0,0-6.81,32.81-7.37,35.48c-1.27,6.07-1.2,9.06,0.6,9.33l0,0c1.81,0.27,2.73-2.57,3.33-8.74
				C1223.25,259.7,1226.4,226.56,1226.4,226.56z"/>
		</g>
		<g>
			<path class="st1" d="M1211.4,221.52c0,0-17.62,28.5-19.06,30.82c-3.27,5.27-4.23,8.1-2.63,8.98l0,0c1.6,0.87,3.44-1.48,6.12-7.07
				C1197.11,251.58,1211.4,221.52,1211.4,221.52z"/>
		</g>
		<g>
			<path class="st1" d="M1199.03,211.65c0,0-26.31,20.76-28.46,22.44c-4.88,3.83-6.75,6.17-5.54,7.54v0
				c1.21,1.37,3.74-0.21,8.17-4.55C1175.32,235.01,1199.03,211.65,1199.03,211.65z"/>
		</g>
		<g>
			<path class="st1" d="M1190.78,198.15c0,0-31.82,10.51-34.42,11.36c-5.89,1.93-8.45,3.49-7.78,5.19v0
				c0.67,1.7,3.59,1.08,9.23-1.48C1160.51,211.99,1190.78,198.15,1190.78,198.15z"/>
		</g>
		<g>
			<path class="st1" d="M1187.64,182.64c0,0-33.5-1.01-36.22-1.1c-6.2-0.2-9.13,0.39-9.09,2.21l0,0c0.04,1.83,3,2.24,9.19,1.76
				C1154.47,185.29,1187.64,182.64,1187.64,182.64z"/>
		</g>
		<g>
			<path class="st1" d="M1190,166.99c0,0-31.13-12.41-33.66-13.42c-5.76-2.31-8.71-2.76-9.3-1.03l0,0c-0.58,1.73,2.05,3.13,8.03,4.8
				C1157.92,158.13,1190,166.99,1190,166.99z"/>
		</g>
		<g>
			<path class="st1" d="M1197.57,153.09c0,0-25.01-22.3-27.04-24.13c-4.62-4.14-7.25-5.57-8.38-4.15v0
				c-1.14,1.43,0.86,3.65,5.9,7.26C1170.46,133.8,1197.57,153.09,1197.57,153.09z"/>
		</g>
		<g>
			<path class="st1" d="M1209.44,142.62c0,0-15.87-29.51-17.16-31.92c-2.93-5.47-4.9-7.72-6.46-6.76l0,0
				c-1.56,0.95-0.44,3.72,3.07,8.84C1190.56,115.22,1209.44,142.62,1209.44,142.62z"/>
		</g>
		<g>
			<path class="st1" d="M1224.17,136.84c0,0-4.82-33.16-5.21-35.87c-0.88-6.14-1.97-8.93-3.76-8.57l0,0
				c-1.79,0.36-1.69,3.34-0.14,9.35C1215.8,104.63,1224.17,136.84,1224.17,136.84z"/>
		</g>
		<g>
			<path class="st1" d="M1239.99,136.45c0,0,6.81-32.81,7.37-35.48c1.27-6.07,1.2-9.06-0.6-9.33l0,0c-1.81-0.27-2.73,2.57-3.33,8.74
				C1243.14,103.32,1239.99,136.45,1239.99,136.45z"/>
		</g>
	</g>
	<g>
		<g>
			<path class="st1" d="M1232.56,107.83c0,0,2.51-54.13,2.73-58.54c0.49-10.02-0.39-14.78-3.34-14.75l0,0
				c-2.95,0.02-3.7,4.79-3.09,14.81C1229.15,54.12,1232.56,107.83,1232.56,107.83z"/>
		</g>
		<g>
			<path class="st1" d="M1257.8,112.05c0,0,20.88-50,22.59-54.08c3.88-9.25,4.69-14.02,1.91-15v0c-2.78-0.99-5.12,3.24-7.97,12.86
				C1272.97,60.42,1257.8,112.05,1257.8,112.05z"/>
		</g>
		<g>
			<path class="st1" d="M1280.07,124.66c0,0,36.72-39.85,39.72-43.09c6.81-7.36,9.2-11.57,6.93-13.45l0,0
				c-2.28-1.88-5.92,1.29-11.89,9.35C1311.98,81.32,1280.07,124.66,1280.07,124.66z"/>
		</g>
		<g>
			<path class="st1" d="M1296.69,144.12c0,0,48.13-24.89,52.06-26.91c8.92-4.59,12.6-7.72,11.11-10.27l0,0
				c-1.5-2.54-6-0.81-14.37,4.72C1341.5,114.31,1296.69,144.12,1296.69,144.12z"/>
		</g>
		<g>
			<path class="st1" d="M1305.65,168.09c0,0,53.74-6.92,58.12-7.48c9.95-1.26,14.49-2.95,13.95-5.85l0,0
				c-0.54-2.9-5.36-2.81-15.12-0.47C1357.95,155.4,1305.65,168.09,1305.65,168.09z"/>
		</g>
		<g>
			<path class="st1" d="M1305.87,193.68c0,0,52.87,11.88,57.18,12.85c9.78,2.22,14.62,2.19,15.11-0.73l0,0
				c0.49-2.91-4.08-4.48-14.04-5.62C1359.35,199.65,1305.87,193.68,1305.87,193.68z"/>
		</g>
		<g>
			<path class="st1" d="M1297.32,217.8c0,0,45.62,29.24,49.33,31.63c8.43,5.43,12.99,7.05,14.44,4.48v0
				c1.45-2.57-2.3-5.6-11.28-10.08C1345.54,241.7,1297.32,217.8,1297.32,217.8z"/>
		</g>
		<g>
			<path class="st1" d="M1281.04,237.54c0,0,32.87,43.08,35.54,46.6c6.07,7.99,9.79,11.07,12.04,9.15l0,0
				c2.25-1.92-0.25-6.05-7.15-13.33C1318.18,276.49,1281.04,237.54,1281.04,237.54z"/>
		</g>
		<g>
			<path class="st1" d="M1258.99,250.53c0,0,16.15,51.72,17.46,55.94c2.97,9.58,5.42,13.75,8.18,12.72v0
				c2.77-1.03,1.84-5.77-2.16-14.97C1280.57,299.83,1258.99,250.53,1258.99,250.53z"/>
		</g>
		<g>
			<path class="st1" d="M1233.83,255.19c0,0-2.51,54.13-2.73,58.54c-0.49,10.02,0.39,14.78,3.34,14.75l0,0
				c2.95-0.02,3.7-4.79,3.09-14.81C1237.24,308.9,1233.83,255.19,1233.83,255.19z"/>
		</g>
		<g>
			<path class="st1" d="M1208.59,250.96c0,0-20.88,50-22.59,54.08c-3.88,9.25-4.69,14.02-1.91,15l0,0
				c2.78,0.99,5.12-3.24,7.97-12.86C1193.43,302.6,1208.59,250.96,1208.59,250.96z"/>
		</g>
		<g>
			<path class="st1" d="M1186.32,238.36c0,0-36.72,39.85-39.72,43.09c-6.81,7.36-9.2,11.57-6.93,13.45l0,0
				c2.28,1.88,5.92-1.29,11.89-9.35C1154.41,281.69,1186.32,238.36,1186.32,238.36z"/>
		</g>
		<g>
			<path class="st1" d="M1169.7,218.89c0,0-48.13,24.89-52.06,26.91c-8.92,4.59-12.6,7.72-11.11,10.27l0,0
				c1.5,2.54,6,0.81,14.37-4.72C1124.9,248.7,1169.7,218.89,1169.7,218.89z"/>
		</g>
		<g>
			<path class="st1" d="M1160.75,194.92c0,0-53.74,6.92-58.12,7.48c-9.95,1.26-14.49,2.95-13.95,5.85l0,0
				c0.54,2.9,5.36,2.81,15.12,0.47C1108.45,207.61,1160.75,194.92,1160.75,194.92z"/>
		</g>
		<g>
			<path class="st1" d="M1160.53,169.34c0,0-52.87-11.88-57.18-12.85c-9.78-2.22-14.62-2.19-15.11,0.73v0
				c-0.49,2.91,4.08,4.48,14.04,5.62C1107.04,163.37,1160.53,169.34,1160.53,169.34z"/>
		</g>
		<g>
			<path class="st1" d="M1169.07,145.21c0,0-45.62-29.24-49.33-31.63c-8.43-5.43-12.99-7.05-14.44-4.48l0,0
				c-1.45,2.57,2.3,5.6,11.28,10.08C1120.85,121.32,1169.07,145.21,1169.07,145.21z"/>
		</g>
		<g>
			<path class="st1" d="M1185.35,125.47c0,0-32.87-43.08-35.54-46.6c-6.07-7.99-9.79-11.07-12.04-9.15l0,0
				c-2.25,1.92,0.25,6.05,7.15,13.33C1148.21,86.52,1185.35,125.47,1185.35,125.47z"/>
		</g>
		<g>
			<path class="st1" d="M1207.4,112.49c0,0-16.15-51.72-17.46-55.94c-2.97-9.58-5.42-13.75-8.18-12.72l0,0
				c-2.77,1.03-1.84,5.77,2.16,14.97C1185.83,63.18,1207.4,112.49,1207.4,112.49z"/>
		</g>
		<g>
			<path class="st1" d="M1232.56,107.83c0,0,2.51-54.13,2.73-58.54c0.49-10.02-0.39-14.78-3.34-14.75l0,0
				c-2.95,0.02-3.7,4.79-3.09,14.81C1229.15,54.12,1232.56,107.83,1232.56,107.83z"/>
		</g>
	</g>
</g>
<g>
	<path class="st0" d="M1200.46,366.5c2.22-1.94,4.44-3.88,6.66-5.82c5.81-5.07,11.61-10.13,17.4-15.23
		c1.69-1.49,3.39-2.98,5.07-4.48c3.98-3.53,7.95-7.07,11.93-10.61c1.45-1.29,3.24-3.01,3.49-4.7c0.23-1.59-1.05-2.16-2.76-1.29
		c-3.09,1.58-5.51,4.44-8.05,6.96c-3.04,3.01-6.05,6.05-9.04,9.11c-4.08,4.18-8.11,8.4-12.08,12.66c-2.11,2.26-4.2,4.52-6.32,6.76
		C1204.65,362.09,1202.52,364.25,1200.46,366.5z"/>
	<path class="st0" d="M1223.5,370.84c-2.95,0.9-5.9,1.81-8.86,2.7c-2.92,0.87-5.85,1.68-8.76,2.6c2.89-0.57,5.78-1.14,8.68-1.71
		c7.56-1.49,15.12-2.97,22.68-4.49c2.21-0.45,4.42-0.89,6.63-1.35c5.21-1.07,10.42-2.15,15.63-3.22c1.91-0.39,4.31-0.99,5.37-2.32
		c1-1.26,0.17-2.39-1.75-2.49c-3.46-0.18-6.99,1.09-10.45,2c-4.14,1.09-8.26,2.21-12.38,3.37
		C1234.67,367.49,1229.07,369.13,1223.5,370.84z"/>
	<path class="st0" d="M1263.13,402.31c-2.91-1.89-6.6-2.55-10.05-3.49c-4.13-1.13-8.26-2.22-12.41-3.27
		c-5.66-1.44-11.33-2.82-17.01-4.13c-3.01-0.7-6.01-1.38-9.02-2.09c-2.97-0.7-5.91-1.47-8.88-2.13c2.79,0.95,5.58,1.9,8.37,2.86
		c7.29,2.49,14.58,4.99,21.89,7.45c2.14,0.72,4.27,1.44,6.41,2.15c5.05,1.68,10.1,3.35,15.15,5.03c1.85,0.61,4.23,1.3,5.81,0.67
		C1264.89,404.74,1264.73,403.35,1263.13,402.31z"/>
	<path class="st0" d="M1235.29,430.43c-3.01-3.04-6.05-6.05-9.11-9.04c-4.18-4.08-8.4-8.11-12.66-12.08
		c-2.26-2.11-4.52-4.2-6.76-6.32c-2.22-2.09-4.38-4.23-6.63-6.29c1.94,2.22,3.88,4.44,5.82,6.66c5.07,5.81,10.13,11.61,15.23,17.4
		c1.49,1.69,2.98,3.39,4.48,5.07c3.53,3.98,7.07,7.95,10.61,11.93c1.29,1.45,3.01,3.24,4.7,3.49c1.59,0.23,2.16-1.05,1.29-2.76
		C1240.67,435.39,1237.81,432.97,1235.29,430.43z"/>
	<path class="st0" d="M1206.08,459.36c0.18-3.46-1.09-6.99-2-10.45c-1.09-4.14-2.21-8.26-3.37-12.38
		c-1.58-5.62-3.22-11.22-4.92-16.8c-0.9-2.95-1.81-5.9-2.7-8.86c-0.88-2.92-1.68-5.85-2.6-8.76c0.57,2.89,1.14,5.78,1.71,8.68
		c1.49,7.56,2.97,15.12,4.49,22.68c0.45,2.21,0.89,4.42,1.35,6.63c1.07,5.21,2.15,10.42,3.22,15.63c0.39,1.91,0.99,4.31,2.32,5.37
		C1204.85,462.1,1205.98,461.27,1206.08,459.36z"/>
	<path class="st0" d="M1169.13,432.25c-0.72,2.14-1.44,4.27-2.15,6.41c-1.68,5.05-3.35,10.1-5.03,15.15
		c-0.61,1.85-1.3,4.23-0.67,5.81c0.6,1.5,1.99,1.34,3.03-0.27c1.89-2.91,2.55-6.6,3.49-10.05c1.12-4.13,2.22-8.26,3.27-12.41
		c1.44-5.66,2.82-11.33,4.13-17.01c0.7-3.01,1.38-6.01,2.09-9.02c0.7-2.97,1.47-5.91,2.13-8.88c-0.95,2.79-1.9,5.58-2.86,8.37
		C1174.09,417.65,1171.59,424.95,1169.13,432.25z"/>
	<path class="st0" d="M1169.93,396.36c-2.22,1.94-4.44,3.88-6.66,5.82c-5.81,5.07-11.61,10.13-17.4,15.23
		c-1.69,1.49-3.39,2.98-5.07,4.48c-3.98,3.53-7.95,7.07-11.93,10.61c-1.45,1.29-3.24,3.01-3.49,4.7c-0.23,1.59,1.05,2.16,2.76,1.29
		c3.09-1.58,5.51-4.44,8.05-6.96c3.04-3.01,6.05-6.05,9.04-9.11c4.08-4.18,8.11-8.4,12.08-12.66c2.11-2.26,4.2-4.52,6.32-6.76
		C1165.73,400.77,1167.87,398.61,1169.93,396.36z"/>
	<path class="st0" d="M1146.89,392.02c2.95-0.9,5.9-1.81,8.86-2.7c2.92-0.87,5.85-1.68,8.76-2.6c-2.89,0.57-5.78,1.14-8.68,1.71
		c-7.56,1.49-15.12,2.97-22.68,4.49c-2.21,0.45-4.42,0.89-6.63,1.35c-5.21,1.07-10.42,2.15-15.63,3.22
		c-1.91,0.39-4.31,0.99-5.37,2.32c-1,1.26-0.17,2.39,1.75,2.49c3.46,0.18,6.99-1.09,10.45-2c4.14-1.09,8.26-2.21,12.38-3.37
		C1135.72,395.37,1141.32,393.72,1146.89,392.02z"/>
	<path class="st0" d="M1117.31,364.04c4.13,1.13,8.26,2.22,12.41,3.27c5.66,1.44,11.33,2.82,17.01,4.13
		c3.01,0.69,6.01,1.38,9.02,2.09c2.97,0.7,5.91,1.47,8.88,2.13c-2.79-0.95-5.58-1.9-8.37-2.86c-7.29-2.49-14.58-4.99-21.89-7.45
		c-2.14-0.72-4.27-1.44-6.41-2.15c-5.05-1.68-10.1-3.35-15.15-5.03c-1.85-0.61-4.23-1.3-5.81-0.67c-1.5,0.6-1.34,1.99,0.27,3.03
		C1110.17,362.44,1113.86,363.1,1117.31,364.04z"/>
	<path class="st0" d="M1135.1,332.43c3.01,3.04,6.05,6.05,9.11,9.04c4.18,4.08,8.4,8.11,12.66,12.08c2.26,2.11,4.52,4.2,6.76,6.32
		c2.22,2.09,4.38,4.23,6.63,6.29c-1.94-2.22-3.88-4.44-5.82-6.66c-5.07-5.81-10.13-11.61-15.23-17.4c-1.49-1.69-2.98-3.39-4.48-5.07
		c-3.53-3.98-7.07-7.95-10.61-11.93c-1.29-1.45-3.01-3.24-4.7-3.49c-1.59-0.23-2.16,1.05-1.29,2.76
		C1129.72,327.47,1132.58,329.89,1135.1,332.43z"/>
	<path class="st0" d="M1164.31,303.5c-0.18,3.46,1.09,6.99,2,10.45c1.09,4.14,2.21,8.26,3.37,12.38c1.58,5.62,3.22,11.22,4.92,16.8
		c0.9,2.95,1.81,5.9,2.7,8.86c0.88,2.92,1.68,5.85,2.6,8.76c-0.57-2.89-1.14-5.78-1.71-8.68c-1.49-7.56-2.97-15.12-4.49-22.68
		c-0.45-2.21-0.89-4.42-1.35-6.63c-1.07-5.21-2.15-10.42-3.22-15.63c-0.39-1.91-0.99-4.31-2.32-5.37
		C1165.54,300.75,1164.41,301.59,1164.31,303.5z"/>
	<path class="st0" d="M1201.26,330.61c0.72-2.14,1.44-4.27,2.15-6.41c1.68-5.05,3.35-10.1,5.03-15.15c0.61-1.85,1.3-4.23,0.67-5.81
		c-0.6-1.5-1.99-1.34-3.03,0.27c-1.89,2.91-2.55,6.6-3.49,10.05c-1.12,4.13-2.22,8.26-3.27,12.41c-1.44,5.66-2.82,11.33-4.13,17.01
		c-0.7,3.01-1.38,6.01-2.09,9.02c-0.7,2.97-1.47,5.91-2.13,8.88c0.95-2.79,1.9-5.58,2.86-8.37
		C1196.3,345.2,1198.8,337.91,1201.26,330.61z"/>
	<path class="st0" d="M1163.13,296.08c3.29,0.17,3.57-4.94,0.27-5.11C1160.11,290.79,1159.83,295.9,1163.13,296.08z"/>
	<path class="st0" d="M1122.41,317.29c3.29,0.17,3.57-4.94,0.27-5.11C1119.38,312,1119.11,317.12,1122.41,317.29z"/>
	<path class="st0" d="M1097.98,353.61c-3.29-0.17-3.57,4.94-0.27,5.11C1101,358.9,1101.28,353.79,1097.98,353.61z"/>
	<path class="st0" d="M1098.91,400.67c-3.29-0.17-3.57,4.94-0.27,5.11C1101.93,405.96,1102.21,400.85,1098.91,400.67z"/>
	<path class="st0" d="M1119.28,441.35c-3.29-0.17-3.57,4.94-0.27,5.11C1122.3,446.64,1122.57,441.53,1119.28,441.35z"/>
	<path class="st0" d="M1160.41,466.32c-3.29-0.17-3.57,4.94-0.27,5.11C1163.43,471.61,1163.71,466.49,1160.41,466.32z"/>
	<path class="st0" d="M1207.14,466.22c-3.29-0.17-3.57,4.94-0.27,5.11C1210.16,471.51,1210.44,466.39,1207.14,466.22z"/>
	<path class="st0" d="M1247.12,442.97c-3.29-0.17-3.57,4.94-0.27,5.11C1250.14,448.26,1250.42,443.15,1247.12,442.97z"/>
	<path class="st0" d="M1271.13,403.78c-3.29-0.17-3.57,4.94-0.27,5.11C1274.15,409.07,1274.42,403.95,1271.13,403.78z"/>
	<path class="st0" d="M1272.99,363.14c3.29,0.17,3.57-4.94,0.27-5.11C1269.97,357.85,1269.69,362.96,1272.99,363.14z"/>
	<path class="st0" d="M1250.14,320.9c3.29,0.17,3.57-4.94,0.27-5.11C1247.12,315.61,1246.85,320.73,1250.14,320.9z"/>
	<path class="st0" d="M1210.08,297.13c3.29,0.17,3.57-4.94,0.27-5.11C1207.06,291.84,1206.79,296.96,1210.08,297.13z"/>
	<path class="st0" d="M1211.57,338.9c-0.67-0.43-6.32,7.07-12.62,16.77c-6.3,9.69-10.87,17.91-10.2,18.34
		c0.67,0.43,6.32-7.07,12.62-16.77C1207.67,347.55,1212.24,339.34,1211.57,338.9z"/>
	
		<ellipse transform="matrix(0.8912 -0.4537 0.4537 0.8912 -35.0705 589.2336)" class="st0" cx="1210.66" cy="367.72" rx="20.94" ry="1.44"/>
	<path class="st0" d="M1235.03,383.82c0.04-0.8-9.28-1.94-20.83-2.55c-11.55-0.61-20.94-0.46-20.98,0.34
		c-0.04,0.8,9.28,1.94,20.83,2.55C1225.59,384.77,1234.99,384.62,1235.03,383.82z"/>
	<path class="st0" d="M1208.83,398.65c9.69,6.3,17.91,10.87,18.34,10.2c0.43-0.67-7.07-6.32-16.77-12.62
		c-9.69-6.3-17.91-10.87-18.34-10.2C1191.63,386.7,1199.14,392.35,1208.83,398.65z"/>
	<path class="st0" d="M1207.86,426.6c0.71-0.36-2.97-9.01-8.21-19.31c-5.25-10.3-10.07-18.36-10.78-18
		c-0.71,0.36,2.97,9.01,8.21,19.31C1202.32,418.9,1207.14,426.96,1207.86,426.6z"/>
	
		<ellipse transform="matrix(0.0527 -0.9986 0.9986 0.0527 710.1405 1571.4288)" class="st0" cx="1183.36" cy="411.41" rx="20.94" ry="1.44"/>
	<path class="st0" d="M1167.42,406.12c-6.3,9.69-10.87,17.91-10.2,18.34c0.67,0.43,6.32-7.07,12.62-16.77
		c6.3-9.69,10.87-17.91,10.2-18.34C1179.37,388.92,1173.72,396.42,1167.42,406.12z"/>
	<path class="st0" d="M1139.47,405.14c0.36,0.71,9.01-2.97,19.31-8.21c10.3-5.25,18.36-10.07,18-10.78s-9.01,2.97-19.31,8.21
		C1147.17,399.6,1139.11,404.43,1139.47,405.14z"/>
	
		<ellipse transform="matrix(0.0527 -0.9986 0.9986 0.0527 713.6901 1513.6384)" class="st0" cx="1154.67" cy="380.64" rx="1.44" ry="20.94"/>
	<path class="st0" d="M1176.73,377.33c0.43-0.67-7.07-6.32-16.77-12.62c-9.69-6.3-17.91-10.87-18.34-10.2
		c-0.43,0.67,7.07,6.32,16.77,12.62S1176.29,377.99,1176.73,377.33z"/>
	<path class="st0" d="M1179.93,374.07c0.71-0.36-2.97-9.01-8.21-19.31c-5.25-10.3-10.07-18.36-10.78-18s2.97,9.01,8.21,19.31
		C1174.39,366.38,1179.22,374.44,1179.93,374.07z"/>
	<path class="st0" d="M1184.33,372.86c0.8,0.04,1.94-9.28,2.55-20.83c0.61-11.55,0.46-20.94-0.34-20.98
		c-0.8-0.04-1.94,9.28-2.55,20.83C1183.38,363.42,1183.54,372.82,1184.33,372.86z"/>
</g>
<g>
	<path class="st2" d="M1077.94,274.97c1.59-1.39,3.18-2.78,4.77-4.17c4.16-3.63,8.32-7.26,12.46-10.91
		c1.21-1.07,2.43-2.13,3.63-3.21c2.85-2.53,5.7-5.07,8.55-7.6c1.04-0.93,2.32-2.16,2.5-3.37c0.17-1.14-0.75-1.54-1.98-0.92
		c-2.21,1.13-3.95,3.18-5.77,4.99c-2.18,2.16-4.33,4.33-6.47,6.52c-2.92,2.99-5.81,6.02-8.66,9.07c-1.51,1.62-3.01,3.24-4.53,4.85
		C1080.94,271.81,1079.41,273.36,1077.94,274.97z"/>
	<path class="st2" d="M1094.44,278.08c-2.11,0.65-4.23,1.3-6.35,1.93c-2.09,0.63-4.19,1.2-6.27,1.86c2.07-0.41,4.14-0.82,6.22-1.22
		c5.42-1.06,10.84-2.13,16.25-3.22c1.58-0.32,3.17-0.64,4.75-0.97c3.73-0.76,7.47-1.54,11.2-2.31c1.37-0.28,3.09-0.71,3.85-1.67
		c0.72-0.91,0.12-1.71-1.25-1.79c-2.48-0.13-5.01,0.78-7.49,1.43c-2.96,0.78-5.92,1.59-8.87,2.41
		C1102.45,275.68,1098.43,276.86,1094.44,278.08z"/>
	<path class="st2" d="M1122.83,300.62c-2.08-1.35-4.73-1.83-7.2-2.5c-2.96-0.81-5.92-1.59-8.89-2.34
		c-4.05-1.03-8.12-2.02-12.19-2.96c-2.15-0.5-4.31-0.99-6.46-1.5c-2.13-0.5-4.23-1.05-6.36-1.53c2,0.68,4,1.36,6,2.05
		c5.22,1.79,10.45,3.58,15.68,5.34c1.53,0.51,3.06,1.03,4.59,1.54c3.62,1.21,7.24,2.4,10.85,3.6c1.32,0.44,3.03,0.93,4.16,0.48
		C1124.09,302.37,1123.98,301.37,1122.83,300.62z"/>
	<path class="st2" d="M1102.89,320.77c-2.16-2.18-4.33-4.33-6.52-6.47c-2.99-2.92-6.02-5.81-9.07-8.66
		c-1.62-1.51-3.24-3.01-4.85-4.53c-1.59-1.5-3.14-3.03-4.75-4.5c1.39,1.59,2.78,3.18,4.17,4.77c3.63,4.16,7.26,8.32,10.91,12.46
		c1.07,1.21,2.13,2.42,3.21,3.63c2.53,2.85,5.07,5.7,7.6,8.55c0.93,1.04,2.16,2.32,3.37,2.5c1.14,0.17,1.54-0.75,0.92-1.98
		C1106.75,324.32,1104.7,322.59,1102.89,320.77z"/>
	<path class="st2" d="M1081.96,341.49c0.13-2.48-0.78-5.01-1.43-7.49c-0.78-2.96-1.59-5.92-2.41-8.87
		c-1.13-4.03-2.31-8.04-3.53-12.03c-0.65-2.11-1.3-4.23-1.93-6.35c-0.63-2.09-1.2-4.19-1.86-6.27c0.41,2.07,0.82,4.14,1.22,6.22
		c1.06,5.42,2.13,10.84,3.22,16.25c0.32,1.58,0.64,3.17,0.96,4.75c0.76,3.73,1.54,7.47,2.31,11.2c0.28,1.37,0.71,3.09,1.67,3.85
		C1081.08,343.46,1081.89,342.86,1081.96,341.49z"/>
	<path class="st2" d="M1055.49,322.08c-0.51,1.53-1.03,3.06-1.54,4.59c-1.21,3.62-2.4,7.24-3.6,10.85
		c-0.44,1.32-0.93,3.03-0.48,4.16c0.43,1.07,1.42,0.96,2.17-0.19c1.35-2.08,1.83-4.73,2.5-7.2c0.81-2.96,1.59-5.92,2.34-8.89
		c1.03-4.05,2.02-8.12,2.96-12.19c0.5-2.15,0.99-4.31,1.5-6.46c0.5-2.13,1.05-4.23,1.53-6.36c-0.68,2-1.36,4-2.05,6
		C1059.04,311.62,1057.25,316.84,1055.49,322.08z"/>
	<path class="st2" d="M1056.06,296.36c-1.59,1.39-3.18,2.78-4.77,4.17c-4.16,3.63-8.32,7.26-12.46,10.91
		c-1.21,1.07-2.43,2.13-3.63,3.21c-2.85,2.53-5.7,5.07-8.55,7.6c-1.04,0.93-2.32,2.16-2.5,3.37c-0.17,1.14,0.75,1.54,1.98,0.92
		c2.21-1.13,3.95-3.18,5.77-4.99c2.18-2.16,4.33-4.33,6.47-6.52c2.92-2.99,5.81-6.02,8.66-9.07c1.51-1.62,3.01-3.24,4.53-4.85
		C1053.06,299.52,1054.59,297.97,1056.06,296.36z"/>
	<path class="st2" d="M1039.56,293.25c2.11-0.65,4.23-1.3,6.35-1.93c2.09-0.63,4.19-1.2,6.27-1.86c-2.07,0.41-4.14,0.82-6.22,1.22
		c-5.42,1.06-10.84,2.13-16.25,3.22c-1.58,0.32-3.17,0.64-4.75,0.96c-3.73,0.76-7.47,1.54-11.2,2.31c-1.37,0.28-3.09,0.71-3.85,1.67
		c-0.72,0.91-0.12,1.71,1.25,1.79c2.48,0.13,5.01-0.78,7.49-1.43c2.96-0.78,5.92-1.59,8.87-2.41
		C1031.56,295.65,1035.57,294.47,1039.56,293.25z"/>
	<path class="st2" d="M1018.37,273.21c2.96,0.81,5.92,1.59,8.89,2.34c4.05,1.03,8.12,2.02,12.19,2.96c2.15,0.5,4.31,0.99,6.46,1.5
		c2.13,0.5,4.23,1.05,6.36,1.53c-2-0.68-4-1.36-6-2.05c-5.22-1.79-10.45-3.58-15.68-5.34c-1.53-0.51-3.06-1.03-4.59-1.54
		c-3.62-1.21-7.24-2.4-10.85-3.6c-1.32-0.44-3.03-0.93-4.16-0.48c-1.07,0.43-0.96,1.42,0.19,2.17
		C1013.25,272.06,1015.9,272.54,1018.37,273.21z"/>
	<path class="st2" d="M1031.11,250.56c2.16,2.18,4.33,4.33,6.52,6.47c2.99,2.92,6.02,5.81,9.07,8.66c1.62,1.51,3.24,3.01,4.85,4.53
		c1.59,1.5,3.14,3.03,4.75,4.5c-1.39-1.59-2.78-3.18-4.17-4.77c-3.63-4.16-7.26-8.32-10.91-12.46c-1.07-1.21-2.13-2.43-3.21-3.63
		c-2.53-2.85-5.07-5.7-7.6-8.55c-0.93-1.04-2.16-2.32-3.37-2.5c-1.14-0.17-1.54,0.75-0.92,1.98
		C1027.26,247.01,1029.31,248.74,1031.11,250.56z"/>
	<path class="st2" d="M1052.04,229.84c-0.13,2.48,0.78,5.01,1.43,7.49c0.78,2.96,1.59,5.92,2.41,8.87
		c1.13,4.03,2.31,8.04,3.53,12.03c0.65,2.11,1.3,4.23,1.93,6.35c0.63,2.09,1.2,4.19,1.86,6.27c-0.41-2.07-0.82-4.14-1.22-6.22
		c-1.06-5.42-2.13-10.84-3.22-16.25c-0.32-1.58-0.64-3.17-0.97-4.75c-0.76-3.73-1.54-7.47-2.31-11.2c-0.28-1.37-0.71-3.09-1.67-3.85
		C1052.92,227.87,1052.11,228.47,1052.04,229.84z"/>
	<path class="st2" d="M1078.51,249.26c0.51-1.53,1.03-3.06,1.54-4.59c1.21-3.62,2.4-7.24,3.6-10.85c0.44-1.32,0.93-3.03,0.48-4.16
		c-0.43-1.07-1.42-0.96-2.17,0.19c-1.35,2.08-1.83,4.73-2.5,7.2c-0.81,2.96-1.59,5.92-2.34,8.89c-1.03,4.05-2.02,8.12-2.96,12.19
		c-0.5,2.15-0.99,4.31-1.5,6.46c-0.5,2.13-1.05,4.23-1.53,6.36c0.68-2,1.36-4,2.05-6C1074.96,259.71,1076.75,254.49,1078.51,249.26z
		"/>
	<path class="st2" d="M1051.19,224.52c2.36,0.12,2.55-3.54,0.19-3.66C1049.03,220.73,1048.83,224.4,1051.19,224.52z"/>
	<path class="st2" d="M1022.02,239.72c2.36,0.12,2.55-3.54,0.19-3.66C1019.86,235.93,1019.66,239.59,1022.02,239.72z"/>
	<path class="st2" d="M1004.52,265.74c-2.36-0.12-2.55,3.54-0.19,3.66C1006.69,269.53,1006.88,265.86,1004.52,265.74z"/>
	<path class="st2" d="M1005.19,299.45c-2.36-0.12-2.55,3.54-0.19,3.66C1007.35,303.24,1007.55,299.58,1005.19,299.45z"/>
	<path class="st2" d="M1019.78,328.59c-2.36-0.12-2.55,3.54-0.19,3.66C1021.94,332.38,1022.14,328.72,1019.78,328.59z"/>
	<path class="st2" d="M1049.25,346.48c-2.36-0.12-2.55,3.54-0.19,3.66C1051.41,350.27,1051.61,346.6,1049.25,346.48z"/>
	<path class="st2" d="M1082.73,346.41c-2.36-0.12-2.55,3.54-0.19,3.66C1084.89,350.2,1085.09,346.53,1082.73,346.41z"/>
	<path class="st2" d="M1111.36,329.75c-2.36-0.12-2.55,3.54-0.19,3.66C1113.53,333.54,1113.73,329.88,1111.36,329.75z"/>
	<path class="st2" d="M1128.56,301.68c-2.36-0.12-2.55,3.54-0.19,3.66C1130.73,305.47,1130.92,301.8,1128.56,301.68z"/>
	<path class="st2" d="M1129.9,272.56c2.36,0.12,2.55-3.54,0.19-3.66C1127.73,268.77,1127.53,272.44,1129.9,272.56z"/>
	<path class="st2" d="M1113.53,242.3c2.36,0.12,2.55-3.54,0.19-3.66C1111.37,238.52,1111.17,242.18,1113.53,242.3z"/>
	<path class="st2" d="M1084.83,225.28c2.36,0.12,2.55-3.54,0.19-3.66C1082.67,221.49,1082.47,225.15,1084.83,225.28z"/>
	<path class="st2" d="M1085.9,255.2c-0.48-0.31-4.53,5.07-9.04,12.01c-4.51,6.95-7.78,12.83-7.31,13.14
		c0.48,0.31,4.53-5.07,9.04-12.01C1083.1,261.39,1086.37,255.51,1085.9,255.2z"/>
	
		<ellipse transform="matrix(0.8912 -0.4537 0.4537 0.8912 -7.0391 522.341)" class="st2" cx="1085.24" cy="275.84" rx="15" ry="1.03"/>
	<path class="st2" d="M1102.7,287.38c0.03-0.57-6.65-1.39-14.92-1.82c-8.27-0.44-15-0.33-15.03,0.24s6.65,1.39,14.92,1.82
		C1095.94,288.06,1102.67,287.95,1102.7,287.38z"/>
	<path class="st2" d="M1083.94,298.01c6.95,4.51,12.83,7.78,13.14,7.31c0.31-0.48-5.07-4.53-12.01-9.04
		c-6.94-4.51-12.83-7.78-13.14-7.31C1071.61,289.44,1076.99,293.49,1083.94,298.01z"/>
	<path class="st2" d="M1083.24,318.03c0.51-0.26-2.12-6.45-5.88-13.83c-3.76-7.38-7.22-13.16-7.73-12.9
		c-0.51,0.26,2.12,6.45,5.88,13.83C1079.27,312.51,1082.73,318.29,1083.24,318.03z"/>
	
		<ellipse transform="matrix(0.0527 -0.9986 0.9986 0.0527 702.7925 1355.1521)" class="st2" cx="1065.68" cy="307.14" rx="15" ry="1.03"/>
	<path class="st2" d="M1054.27,303.35c-4.51,6.95-7.78,12.83-7.31,13.14c0.48,0.31,4.53-5.07,9.04-12.01
		c4.51-6.95,7.78-12.83,7.31-13.14C1062.83,291.03,1058.78,296.41,1054.27,303.35z"/>
	<path class="st2" d="M1034.25,302.65c0.26,0.51,6.45-2.12,13.83-5.88c7.38-3.76,13.16-7.22,12.9-7.73
		c-0.26-0.51-6.45,2.12-13.83,5.88C1039.76,298.68,1033.99,302.14,1034.25,302.65z"/>
	
		<ellipse transform="matrix(0.0527 -0.9986 0.9986 0.0527 705.3354 1313.7516)" class="st2" cx="1045.13" cy="285.1" rx="1.03" ry="15"/>
	<path class="st2" d="M1060.93,282.73c0.31-0.48-5.07-4.53-12.01-9.04c-6.95-4.51-12.83-7.78-13.14-7.31
		c-0.31,0.48,5.07,4.53,12.01,9.04C1054.74,279.93,1060.62,283.2,1060.93,282.73z"/>
	<path class="st2" d="M1063.23,280.4c0.51-0.26-2.12-6.45-5.88-13.83c-3.76-7.38-7.22-13.16-7.73-12.9
		c-0.51,0.26,2.12,6.45,5.88,13.83C1059.26,274.88,1062.72,280.66,1063.23,280.4z"/>
	<path class="st2" d="M1066.38,279.53c0.57,0.03,1.39-6.65,1.82-14.92s0.33-15-0.24-15.03c-0.57-0.03-1.39,6.65-1.82,14.92
		S1065.81,279.5,1066.38,279.53z"/>
</g>
<g>
	<path class="st2" d="M409.36,274.59c1.74-1.52,3.48-3.05,5.23-4.57c4.56-3.98,9.12-7.95,13.65-11.96c1.33-1.17,2.66-2.34,3.98-3.52
		c3.12-2.77,6.24-5.55,9.36-8.33c1.14-1.01,2.55-2.37,2.74-3.69c0.18-1.25-0.83-1.69-2.17-1.01c-2.43,1.24-4.32,3.48-6.32,5.46
		c-2.38,2.36-4.75,4.75-7.09,7.15c-3.2,3.28-6.37,6.6-9.49,9.94c-1.65,1.77-3.3,3.55-4.96,5.31
		C412.65,271.13,410.97,272.83,409.36,274.59z"/>
	<path class="st2" d="M427.44,278c-2.32,0.71-4.63,1.42-6.95,2.12c-2.29,0.69-4.6,1.32-6.88,2.04c2.27-0.45,4.54-0.9,6.81-1.34
		c5.94-1.17,11.87-2.33,17.8-3.53c1.73-0.35,3.47-0.7,5.2-1.06c4.09-0.84,8.18-1.69,12.27-2.53c1.5-0.31,3.39-0.78,4.22-1.82
		c0.78-0.99,0.13-1.88-1.37-1.96c-2.72-0.14-5.49,0.86-8.2,1.57c-3.25,0.86-6.49,1.74-9.72,2.64
		C436.21,275.37,431.82,276.66,427.44,278z"/>
	<path class="st2" d="M458.55,302.7c-2.28-1.48-5.18-2-7.89-2.74c-3.24-0.88-6.49-1.74-9.74-2.57c-4.44-1.13-8.89-2.21-13.35-3.24
		c-2.36-0.55-4.72-1.08-7.08-1.64c-2.33-0.55-4.64-1.16-6.97-1.67c2.19,0.75,4.38,1.49,6.57,2.24c5.72,1.96,11.45,3.92,17.18,5.85
		c1.68,0.56,3.35,1.13,5.03,1.69c3.96,1.32,7.93,2.63,11.89,3.95c1.45,0.48,3.32,1.02,4.56,0.53
		C459.93,304.61,459.81,303.52,458.55,302.7z"/>
	<path class="st2" d="M436.7,324.77c-2.36-2.39-4.75-4.75-7.15-7.09c-3.28-3.2-6.6-6.37-9.94-9.49c-1.77-1.65-3.55-3.3-5.31-4.96
		c-1.74-1.64-3.44-3.32-5.2-4.93c1.52,1.74,3.05,3.48,4.57,5.23c3.98,4.56,7.95,9.12,11.96,13.65c1.17,1.33,2.34,2.66,3.52,3.98
		c2.77,3.13,5.55,6.24,8.33,9.36c1.01,1.14,2.37,2.54,3.69,2.74c1.25,0.18,1.69-0.83,1.01-2.16
		C440.92,328.67,438.68,326.77,436.7,324.77z"/>
	<path class="st2" d="M413.77,347.49c0.14-2.72-0.85-5.49-1.57-8.2c-0.86-3.25-1.74-6.49-2.64-9.72c-1.24-4.41-2.53-8.81-3.87-13.19
		c-0.71-2.32-1.42-4.63-2.12-6.95c-0.69-2.29-1.32-4.6-2.04-6.88c0.45,2.27,0.9,4.54,1.34,6.81c1.17,5.94,2.33,11.87,3.53,17.8
		c0.35,1.73,0.7,3.47,1.06,5.2c0.84,4.09,1.69,8.18,2.53,12.27c0.31,1.5,0.78,3.39,1.82,4.22
		C412.81,349.64,413.69,348.99,413.77,347.49z"/>
	<path class="st2" d="M384.77,326.21c-0.56,1.68-1.13,3.35-1.69,5.03c-1.32,3.96-2.63,7.93-3.95,11.89
		c-0.48,1.45-1.02,3.32-0.53,4.56c0.47,1.17,1.56,1.05,2.38-0.21c1.48-2.28,2-5.18,2.74-7.89c0.88-3.24,1.74-6.49,2.57-9.74
		c1.13-4.44,2.21-8.89,3.24-13.35c0.55-2.36,1.08-4.72,1.64-7.08c0.55-2.33,1.16-4.64,1.67-6.97c-0.75,2.19-1.49,4.38-2.24,6.57
		C388.65,314.75,386.69,320.47,384.77,326.21z"/>
	<path class="st2" d="M385.39,298.03c-1.74,1.52-3.48,3.05-5.23,4.57c-4.56,3.98-9.12,7.95-13.65,11.96
		c-1.33,1.17-2.66,2.34-3.98,3.52c-3.13,2.77-6.24,5.55-9.36,8.33c-1.14,1.01-2.55,2.37-2.74,3.69c-0.18,1.25,0.83,1.69,2.16,1.01
		c2.43-1.24,4.32-3.48,6.32-5.46c2.38-2.36,4.75-4.75,7.09-7.15c3.2-3.28,6.37-6.6,9.49-9.94c1.65-1.77,3.3-3.55,4.96-5.31
		C382.1,301.49,383.78,299.8,385.39,298.03z"/>
	<path class="st2" d="M367.31,294.63c2.32-0.71,4.63-1.42,6.95-2.12c2.29-0.69,4.6-1.32,6.88-2.04c-2.27,0.45-4.54,0.9-6.81,1.34
		c-5.94,1.17-11.87,2.33-17.8,3.53c-1.73,0.35-3.47,0.7-5.2,1.06c-4.09,0.84-8.18,1.69-12.27,2.53c-1.5,0.31-3.39,0.78-4.22,1.82
		c-0.78,0.99-0.13,1.88,1.37,1.96c2.72,0.14,5.49-0.86,8.2-1.57c3.25-0.86,6.49-1.74,9.72-2.64
		C358.54,297.25,362.93,295.96,367.31,294.63z"/>
	<path class="st2" d="M344.09,272.66c3.24,0.88,6.49,1.74,9.74,2.57c4.44,1.13,8.89,2.21,13.35,3.25c2.36,0.55,4.72,1.08,7.08,1.64
		c2.33,0.55,4.64,1.16,6.97,1.67c-2.19-0.75-4.38-1.49-6.57-2.24c-5.72-1.96-11.45-3.92-17.18-5.85c-1.68-0.56-3.35-1.13-5.03-1.69
		c-3.96-1.32-7.93-2.63-11.89-3.95c-1.45-0.48-3.32-1.02-4.56-0.53c-1.17,0.47-1.05,1.56,0.21,2.38
		C338.48,271.4,341.38,271.93,344.09,272.66z"/>
	<path class="st2" d="M358.05,247.85c2.36,2.38,4.75,4.75,7.15,7.09c3.28,3.2,6.6,6.37,9.94,9.49c1.77,1.65,3.55,3.3,5.31,4.96
		c1.74,1.64,3.44,3.32,5.2,4.93c-1.52-1.74-3.05-3.48-4.57-5.23c-3.98-4.56-7.95-9.12-11.96-13.65c-1.17-1.33-2.34-2.66-3.52-3.98
		c-2.77-3.13-5.55-6.24-8.33-9.36c-1.01-1.14-2.37-2.55-3.69-2.74c-1.25-0.18-1.69,0.83-1.01,2.16
		C353.83,243.96,356.07,245.85,358.05,247.85z"/>
	<path class="st2" d="M380.98,225.14c-0.14,2.72,0.85,5.49,1.57,8.2c0.86,3.25,1.74,6.49,2.64,9.72c1.24,4.41,2.53,8.81,3.87,13.19
		c0.71,2.32,1.42,4.63,2.12,6.95c0.69,2.29,1.32,4.6,2.04,6.88c-0.45-2.27-0.9-4.54-1.34-6.81c-1.17-5.94-2.33-11.87-3.53-17.8
		c-0.35-1.73-0.7-3.47-1.06-5.2c-0.84-4.09-1.69-8.18-2.53-12.27c-0.31-1.5-0.78-3.39-1.82-4.22
		C381.94,222.98,381.06,223.64,380.98,225.14z"/>
	<path class="st2" d="M409.98,246.42c0.56-1.68,1.13-3.35,1.69-5.03c1.32-3.96,2.63-7.93,3.95-11.89c0.48-1.45,1.02-3.32,0.53-4.56
		c-0.47-1.18-1.56-1.05-2.38,0.21c-1.48,2.28-2,5.18-2.74,7.89c-0.88,3.24-1.74,6.49-2.57,9.74c-1.13,4.44-2.21,8.89-3.24,13.35
		c-0.55,2.36-1.08,4.72-1.64,7.08c-0.55,2.33-1.16,4.64-1.67,6.97c0.75-2.19,1.5-4.38,2.24-6.57
		C406.09,257.87,408.05,252.15,409.98,246.42z"/>
	<path class="st2" d="M380.05,219.31c2.58,0.14,2.8-3.88,0.21-4.01C377.68,215.16,377.47,219.18,380.05,219.31z"/>
	<path class="st2" d="M348.09,235.97c2.58,0.14,2.8-3.88,0.21-4.01C345.71,231.81,345.5,235.83,348.09,235.97z"/>
	<path class="st2" d="M328.91,264.48c-2.58-0.14-2.8,3.88-0.21,4.01C331.28,268.63,331.5,264.61,328.91,264.48z"/>
	<path class="st2" d="M329.65,301.42c-2.58-0.14-2.8,3.88-0.21,4.01C332.02,305.57,332.23,301.55,329.65,301.42z"/>
	<path class="st2" d="M345.63,333.35c-2.58-0.14-2.8,3.88-0.21,4.01C348,337.5,348.22,333.49,345.63,333.35z"/>
	<path class="st2" d="M377.92,352.95c-2.58-0.14-2.8,3.88-0.21,4.01C380.29,357.1,380.51,353.08,377.92,352.95z"/>
	<path class="st2" d="M414.6,352.87c-2.58-0.14-2.8,3.88-0.21,4.01C416.97,357.02,417.19,353.01,414.6,352.87z"/>
	<path class="st2" d="M445.98,334.62c-2.58-0.14-2.8,3.88-0.21,4.01C448.35,338.77,448.57,334.76,445.98,334.62z"/>
	<path class="st2" d="M464.83,303.86c-2.58-0.14-2.8,3.88-0.21,4.01C467.2,308.01,467.42,303.99,464.83,303.86z"/>
	<path class="st2" d="M466.29,271.95c2.58,0.14,2.8-3.88,0.21-4.01C463.92,267.8,463.7,271.81,466.29,271.95z"/>
	<path class="st2" d="M448.36,238.8c2.58,0.14,2.8-3.88,0.21-4.01C445.99,234.65,445.77,238.66,448.36,238.8z"/>
	<path class="st2" d="M416.91,220.14c2.58,0.14,2.8-3.88,0.21-4.01C414.54,215.99,414.33,220,416.91,220.14z"/>
	<path class="st2" d="M418.08,252.93c-0.52-0.34-4.96,5.55-9.91,13.16c-4.95,7.61-8.53,14.06-8.01,14.4
		c0.52,0.34,4.96-5.55,9.91-13.16C415.02,259.72,418.6,253.27,418.08,252.93z"/>
	
		<ellipse transform="matrix(0.8912 -0.4537 0.4537 0.8912 -79.5849 219.3232)" class="st2" cx="417.36" cy="275.55" rx="16.43" ry="1.13"/>
	<path class="st2" d="M436.49,288.19c0.03-0.63-7.29-1.52-16.35-2c-9.06-0.48-16.44-0.36-16.47,0.27c-0.03,0.63,7.29,1.52,16.35,2
		C429.08,288.93,436.46,288.82,436.49,288.19z"/>
	<path class="st2" d="M415.93,299.83c7.61,4.95,14.06,8.53,14.4,8.01c0.34-0.52-5.55-4.96-13.16-9.91
		c-7.61-4.95-14.06-8.53-14.4-8.01C402.43,290.45,408.32,294.89,415.93,299.83z"/>
	<path class="st2" d="M415.16,321.77c0.56-0.28-2.33-7.07-6.45-15.16c-4.12-8.09-7.91-14.42-8.47-14.13
		c-0.56,0.28,2.33,7.07,6.45,15.16C410.81,315.73,414.6,322.05,415.16,321.77z"/>
	
		<ellipse transform="matrix(0.0527 -0.9986 0.9986 0.0527 65.6478 688.8888)" class="st2" cx="395.93" cy="309.84" rx="16.43" ry="1.13"/>
	<path class="st2" d="M383.42,305.69c-4.95,7.61-8.53,14.06-8.01,14.4c0.52,0.34,4.96-5.55,9.91-13.16
		c4.95-7.61,8.53-14.06,8.01-14.4C392.8,292.19,388.37,298.08,383.42,305.69z"/>
	<path class="st2" d="M361.49,304.92c0.28,0.56,7.07-2.33,15.16-6.45c8.09-4.12,14.42-7.91,14.13-8.47s-7.07,2.33-15.16,6.45
		C367.53,300.58,361.2,304.37,361.49,304.92z"/>
	
		<ellipse transform="matrix(0.0527 -0.9986 0.9986 0.0527 68.434 643.5249)" class="st2" cx="373.41" cy="285.69" rx="1.13" ry="16.43"/>
	<path class="st2" d="M390.73,283.09c0.34-0.52-5.55-4.96-13.16-9.91c-7.61-4.95-14.06-8.53-14.4-8.01
		c-0.34,0.52,5.55,4.96,13.16,9.91C383.94,280.03,390.38,283.61,390.73,283.09z"/>
	<path class="st2" d="M393.24,280.54c0.56-0.28-2.33-7.07-6.45-15.16c-4.12-8.09-7.91-14.42-8.47-14.13
		c-0.56,0.28,2.33,7.07,6.45,15.16C388.89,274.49,392.68,280.82,393.24,280.54z"/>
	<path class="st2" d="M396.7,279.58c0.62,0.03,1.52-7.29,2-16.35c0.48-9.06,0.36-16.44-0.27-16.47c-0.63-0.03-1.52,7.29-2,16.35
		C395.95,272.18,396.07,279.55,396.7,279.58z"/>
</g>
<g>
	<g>
		<polygon class="st1" points="889.02,636.5 889.02,586.49 829.7,586.49 829.7,636.5 821.63,636.5 821.63,608.86 815.13,608.86 
			815.13,598.67 778.51,598.67 778.51,607.93 774.93,607.93 723.19,620.49 723.19,635.63 707.6,635.63 707.6,576.92 668.28,576.92 
			668.28,552.2 611.44,552.2 611.44,615.72 599.28,605.93 578.46,619.17 578.46,635.19 557.32,635.19 557.32,532.61 499.75,532.61 
			499.75,647.2 492.85,647.2 492.85,590.45 486.77,590.45 486.77,584.87 441.36,584.87 441.36,590.45 435.29,590.45 435.29,618.16 
			340.42,618.16 340.5,621.97 439.44,621.97 439.44,594.27 445.52,594.27 445.52,588.69 482.61,588.69 482.61,594.27 488.7,594.27 
			488.7,651.01 503.91,651.01 503.91,536.42 509.04,536.42 509.04,634.39 512.36,634.39 512.36,536.42 518,536.42 518,634.39 
			521.34,634.39 521.34,536.42 527.33,536.42 527.33,634.39 530.65,634.39 530.65,536.42 536.29,536.42 536.29,634.39 
			539.63,634.39 539.63,536.42 544.45,536.42 544.45,634.39 547.79,634.39 547.79,536.42 553.16,536.42 553.16,639.71 
			557.32,639.98 557.32,639.72 582.99,639.72 582.99,621.66 598.97,611.49 611.39,621.5 611.39,638.33 611.44,620.95 615.96,620.95 
			615.96,556.73 663.75,556.73 663.75,637.46 663.8,639.72 668.33,639.72 668.33,581.45 703.08,581.45 703.08,640.16 727.72,640.16 
			727.72,624.05 775.47,612.46 783.04,612.46 783.04,603.19 810.61,603.19 810.61,613.39 817.11,613.39 817.11,641.03 
			834.23,641.03 834.23,591.02 884.49,591.02 884.49,641.03 939.58,641.03 939.58,636.5 		"/>
		<rect x="622.59" y="587.87" class="st1" width="7.18" height="5.98"/>
		<rect x="622.59" y="577.09" class="st1" width="7.18" height="5.96"/>
		<rect x="622.59" y="566.3" class="st1" width="7.18" height="5.97"/>
		<rect x="635.59" y="598.66" class="st1" width="7.18" height="5.96"/>
		<rect x="635.59" y="587.87" class="st1" width="7.18" height="5.98"/>
		<rect x="635.59" y="566.3" class="st1" width="7.18" height="5.97"/>
		<rect x="648.6" y="598.66" class="st1" width="7.18" height="5.96"/>
		<rect x="622.59" y="608.88" class="st1" width="7.18" height="5.96"/>
		<rect x="635.59" y="608.88" class="st1" width="7.18" height="5.96"/>
		<rect x="648.6" y="608.88" class="st1" width="7.18" height="5.96"/>
		<rect x="648.6" y="577.09" class="st1" width="7.18" height="5.96"/>
		<rect x="648.6" y="566.3" class="st1" width="7.18" height="5.97"/>
		<rect x="688.6" y="630.25" class="st1" width="7.18" height="5.96"/>
		<rect x="688.6" y="619.45" class="st1" width="7.18" height="5.98"/>
		<rect x="688.6" y="597.88" class="st1" width="7.18" height="5.97"/>
		<rect x="688.6" y="587.1" class="st1" width="7.18" height="5.98"/>
		<rect x="592.56" y="621.28" class="st1" width="11.28" height="11.28"/>
		<rect x="841.78" y="604.87" class="st1" width="3.48" height="12.68"/>
		<rect x="851.18" y="604.87" class="st1" width="3.5" height="12.68"/>
		<rect x="860.97" y="604.87" class="st1" width="3.48" height="12.68"/>
		<rect x="870.37" y="604.87" class="st1" width="3.5" height="12.68"/>
		<rect x="789.16" y="638.31" class="st1" width="5.04" height="4.99"/>
		<rect x="789.16" y="629.3" class="st1" width="5.04" height="4.99"/>
		<rect x="789.16" y="620.29" class="st1" width="5.04" height="4.99"/>
		<rect x="799.63" y="638.31" class="st1" width="5.04" height="4.99"/>
		<rect x="799.63" y="620.29" class="st1" width="5.04" height="4.99"/>
		<rect x="799.63" y="611.28" class="st1" width="5.04" height="4.99"/>
	</g>
	<g>
		<path class="st1" d="M464.07,709.92h-17.18v-9.25c0-1.23-1-2.23-2.23-2.23h-16.12v-9.25c0-1.23-1-2.23-2.23-2.23h-67.84
			c0-0.14-0.01-0.28-0.05-0.41l-16.81-59.92l4.21-8.08c0.25-0.47,0.23-1.04-0.05-1.5c-0.28-0.46-0.77-0.74-1.31-0.74h-13.94v-6.03
			c0-0.84-0.68-1.53-1.53-1.53h-6.82v-5.37h12.13c0.18,0,0.37-0.02,0.54-0.07l19.02-5.26c0.84-0.23,1.43-0.97,1.49-1.83
			c0.06-0.87-0.44-1.67-1.24-2.01l-37.89-16.08c-0.25-0.11-0.52-0.16-0.8-0.16h-29.19h-54.56h-29.19c-0.27,0-0.54,0.06-0.8,0.16
			l-37.89,16.08c-0.8,0.34-1.3,1.15-1.24,2.01c0.06,0.86,0.65,1.6,1.49,1.83l19.02,5.26c0.18,0.05,0.36,0.07,0.54,0.07h8v5.37h-5.5
			c-0.84,0-1.53,0.68-1.53,1.53v6.03h-13.94c-0.53,0-1.03,0.28-1.31,0.74c-0.28,0.46-0.3,1.03-0.05,1.5l4.21,8.08l-16.81,59.92
			c-0.04,0.14-0.05,0.28-0.05,0.41H85.89c-1.23,0-2.23,1-2.23,2.23v9.25H67.54c-1.23,0-2.23,1-2.23,2.23v9.25H48.14
			c-1.23,0-2.23,1-2.23,2.23v11.48c0,1.23,1,2.23,2.23,2.23h93.66c0.17,0.04,0.33,0.08,0.51,0.08h45.47h136.87h43.88
			c0.28,0,0.54-0.07,0.79-0.16c0.19,0.05,0.38,0.09,0.58,0.09h94.17c1.23,0,2.23-1,2.23-2.23v-11.48
			C466.3,710.92,465.3,709.92,464.07,709.92z M442.44,709.92h-84.89l-8.07-7.02h92.96V709.92z M424.09,698.44h-79.73l-8.07-7.02
			h87.8V698.44z M351.56,683.03h-48.61v-53.97h33.47L351.56,683.03z M337.8,621.76l-0.96,1.84h-33.89v-1.84H337.8z M324.85,614.2
			v2.11H298.8c-0.84,0-1.53,0.68-1.53,1.53v68.51h-11.85V647.3c0-11.05-7.62-20.5-18.28-24.14v-8.96H324.85z M257.43,627.18
			c12.2,0,22.13,9.02,22.13,20.12v35.58h-44.26V647.3C235.29,636.21,245.22,627.18,257.43,627.18z M252.9,621.63v-11.98h8.56v11.98
			h-2.1c-0.64-0.04-1.28-0.07-1.93-0.07c-0.65,0-1.29,0.03-1.93,0.07H252.9z M315.02,582.03l32.13,13.63l-13.12,3.63h-22.32
			l-9.41-4.85l-11.42-12.41H315.02z M232.58,582.03h52.77l12.39,13.47l-7.35,3.79h-62.86l-7.35-3.79L232.58,582.03z M170.77,595.66
			l32.13-13.63h24.13l-11.42,12.41l-9.4,4.85H183.9L170.77,595.66z M206.71,603.37c0.33,0,0.65-0.08,0.93-0.23l9.23-4.76l9.23,4.76
			c0.29,0.15,0.61,0.23,0.93,0.23h63.85c0.33,0,0.65-0.08,0.93-0.23l9.23-4.76l9.23,4.76c0.29,0.15,0.61,0.23,0.93,0.23h5.28v5.37
			h-49.36v-3.03c0-0.84-0.68-1.53-1.53-1.53h-16.86c-0.84,0-1.53,0.68-1.53,1.53v3.03H197.3v-5.37H206.71z M190.28,614.2h56.95v9.14
			c-10.4,3.76-17.79,13.08-17.79,23.96v39.04h-11.58v-68.51c0-0.84-0.68-1.53-1.53-1.53h-26.05V614.2z M148.17,721.47l8.79-7.65
			l13.18-11.48c0,0,0,0,0,0l13.18-11.48c0.02-0.02,0.04-0.05,0.06-0.07h21.77l-18.63,30.68H148.17z M212.18,621.76v1.84h-33.89
			l-0.96-1.84H212.18z M178.71,629.06h33.47v53.97h-48.61L178.71,629.06z M88.12,691.42h87.19l-7.91,7.02H88.12V691.42z
			 M69.77,702.89h92.61l-7.91,7.02h-84.7V702.89z M50.37,714.37h17.18h81.92l-4.21,3.74l-3.78,3.29H50.37V714.37z M191.73,721.47
			l18.63-30.68h91.69l18.63,30.68H191.73z M325.9,721.47l-18.63-30.68h20.86l34.54,30.68H325.9z M461.84,721.4h-91.11l-8.07-7.02h82
			h17.18V721.4z"/>
		<path class="st1" d="M172.73,573.5l17.29,3.76c0.14,0.03,0.29,0.05,0.43,0.05h21c0.26,0,0.52-0.05,0.76-0.15l8.48-3.43l8.48,3.43
			c0.24,0.1,0.5,0.15,0.76,0.15h58.05c0.26,0,0.52-0.05,0.76-0.15l8.48-3.43l8.48,3.43c0.24,0.1,0.5,0.15,0.76,0.15h20.99
			c0.15,0,0.29-0.02,0.43-0.05l17.3-3.76c0.94-0.2,1.61-1.03,1.61-1.99s-0.67-1.79-1.61-1.99l-23.08-5.01
			c-19.56-6.87-42.92-17.82-55.39-23.88l-1.5-1.83c0.95-1.3,2.18-3.52,2.19-6.23v-0.01c0-4.11-3.79-7.45-8.46-7.45
			c-4.66,0-8.46,3.34-8.46,7.45c0,0.02,0,0.05,0,0.07c0.02,2.69,1.24,4.88,2.18,6.17l-1.5,1.83c-12.46,6.06-35.83,17.01-55.39,23.88
			l-23.08,5.01c-0.94,0.2-1.61,1.03-1.61,1.99S171.79,573.29,172.73,573.5z M287.59,573.22h-57.26l-5.76-2.33l10.9-9.3l20.45-17.28
			H262l20.45,17.28l10.91,9.31L287.59,573.22z M320.89,568.39c0.08,0.03,0.16,0.05,0.24,0.07l14.03,3.05l-7.91,1.72h-20.38
			l-8.57-3.47l-13.22-11.28l-12.38-10.46C285.88,554.24,304.67,562.7,320.89,568.39z M258.96,529.19c2.37,0,4.38,1.54,4.38,3.37
			h2.04l-2.04,0.01c0,1.74-0.93,3.23-1.52,4h-5.71c-0.6-0.78-1.52-2.26-1.52-4c0-0.02,0-0.03,0-0.05
			C254.61,530.68,256.57,529.19,258.96,529.19z M196.79,568.46c0.08-0.02,0.16-0.04,0.24-0.07c16.22-5.68,35.02-14.15,48.19-20.38
			l-12.39,10.47l-13.21,11.28l-8.57,3.47h-20.38l-7.91-1.72L196.79,568.46z"/>
	</g>
	<path class="st1" d="M147.7,674.26l-12.91-38.37c-0.23-0.68-0.87-1.14-1.59-1.14s-1.36,0.46-1.59,1.14l-12.91,38.37
		c-0.17,0.51-0.09,1.07,0.23,1.51s0.82,0.7,1.36,0.7h10.6v10.72c0,0.86,0.7,1.56,1.56,1.56h0.6c0.86,0,1.56-0.7,1.56-1.56v-10.72
		h11.51c0.54,0,1.05-0.26,1.36-0.7C147.79,675.33,147.88,674.77,147.7,674.26z"/>
	<path class="st1" d="M1375.53,707.81l-15.45-42.11c-0.27-0.75-1.04-1.25-1.9-1.25s-1.62,0.5-1.9,1.25l-15.45,42.11
		c-0.21,0.56-0.1,1.18,0.27,1.66c0.38,0.48,0.98,0.77,1.63,0.77h14.62c-0.45,0.33-0.74,0.85-0.74,1.44v13.22
		c0,0.98,0.8,1.79,1.79,1.79h0.88c0.98,0,1.79-0.8,1.79-1.79v-13.22c0-0.59-0.29-1.11-0.74-1.44h13.32c0.65,0,1.25-0.29,1.63-0.77
		C1375.64,708.99,1375.74,708.37,1375.53,707.81z M1345.52,706.55l12.66-34.51l12.66,34.51H1345.52z"/>
	<path class="st1" d="M1407.52,714.86l-11.93-32.51c-0.21-0.58-0.8-0.97-1.47-0.97s-1.25,0.39-1.47,0.97l-11.93,32.51
		c-0.16,0.43-0.08,0.91,0.21,1.28c0.29,0.37,0.76,0.59,1.26,0.59h9.79v9.02c0,0.76,0.62,1.38,1.38,1.38h0.68
		c0.76,0,1.38-0.62,1.38-1.38v-9.02h10.63c0.5,0,0.97-0.22,1.26-0.59C1407.6,715.77,1407.68,715.29,1407.52,714.86z"/>
	<path class="st1" d="M425.98,677.83l-9.84-29.22c-0.18-0.52-0.66-0.87-1.21-0.87c-0.55,0-1.03,0.35-1.21,0.87l-9.84,29.22
		c-0.13,0.39-0.07,0.82,0.17,1.15c0.24,0.33,0.62,0.53,1.04,0.53h8.07v8.16c0,0.65,0.53,1.19,1.19,1.19h0.46
		c0.65,0,1.19-0.53,1.19-1.19v-8.16h8.76c0.41,0,0.8-0.2,1.04-0.53C426.04,678.64,426.11,678.22,425.98,677.83z"/>
	<path class="st1" d="M511.55,707.06l-16.49-48.98c-0.29-0.87-1.11-1.46-2.03-1.46c-0.92,0-1.73,0.59-2.03,1.46l-16.49,48.98
		c-0.22,0.65-0.11,1.37,0.29,1.93c0.4,0.56,1.05,0.89,1.74,0.89h13.54v13.68c0,1.09,0.9,1.99,1.99,1.99h0.77
		c1.09,0,1.99-0.9,1.99-1.99v-13.68h14.69c0.69,0,1.33-0.33,1.74-0.89C511.66,708.43,511.77,707.72,511.55,707.06z M479.53,705.61
		l13.51-40.14l13.51,40.14H479.53z"/>
	<path class="st1" d="M397.9,672.7l-14.31-42.51c-0.25-0.76-0.96-1.26-1.76-1.26c-0.8,0-1.51,0.51-1.76,1.26l-14.31,42.51
		c-0.19,0.57-0.1,1.19,0.25,1.68s0.91,0.77,1.51,0.77h11.75v11.87c0,0.95,0.78,1.73,1.73,1.73h0.67c0.95,0,1.73-0.78,1.73-1.73
		v-11.87h12.75c0.6,0,1.16-0.29,1.51-0.77S398.09,673.26,397.9,672.7z M370.11,671.43l11.72-34.83l11.73,34.83H370.11z"/>
	<path class="st1" d="M76.81,689.48l-19.5-57.92c-0.35-1.03-1.31-1.72-2.4-1.72s-2.05,0.69-2.4,1.72l-19.5,57.92
		c-0.26,0.77-0.13,1.62,0.34,2.28c0.47,0.66,1.24,1.05,2.05,1.05h16.01v16.18c0,1.29,1.06,2.35,2.35,2.35h0.91
		c1.29,0,2.35-1.06,2.35-2.35v-16.18h17.37c0.81,0,1.58-0.39,2.05-1.05C76.94,691.1,77.07,690.25,76.81,689.48z M38.94,687.76
		l15.98-47.46l15.98,47.46H38.94z"/>
	<g>
		<path class="st1" d="M1195.53,529.1c-1.42,1.37-7.3,6.49-16.7,7.39c-1.09,0.1-1.96,0.97-2.05,2.07c-0.1,1.09,0.6,2.1,1.65,2.4
			c1.18,0.33,20.08,5.52,44.88,5.52c12.8,0,27.17-1.38,41.48-5.53c1-0.29,1.68-1.22,1.65-2.26c-0.03-1.04-0.76-1.93-1.77-2.16
			c-3.65-0.83-13.26-3.58-16.99-6.9v-7.25c0-1.26-1.02-2.28-2.28-2.28h-47.57c-1.26,0-2.28,1.02-2.28,2.28V529.1z M1188.97,538.61
			c4.9-2.04,8.15-4.74,9.53-6.04h45.63c2.62,2.56,7.22,4.6,11.32,6.03C1228.73,544.4,1202.45,541.13,1188.97,538.61z
			 M1200.09,524.67h43.01v3.34h-43.01V524.67z"/>
		<path class="st1" d="M1329.87,578.24h-11.19v-11.43h3.71c1.26,0,2.28-1.02,2.28-2.28v-5.79c0-1.26-1.02-2.28-2.28-2.28
			s-2.28,1.02-2.28,2.28v3.51h-49.74v-3.51c0-1.26-1.02-2.28-2.28-2.28s-2.28,1.02-2.28,2.28v5.79c0,1.26,1.02,2.28,2.28,2.28h3.72
			v11.43h-8.36v-6.07c0-1.26-1.02-2.28-2.28-2.28h-13.11v-13.71h4.57c1.26,0,2.28-1.02,2.28-2.28v-6.62c0-1.26-1.02-2.28-2.28-2.28
			s-2.28,1.02-2.28,2.28v4.34h-57.5v-4.34c0-1.26-1.02-2.28-2.28-2.28s-2.28,1.02-2.28,2.28v6.62c0,1.26,1.02,2.28,2.28,2.28h4.57
			v13.71h-7.32v-12.54c0-1.26-1.02-2.28-2.28-2.28h-18.03V537.3h6.09c1.26,0,2.28-1.02,2.28-2.28v-8.08c0-0.91-0.53-1.68-1.3-2.05
			c11.97-1.72,19.38-3.54,19.58-3.59c1.08-0.27,1.81-1.29,1.72-2.4c-0.09-1.11-0.97-1.99-2.08-2.09c-15.01-1.29-23.71-9.62-23.8-9.7
			c-0.43-0.42-1-0.66-1.6-0.66h-64.75c-0.65,0-1.26,0.27-1.69,0.75c-4.18,4.63-19.22,8.53-24.66,9.64c-1.04,0.21-1.8,1.11-1.82,2.17
			s0.68,2,1.71,2.27c6.37,1.66,12.77,2.94,19.12,3.92c-0.49,0.42-0.81,1.03-0.81,1.73v8.08c0,1.26,1.02,2.28,2.28,2.28h6.09v17.77
			h-18.03c-1.26,0-2.28,1.02-2.28,2.28v12.54h-8.11v-13.71h4.57c1.26,0,2.28-1.02,2.28-2.28v-6.62c0-1.26-1.02-2.28-2.28-2.28
			s-2.28,1.02-2.28,2.28v4.34h-57.5v-4.34c0-0.91-0.53-1.68-1.3-2.05c9.84,1.79,19.46,2.45,28.34,2.45c24.8,0,43.7-5.19,44.88-5.52
			c1.06-0.3,1.75-1.31,1.65-2.4c-0.1-1.09-0.96-1.96-2.05-2.07c-9.34-0.89-15.27-6.03-16.7-7.39v-6.7c0-1.26-1.02-2.28-2.28-2.28
			h-47.57c-1.26,0-2.28,1.02-2.28,2.28v7.25c-3.73,3.31-13.34,6.07-16.99,6.9c-1.01,0.23-1.74,1.12-1.77,2.16
			c-0.03,1.04,0.65,1.97,1.65,2.26c4.01,1.16,8.02,2.1,12,2.86c-1.19,0.08-2.13,1.06-2.13,2.26v6.62c0,1.26,1.02,2.28,2.28,2.28
			h4.57v13.71h-13.11c-1.26,0-2.28,1.02-2.28,2.28v6.07h-8.36v-11.43h3.71c1.26,0,2.28-1.02,2.28-2.28v-5.79
			c0-1.26-1.02-2.28-2.28-2.28c-1.26,0-2.28,1.02-2.28,2.28v3.51h-49.74v-3.51c0-0.96-0.59-1.77-1.42-2.11
			c8.61,1.56,17.03,2.14,24.8,2.14c21.74,0,38.31-4.55,39.35-4.84c1.06-0.3,1.75-1.31,1.65-2.4c-0.1-1.09-0.96-1.96-2.05-2.07
			c-7.93-0.76-13.01-5.04-14.36-6.31v-5.74c0-1.26-1.02-2.28-2.28-2.28h-41.62c-1.26,0-2.28,1.02-2.28,2.28v6.2
			c-2.96,2.53-10.31,4.91-14.65,5.89c-1.01,0.23-1.74,1.12-1.77,2.16c-0.03,1.04,0.65,1.97,1.65,2.26
			c3.57,1.03,7.14,1.87,10.69,2.54c-1.25,0.01-2.26,1.03-2.26,2.28v5.79c0,1.26,1.02,2.28,2.28,2.28h3.71v11.43H940.7
			c-1.26,0-2.28,1.02-2.28,2.28v9.1c0,0.55,0.19,1.05,0.51,1.44v47.9c0,1.26,1.02,2.28,2.28,2.28h15.89c1.26,0,2.28-1.02,2.28-2.28
			v-14.65c0-8.79,7.15-15.94,15.94-15.94c8.79,0,15.94,7.15,15.94,15.94v14.65c0,1.26,1.02,2.28,2.28,2.28h15.89
			c0.09,0,0.18-0.02,0.27-0.03c0.09,0.01,0.18,0.03,0.27,0.03h18.16c1.26,0,2.28-1.02,2.28-2.28v-16.74
			c0-10.22,8.32-18.54,18.54-18.54c10.23,0,18.54,8.32,18.54,18.54v16.74c0,1.26,1.02,2.28,2.28,2.28h18.16c0.01,0,0.03,0,0.04,0
			c0.01,0,0.03,0,0.04,0h22.19c1.26,0,2.28-1.02,2.28-2.28V618.5c0-12.77,10.39-23.16,23.17-23.16c12.77,0,23.16,10.39,23.16,23.16
			v20.46c0,1.26,1.02,2.28,2.28,2.28h21.49h0.71h17.46c1.26,0,2.28-1.02,2.28-2.28v-16.74c0-10.22,8.32-18.54,18.54-18.54
			c10.23,0,18.54,8.32,18.54,18.54v16.74c0,1.26,1.02,2.28,2.28,2.28h18.16c0.09,0,0.18-0.02,0.27-0.03
			c0.09,0.01,0.18,0.03,0.27,0.03h15.89c1.26,0,2.28-1.02,2.28-2.28v-14.65c0-8.79,7.15-15.94,15.94-15.94
			c8.79,0,15.94,7.15,15.94,15.94v14.65c0,1.26,1.02,2.28,2.28,2.28h15.89c1.26,0,2.28-1.02,2.28-2.28v-47.9
			c0.32-0.39,0.51-0.89,0.51-1.44v-9.1C1332.15,579.26,1331.13,578.24,1329.87,578.24z M1104.6,511.02h62.93
			c1.79,1.55,6.82,5.46,14.67,8.05c-18.09,3.17-56.23,7.84-94.75-0.08C1093.47,517.22,1100.82,514.5,1104.6,511.02z M1099.67,525.7
			c11.5,1.59,22.77,2.2,33.29,2.2c15.09,0,28.64-1.25,39.13-2.67c-0.47,0.42-0.78,1.02-0.78,1.7v5.8h-71.28v-5.8
			C1100.04,526.48,1099.9,526.05,1099.67,525.7z M1027.47,525.89h43.01v3.34h-43.01V525.89z M1026.45,533.79h45.63
			c1.38,1.3,4.63,4,9.53,6.04c-13.48,2.52-39.76,5.79-66.47-0.01C1019.22,538.38,1023.83,536.34,1026.45,533.79z M956.79,539.7
			h37.06v2.35h-37.06V539.7z M955.73,546.61h39.7c1.18,1.1,3.72,3.19,7.48,4.89c-11.85,2.14-33.76,4.69-56.16,0.03
			C950.06,550.31,953.59,548.65,955.73,546.61z M1327.59,586.87h-64.69v-2.83c0.29-0.34,0.48-0.77,0.52-1.24h10.66h42.31h11.19
			V586.87z M1276.37,566.95h37.75v11.29h-37.75V566.95z M1258.89,579.06c-0.17,0.21-0.31,0.44-0.41,0.7h-72.88v-5.3h11.82h48.36
			h13.11V579.06z M1179.8,571.68c-0.03,0.16-0.06,0.32-0.06,0.49v10.4c0,0.59,0.22,1.12,0.58,1.52v52.59h-4.69v-64.99H1179.8z
			 M1199.7,556.34h43.8v13.55h-43.8V556.34z M1108.41,537.49h54.53v17.57h-54.53V537.49z M1106.13,559.63
			C1106.13,559.63,1106.13,559.63,1106.13,559.63l59.1,0c0,0,0,0,0,0h18.02v7.5h-95.14v-7.5H1106.13z M1027.07,556.34h43.8v13.55
			h-43.8V556.34z M1024.79,574.45h48.36h12.61v5.3h-73.67c-0.09-0.26-0.23-0.49-0.41-0.7v-4.6H1024.79z M956.45,566.95h37.75v11.29
			h-37.75V566.95z M954.17,582.8h42.31h10.66c0.05,0.47,0.23,0.9,0.52,1.24v2.83h-64.69v-4.07H954.17z M995.83,636.68v-12.37
			c0-11.3-9.2-20.5-20.5-20.5s-20.5,9.2-20.5,20.5v12.37h-11.33v-45.24h63.66v45.24H995.83z M1072.08,636.68v-14.46
			c0-12.74-10.36-23.1-23.1-23.1s-23.1,10.36-23.1,23.1v14.46h-13.6v-52.36h73.41v52.36H1072.08z M1090.32,583.98
			c0.31-0.39,0.5-0.88,0.5-1.42v-10.4c0-0.17-0.02-0.33-0.05-0.49h4.61v64.99h-5.06V583.98z M1135.68,590.77
			c-15.29,0-27.73,12.44-27.73,27.73v18.18h-8.01v-64.99h71.13v64.99h-7.67V618.5C1163.41,603.21,1150.97,590.77,1135.68,590.77z
			 M1244.7,636.68v-14.46c0-12.74-10.36-23.1-23.1-23.1c-12.74,0-23.1,10.36-23.1,23.1v14.46h-12.89v-52.36h72.7v52.36H1244.7z
			 M1315.75,636.68v-12.37c0-11.3-9.2-20.5-20.5-20.5c-11.3,0-20.5,9.2-20.5,20.5v12.37h-11.33v-45.24h63.66v45.24H1315.75z"/>
		<path class="st1" d="M1332.98,548.3c-4.34-0.99-11.68-3.37-14.65-5.89v-6.2c0-1.26-1.02-2.28-2.28-2.28h-41.62
			c-1.26,0-2.28,1.02-2.28,2.28v5.75c-1.34,1.27-6.37,5.54-14.36,6.31c-1.09,0.1-1.96,0.97-2.05,2.07c-0.1,1.09,0.6,2.1,1.65,2.4
			c1.04,0.29,17.6,4.84,39.35,4.84c11.22,0,23.82-1.21,36.37-4.85c1-0.29,1.68-1.22,1.65-2.26
			C1334.73,549.42,1334,548.53,1332.98,548.3z M1276.71,538.48h37.06v2.35h-37.06V538.48z M1267.67,550.28
			c3.75-1.7,6.29-3.79,7.48-4.89h39.7c2.14,2.04,5.67,3.7,8.99,4.92C1301.43,554.97,1279.51,552.42,1267.67,550.28z"/>
	</g>
	<g>
		<path class="st1" d="M96.58,536.19h-4.03c0-7.88-6.41-14.29-14.29-14.29c-5.29,0-10.12,2.9-12.61,7.56l-3.55-1.9
			c3.19-5.98,9.39-9.69,16.17-9.69C88.36,517.87,96.58,526.09,96.58,536.19z"/>
		<path class="st1" d="M96.58,536.19h-4.03c0-10.1,8.22-18.32,18.32-18.32c6.78,0,12.97,3.72,16.16,9.69l-3.55,1.9
			c-2.49-4.67-7.32-7.56-12.61-7.56C102.99,521.9,96.58,528.31,96.58,536.19z"/>
	</g>
	<g>
		<path class="st1" d="M1065.67,493.25H1062c0-7.19-5.85-13.04-13.03-13.04v-3.67C1058.18,476.54,1065.67,484.04,1065.67,493.25z"/>
		<path class="st1" d="M1065.67,493.25H1062c0-9.21,7.5-16.71,16.71-16.71v3.67C1071.52,480.22,1065.67,486.07,1065.67,493.25z"/>
	</g>
	<path class="st3" d="M1357.64,474.67c-0.01-0.16-0.02-0.33-0.02-0.5c0-3.27,2.65-5.92,5.92-5.92c0.58,0,1.14,0.08,1.67,0.24
		c-0.14-0.67-0.22-1.37-0.22-2.09c0-5.46,4.44-9.9,9.9-9.9c5.27,0,9.59,4.13,9.88,9.32c0.81-0.29,1.69-0.45,2.6-0.45
		c4.23,0,7.66,3.43,7.66,7.66c0,0.73-0.1,1.44-0.29,2.11l12.54,3.73l-14.96,0c-0.02,0.01-0.03,0.03-0.05,0.04l-9.8-0.01
		c-0.01-0.01-0.02-0.02-0.04-0.03l-15.31,0.01l-0.02,0.02l-7.13,0l-0.01-0.01l-16.38,0.01L1357.64,474.67z"/>
	<path class="st3" d="M345.61,533.14c-0.02-0.26-0.03-0.52-0.03-0.78c0-5.14,4.17-9.31,9.31-9.31c0.91,0,1.79,0.13,2.63,0.38
		c-0.23-1.06-0.35-2.16-0.35-3.28c0-8.59,6.97-15.56,15.56-15.56c8.29,0,15.07,6.49,15.54,14.66c1.28-0.46,2.65-0.71,4.08-0.71
		c6.64,0,12.04,5.39,12.04,12.04c0,1.15-0.16,2.26-0.46,3.31l19.72,5.87l-23.52,0.01c-0.03,0.02-0.05,0.04-0.08,0.06l-15.41-0.01
		c-0.02-0.02-0.04-0.03-0.06-0.05l-24.07,0.01l-0.03,0.02l-11.21-0.01l-0.02-0.01l-25.76,0.01L345.61,533.14z"/>
	<path class="st3" d="M1294.24,500.01c-0.02-0.21-0.03-0.43-0.03-0.65c0-4.25,3.45-7.7,7.7-7.7c0.76,0,1.49,0.11,2.18,0.31
		c-0.19-0.88-0.29-1.78-0.29-2.72c0-7.11,5.77-12.88,12.88-12.88c6.86,0,12.47,5.37,12.86,12.13c1.06-0.38,2.19-0.59,3.38-0.59
		c5.5,0,9.96,4.46,9.96,9.96c0,0.95-0.13,1.87-0.38,2.74l16.32,4.86l-19.46,0c-0.02,0.02-0.04,0.04-0.06,0.05l-12.75-0.01
		c-0.02-0.01-0.03-0.03-0.05-0.04l-19.92,0.01l-0.03,0.02l-9.28-0.01l-0.01-0.01l-21.31,0.01L1294.24,500.01z"/>
	<path class="st3" d="M425.18,565.02c-0.02-0.21-0.03-0.42-0.03-0.63c0-4.12,3.34-7.46,7.46-7.46c0.73,0,1.44,0.11,2.11,0.3
		c-0.18-0.85-0.28-1.73-0.28-2.63c0-6.89,5.59-12.48,12.48-12.48c6.64,0,12.08,5.2,12.46,11.75c1.02-0.37,2.13-0.57,3.27-0.57
		c5.33,0,9.65,4.32,9.65,9.65c0,0.92-0.13,1.81-0.37,2.65l15.81,4.71l-18.86,0c-0.02,0.02-0.04,0.03-0.06,0.05l-12.36-0.01
		c-0.02-0.01-0.03-0.03-0.05-0.04l-19.3,0.01l-0.03,0.02l-8.99-0.01l-0.01-0.01l-20.65,0.01L425.18,565.02z"/>
	<path class="st1" d="M1398.09,641.11c6.75-0.03,0.03-5.12,0.03-5.12c-13.22-18.41-6.78-35.12-0.67-38.31
		c0.66-0.34,1.3-0.53,1.93-0.55c6.41-0.16,4.17-6.36,4.17-6.36c2.39-0.35,0.27-1.72,0.27-1.72c2.72-0.35,0.28-1.57,0.28-1.57
		l1.2-3.3c3.24,1.05,2.94-4.34-0.15-5.98c-3.09-1.62-5.77-5.82-5.87-9.8c-0.05-1.94-0.08-3.27-0.41-4.14
		c-0.33-0.91-0.99-1.3-2.3-1.34c-2.57-0.08-4.66-0.16-7-3.94c-1.81-2.92-4.76-5.05-8.9-5.59c-1.2-0.17-2.51-0.18-3.92-0.05
		c-1.14,0.11-2.06,0.06-2.83-0.06c-3.45-0.62-3.52-3.19-3.52-3.19c-7.83,0.91-6.27-6.67-6.27-6.67s-5.38,2.7-8.19,5.9
		c-2.8,3.2-4.62,7.8-4.65,12.78c-0.03,4.98,5.57,3.98,5.94,6.25c0.38,2.27,2.11,7.19,4.55,8.27c2.43,1.08,2.61,1.78,4.75,4.85
		c2.14,3.08,5.63-0.56,5.74,3.56c0.09,3.51,3.32,6.38,4.27,7.14c0.16,0.14,0.26,0.21,0.26,0.21s-0.11,1.92-0.59,8.33
		c-0.48,6.42-11.93,23.07-30.28,27.09c-18.35,4.03-19.59,13.38-19.59,13.38L1398.09,641.11z"/>
	<path class="st1" d="M1346.64,706.58h-28.76c-0.11-0.13-0.21-0.26-0.32-0.39c-1.23-1.42-2.5-2.8-3.8-4.17h31.49
		c1.36,0,2.46-0.89,2.46-1.99c0-1.1-1.1-1.99-2.46-1.99h-35.42c-28.71-27.82-71.79-44.17-117.64-44.17
		c-45.9,0-88.94,16.33-117.65,44.17h-30.96c-28.71-27.82-71.79-44.17-117.64-44.17c-45.9,0-88.94,16.33-117.65,44.17H774
		c-28.71-27.82-71.8-44.17-117.64-44.17c-45.9,0-88.94,16.33-117.65,44.17h-28.59c-1.36,0-2.46,0.89-2.46,1.99
		c0,1.1,1.1,1.99,2.46,1.99h24.67c-1.41,1.49-2.8,3.01-4.13,4.56h-20.55c-1.36,0-2.46,0.89-2.46,1.99c0,1.1,1.1,1.99,2.46,1.99
		h17.28c-2.9,3.69-5.57,7.52-7.93,11.42c-0.6,0.99-0.09,2.18,1.13,2.66c0.35,0.14,0.72,0.2,1.08,0.2c0.91,0,1.78-0.41,2.21-1.11
		c2.75-4.53,5.92-8.94,9.41-13.17h22.8c-0.43,0.58-0.87,1.15-1.29,1.74c-2.8,3.9-5.36,7.99-7.63,12.17
		c-0.55,1.01,0.02,2.18,1.27,2.62c0.32,0.11,0.66,0.17,0.99,0.17c0.95,0,1.85-0.45,2.26-1.19c2.19-4.05,4.67-8.01,7.38-11.77
		c0.91-1.27,1.86-2.51,2.82-3.74h188.97c0.84,1.07,1.67,2.16,2.48,3.27c2.29,3.16,4.43,6.46,6.36,9.81c0.57,1,2.04,1.43,3.27,0.97
		c1.23-0.46,1.77-1.65,1.2-2.64c-1.99-3.47-4.21-6.88-6.58-10.15c-0.31-0.42-0.63-0.83-0.94-1.25h22.81c2.91,3.52,5.6,7.18,8,10.92
		c0.31,0.48,0.82,0.81,1.41,0.97c-0.23,0.87,0.29,1.78,1.32,2.19c0.35,0.14,0.72,0.2,1.08,0.2c0.91,0,1.78-0.41,2.21-1.11
		c2.75-4.53,5.92-8.95,9.41-13.17h22.8c-0.43,0.58-0.87,1.15-1.29,1.74c-2.8,3.9-5.36,7.99-7.63,12.17
		c-0.55,1.01,0.02,2.18,1.27,2.62c0.32,0.11,0.66,0.17,0.99,0.17c0.95,0,1.85-0.45,2.26-1.19c2.19-4.05,4.67-8.01,7.38-11.77
		c0.91-1.27,1.86-2.51,2.82-3.74h188.97c0.84,1.07,1.67,2.16,2.48,3.27c2.29,3.16,4.43,6.46,6.36,9.81c0.57,1,2.04,1.43,3.27,0.97
		c1.23-0.46,1.77-1.65,1.2-2.64c-1.99-3.47-4.21-6.88-6.58-10.15c-0.31-0.42-0.63-0.83-0.94-1.25H1049
		c2.63,3.19,5.07,6.48,7.28,9.85c-0.33,0.52-0.68,1.04-1,1.57c-0.6,0.99-0.09,2.18,1.13,2.66c0.35,0.14,0.72,0.2,1.08,0.2
		c0.91,0,1.78-0.41,2.21-1.11c0.33-0.54,0.69-1.08,1.03-1.62c0.54-0.35,0.85-0.87,0.9-1.41c2.27-3.47,4.78-6.86,7.48-10.14h22.8
		c-0.43,0.58-0.87,1.15-1.29,1.74c-2.8,3.9-5.36,7.99-7.63,12.17c-0.55,1.01,0.02,2.18,1.27,2.62c0.32,0.11,0.66,0.17,0.99,0.17
		c0.95,0,1.85-0.45,2.26-1.19c2.19-4.05,4.67-8.01,7.38-11.77c0.91-1.27,1.86-2.51,2.82-3.74h188.97c0.84,1.07,1.67,2.16,2.48,3.27
		c2.29,3.16,4.43,6.46,6.36,9.81c0.57,1,2.04,1.43,3.27,0.97c1.23-0.46,1.77-1.65,1.2-2.64c-1.99-3.47-4.21-6.88-6.58-10.15
		c-0.31-0.42-0.63-0.83-0.94-1.25h22.81c2.91,3.52,5.6,7.18,8,10.92c0.63,0.98,2.11,1.36,3.32,0.85c1.21-0.51,1.68-1.71,1.05-2.68
		c-1.98-3.09-4.17-6.13-6.49-9.09h25.5c1.36,0,2.46-0.89,2.46-1.99C1349.1,707.47,1348,706.58,1346.64,706.58z M1311.83,706.58
		h-22.48c-1.2-1.47-2.44-2.9-3.7-4.31c0.04-0.08,0.07-0.17,0.1-0.25h21.75C1308.99,703.51,1310.43,705.03,1311.83,706.58z
		 M656.36,665.57c31.44,0,61.22,11.87,83.06,32.47H573.3C595.13,677.43,624.88,665.57,656.36,665.57z M745.09,681.86v15.46
		c-4.21-4.15-8.71-7.99-13.49-11.48c0.16-0.26,0.26-0.56,0.26-0.87v-10.62c4.58,2.17,9.01,4.54,13.28,7.1
		C745.11,681.59,745.09,681.73,745.09,681.86z M726.95,672.23v10.38c-4.34-2.87-8.87-5.48-13.56-7.8c0.21-0.29,0.33-0.62,0.33-0.98
		v-6.76c4.52,1.51,8.93,3.21,13.24,5.07C726.95,672.17,726.95,672.2,726.95,672.23z M708.8,672.67c-4.3-1.91-8.73-3.59-13.25-5.03
		c0.01-0.06,0.02-0.12,0.02-0.19v-5.39c4.48,0.98,8.9,2.12,13.23,3.43V672.67z M690.65,666.19c-4.33-1.19-8.75-2.15-13.22-2.88
		v-4.25c4.46,0.51,8.87,1.18,13.22,2V666.19z M672.5,662.6c-4.51-0.56-9.08-0.89-13.68-0.98v-3.74c4.6,0.06,9.16,0.29,13.68,0.68
		V662.6z M653.9,661.63c-4.45,0.08-8.86,0.39-13.23,0.91v-4.01c4.37-0.37,8.78-0.59,13.23-0.64V661.63z M635.75,663.23
		c-4.48,0.72-8.89,1.65-13.23,2.82v-5.08c4.35-0.81,8.77-1.47,13.23-1.97V663.23z M617.6,667.49c-4.52,1.41-8.93,3.07-13.23,4.96
		v-7.1c4.33-1.29,8.74-2.42,13.23-3.39v5.49C617.6,667.47,617.6,667.48,617.6,667.49z M599.67,674.64
		c-4.65,2.28-9.14,4.83-13.45,7.65v-10.06c0-0.1-0.02-0.19-0.04-0.29c4.31-1.85,8.73-3.54,13.26-5.05v6.93
		C599.45,674.11,599.53,674.39,599.67,674.64z M581.44,685.61c-4.72,3.43-9.19,7.19-13.36,11.27v-15.02c0-0.22-0.06-0.44-0.14-0.64
		c4.29-2.56,8.76-4.92,13.37-7.08v10.84C581.3,685.2,581.35,685.41,581.44,685.61z M569.29,702.02h174.13
		c1.42,1.48,2.81,3,4.15,4.56H565.14C566.48,705.02,567.87,703.5,569.29,702.02z M749.82,702.28c0.04-0.08,0.07-0.17,0.1-0.25h21.75
		c1.49,1.49,2.93,3.01,4.33,4.56h-22.48C752.32,705.11,751.09,703.68,749.82,702.28z M781.73,706.19c-1.23-1.42-2.5-2.8-3.8-4.17
		h26.43c-1.41,1.49-2.8,3.01-4.13,4.56h-18.18C781.94,706.45,781.84,706.32,781.73,706.19z M810.62,702.02h22.08
		c-1.35,1.49-2.67,3-3.94,4.56h-22.47C807.68,705.03,809.13,703.51,810.62,702.02z M925.93,665.57c31.44,0,61.22,11.87,83.07,32.47
		H842.86C864.7,677.43,894.45,665.57,925.93,665.57z M1014.66,681.86v15.46c-4.21-4.15-8.71-7.99-13.48-11.48
		c0.16-0.26,0.26-0.56,0.26-0.87v-10.62c4.58,2.17,9.01,4.54,13.28,7.1C1014.68,681.59,1014.66,681.73,1014.66,681.86z
		 M996.52,672.23v10.38c-4.34-2.87-8.87-5.48-13.56-7.8c0.21-0.29,0.33-0.62,0.33-0.98v-6.76c4.52,1.51,8.94,3.21,13.24,5.07
		C996.53,672.17,996.52,672.2,996.52,672.23z M978.37,672.67c-4.3-1.91-8.73-3.59-13.25-5.03c0.01-0.06,0.02-0.12,0.02-0.19v-5.39
		c4.48,0.98,8.9,2.12,13.23,3.43V672.67z M960.22,666.19c-4.33-1.19-8.75-2.15-13.23-2.88v-4.25c4.46,0.51,8.87,1.18,13.23,2V666.19
		z M942.07,662.6c-4.51-0.56-9.08-0.89-13.68-0.98v-3.74c4.6,0.06,9.16,0.29,13.68,0.68V662.6z M923.47,661.63
		c-4.45,0.08-8.86,0.39-13.23,0.91v-4.01c4.37-0.37,8.78-0.59,13.23-0.64V661.63z M905.32,663.23c-4.48,0.72-8.89,1.65-13.22,2.82
		v-5.08c4.35-0.81,8.76-1.47,13.22-1.97V663.23z M887.17,667.49c-4.52,1.41-8.93,3.07-13.23,4.96v-7.1
		c4.33-1.29,8.74-2.42,13.23-3.39v5.49C887.17,667.47,887.17,667.48,887.17,667.49z M869.24,674.64c-4.65,2.28-9.14,4.83-13.44,7.65
		v-10.06c0-0.1-0.02-0.19-0.04-0.29c4.31-1.85,8.73-3.54,13.26-5.05v6.93C869.02,674.11,869.1,674.39,869.24,674.64z M851.01,685.61
		c-4.72,3.43-9.19,7.19-13.36,11.27v-15.02c0-0.22-0.06-0.44-0.14-0.64c4.29-2.56,8.76-4.92,13.37-7.08v10.84
		C850.87,685.2,850.93,685.41,851.01,685.61z M838.86,702.02h174.13c1.42,1.48,2.81,3,4.15,4.56H834.71
		C836.05,705.02,837.44,703.5,838.86,702.02z M1019.39,702.28c0.04-0.08,0.07-0.17,0.1-0.25h21.75c1.49,1.49,2.93,3.01,4.33,4.56
		h-22.48C1021.89,705.11,1020.66,703.68,1019.39,702.28z M1051.3,706.19c-1.23-1.42-2.5-2.8-3.8-4.17h23.12
		c-1.41,1.49-2.8,3.01-4.13,4.56h-14.87C1051.51,706.45,1051.41,706.32,1051.3,706.19z M1076.88,702.02h22.08
		c-1.35,1.49-2.67,3-3.94,4.56h-22.47C1073.94,705.03,1075.39,703.51,1076.88,702.02z M1192.19,665.57
		c31.44,0,61.22,11.87,83.06,32.47h-166.13C1130.96,677.43,1160.71,665.57,1192.19,665.57z M1280.92,681.86v15.46
		c-4.21-4.15-8.71-7.99-13.49-11.48c0.16-0.26,0.26-0.56,0.26-0.87v-10.62c4.58,2.17,9.01,4.54,13.28,7.1
		C1280.94,681.59,1280.92,681.73,1280.92,681.86z M1262.77,672.23v10.38c-4.34-2.87-8.87-5.48-13.56-7.8
		c0.21-0.29,0.33-0.62,0.33-0.98v-6.76c4.52,1.51,8.94,3.21,13.24,5.07C1262.78,672.17,1262.77,672.2,1262.77,672.23z
		 M1244.62,672.67c-4.3-1.91-8.72-3.59-13.25-5.03c0.01-0.06,0.02-0.12,0.02-0.19v-5.39c4.48,0.98,8.9,2.12,13.22,3.43V672.67z
		 M1226.48,666.19c-4.33-1.19-8.75-2.15-13.23-2.88v-4.25c4.46,0.51,8.87,1.18,13.23,2V666.19z M1208.33,662.6
		c-4.51-0.56-9.08-0.89-13.68-0.98v-3.74c4.6,0.06,9.16,0.29,13.68,0.68V662.6z M1189.72,661.63c-4.45,0.08-8.86,0.39-13.23,0.91
		v-4.01c4.37-0.37,8.78-0.59,13.23-0.64V661.63z M1171.58,663.23c-4.48,0.72-8.89,1.65-13.23,2.82v-5.08
		c4.35-0.81,8.77-1.47,13.23-1.97V663.23z M1153.43,667.49c-4.52,1.41-8.93,3.07-13.23,4.96v-7.1c4.33-1.29,8.74-2.42,13.23-3.39
		v5.49C1153.43,667.47,1153.43,667.48,1153.43,667.49z M1135.5,674.64c-4.65,2.28-9.14,4.83-13.44,7.65v-10.06
		c0-0.1-0.02-0.19-0.04-0.29c4.31-1.85,8.73-3.54,13.26-5.05v6.93C1135.28,674.11,1135.36,674.39,1135.5,674.64z M1117.27,685.61
		c-4.72,3.43-9.19,7.19-13.36,11.27v-15.02c0-0.22-0.06-0.44-0.14-0.64c4.29-2.56,8.76-4.92,13.37-7.08v10.84
		C1117.13,685.2,1117.18,685.41,1117.27,685.61z M1105.12,702.02h174.13c1.42,1.48,2.81,3,4.15,4.56h-182.43
		C1102.31,705.02,1103.7,703.5,1105.12,702.02z M1285.85,698.04v-13.54c6.26,4.09,12.11,8.62,17.49,13.54H1285.85z M1098.98,684.21
		v13.83h-17.95C1086.54,693,1092.55,688.38,1098.98,684.21z M1019.59,698.04v-13.54c6.26,4.09,12.11,8.62,17.49,13.54H1019.59z
		 M832.72,684.21v13.83h-17.96C820.28,693,826.29,688.38,832.72,684.21z M750.02,698.04v-13.54c6.26,4.09,12.11,8.62,17.49,13.54
		H750.02z M563.15,684.21v13.83H545.2C550.71,693,556.72,688.38,563.15,684.21z M541.05,702.02h22.08c-1.35,1.49-2.67,3-3.94,4.56
		h-22.47C538.11,705.03,539.56,703.51,541.05,702.02z M791.14,718.66c-1.8-2.75-3.76-5.46-5.83-8.1h11.65
		C794.89,713.2,792.95,715.91,791.14,718.66z M1059.07,716.2c-1.33-1.91-2.74-3.79-4.19-5.64h8.34
		C1061.77,712.41,1060.4,714.3,1059.07,716.2z"/>
</g>
</svg>
