<?xml version="1.0" encoding="utf-8"?>
<!-- Generator: Adobe Illustrator 23.0.3, SVG Export Plug-In . SVG Version: 6.00 Build 0)  -->
<svg version="1.1" id="圖層_1" xmlns="http://www.w3.org/2000/svg" xmlns:xlink="http://www.w3.org/1999/xlink" x="0px" y="0px"
	 viewBox="0 0 680.31 453.54" style="enable-background:new 0 0 680.31 453.54;" xml:space="preserve">
<style type="text/css">
	.st0{fill:#F2A38A;}
	.st1{fill:#EC746B;}
	.st2{fill:#F0A085;}
</style>
<g>
	<g>
		<g>
			<path class="st0" d="M521.91,120.27c0,0,1.46-26.61,1.58-28.78c0.28-4.93-0.13-7.27-1.58-7.27l0,0c-1.45,0-1.84,2.34-1.58,7.27
				C520.45,93.84,521.91,120.27,521.91,120.27z"/>
		</g>
		<g>
			<path class="st0" d="M534.31,122.45c0,0,10.47-24.51,11.33-26.5c1.95-4.53,2.36-6.87,1-7.37l0,0c-1.36-0.5-2.53,1.57-3.97,6.29
				C541.97,97.12,534.31,122.45,534.31,122.45z"/>
		</g>
		<g>
			<path class="st0" d="M545.21,128.74c0,0,18.22-19.45,19.71-21.03c3.38-3.59,4.57-5.65,3.46-6.58l0,0
				c-1.11-0.93-2.91,0.61-5.88,4.55C561.08,107.56,545.21,128.74,545.21,128.74z"/>
		</g>
		<g>
			<path class="st0" d="M553.3,138.38c0,0,23.77-12.04,25.71-13.02c4.41-2.22,6.23-3.75,5.5-5l0,0c-0.73-1.26-2.95-0.42-7.09,2.26
				C575.46,123.9,553.3,138.38,553.3,138.38z"/>
		</g>
		<g>
			<path class="st0" d="M557.61,150.21c0,0,26.46-3.18,28.61-3.44c4.9-0.58,7.14-1.39,6.88-2.82l0,0c-0.25-1.43-2.63-1.41-7.43-0.3
				C583.38,144.18,557.61,150.21,557.61,150.21z"/>
		</g>
		<g>
			<path class="st0" d="M557.61,162.79c0,0,25.95,6.06,28.07,6.55c4.8,1.13,7.18,1.13,7.43-0.3l0,0c0.25-1.43-1.99-2.22-6.88-2.82
				C583.89,165.94,557.61,162.79,557.61,162.79z"/>
		</g>
		<g>
			<path class="st0" d="M553.31,174.62c0,0,22.32,14.57,24.13,15.76c4.13,2.71,6.36,3.52,7.09,2.26l0,0c0.73-1.26-1.11-2.76-5.5-5
				C576.92,186.57,553.31,174.62,553.31,174.62z"/>
		</g>
		<g>
			<path class="st0" d="M545.22,184.26c0,0,15.99,21.32,17.29,23.06c2.95,3.95,4.77,5.48,5.88,4.55l0,0
				c1.11-0.93-0.1-2.98-3.46-6.58C563.32,203.57,545.22,184.26,545.22,184.26z"/>
		</g>
		<g>
			<path class="st0" d="M534.32,190.56c0,0,7.73,25.5,8.36,27.58c1.42,4.72,2.61,6.79,3.97,6.29l0,0c1.36-0.5,0.93-2.83-1-7.37
				C544.73,214.89,534.32,190.56,534.32,190.56z"/>
		</g>
		<g>
			<path class="st0" d="M521.93,192.74c0,0-1.46,26.61-1.58,28.78c-0.28,4.93,0.13,7.27,1.58,7.27l0,0c1.45,0,1.84-2.34,1.58-7.27
				C523.39,219.17,521.93,192.74,521.93,192.74z"/>
		</g>
		<g>
			<path class="st0" d="M509.54,190.56c0,0-10.47,24.51-11.33,26.5c-1.95,4.53-2.36,6.87-1,7.37l0,0c1.36,0.5,2.53-1.57,3.97-6.29
				C501.87,215.89,509.54,190.56,509.54,190.56z"/>
		</g>
		<g>
			<path class="st0" d="M498.64,184.27c0,0-18.22,19.45-19.71,21.03c-3.38,3.59-4.57,5.65-3.46,6.58l0,0
				c1.11,0.93,2.91-0.61,5.88-4.55C482.77,205.45,498.64,184.27,498.64,184.27z"/>
		</g>
		<g>
			<path class="st0" d="M490.54,174.63c0,0-23.77,12.04-25.71,13.02c-4.41,2.22-6.23,3.75-5.5,5l0,0c0.73,1.26,2.95,0.42,7.09-2.26
				C468.39,189.11,490.54,174.63,490.54,174.63z"/>
		</g>
		<g>
			<path class="st0" d="M486.24,162.81c0,0-26.46,3.18-28.61,3.44c-4.9,0.58-7.14,1.39-6.88,2.82l0,0c0.25,1.43,2.63,1.41,7.43,0.3
				C460.46,168.83,486.24,162.81,486.24,162.81z"/>
		</g>
		<g>
			<path class="st0" d="M486.23,150.22c0,0-25.95-6.06-28.07-6.55c-4.8-1.13-7.18-1.13-7.43,0.3l0,0c-0.25,1.43,1.99,2.22,6.88,2.82
				C459.95,147.07,486.23,150.22,486.23,150.22z"/>
		</g>
		<g>
			<path class="st0" d="M490.53,138.4c0,0-22.32-14.57-24.13-15.76c-4.13-2.71-6.36-3.52-7.09-2.26l0,0c-0.73,1.26,1.11,2.76,5.5,5
				C466.92,126.45,490.53,138.4,490.53,138.4z"/>
		</g>
		<g>
			<path class="st0" d="M498.62,128.75c0,0-15.99-21.32-17.29-23.06c-2.95-3.95-4.77-5.48-5.88-4.55l0,0
				c-1.11,0.93,0.1,2.98,3.46,6.58C480.52,109.45,498.62,128.75,498.62,128.75z"/>
		</g>
		<g>
			<path class="st0" d="M509.52,122.46c0,0-7.73-25.5-8.36-27.58c-1.42-4.72-2.61-6.79-3.97-6.29l0,0c-1.36,0.5-0.93,2.83,1,7.37
				C499.11,98.12,509.52,122.46,509.52,122.46z"/>
		</g>
		<g>
			<path class="st0" d="M521.91,120.27c0,0,1.46-26.61,1.58-28.78c0.28-4.93-0.13-7.27-1.58-7.27l0,0c-1.45,0-1.84,2.34-1.58,7.27
				C520.45,93.84,521.91,120.27,521.91,120.27z"/>
		</g>
	</g>
	<g>
		<g>
			<path class="st0" d="M519.49,133.14c0,0-0.84-17.25-0.9-18.66c-0.15-3.19-0.57-4.68-1.51-4.58l0,0c-0.94,0.1-1.03,1.63-0.53,4.79
				C516.79,116.2,519.49,133.14,519.49,133.14z"/>
		</g>
		<g>
			<path class="st0" d="M527.63,133.72c0,0,5.11-16.5,5.53-17.84c0.95-3.05,1.07-4.59,0.15-4.82l0,0c-0.91-0.23-1.53,1.18-2.14,4.32
				C530.88,116.88,527.63,133.72,527.63,133.72z"/>
		</g>
		<g>
			<path class="st0" d="M535.08,137.05c0,0,10.45-13.76,11.3-14.88c1.94-2.54,2.57-3.95,1.79-4.48l0,0
				c-0.78-0.53-1.84,0.59-3.49,3.33C543.9,122.33,535.08,137.05,535.08,137.05z"/>
		</g>
		<g>
			<path class="st0" d="M540.94,142.72c0,0,14.52-9.35,15.71-10.11c2.69-1.73,3.77-2.83,3.21-3.59l0,0
				c-0.55-0.76-1.93-0.08-4.42,1.93C554.26,131.91,540.94,142.72,540.94,142.72z"/>
		</g>
		<g>
			<path class="st0" d="M544.51,150.06c0,0,16.85-3.82,18.22-4.13c3.12-0.7,4.51-1.37,4.25-2.28l0,0c-0.26-0.91-1.79-0.73-4.81,0.31
				C560.72,144.45,544.51,150.06,544.51,150.06z"/>
		</g>
		<g>
			<path class="st0" d="M545.35,158.17c0,0,17.14,2.17,18.53,2.35c3.17,0.41,4.71,0.25,4.77-0.69l0,0c0.07-0.94-1.43-1.3-4.63-1.36
				C562.51,158.45,545.35,158.17,545.35,158.17z"/>
		</g>
		<g>
			<path class="st0" d="M543.37,166.09c0,0,15.36,7.9,16.61,8.55c2.84,1.47,4.34,1.85,4.72,0.99l0,0c0.38-0.86-0.9-1.71-3.88-2.86
				C559.39,172.22,543.37,166.09,543.37,166.09z"/>
		</g>
		<g>
			<path class="st0" d="M538.8,172.85c0,0,11.73,12.68,12.69,13.71c2.17,2.35,3.44,3.22,4.1,2.54l0,0c0.65-0.68-0.26-1.91-2.67-4.01
				C551.76,184.08,538.8,172.85,538.8,172.85z"/>
		</g>
		<g>
			<path class="st0" d="M532.19,177.63c0,0,6.69,15.93,7.23,17.23c1.23,2.95,2.13,4.2,2.98,3.79l0,0c0.85-0.41,0.41-1.89-1.14-4.69
				C540.53,192.63,532.19,177.63,532.19,177.63z"/>
		</g>
		<g>
			<path class="st0" d="M524.35,179.87c0,0,0.84,17.25,0.9,18.66c0.15,3.19,0.57,4.68,1.51,4.58l0,0c0.94-0.1,1.03-1.63,0.53-4.79
				C527.05,196.81,524.35,179.87,524.35,179.87z"/>
		</g>
		<g>
			<path class="st0" d="M516.21,179.29c0,0-5.11,16.5-5.53,17.84c-0.95,3.05-1.07,4.59-0.15,4.82l0,0c0.91,0.23,1.53-1.18,2.14-4.32
				C512.96,196.14,516.21,179.29,516.21,179.29z"/>
		</g>
		<g>
			<path class="st0" d="M508.76,175.96c0,0-10.45,13.76-11.3,14.88c-1.94,2.54-2.57,3.95-1.79,4.48l0,0
				c0.78,0.53,1.84-0.59,3.49-3.33C499.94,190.68,508.76,175.96,508.76,175.96z"/>
		</g>
		<g>
			<path class="st0" d="M502.9,170.29c0,0-14.52,9.35-15.71,10.11c-2.69,1.73-3.77,2.83-3.21,3.59l0,0
				c0.55,0.76,1.93,0.08,4.42-1.93C489.58,181.1,502.9,170.29,502.9,170.29z"/>
		</g>
		<g>
			<path class="st0" d="M499.33,162.95c0,0-16.85,3.82-18.22,4.13c-3.12,0.7-4.51,1.37-4.25,2.28l0,0c0.26,0.91,1.79,0.73,4.81-0.31
				C483.12,168.56,499.33,162.95,499.33,162.95z"/>
		</g>
		<g>
			<path class="st0" d="M498.49,154.84c0,0-17.14-2.17-18.53-2.35c-3.17-0.41-4.71-0.25-4.77,0.69l0,0
				c-0.07,0.94,1.43,1.3,4.63,1.36C481.34,154.56,498.49,154.84,498.49,154.84z"/>
		</g>
		<g>
			<path class="st0" d="M500.47,146.93c0,0-15.36-7.9-16.61-8.55c-2.84-1.47-4.34-1.85-4.72-0.99l0,0c-0.38,0.86,0.9,1.71,3.88,2.86
				C484.45,140.8,500.47,146.93,500.47,146.93z"/>
		</g>
		<g>
			<path class="st0" d="M505.04,140.17c0,0-11.73-12.68-12.69-13.71c-2.17-2.35-3.44-3.22-4.1-2.54l0,0
				c-0.65,0.68,0.26,1.91,2.67,4.01C492.08,128.93,505.04,140.17,505.04,140.17z"/>
		</g>
		<g>
			<path class="st0" d="M511.65,135.38c0,0-6.69-15.93-7.23-17.23c-1.23-2.95-2.13-4.2-2.98-3.79l0,0
				c-0.85,0.41-0.41,1.89,1.14,4.69C503.31,120.39,511.65,135.38,511.65,135.38z"/>
		</g>
		<g>
			<path class="st0" d="M519.49,133.14c0,0-0.84-17.25-0.9-18.66c-0.15-3.19-0.57-4.68-1.51-4.58l0,0c-0.94,0.1-1.03,1.63-0.53,4.79
				C516.79,116.2,519.49,133.14,519.49,133.14z"/>
		</g>
	</g>
	<g>
		<g>
			<path class="st0" d="M517.52,139.88c0,0-2.56-12.38-2.76-13.39c-0.47-2.29-0.94-3.32-1.61-3.14l0,0
				c-0.67,0.18-0.56,1.3,0.16,3.53C513.65,127.94,517.52,139.88,517.52,139.88z"/>
		</g>
		<g>
			<path class="st0" d="M523.47,139.38c0,0,1.83-12.51,1.98-13.53c0.34-2.32,0.25-3.44-0.43-3.5l0,0c-0.69-0.06-0.97,1.03-1.06,3.37
				C523.92,126.83,523.47,139.38,523.47,139.38z"/>
		</g>
		<g>
			<path class="st0" d="M529.24,140.95c0,0,6-11.13,6.49-12.04c1.12-2.06,1.41-3.15,0.79-3.44l0,0c-0.62-0.29-1.26,0.63-2.15,2.8
				C533.95,129.3,529.24,140.95,529.24,140.95z"/>
		</g>
		<g>
			<path class="st0" d="M534.12,144.39c0,0,9.45-8.41,10.22-9.09c1.75-1.55,2.4-2.47,1.92-2.96l0,0c-0.49-0.49-1.4,0.16-2.98,1.9
				C542.53,135.06,534.12,144.39,534.12,144.39z"/>
		</g>
		<g>
			<path class="st0" d="M537.53,149.29c0,0,11.75-4.67,12.71-5.05c2.18-0.86,3.11-1.5,2.82-2.13l0,0c-0.29-0.63-1.38-0.33-3.45,0.77
				C548.62,143.4,537.53,149.29,537.53,149.29z"/>
		</g>
		<g>
			<path class="st0" d="M539.06,155.06c0,0,12.64-0.37,13.67-0.4c2.34-0.06,3.43-0.35,3.37-1.04l0,0c-0.06-0.69-1.18-0.78-3.5-0.46
				C551.49,153.32,539.06,155.06,539.06,155.06z"/>
		</g>
		<g>
			<path class="st0" d="M538.52,161.01c0,0,12,3.98,12.98,4.3c2.22,0.74,3.34,0.84,3.53,0.18l0,0c0.18-0.66-0.84-1.13-3.13-1.63
				C550.8,163.63,538.52,161.01,538.52,161.01z"/>
		</g>
		<g>
			<path class="st0" d="M535.98,166.41c0,0,9.92,7.84,10.73,8.48c1.83,1.46,2.85,1.94,3.25,1.37l0,0c0.4-0.56-0.4-1.35-2.39-2.6
				C546.62,173.08,535.98,166.41,535.98,166.41z"/>
		</g>
		<g>
			<path class="st0" d="M531.74,170.62c0,0,6.64,10.76,7.18,11.64c1.22,1.99,2.02,2.8,2.58,2.4l0,0c0.57-0.39,0.08-1.41-1.35-3.26
				C539.46,180.53,531.74,170.62,531.74,170.62z"/>
		</g>
		<g>
			<path class="st0" d="M526.32,173.13c0,0,2.56,12.38,2.76,13.39c0.47,2.29,0.94,3.32,1.61,3.14l0,0c0.67-0.18,0.56-1.3-0.16-3.53
				C530.19,185.08,526.32,173.13,526.32,173.13z"/>
		</g>
		<g>
			<path class="st0" d="M520.37,173.63c0,0-1.83,12.51-1.98,13.53c-0.34,2.32-0.25,3.44,0.43,3.5l0,0c0.69,0.06,0.97-1.03,1.06-3.37
				C519.92,186.18,520.37,173.63,520.37,173.63z"/>
		</g>
		<g>
			<path class="st0" d="M514.6,172.07c0,0-6,11.13-6.49,12.04c-1.12,2.06-1.41,3.15-0.79,3.44l0,0c0.62,0.29,1.26-0.63,2.15-2.8
				C509.89,183.71,514.6,172.07,514.6,172.07z"/>
		</g>
		<g>
			<path class="st0" d="M509.72,168.63c0,0-9.45,8.41-10.22,9.09c-1.75,1.55-2.4,2.47-1.92,2.96l0,0c0.49,0.49,1.4-0.16,2.98-1.9
				C501.31,177.96,509.72,168.63,509.72,168.63z"/>
		</g>
		<g>
			<path class="st0" d="M506.31,163.72c0,0-11.75,4.67-12.71,5.05c-2.18,0.86-3.11,1.5-2.82,2.13l0,0c0.29,0.63,1.38,0.33,3.45-0.77
				C495.22,169.61,506.31,163.72,506.31,163.72z"/>
		</g>
		<g>
			<path class="st0" d="M504.79,157.95c0,0-12.64,0.37-13.67,0.4c-2.34,0.06-3.43,0.35-3.37,1.04l0,0c0.06,0.69,1.18,0.78,3.5,0.46
				C492.35,159.69,504.79,157.95,504.79,157.95z"/>
		</g>
		<g>
			<path class="st0" d="M505.33,152c0,0-12-3.98-12.98-4.3c-2.22-0.74-3.34-0.84-3.53-0.18l0,0c-0.18,0.66,0.84,1.13,3.13,1.63
				C493.04,149.38,505.33,152,505.33,152z"/>
		</g>
		<g>
			<path class="st0" d="M507.87,146.6c0,0-9.92-7.84-10.73-8.48c-1.83-1.46-2.85-1.94-3.25-1.37l0,0c-0.4,0.56,0.4,1.35,2.39,2.6
				C497.22,139.94,507.87,146.6,507.87,146.6z"/>
		</g>
		<g>
			<path class="st0" d="M512.1,142.39c0,0-6.64-10.76-7.18-11.64c-1.22-2-2.02-2.8-2.58-2.4l0,0c-0.57,0.39-0.08,1.41,1.35,3.26
				C504.38,132.49,512.1,142.39,512.1,142.39z"/>
		</g>
		<g>
			<path class="st0" d="M517.52,139.88c0,0-2.56-12.38-2.76-13.39c-0.47-2.29-0.94-3.32-1.61-3.14l0,0
				c-0.67,0.18-0.56,1.3,0.16,3.53C513.65,127.94,517.52,139.88,517.52,139.88z"/>
		</g>
	</g>
	<g>
		<g>
			<path class="st0" d="M528.72,111.45c0,0,6.81-32.81,7.37-35.48c1.27-6.07,1.2-9.06-0.6-9.33l0,0c-1.81-0.27-2.73,2.57-3.33,8.74
				C531.87,78.32,528.72,111.45,528.72,111.45z"/>
		</g>
		<g>
			<path class="st0" d="M543.72,116.49c0,0,17.62-28.5,19.06-30.82c3.27-5.27,4.23-8.1,2.63-8.98l0,0c-1.6-0.87-3.44,1.48-6.12,7.07
				C558.01,86.44,543.72,116.49,543.72,116.49z"/>
		</g>
		<g>
			<path class="st0" d="M556.09,126.36c0,0,26.31-20.76,28.46-22.44c4.88-3.83,6.75-6.17,5.54-7.54l0,0
				c-1.21-1.37-3.74,0.21-8.17,4.55C579.8,103.01,556.09,126.36,556.09,126.36z"/>
		</g>
		<g>
			<path class="st0" d="M564.34,139.86c0,0,31.82-10.51,34.42-11.36c5.89-1.93,8.45-3.49,7.78-5.19l0,0
				c-0.67-1.7-3.59-1.08-9.24,1.48C594.61,126.03,564.34,139.86,564.34,139.86z"/>
		</g>
		<g>
			<path class="st0" d="M567.47,155.38c0,0,33.5,1.01,36.22,1.1c6.2,0.2,9.13-0.39,9.09-2.21l0,0c-0.04-1.83-3-2.24-9.19-1.76
				C600.65,152.73,567.47,155.38,567.47,155.38z"/>
		</g>
		<g>
			<path class="st0" d="M565.11,171.02c0,0,31.13,12.41,33.66,13.42c5.76,2.31,8.71,2.76,9.3,1.03l0,0c0.58-1.73-2.05-3.13-8.03-4.8
				C597.19,179.88,565.11,171.02,565.11,171.02z"/>
		</g>
		<g>
			<path class="st0" d="M557.54,184.92c0,0,25.01,22.3,27.04,24.13c4.62,4.14,7.25,5.57,8.38,4.15l0,0c1.14-1.43-0.86-3.65-5.9-7.26
				C584.66,204.22,557.54,184.92,557.54,184.92z"/>
		</g>
		<g>
			<path class="st0" d="M545.68,195.39c0,0,15.87,29.51,17.16,31.92c2.93,5.47,4.9,7.72,6.46,6.76l0,0
				c1.56-0.95,0.44-3.72-3.07-8.84C564.56,222.8,545.68,195.39,545.68,195.39z"/>
		</g>
		<g>
			<path class="st0" d="M530.94,201.17c0,0,4.82,33.16,5.21,35.87c0.88,6.14,1.97,8.93,3.76,8.57l0,0c1.79-0.36,1.69-3.34,0.14-9.35
				C539.31,233.38,530.94,201.17,530.94,201.17z"/>
		</g>
		<g>
			<path class="st0" d="M515.12,201.56c0,0-6.81,32.81-7.37,35.48c-1.27,6.07-1.2,9.06,0.6,9.33l0,0c1.81,0.27,2.73-2.57,3.33-8.74
				C511.97,234.7,515.12,201.56,515.12,201.56z"/>
		</g>
		<g>
			<path class="st0" d="M500.12,196.52c0,0-17.62,28.5-19.06,30.82c-3.27,5.27-4.23,8.1-2.63,8.98l0,0c1.6,0.87,3.44-1.48,6.12-7.07
				C485.83,226.58,500.12,196.52,500.12,196.52z"/>
		</g>
		<g>
			<path class="st0" d="M487.75,186.65c0,0-26.31,20.76-28.46,22.44c-4.88,3.83-6.75,6.17-5.54,7.54l0,0
				c1.21,1.37,3.74-0.21,8.17-4.55C464.04,210.01,487.75,186.65,487.75,186.65z"/>
		</g>
		<g>
			<path class="st0" d="M479.5,173.15c0,0-31.82,10.51-34.42,11.36c-5.89,1.93-8.45,3.49-7.78,5.19l0,0
				c0.67,1.7,3.59,1.08,9.24-1.48C449.23,186.99,479.5,173.15,479.5,173.15z"/>
		</g>
		<g>
			<path class="st0" d="M476.37,157.64c0,0-33.5-1.01-36.22-1.1c-6.2-0.2-9.13,0.39-9.09,2.21l0,0c0.04,1.83,3,2.24,9.19,1.76
				C443.19,160.29,476.37,157.64,476.37,157.64z"/>
		</g>
		<g>
			<path class="st0" d="M478.73,141.99c0,0-31.13-12.41-33.66-13.42c-5.76-2.31-8.71-2.76-9.3-1.03l0,0
				c-0.58,1.73,2.05,3.13,8.03,4.8C446.65,133.13,478.73,141.99,478.73,141.99z"/>
		</g>
		<g>
			<path class="st0" d="M486.3,128.09c0,0-25.01-22.3-27.04-24.13c-4.62-4.14-7.25-5.57-8.38-4.15l0,0
				c-1.14,1.43,0.86,3.65,5.9,7.26C459.18,108.8,486.3,128.09,486.3,128.09z"/>
		</g>
		<g>
			<path class="st0" d="M498.17,117.62c0,0-15.87-29.51-17.16-31.92c-2.93-5.47-4.9-7.72-6.46-6.76l0,0
				c-1.56,0.95-0.44,3.72,3.07,8.84C479.28,90.22,498.17,117.62,498.17,117.62z"/>
		</g>
		<g>
			<path class="st0" d="M512.9,111.84c0,0-4.82-33.16-5.21-35.87c-0.88-6.14-1.97-8.93-3.76-8.57l0,0
				c-1.79,0.36-1.69,3.34-0.14,9.35C504.53,79.63,512.9,111.84,512.9,111.84z"/>
		</g>
		<g>
			<path class="st0" d="M528.72,111.45c0,0,6.81-32.81,7.37-35.48c1.27-6.07,1.2-9.06-0.6-9.33l0,0c-1.81-0.27-2.73,2.57-3.33,8.74
				C531.87,78.32,528.72,111.45,528.72,111.45z"/>
		</g>
	</g>
	<g>
		<g>
			<path class="st0" d="M521.29,82.83c0,0,2.51-54.13,2.73-58.54c0.49-10.02-0.39-14.78-3.34-14.75l0,0
				c-2.95,0.02-3.7,4.79-3.09,14.81C517.88,29.12,521.29,82.83,521.29,82.83z"/>
		</g>
		<g>
			<path class="st0" d="M546.53,87.05c0,0,20.88-50,22.59-54.08c3.88-9.25,4.69-14.02,1.91-15l0,0c-2.78-0.99-5.12,3.24-7.97,12.86
				C561.69,35.42,546.53,87.05,546.53,87.05z"/>
		</g>
		<g>
			<path class="st0" d="M568.8,99.66c0,0,36.72-39.85,39.72-43.09c6.81-7.36,9.2-11.57,6.92-13.45l0,0
				c-2.28-1.88-5.92,1.29-11.89,9.35C600.71,56.32,568.8,99.66,568.8,99.66z"/>
		</g>
		<g>
			<path class="st0" d="M585.41,119.12c0,0,48.13-24.89,52.06-26.91c8.92-4.59,12.6-7.72,11.11-10.27l0,0
				c-1.5-2.54-6-0.81-14.37,4.72C630.22,89.31,585.41,119.12,585.41,119.12z"/>
		</g>
		<g>
			<path class="st0" d="M594.37,143.09c0,0,53.74-6.92,58.12-7.48c9.95-1.26,14.49-2.95,13.95-5.85l0,0
				c-0.54-2.9-5.36-2.81-15.12-0.47C646.67,130.4,594.37,143.09,594.37,143.09z"/>
		</g>
		<g>
			<path class="st0" d="M594.59,168.68c0,0,52.87,11.88,57.18,12.85c9.78,2.22,14.62,2.19,15.11-0.73l0,0
				c0.49-2.91-4.08-4.48-14.04-5.62C648.08,174.65,594.59,168.68,594.59,168.68z"/>
		</g>
		<g>
			<path class="st0" d="M586.05,192.8c0,0,45.62,29.24,49.33,31.63c8.43,5.43,12.99,7.05,14.44,4.48l0,0
				c1.45-2.57-2.3-5.6-11.28-10.08C634.26,216.7,586.05,192.8,586.05,192.8z"/>
		</g>
		<g>
			<path class="st0" d="M569.77,212.54c0,0,32.87,43.08,35.54,46.6c6.07,7.99,9.79,11.07,12.04,9.15l0,0
				c2.25-1.92-0.25-6.05-7.15-13.33C606.9,251.49,569.77,212.54,569.77,212.54z"/>
		</g>
		<g>
			<path class="st0" d="M547.71,225.53c0,0,16.15,51.72,17.46,55.94c2.97,9.58,5.42,13.75,8.18,12.72l0,0
				c2.77-1.03,1.84-5.77-2.16-14.97C569.29,274.83,547.71,225.53,547.71,225.53z"/>
		</g>
		<g>
			<path class="st0" d="M522.55,230.19c0,0-2.51,54.13-2.73,58.54c-0.49,10.02,0.39,14.78,3.34,14.75l0,0
				c2.95-0.02,3.7-4.79,3.09-14.81C525.97,283.9,522.55,230.19,522.55,230.19z"/>
		</g>
		<g>
			<path class="st0" d="M497.31,225.96c0,0-20.88,50-22.59,54.08c-3.88,9.25-4.69,14.02-1.91,15l0,0c2.78,0.99,5.12-3.24,7.97-12.86
				C482.15,277.6,497.31,225.96,497.31,225.96z"/>
		</g>
		<g>
			<path class="st0" d="M475.04,213.36c0,0-36.72,39.85-39.72,43.09c-6.81,7.36-9.2,11.57-6.93,13.45l0,0
				c2.28,1.88,5.92-1.29,11.89-9.35C443.14,256.69,475.04,213.36,475.04,213.36z"/>
		</g>
		<g>
			<path class="st0" d="M458.43,193.89c0,0-48.13,24.89-52.06,26.91c-8.92,4.59-12.6,7.72-11.11,10.27l0,0
				c1.5,2.54,6,0.81,14.37-4.72C413.62,223.7,458.43,193.89,458.43,193.89z"/>
		</g>
		<g>
			<path class="st0" d="M449.47,169.92c0,0-53.74,6.92-58.12,7.48c-9.95,1.26-14.49,2.95-13.95,5.85l0,0
				c0.54,2.9,5.36,2.81,15.12,0.47C397.17,182.61,449.47,169.92,449.47,169.92z"/>
		</g>
		<g>
			<path class="st0" d="M449.25,144.34c0,0-52.87-11.88-57.18-12.85c-9.78-2.22-14.62-2.19-15.11,0.73l0,0
				c-0.49,2.91,4.08,4.48,14.04,5.62C395.77,138.37,449.25,144.34,449.25,144.34z"/>
		</g>
		<g>
			<path class="st0" d="M457.8,120.21c0,0-45.62-29.24-49.33-31.63c-8.43-5.43-12.99-7.05-14.44-4.48l0,0
				c-1.45,2.57,2.3,5.6,11.28,10.08C409.58,96.32,457.8,120.21,457.8,120.21z"/>
		</g>
		<g>
			<path class="st0" d="M474.08,100.47c0,0-32.87-43.08-35.54-46.6c-6.07-7.99-9.79-11.07-12.04-9.15l0,0
				c-2.25,1.92,0.25,6.05,7.15,13.33C436.94,61.52,474.08,100.47,474.08,100.47z"/>
		</g>
		<g>
			<path class="st0" d="M496.13,87.49c0,0-16.15-51.72-17.46-55.94c-2.97-9.58-5.42-13.75-8.18-12.72l0,0
				c-2.77,1.03-1.84,5.77,2.16,14.97C474.55,38.18,496.13,87.49,496.13,87.49z"/>
		</g>
		<g>
			<path class="st0" d="M521.29,82.83c0,0,2.51-54.13,2.73-58.54c0.49-10.02-0.39-14.78-3.34-14.75l0,0
				c-2.95,0.02-3.7,4.79-3.09,14.81C517.88,29.12,521.29,82.83,521.29,82.83z"/>
		</g>
	</g>
</g>
<g>
	<path class="st1" d="M489.18,341.5c2.22-1.94,4.44-3.88,6.66-5.82c5.81-5.07,11.61-10.13,17.4-15.23c1.69-1.49,3.39-2.98,5.07-4.48
		c3.98-3.53,7.95-7.07,11.93-10.61c1.45-1.29,3.24-3.01,3.49-4.7c0.23-1.59-1.05-2.16-2.76-1.29c-3.09,1.58-5.51,4.44-8.05,6.96
		c-3.04,3.01-6.05,6.05-9.04,9.11c-4.08,4.18-8.11,8.4-12.08,12.66c-2.11,2.26-4.2,4.52-6.32,6.76
		C493.38,337.09,491.24,339.25,489.18,341.5z"/>
	<path class="st1" d="M512.22,345.84c-2.95,0.9-5.9,1.81-8.86,2.7c-2.92,0.87-5.85,1.68-8.76,2.6c2.89-0.57,5.78-1.14,8.68-1.71
		c7.56-1.49,15.12-2.97,22.68-4.49c2.21-0.45,4.42-0.89,6.63-1.35c5.21-1.07,10.42-2.15,15.63-3.22c1.91-0.39,4.31-0.99,5.37-2.32
		c1-1.26,0.17-2.39-1.75-2.49c-3.46-0.18-6.99,1.09-10.45,2c-4.14,1.09-8.26,2.21-12.38,3.37
		C523.4,342.49,517.8,344.13,512.22,345.84z"/>
	<path class="st1" d="M551.85,377.31c-2.91-1.89-6.6-2.55-10.05-3.49c-4.13-1.13-8.26-2.22-12.41-3.27
		c-5.66-1.44-11.33-2.82-17.01-4.13c-3.01-0.7-6.01-1.38-9.02-2.09c-2.97-0.7-5.91-1.47-8.88-2.13c2.79,0.95,5.58,1.9,8.37,2.86
		c7.29,2.49,14.58,4.99,21.89,7.45c2.14,0.72,4.27,1.44,6.41,2.15c5.05,1.68,10.1,3.35,15.15,5.03c1.85,0.61,4.23,1.3,5.81,0.67
		C553.61,379.74,553.46,378.35,551.85,377.31z"/>
	<path class="st1" d="M524.01,405.43c-3.01-3.04-6.05-6.05-9.11-9.04c-4.18-4.08-8.4-8.11-12.66-12.08
		c-2.26-2.11-4.52-4.2-6.76-6.32c-2.22-2.09-4.38-4.23-6.63-6.29c1.94,2.22,3.88,4.44,5.82,6.66c5.07,5.81,10.13,11.61,15.23,17.4
		c1.49,1.69,2.98,3.39,4.48,5.07c3.53,3.98,7.07,7.95,10.61,11.93c1.29,1.45,3.01,3.24,4.7,3.49c1.59,0.23,2.16-1.05,1.29-2.76
		C529.4,410.39,526.54,407.97,524.01,405.43z"/>
	<path class="st1" d="M494.81,434.36c0.18-3.46-1.09-6.99-2-10.45c-1.09-4.14-2.21-8.26-3.37-12.38c-1.58-5.62-3.22-11.22-4.92-16.8
		c-0.9-2.95-1.81-5.9-2.7-8.86c-0.88-2.92-1.68-5.85-2.6-8.76c0.57,2.89,1.14,5.78,1.71,8.68c1.49,7.56,2.97,15.12,4.49,22.68
		c0.45,2.21,0.89,4.42,1.35,6.63c1.07,5.21,2.15,10.42,3.22,15.63c0.39,1.91,0.99,4.31,2.32,5.37
		C493.58,437.1,494.71,436.27,494.81,434.36z"/>
	<path class="st1" d="M457.86,407.25c-0.72,2.14-1.44,4.27-2.15,6.41c-1.68,5.05-3.35,10.1-5.03,15.15
		c-0.61,1.85-1.3,4.23-0.67,5.81c0.6,1.5,1.99,1.34,3.03-0.27c1.89-2.91,2.55-6.6,3.49-10.05c1.13-4.13,2.22-8.26,3.27-12.41
		c1.44-5.66,2.82-11.33,4.13-17.01c0.7-3.01,1.38-6.01,2.09-9.02c0.7-2.97,1.47-5.91,2.13-8.88c-0.95,2.79-1.9,5.58-2.86,8.37
		C462.81,392.65,460.31,399.95,457.86,407.25z"/>
	<path class="st1" d="M458.65,371.36c-2.22,1.94-4.44,3.88-6.66,5.82c-5.81,5.07-11.61,10.13-17.4,15.23
		c-1.69,1.49-3.39,2.98-5.07,4.48c-3.98,3.53-7.95,7.07-11.93,10.61c-1.45,1.29-3.24,3.01-3.49,4.7c-0.23,1.59,1.05,2.16,2.76,1.29
		c3.09-1.58,5.51-4.44,8.05-6.96c3.04-3.01,6.05-6.05,9.04-9.11c4.08-4.18,8.11-8.4,12.08-12.66c2.11-2.26,4.2-4.52,6.32-6.76
		C454.46,375.77,456.6,373.61,458.65,371.36z"/>
	<path class="st1" d="M435.62,367.02c2.95-0.9,5.9-1.81,8.86-2.7c2.92-0.87,5.85-1.68,8.76-2.6c-2.89,0.57-5.78,1.14-8.68,1.71
		c-7.56,1.49-15.12,2.97-22.68,4.49c-2.21,0.45-4.42,0.89-6.63,1.35c-5.21,1.07-10.42,2.15-15.63,3.22
		c-1.91,0.39-4.31,0.99-5.37,2.32c-1,1.26-0.17,2.39,1.75,2.49c3.46,0.18,6.99-1.09,10.45-2c4.14-1.09,8.26-2.21,12.38-3.37
		C424.44,370.37,430.04,368.72,435.62,367.02z"/>
	<path class="st1" d="M406.04,339.04c4.13,1.13,8.26,2.22,12.41,3.27c5.66,1.44,11.33,2.82,17.01,4.13
		c3.01,0.69,6.01,1.38,9.02,2.09c2.97,0.7,5.91,1.47,8.88,2.13c-2.79-0.95-5.58-1.9-8.37-2.86c-7.29-2.49-14.58-4.99-21.89-7.45
		c-2.14-0.72-4.27-1.44-6.41-2.15c-5.05-1.68-10.1-3.35-15.15-5.03c-1.85-0.61-4.23-1.3-5.81-0.67c-1.5,0.6-1.34,1.99,0.27,3.03
		C398.89,337.44,402.58,338.1,406.04,339.04z"/>
	<path class="st1" d="M423.82,307.43c3.01,3.04,6.05,6.05,9.11,9.04c4.18,4.08,8.4,8.11,12.66,12.08c2.26,2.11,4.52,4.2,6.76,6.32
		c2.22,2.09,4.38,4.23,6.63,6.29c-1.94-2.22-3.88-4.44-5.82-6.66c-5.07-5.81-10.13-11.61-15.23-17.4c-1.49-1.69-2.98-3.39-4.48-5.07
		c-3.53-3.98-7.07-7.95-10.61-11.93c-1.29-1.45-3.01-3.24-4.7-3.49c-1.59-0.23-2.16,1.05-1.29,2.76
		C418.44,302.47,421.3,304.89,423.82,307.43z"/>
	<path class="st1" d="M453.03,278.5c-0.18,3.46,1.09,6.99,2,10.45c1.09,4.14,2.21,8.26,3.37,12.38c1.58,5.62,3.22,11.22,4.92,16.8
		c0.9,2.95,1.81,5.9,2.7,8.86c0.88,2.92,1.68,5.85,2.6,8.76c-0.57-2.89-1.14-5.78-1.71-8.68c-1.49-7.56-2.97-15.12-4.49-22.68
		c-0.45-2.21-0.89-4.42-1.35-6.63c-1.07-5.21-2.15-10.42-3.22-15.63c-0.39-1.91-0.99-4.31-2.32-5.37
		C454.26,275.75,453.13,276.59,453.03,278.5z"/>
	<path class="st1" d="M489.98,305.61c0.72-2.14,1.44-4.27,2.15-6.41c1.68-5.05,3.35-10.1,5.03-15.15c0.61-1.85,1.3-4.23,0.67-5.81
		c-0.6-1.5-1.99-1.34-3.03,0.27c-1.89,2.91-2.55,6.6-3.49,10.05c-1.12,4.13-2.22,8.26-3.27,12.41c-1.44,5.66-2.82,11.33-4.13,17.01
		c-0.7,3.01-1.38,6.01-2.09,9.02c-0.7,2.97-1.47,5.91-2.13,8.88c0.95-2.79,1.9-5.58,2.86-8.37
		C485.03,320.2,487.52,312.91,489.98,305.61z"/>
	<path class="st1" d="M451.85,271.08c3.29,0.17,3.57-4.94,0.27-5.11C448.83,265.79,448.56,270.9,451.85,271.08z"/>
	<path class="st1" d="M411.13,292.29c3.29,0.17,3.57-4.94,0.27-5.11C408.11,287,407.83,292.12,411.13,292.29z"/>
	<path class="st1" d="M386.7,328.61c-3.29-0.17-3.57,4.94-0.27,5.11C389.72,333.9,390,328.79,386.7,328.61z"/>
	<path class="st1" d="M387.64,375.67c-3.29-0.17-3.57,4.94-0.27,5.11C390.66,380.96,390.93,375.85,387.64,375.67z"/>
	<path class="st1" d="M408,416.35c-3.29-0.17-3.57,4.94-0.27,5.11C411.02,421.64,411.3,416.53,408,416.35z"/>
	<path class="st1" d="M449.14,441.32c-3.29-0.17-3.57,4.94-0.27,5.11C452.16,446.61,452.43,441.49,449.14,441.32z"/>
	<path class="st1" d="M495.87,441.22c-3.29-0.17-3.57,4.94-0.27,5.11C498.89,446.51,499.16,441.39,495.87,441.22z"/>
	<path class="st1" d="M535.84,417.97c-3.29-0.17-3.57,4.94-0.27,5.11C538.86,423.26,539.14,418.15,535.84,417.97z"/>
	<path class="st1" d="M559.85,378.78c-3.29-0.17-3.57,4.94-0.27,5.11C562.87,384.07,563.15,378.95,559.85,378.78z"/>
	<path class="st1" d="M561.71,338.14c3.29,0.17,3.57-4.94,0.27-5.11C558.69,332.85,558.42,337.96,561.71,338.14z"/>
	<path class="st1" d="M538.87,295.9c3.29,0.17,3.57-4.94,0.27-5.11C535.85,290.61,535.57,295.73,538.87,295.9z"/>
	<path class="st1" d="M498.81,272.13c3.29,0.17,3.57-4.94,0.27-5.11C495.79,266.84,495.51,271.96,498.81,272.13z"/>
	<path class="st1" d="M500.29,313.9c-0.67-0.43-6.32,7.07-12.62,16.77c-6.3,9.69-10.87,17.91-10.2,18.34
		c0.67,0.43,6.32-7.07,12.62-16.77C496.4,322.55,500.96,314.34,500.29,313.9z"/>
	
		<ellipse transform="matrix(0.8912 -0.4537 0.4537 0.8912 -101.1252 263.8711)" class="st1" cx="499.41" cy="342.7" rx="20.94" ry="1.44"/>
	<path class="st1" d="M523.75,358.82c0.04-0.8-9.28-1.94-20.83-2.55c-11.55-0.61-20.94-0.46-20.98,0.34s9.28,1.94,20.83,2.55
		C514.32,359.77,523.71,359.62,523.75,358.82z"/>
	<path class="st1" d="M497.56,373.65c9.69,6.3,17.91,10.87,18.34,10.2c0.43-0.67-7.07-6.32-16.77-12.62
		c-9.69-6.3-17.91-10.87-18.34-10.2C480.36,361.7,487.86,367.35,497.56,373.65z"/>
	<path class="st1" d="M496.58,401.6c0.71-0.36-2.97-9.01-8.21-19.31c-5.25-10.3-10.07-18.36-10.78-18
		c-0.71,0.36,2.97,9.01,8.21,19.31C491.04,393.9,495.87,401.96,496.58,401.6z"/>
	
		<ellipse transform="matrix(0.0527 -0.9986 0.9986 0.0527 61.3265 837.4584)" class="st1" cx="472.07" cy="386.41" rx="20.94" ry="1.44"/>
	<path class="st1" d="M456.15,381.12c-6.3,9.69-10.87,17.91-10.2,18.34c0.67,0.43,6.32-7.07,12.62-16.77
		c6.3-9.69,10.87-17.91,10.2-18.34S462.45,371.42,456.15,381.12z"/>
	<path class="st1" d="M428.2,380.14c0.36,0.71,9.01-2.97,19.31-8.21c10.3-5.25,18.36-10.07,18-10.78s-9.01,2.97-19.31,8.21
		C435.9,374.6,427.84,379.43,428.2,380.14z"/>
	
		<ellipse transform="matrix(0.0527 -0.9986 0.9986 0.0527 64.8685 779.6679)" class="st1" cx="443.38" cy="355.64" rx="1.44" ry="20.94"/>
	<path class="st1" d="M465.45,352.33c0.43-0.67-7.07-6.32-16.77-12.62c-9.69-6.3-17.91-10.87-18.34-10.2
		c-0.43,0.67,7.07,6.32,16.77,12.62C456.8,348.43,465.02,352.99,465.45,352.33z"/>
	<path class="st1" d="M468.66,349.07c0.71-0.36-2.97-9.01-8.21-19.31c-5.25-10.3-10.07-18.36-10.78-18s2.97,9.01,8.21,19.31
		C463.12,341.38,467.94,349.44,468.66,349.07z"/>
	<path class="st1" d="M473.06,347.86c0.8,0.04,1.94-9.28,2.55-20.83s0.46-20.94-0.34-20.98s-1.94,9.28-2.55,20.83
		C472.11,338.42,472.26,347.82,473.06,347.86z"/>
</g>
<g>
	<path class="st2" d="M210.15,243.88c2.61-2.29,5.23-4.57,7.84-6.85c6.84-5.97,13.68-11.93,20.48-17.94
		c1.99-1.76,3.99-3.51,5.97-5.28c4.69-4.16,9.36-8.33,14.05-12.49c1.71-1.52,3.82-3.55,4.11-5.53c0.27-1.88-1.24-2.54-3.25-1.51
		c-3.64,1.86-6.48,5.22-9.48,8.19c-3.58,3.55-7.12,7.12-10.64,10.72c-4.8,4.92-9.55,9.89-14.23,14.91
		c-2.48,2.66-4.95,5.32-7.45,7.96C215.09,238.69,212.57,241.24,210.15,243.88z"/>
	<path class="st2" d="M237.27,248.99c-3.48,1.06-6.95,2.13-10.43,3.18c-3.44,1.03-6.89,1.98-10.31,3.06
		c3.41-0.67,6.81-1.34,10.22-2.01c8.9-1.75,17.81-3.5,26.71-5.29c2.6-0.53,5.21-1.04,7.8-1.59c6.14-1.26,12.27-2.53,18.41-3.79
		c2.24-0.46,5.08-1.16,6.32-2.74c1.18-1.49,0.2-2.82-2.06-2.93c-4.08-0.21-8.23,1.28-12.31,2.36c-4.87,1.28-9.73,2.61-14.58,3.97
		C250.43,245.05,243.84,246.99,237.27,248.99z"/>
	<path class="st2" d="M283.94,286.04c-3.43-2.22-7.77-3-11.84-4.11c-4.86-1.32-9.73-2.61-14.61-3.85
		c-6.66-1.7-13.34-3.32-20.03-4.87c-3.54-0.82-7.08-1.63-10.62-2.47c-3.49-0.83-6.96-1.73-10.46-2.51c3.29,1.12,6.57,2.24,9.85,3.37
		c8.59,2.94,17.17,5.88,25.77,8.77c2.52,0.85,5.03,1.7,7.55,2.53c5.94,1.98,11.89,3.94,17.84,5.92c2.17,0.72,4.98,1.53,6.84,0.79
		C286.01,288.91,285.83,287.27,283.94,286.04z"/>
	<path class="st2" d="M251.16,319.15c-3.55-3.58-7.12-7.12-10.72-10.64c-4.92-4.8-9.89-9.55-14.91-14.23
		c-2.66-2.48-5.32-4.95-7.96-7.44c-2.61-2.46-5.16-4.98-7.8-7.4c2.29,2.61,4.57,5.23,6.85,7.84c5.97,6.84,11.93,13.68,17.94,20.48
		c1.76,1.99,3.51,3.99,5.28,5.97c4.16,4.69,8.33,9.36,12.49,14.05c1.52,1.71,3.55,3.82,5.53,4.11c1.88,0.27,2.54-1.24,1.51-3.25
		C257.5,324.99,254.13,322.15,251.16,319.15z"/>
	<path class="st2" d="M216.77,353.22c0.21-4.08-1.28-8.23-2.36-12.31c-1.28-4.87-2.61-9.73-3.97-14.58
		c-1.86-6.62-3.79-13.21-5.8-19.78c-1.06-3.48-2.13-6.95-3.17-10.43c-1.03-3.44-1.98-6.89-3.06-10.31
		c0.67,3.41,1.34,6.81,2.01,10.22c1.75,8.9,3.5,17.81,5.29,26.71c0.53,2.6,1.04,5.21,1.59,7.8c1.26,6.14,2.53,12.27,3.79,18.41
		c0.46,2.24,1.16,5.08,2.74,6.32C215.32,356.45,216.65,355.47,216.77,353.22z"/>
	<path class="st2" d="M173.26,321.3c-0.85,2.52-1.7,5.03-2.53,7.55c-1.98,5.94-3.94,11.89-5.92,17.84
		c-0.72,2.17-1.53,4.98-0.79,6.84c0.7,1.76,2.34,1.58,3.57-0.31c2.22-3.43,3-7.77,4.11-11.84c1.32-4.86,2.61-9.73,3.85-14.61
		c1.7-6.66,3.32-13.34,4.87-20.03c0.82-3.54,1.63-7.08,2.47-10.62c0.83-3.49,1.73-6.96,2.51-10.46c-1.12,3.29-2.24,6.57-3.37,9.85
		C179.1,304.12,176.16,312.7,173.26,321.3z"/>
	<path class="st2" d="M174.2,279.04c-2.61,2.29-5.23,4.57-7.84,6.85c-6.84,5.97-13.68,11.93-20.48,17.94
		c-1.99,1.76-3.99,3.51-5.97,5.28c-4.69,4.16-9.36,8.33-14.05,12.49c-1.71,1.52-3.82,3.55-4.11,5.53c-0.27,1.88,1.24,2.54,3.25,1.51
		c3.64-1.86,6.48-5.22,9.48-8.19c3.58-3.55,7.12-7.12,10.64-10.72c4.8-4.92,9.55-9.89,14.23-14.91c2.48-2.66,4.95-5.32,7.44-7.96
		C169.26,284.24,171.78,281.69,174.2,279.04z"/>
	<path class="st2" d="M147.07,273.93c3.48-1.06,6.95-2.13,10.43-3.18c3.44-1.03,6.89-1.98,10.31-3.06
		c-3.41,0.67-6.81,1.34-10.22,2.01c-8.9,1.75-17.81,3.5-26.71,5.29c-2.6,0.53-5.21,1.04-7.8,1.59c-6.14,1.26-12.27,2.53-18.41,3.79
		c-2.24,0.46-5.08,1.16-6.32,2.74c-1.18,1.49-0.2,2.82,2.06,2.93c4.08,0.21,8.23-1.28,12.31-2.36c4.87-1.28,9.73-2.61,14.58-3.97
		C133.92,277.87,140.51,275.94,147.07,273.93z"/>
	<path class="st2" d="M112.25,240.99c4.86,1.32,9.73,2.61,14.61,3.85c6.66,1.7,13.34,3.32,20.03,4.87
		c3.54,0.82,7.08,1.63,10.62,2.47c3.49,0.83,6.96,1.73,10.46,2.51c-3.29-1.12-6.57-2.24-9.85-3.37c-8.59-2.94-17.17-5.88-25.77-8.77
		c-2.52-0.85-5.03-1.7-7.55-2.53c-5.94-1.98-11.89-3.94-17.84-5.92c-2.17-0.72-4.98-1.53-6.84-0.79c-1.76,0.7-1.58,2.34,0.31,3.57
		C103.84,239.1,108.18,239.88,112.25,240.99z"/>
	<path class="st2" d="M133.19,203.77c3.55,3.58,7.12,7.12,10.72,10.64c4.92,4.8,9.89,9.55,14.91,14.23
		c2.66,2.48,5.32,4.95,7.96,7.44c2.61,2.46,5.16,4.98,7.8,7.4c-2.29-2.61-4.57-5.23-6.85-7.84c-5.97-6.84-11.93-13.68-17.94-20.48
		c-1.76-1.99-3.51-3.99-5.28-5.97c-4.16-4.69-8.33-9.36-12.49-14.05c-1.52-1.71-3.55-3.82-5.53-4.11c-1.88-0.27-2.54,1.24-1.51,3.25
		C126.85,197.93,130.22,200.78,133.19,203.77z"/>
	<path class="st2" d="M167.58,169.7c-0.21,4.08,1.28,8.23,2.36,12.31c1.28,4.87,2.61,9.73,3.97,14.58
		c1.86,6.62,3.79,13.21,5.8,19.78c1.06,3.48,2.13,6.95,3.18,10.43c1.03,3.44,1.98,6.89,3.06,10.31c-0.67-3.41-1.34-6.81-2.01-10.22
		c-1.75-8.9-3.5-17.81-5.29-26.71c-0.53-2.6-1.04-5.21-1.59-7.8c-1.26-6.14-2.53-12.27-3.79-18.41c-0.46-2.24-1.16-5.08-2.74-6.32
		C169.03,166.47,167.7,167.45,167.58,169.7z"/>
	<path class="st2" d="M211.09,201.62c0.85-2.52,1.7-5.03,2.53-7.55c1.98-5.94,3.94-11.89,5.92-17.84c0.72-2.17,1.53-4.98,0.79-6.84
		c-0.7-1.76-2.34-1.58-3.57,0.31c-2.22,3.43-3,7.77-4.11,11.84c-1.32,4.86-2.61,9.73-3.85,14.61c-1.7,6.66-3.32,13.34-4.87,20.03
		c-0.82,3.54-1.63,7.08-2.47,10.62c-0.83,3.49-1.73,6.96-2.51,10.46c1.12-3.29,2.24-6.57,3.37-9.85
		C205.25,218.81,208.19,210.22,211.09,201.62z"/>
	<path class="st2" d="M166.19,160.96c3.87,0.2,4.2-5.82,0.32-6.02C162.64,154.74,162.31,160.76,166.19,160.96z"/>
	<path class="st2" d="M118.24,185.94c3.88,0.2,4.2-5.82,0.32-6.02C114.69,179.72,114.36,185.74,118.24,185.94z"/>
	<path class="st2" d="M89.48,228.71c-3.88-0.2-4.2,5.82-0.32,6.02C93.04,234.93,93.36,228.91,89.48,228.71z"/>
	<path class="st2" d="M90.58,284.12c-3.87-0.2-4.2,5.82-0.32,6.02C94.14,290.35,94.46,284.33,90.58,284.12z"/>
	<path class="st2" d="M114.56,332.02c-3.87-0.2-4.2,5.82-0.32,6.02C118.11,338.25,118.44,332.22,114.56,332.02z"/>
	<path class="st2" d="M162.99,361.41c-3.88-0.2-4.2,5.82-0.32,6.02C166.55,367.64,166.87,361.62,162.99,361.41z"/>
	<path class="st2" d="M218.02,361.3c-3.88-0.2-4.2,5.82-0.32,6.02C221.58,367.53,221.9,361.5,218.02,361.3z"/>
	<path class="st2" d="M265.09,333.93c-3.88-0.2-4.2,5.82-0.32,6.02C268.65,340.15,268.97,334.13,265.09,333.93z"/>
	<path class="st2" d="M293.36,287.78c-3.87-0.2-4.2,5.82-0.32,6.02C296.91,294.01,297.24,287.99,293.36,287.78z"/>
	<path class="st2" d="M295.55,239.92c3.88,0.2,4.2-5.82,0.32-6.02S291.67,239.72,295.55,239.92z"/>
	<path class="st2" d="M268.65,190.19c3.87,0.2,4.2-5.82,0.32-6.02S264.77,189.99,268.65,190.19z"/>
	<path class="st2" d="M221.48,162.21c3.88,0.2,4.2-5.82,0.32-6.02C217.93,155.98,217.6,162,221.48,162.21z"/>
	<path class="st2" d="M223.23,211.39c-0.79-0.51-7.44,8.33-14.86,19.74s-12.8,21.08-12.01,21.59c0.79,0.51,7.44-8.33,14.86-19.74
		C218.64,221.57,224.02,211.9,223.23,211.39z"/>
	
		<ellipse transform="matrix(0.8912 -0.4537 0.4537 0.8912 -87.1164 127.4957)" class="st2" cx="222.17" cy="245.32" rx="24.65" ry="1.7"/>
	<path class="st2" d="M250.85,264.28c0.05-0.94-10.93-2.28-24.53-3c-13.6-0.72-24.66-0.54-24.71,0.4c-0.05,0.94,10.93,2.28,24.53,3
		S250.8,265.22,250.85,264.28z"/>
	<path class="st2" d="M220.01,281.74c11.41,7.42,21.08,12.8,21.59,12.01s-8.33-7.44-19.74-14.86c-11.41-7.42-21.08-12.8-21.59-12.01
		C199.75,267.67,208.59,274.32,220.01,281.74z"/>
	<path class="st2" d="M218.86,314.65c0.84-0.43-3.49-10.61-9.67-22.74s-11.86-21.62-12.7-21.2c-0.84,0.43,3.49,10.61,9.67,22.74
		C212.34,305.59,218.02,315.08,218.86,314.65z"/>
	
		<ellipse transform="matrix(0.0527 -0.9986 0.9986 0.0527 -116.353 470.8631)" class="st2" cx="190.01" cy="296.76" rx="24.65" ry="1.7"/>
	<path class="st2" d="M171.25,290.53c-7.42,11.41-12.8,21.08-12.01,21.59c0.79,0.51,7.44-8.33,14.86-19.74s12.8-21.08,12.01-21.59
		C185.32,270.28,178.67,279.12,171.25,290.53z"/>
	<path class="st2" d="M138.34,289.38c0.43,0.84,10.61-3.49,22.74-9.67c12.13-6.18,21.62-11.86,21.2-12.7
		c-0.43-0.84-10.61,3.49-22.74,9.67S137.92,288.54,138.34,289.38z"/>
	
		<ellipse transform="matrix(0.0527 -0.9986 0.9986 0.0527 -112.1809 402.8162)" class="st2" cx="156.23" cy="260.54" rx="1.7" ry="24.65"/>
	<path class="st2" d="M182.2,256.63c0.51-0.79-8.33-7.44-19.74-14.86c-11.41-7.42-21.08-12.8-21.59-12.01
		c-0.51,0.79,8.33,7.44,19.74,14.86C172.02,252.04,181.69,257.42,182.2,256.63z"/>
	<path class="st2" d="M185.98,252.8c0.84-0.43-3.49-10.61-9.67-22.74c-6.18-12.13-11.86-21.62-12.7-21.2
		c-0.84,0.43,3.49,10.61,9.67,22.74C179.46,243.74,185.14,253.23,185.98,252.8z"/>
	<path class="st2" d="M191.16,251.37c0.94,0.05,2.28-10.93,3-24.53s0.54-24.66-0.4-24.71c-0.94-0.05-2.28,10.93-3,24.53
		C190.04,240.26,190.22,251.32,191.16,251.37z"/>
</g>
</svg>
