<?xml version="1.0" encoding="utf-8"?>
<!-- Generator: Adobe Illustrator 23.0.3, SVG Export Plug-In . SVG Version: 6.00 Build 0)  -->
<svg version="1.1" id="圖層_1" xmlns="http://www.w3.org/2000/svg" xmlns:xlink="http://www.w3.org/1999/xlink" x="0px" y="0px"
	 viewBox="0 0 1417.32 283.46" style="enable-background:new 0 0 1417.32 283.46;" xml:space="preserve">
<style type="text/css">
	.st0{fill:#F2A38A;}
	.st1{fill-rule:evenodd;clip-rule:evenodd;fill:#F2A38A;}
</style>
<g>
	<g>
		<polygon class="st0" points="876.74,186.5 876.74,136.49 817.42,136.49 817.42,186.5 809.36,186.5 809.36,158.86 802.86,158.86 
			802.86,148.67 766.24,148.67 766.24,157.93 762.66,157.93 710.92,170.49 710.92,185.63 695.33,185.63 695.33,126.92 
			656.01,126.92 656.01,102.2 599.16,102.2 599.16,165.72 587.01,155.93 566.18,169.17 566.18,185.19 545.05,185.19 545.05,82.61 
			487.48,82.61 487.48,197.2 480.58,197.2 480.58,140.45 474.5,140.45 474.5,134.87 429.09,134.87 429.09,140.45 423.01,140.45 
			423.01,168.16 328.14,168.16 328.22,171.97 427.17,171.97 427.17,144.26 433.24,144.26 433.24,138.69 470.34,138.69 
			470.34,144.26 476.42,144.26 476.42,201.01 491.63,201.01 491.63,86.42 496.76,86.42 496.76,184.39 500.08,184.39 500.08,86.42 
			505.72,86.42 505.72,184.39 509.06,184.39 509.06,86.42 515.06,86.42 515.06,184.39 518.37,184.39 518.37,86.42 524.02,86.42 
			524.02,184.39 527.35,184.39 527.35,86.42 532.17,86.42 532.17,184.39 535.51,184.39 535.51,86.42 540.89,86.42 540.89,189.71 
			545.05,189.98 545.05,189.72 570.71,189.72 570.71,171.66 586.69,161.49 599.12,171.5 599.12,188.33 599.16,170.95 603.69,170.95 
			603.69,106.73 651.48,106.73 651.48,187.46 651.53,189.72 656.05,189.72 656.05,131.45 690.8,131.45 690.8,190.16 715.44,190.16 
			715.44,174.05 763.2,162.46 770.76,162.46 770.76,153.19 798.33,153.19 798.33,163.39 804.83,163.39 804.83,191.03 821.95,191.03 
			821.95,141.02 872.22,141.02 872.22,191.03 927.31,191.03 927.31,186.5 		"/>
		<rect x="610.31" y="137.87" class="st0" width="7.18" height="5.98"/>
		<rect x="610.31" y="127.09" class="st0" width="7.18" height="5.96"/>
		<rect x="610.31" y="116.3" class="st0" width="7.18" height="5.97"/>
		<rect x="623.32" y="148.66" class="st0" width="7.18" height="5.96"/>
		<rect x="623.32" y="137.87" class="st0" width="7.18" height="5.98"/>
		<rect x="623.32" y="116.3" class="st0" width="7.18" height="5.97"/>
		<rect x="636.32" y="148.66" class="st0" width="7.18" height="5.96"/>
		<rect x="610.31" y="158.88" class="st0" width="7.18" height="5.96"/>
		<rect x="623.32" y="158.88" class="st0" width="7.18" height="5.96"/>
		<rect x="636.32" y="158.88" class="st0" width="7.18" height="5.96"/>
		<rect x="636.32" y="127.09" class="st0" width="7.18" height="5.96"/>
		<rect x="636.32" y="116.3" class="st0" width="7.18" height="5.97"/>
		<rect x="676.33" y="180.25" class="st0" width="7.18" height="5.96"/>
		<rect x="676.33" y="169.45" class="st0" width="7.18" height="5.98"/>
		<rect x="676.33" y="147.88" class="st0" width="7.18" height="5.97"/>
		<rect x="676.33" y="137.1" class="st0" width="7.18" height="5.98"/>
		<rect x="580.28" y="171.28" class="st0" width="11.28" height="11.28"/>
		<rect x="829.51" y="154.87" class="st0" width="3.48" height="12.68"/>
		<rect x="838.91" y="154.87" class="st0" width="3.5" height="12.68"/>
		<rect x="848.7" y="154.87" class="st0" width="3.48" height="12.68"/>
		<rect x="858.09" y="154.87" class="st0" width="3.5" height="12.68"/>
		<rect x="776.88" y="188.31" class="st0" width="5.04" height="4.99"/>
		<rect x="776.88" y="179.3" class="st0" width="5.04" height="4.99"/>
		<rect x="776.88" y="170.29" class="st0" width="5.04" height="4.99"/>
		<rect x="787.35" y="188.31" class="st0" width="5.04" height="4.99"/>
		<rect x="787.35" y="170.29" class="st0" width="5.04" height="4.99"/>
		<rect x="787.35" y="161.28" class="st0" width="5.04" height="4.99"/>
	</g>
	<g>
		<path class="st0" d="M451.79,259.92h-17.18v-9.25c0-1.23-1-2.23-2.23-2.23h-16.12v-9.25c0-1.23-1-2.23-2.23-2.23H346.2
			c0-0.14-0.01-0.28-0.05-0.41l-16.81-59.92l4.21-8.08c0.25-0.47,0.23-1.04-0.05-1.5c-0.28-0.46-0.77-0.74-1.31-0.74h-13.94v-6.03
			c0-0.84-0.68-1.53-1.53-1.53h-6.82v-5.37h12.13c0.18,0,0.37-0.02,0.54-0.07l19.02-5.26c0.84-0.23,1.43-0.97,1.49-1.83
			c0.06-0.87-0.44-1.67-1.24-2.01l-37.89-16.08c-0.25-0.11-0.52-0.16-0.8-0.16h-29.19h-54.56h-29.19c-0.27,0-0.54,0.06-0.8,0.16
			l-37.89,16.08c-0.8,0.34-1.3,1.15-1.24,2.01c0.06,0.86,0.65,1.6,1.49,1.83l19.02,5.26c0.18,0.05,0.36,0.07,0.54,0.07h8v5.37h-5.5
			c-0.84,0-1.53,0.68-1.53,1.53v6.03h-13.94c-0.53,0-1.03,0.28-1.31,0.74c-0.28,0.46-0.3,1.03-0.05,1.5l4.21,8.08l-16.81,59.92
			c-0.04,0.14-0.05,0.28-0.05,0.41H73.61c-1.23,0-2.23,1-2.23,2.23v9.25H55.27c-1.23,0-2.23,1-2.23,2.23v9.25H35.87
			c-1.23,0-2.23,1-2.23,2.23v11.48c0,1.23,1,2.23,2.23,2.23h93.66c0.17,0.04,0.33,0.08,0.51,0.08h45.47h136.87h43.88
			c0.28,0,0.54-0.07,0.79-0.16c0.19,0.05,0.38,0.09,0.58,0.09h94.17c1.23,0,2.23-1,2.23-2.23v-11.48
			C454.02,260.92,453.02,259.92,451.79,259.92z M430.16,259.92h-84.89l-8.07-7.02h92.96V259.92z M411.82,248.44h-79.73l-8.07-7.02
			h87.8V248.44z M339.29,233.03h-48.61v-53.97h33.47L339.29,233.03z M325.52,171.76l-0.96,1.84h-33.89v-1.84H325.52z M312.58,164.2
			v2.11h-26.05c-0.84,0-1.53,0.68-1.53,1.53v68.51h-11.85V197.3c0-11.05-7.62-20.5-18.28-24.14v-8.96H312.58z M245.15,177.18
			c12.2,0,22.13,9.02,22.13,20.12v35.58h-44.26V197.3C223.02,186.21,232.95,177.18,245.15,177.18z M240.63,171.63v-11.98h8.56v11.98
			h-2.1c-0.64-0.04-1.28-0.07-1.93-0.07c-0.65,0-1.29,0.03-1.93,0.07H240.63z M302.75,132.03l32.13,13.63l-13.12,3.63h-22.32
			l-9.41-4.85l-11.42-12.41H302.75z M220.3,132.03h52.77l12.39,13.47l-7.35,3.79h-62.86l-7.35-3.79L220.3,132.03z M158.5,145.66
			l32.13-13.63h24.13l-11.42,12.41l-9.4,4.85h-22.32L158.5,145.66z M194.43,153.37c0.33,0,0.65-0.08,0.93-0.23l9.23-4.76l9.23,4.76
			c0.29,0.15,0.61,0.23,0.93,0.23h63.85c0.33,0,0.65-0.08,0.93-0.23l9.23-4.76l9.23,4.76c0.29,0.15,0.61,0.23,0.93,0.23h5.28v5.37
			h-49.36v-3.03c0-0.84-0.68-1.53-1.53-1.53h-16.86c-0.84,0-1.53,0.68-1.53,1.53v3.03h-49.92v-5.37H194.43z M178,164.2h56.95v9.14
			c-10.4,3.76-17.79,13.08-17.79,23.96v39.04h-11.58v-68.51c0-0.84-0.68-1.53-1.53-1.53H178V164.2z M135.9,271.47l8.79-7.65
			l13.18-11.48c0,0,0,0,0,0l13.18-11.48c0.02-0.02,0.04-0.05,0.06-0.07h21.77l-18.63,30.68H135.9z M199.9,171.76v1.84h-33.89
			l-0.96-1.84H199.9z M166.43,179.06h33.47v53.97h-48.61L166.43,179.06z M75.84,241.42h87.19l-7.91,7.02H75.84V241.42z M57.5,252.89
			h92.61l-7.91,7.02H57.5V252.89z M38.09,264.37h17.18h81.92l-4.21,3.74l-3.78,3.29H38.09V264.37z M179.46,271.47l18.63-30.68h91.69
			l18.63,30.68H179.46z M313.62,271.47l-18.63-30.68h20.86l34.54,30.68H313.62z M449.57,271.4h-91.11l-8.07-7.02h82h17.18V271.4z"/>
		<path class="st0" d="M160.45,123.5l17.29,3.76c0.14,0.03,0.29,0.05,0.43,0.05h21c0.26,0,0.52-0.05,0.76-0.15l8.48-3.43l8.48,3.43
			c0.24,0.1,0.5,0.15,0.76,0.15h58.05c0.26,0,0.52-0.05,0.76-0.15l8.48-3.43l8.48,3.43c0.24,0.1,0.5,0.15,0.76,0.15h20.99
			c0.15,0,0.29-0.02,0.43-0.05l17.3-3.76c0.94-0.2,1.61-1.03,1.61-1.99s-0.67-1.79-1.61-1.99l-23.08-5.01
			c-19.56-6.87-42.92-17.82-55.39-23.88l-1.5-1.83c0.95-1.3,2.18-3.52,2.19-6.23v-0.01c0-4.11-3.79-7.45-8.46-7.45
			c-4.66,0-8.46,3.34-8.46,7.45c0,0.02,0,0.05,0,0.07c0.02,2.69,1.24,4.88,2.18,6.17l-1.5,1.83c-12.46,6.06-35.83,17.01-55.39,23.88
			l-23.08,5.01c-0.94,0.2-1.61,1.03-1.61,1.99S159.51,123.29,160.45,123.5z M275.32,123.22h-57.26l-5.76-2.33l10.9-9.3l20.45-17.28
			h6.08l20.45,17.28l10.91,9.31L275.32,123.22z M308.62,118.39c0.08,0.03,0.16,0.05,0.24,0.07l14.03,3.05l-7.91,1.72H294.6
			l-8.57-3.47l-13.22-11.28l-12.38-10.46C273.6,104.24,292.4,112.7,308.62,118.39z M246.69,79.19c2.37,0,4.38,1.54,4.38,3.37h2.04
			l-2.04,0.01c0,1.74-0.93,3.23-1.52,4h-5.71c-0.6-0.78-1.52-2.26-1.52-4c0-0.02,0-0.03,0-0.05
			C242.34,80.68,244.29,79.19,246.69,79.19z M184.52,118.46c0.08-0.02,0.16-0.04,0.24-0.07c16.22-5.68,35.02-14.15,48.19-20.38
			l-12.39,10.47l-13.21,11.28l-8.57,3.47H178.4l-7.91-1.72L184.52,118.46z"/>
	</g>
	<path class="st0" d="M135.43,224.26l-12.91-38.37c-0.23-0.68-0.87-1.14-1.59-1.14s-1.36,0.46-1.59,1.14l-12.91,38.37
		c-0.17,0.51-0.09,1.07,0.23,1.51s0.82,0.7,1.36,0.7h10.6v10.72c0,0.86,0.7,1.56,1.56,1.56h0.6c0.86,0,1.56-0.7,1.56-1.56v-10.72
		h11.51c0.54,0,1.05-0.26,1.36-0.7C135.52,225.33,135.6,224.77,135.43,224.26z"/>
	<path class="st0" d="M1363.26,257.81l-15.45-42.11c-0.27-0.75-1.04-1.25-1.9-1.25s-1.62,0.5-1.9,1.25l-15.45,42.11
		c-0.21,0.56-0.1,1.18,0.27,1.66c0.38,0.48,0.98,0.77,1.63,0.77h14.62c-0.45,0.33-0.74,0.85-0.74,1.44v13.22
		c0,0.98,0.8,1.79,1.79,1.79h0.88c0.98,0,1.79-0.8,1.79-1.79v-13.22c0-0.59-0.29-1.11-0.74-1.44h13.32c0.65,0,1.25-0.29,1.63-0.77
		C1363.36,258.99,1363.47,258.37,1363.26,257.81z M1333.24,256.55l12.66-34.51l12.66,34.51H1333.24z"/>
	<path class="st0" d="M1395.24,264.86l-11.93-32.51c-0.21-0.58-0.8-0.97-1.47-0.97s-1.25,0.39-1.47,0.97l-11.93,32.51
		c-0.16,0.43-0.08,0.91,0.21,1.28c0.29,0.37,0.76,0.59,1.26,0.59h9.79v9.02c0,0.76,0.62,1.38,1.38,1.38h0.68
		c0.76,0,1.38-0.62,1.38-1.38v-9.02h10.63c0.5,0,0.97-0.22,1.26-0.59C1395.32,265.77,1395.4,265.29,1395.24,264.86z"/>
	<path class="st0" d="M413.7,227.83l-9.84-29.22c-0.18-0.52-0.66-0.87-1.21-0.87c-0.55,0-1.03,0.35-1.21,0.87l-9.84,29.22
		c-0.13,0.39-0.07,0.82,0.17,1.15c0.24,0.33,0.62,0.53,1.04,0.53h8.07v8.16c0,0.65,0.53,1.19,1.19,1.19h0.46
		c0.65,0,1.19-0.53,1.19-1.19v-8.16h8.76c0.41,0,0.8-0.2,1.04-0.53C413.77,228.64,413.83,228.22,413.7,227.83z"/>
	<path class="st0" d="M499.28,257.06l-16.49-48.98c-0.29-0.87-1.11-1.46-2.03-1.46c-0.92,0-1.73,0.59-2.03,1.46l-16.49,48.98
		c-0.22,0.65-0.11,1.37,0.29,1.93c0.4,0.56,1.05,0.89,1.74,0.89h13.54v13.68c0,1.09,0.9,1.99,1.99,1.99h0.77
		c1.09,0,1.99-0.9,1.99-1.99v-13.68h14.69c0.69,0,1.33-0.33,1.74-0.89C499.39,258.43,499.5,257.72,499.28,257.06z M467.25,255.61
		l13.51-40.14l13.51,40.14H467.25z"/>
	<path class="st0" d="M385.63,222.7l-14.31-42.51c-0.25-0.76-0.96-1.26-1.76-1.26c-0.8,0-1.51,0.51-1.76,1.26l-14.31,42.51
		c-0.19,0.57-0.1,1.19,0.25,1.68s0.91,0.77,1.51,0.77H367v11.87c0,0.95,0.78,1.73,1.73,1.73h0.67c0.95,0,1.73-0.78,1.73-1.73v-11.87
		h12.75c0.6,0,1.16-0.29,1.51-0.77S385.82,223.26,385.63,222.7z M357.83,221.43l11.72-34.83l11.73,34.83H357.83z"/>
	<path class="st0" d="M64.53,239.48l-19.5-57.92c-0.35-1.03-1.31-1.72-2.4-1.72s-2.05,0.69-2.4,1.72l-19.5,57.92
		c-0.26,0.77-0.13,1.62,0.34,2.28c0.47,0.66,1.24,1.05,2.05,1.05h16.01v16.18c0,1.29,1.06,2.35,2.35,2.35h0.91
		c1.29,0,2.35-1.06,2.35-2.35v-16.18h17.37c0.81,0,1.58-0.39,2.05-1.05C64.67,241.1,64.79,240.25,64.53,239.48z M26.67,237.76
		l15.98-47.46l15.98,47.46H26.67z"/>
	<g>
		<path class="st0" d="M1183.26,79.1c-1.42,1.37-7.3,6.49-16.7,7.39c-1.09,0.1-1.96,0.97-2.05,2.07c-0.1,1.09,0.6,2.1,1.65,2.4
			c1.18,0.33,20.08,5.52,44.88,5.52c12.8,0,27.17-1.38,41.48-5.53c1-0.29,1.68-1.22,1.65-2.26c-0.03-1.04-0.76-1.93-1.77-2.16
			c-3.65-0.83-13.26-3.58-16.99-6.9v-7.25c0-1.26-1.02-2.28-2.28-2.28h-47.57c-1.26,0-2.28,1.02-2.28,2.28V79.1z M1176.7,88.61
			c4.9-2.04,8.15-4.74,9.53-6.04h45.63c2.62,2.56,7.22,4.6,11.32,6.03C1216.45,94.4,1190.18,91.13,1176.7,88.61z M1187.82,74.67
			h43.01v3.34h-43.01V74.67z"/>
		<path class="st0" d="M1317.59,128.24h-11.19v-11.43h3.71c1.26,0,2.28-1.02,2.28-2.28v-5.79c0-1.26-1.02-2.28-2.28-2.28
			s-2.28,1.02-2.28,2.28v3.51h-49.74v-3.51c0-1.26-1.02-2.28-2.28-2.28s-2.28,1.02-2.28,2.28v5.79c0,1.26,1.02,2.28,2.28,2.28h3.72
			v11.43h-8.36v-6.07c0-1.26-1.02-2.28-2.28-2.28h-13.11v-13.71h4.57c1.26,0,2.28-1.02,2.28-2.28v-6.62c0-1.26-1.02-2.28-2.28-2.28
			s-2.28,1.02-2.28,2.28v4.34h-57.5v-4.34c0-1.26-1.02-2.28-2.28-2.28s-2.28,1.02-2.28,2.28v6.62c0,1.26,1.02,2.28,2.28,2.28h4.57
			v13.71h-7.32v-12.54c0-1.26-1.02-2.28-2.28-2.28h-18.03V87.3h6.09c1.26,0,2.28-1.02,2.28-2.28v-8.08c0-0.91-0.53-1.68-1.3-2.05
			c11.97-1.72,19.38-3.54,19.58-3.59c1.08-0.27,1.81-1.29,1.72-2.4c-0.09-1.11-0.97-1.99-2.08-2.09c-15.01-1.29-23.71-9.62-23.8-9.7
			c-0.43-0.42-1-0.66-1.6-0.66h-64.75c-0.65,0-1.26,0.27-1.69,0.75c-4.18,4.63-19.22,8.53-24.66,9.64c-1.04,0.21-1.8,1.11-1.82,2.17
			s0.68,2,1.71,2.27c6.37,1.66,12.77,2.94,19.12,3.92c-0.49,0.42-0.81,1.03-0.81,1.73v8.08c0,1.26,1.02,2.28,2.28,2.28h6.09v17.77
			h-18.03c-1.26,0-2.28,1.02-2.28,2.28v12.54h-8.11v-13.71h4.57c1.26,0,2.28-1.02,2.28-2.28v-6.62c0-1.26-1.02-2.28-2.28-2.28
			s-2.28,1.02-2.28,2.28v4.34h-57.5v-4.34c0-0.91-0.53-1.68-1.3-2.05c9.84,1.79,19.46,2.45,28.34,2.45c24.8,0,43.7-5.19,44.88-5.52
			c1.06-0.3,1.75-1.31,1.65-2.4c-0.1-1.09-0.96-1.96-2.05-2.07c-9.34-0.89-15.27-6.03-16.7-7.39v-6.7c0-1.26-1.02-2.28-2.28-2.28
			h-47.57c-1.26,0-2.28,1.02-2.28,2.28v7.25c-3.73,3.31-13.34,6.07-16.99,6.9c-1.01,0.23-1.74,1.12-1.77,2.16
			c-0.03,1.04,0.65,1.97,1.65,2.26c4.01,1.16,8.02,2.1,12,2.86c-1.19,0.08-2.13,1.06-2.13,2.26v6.62c0,1.26,1.02,2.28,2.28,2.28
			h4.57v13.71h-13.11c-1.26,0-2.28,1.02-2.28,2.28v6.07h-8.36v-11.43h3.71c1.26,0,2.28-1.02,2.28-2.28v-5.79
			c0-1.26-1.02-2.28-2.28-2.28c-1.26,0-2.28,1.02-2.28,2.28v3.51h-49.74v-3.51c0-0.96-0.59-1.77-1.42-2.11
			c8.61,1.56,17.03,2.14,24.8,2.14c21.74,0,38.31-4.55,39.35-4.84c1.06-0.3,1.75-1.31,1.65-2.4c-0.1-1.09-0.96-1.96-2.05-2.07
			c-7.93-0.76-13.01-5.04-14.36-6.31v-5.74c0-1.26-1.02-2.28-2.28-2.28h-41.62c-1.26,0-2.28,1.02-2.28,2.28v6.2
			c-2.96,2.53-10.31,4.91-14.65,5.89c-1.01,0.23-1.74,1.12-1.77,2.16c-0.03,1.04,0.65,1.97,1.65,2.26
			c3.57,1.03,7.14,1.87,10.69,2.54c-1.25,0.01-2.26,1.03-2.26,2.28v5.79c0,1.26,1.02,2.28,2.28,2.28h3.71v11.43h-11.19
			c-1.26,0-2.28,1.02-2.28,2.28v9.1c0,0.55,0.19,1.05,0.51,1.44v47.9c0,1.26,1.02,2.28,2.28,2.28h15.89c1.26,0,2.28-1.02,2.28-2.28
			v-14.65c0-8.79,7.15-15.94,15.94-15.94c8.79,0,15.94,7.15,15.94,15.94v14.65c0,1.26,1.02,2.28,2.28,2.28h15.89
			c0.09,0,0.18-0.02,0.27-0.03c0.09,0.01,0.18,0.03,0.27,0.03h18.16c1.26,0,2.28-1.02,2.28-2.28v-16.74
			c0-10.22,8.32-18.54,18.54-18.54c10.23,0,18.54,8.32,18.54,18.54v16.74c0,1.26,1.02,2.28,2.28,2.28h18.16c0.01,0,0.03,0,0.04,0
			c0.01,0,0.03,0,0.04,0h22.19c1.26,0,2.28-1.02,2.28-2.28V168.5c0-12.77,10.39-23.16,23.17-23.16c12.77,0,23.16,10.39,23.16,23.16
			v20.46c0,1.26,1.02,2.28,2.28,2.28h21.49h0.71h17.46c1.26,0,2.28-1.02,2.28-2.28v-16.74c0-10.22,8.32-18.54,18.54-18.54
			c10.23,0,18.54,8.32,18.54,18.54v16.74c0,1.26,1.02,2.28,2.28,2.28h18.16c0.09,0,0.18-0.02,0.27-0.03
			c0.09,0.01,0.18,0.03,0.27,0.03h15.89c1.26,0,2.28-1.02,2.28-2.28v-14.65c0-8.79,7.15-15.94,15.94-15.94
			c8.79,0,15.94,7.15,15.94,15.94v14.65c0,1.26,1.02,2.28,2.28,2.28h15.89c1.26,0,2.28-1.02,2.28-2.28v-47.9
			c0.32-0.39,0.51-0.89,0.51-1.44v-9.1C1319.87,129.26,1318.85,128.24,1317.59,128.24z M1092.32,61.02h62.93
			c1.79,1.55,6.82,5.46,14.67,8.05c-18.09,3.17-56.23,7.84-94.75-0.08C1081.19,67.22,1088.55,64.5,1092.32,61.02z M1087.4,75.7
			c11.5,1.59,22.77,2.2,33.29,2.2c15.09,0,28.64-1.25,39.13-2.67c-0.47,0.42-0.78,1.02-0.78,1.7v5.8h-71.28v-5.8
			C1087.77,76.48,1087.63,76.05,1087.4,75.7z M1015.19,75.89h43.01v3.34h-43.01V75.89z M1014.17,83.79h45.63
			c1.38,1.3,4.63,4,9.53,6.04c-13.48,2.52-39.76,5.79-66.47-0.01C1006.95,88.38,1011.55,86.34,1014.17,83.79z M944.52,89.7h37.06
			v2.35h-37.06V89.7z M943.45,96.61h39.7c1.18,1.1,3.72,3.19,7.48,4.89c-11.85,2.14-33.76,4.69-56.16,0.03
			C937.78,100.31,941.32,98.65,943.45,96.61z M1315.31,136.87h-64.69v-2.83c0.29-0.34,0.48-0.77,0.52-1.24h10.66h42.31h11.19V136.87
			z M1264.09,116.95h37.75v11.29h-37.75V116.95z M1246.61,129.06c-0.17,0.21-0.31,0.44-0.41,0.7h-72.88v-5.3h11.82h48.36h13.11
			V129.06z M1167.53,121.68c-0.03,0.16-0.06,0.32-0.06,0.49v10.4c0,0.59,0.22,1.12,0.58,1.52v52.59h-4.69v-64.99H1167.53z
			 M1187.42,106.34h43.8v13.55h-43.8V106.34z M1096.14,87.49h54.53v17.57h-54.53V87.49z M1093.85,109.63
			C1093.86,109.63,1093.86,109.63,1093.85,109.63l59.1,0c0,0,0,0,0,0h18.02v7.5h-95.14v-7.5H1093.85z M1014.8,106.34h43.8v13.55
			h-43.8V106.34z M1012.52,124.45h48.36h12.61v5.3h-73.67c-0.09-0.26-0.23-0.49-0.41-0.7v-4.6H1012.52z M944.17,116.95h37.75v11.29
			h-37.75V116.95z M941.89,132.8h42.31h10.66c0.05,0.47,0.23,0.9,0.52,1.24v2.83h-64.69v-4.07H941.89z M983.55,186.68v-12.37
			c0-11.3-9.2-20.5-20.5-20.5s-20.5,9.2-20.5,20.5v12.37h-11.33v-45.24h63.66v45.24H983.55z M1059.8,186.68v-14.46
			c0-12.74-10.36-23.1-23.1-23.1s-23.1,10.36-23.1,23.1v14.46h-13.6v-52.36h73.41v52.36H1059.8z M1078.05,133.98
			c0.31-0.39,0.5-0.88,0.5-1.42v-10.4c0-0.17-0.02-0.33-0.05-0.49h4.61v64.99h-5.06V133.98z M1123.4,140.77
			c-15.29,0-27.73,12.44-27.73,27.73v18.18h-8.01v-64.99h71.13v64.99h-7.67V168.5C1151.13,153.21,1138.69,140.77,1123.4,140.77z
			 M1232.43,186.68v-14.46c0-12.74-10.36-23.1-23.1-23.1c-12.74,0-23.1,10.36-23.1,23.1v14.46h-12.89v-52.36h72.7v52.36H1232.43z
			 M1303.47,186.68v-12.37c0-11.3-9.2-20.5-20.5-20.5c-11.3,0-20.5,9.2-20.5,20.5v12.37h-11.33v-45.24h63.66v45.24H1303.47z"/>
		<path class="st0" d="M1320.71,98.3c-4.34-0.99-11.68-3.37-14.65-5.89v-6.2c0-1.26-1.02-2.28-2.28-2.28h-41.62
			c-1.26,0-2.28,1.02-2.28,2.28v5.75c-1.34,1.27-6.37,5.54-14.36,6.31c-1.09,0.1-1.96,0.97-2.05,2.07c-0.1,1.09,0.6,2.1,1.65,2.4
			c1.04,0.29,17.6,4.84,39.35,4.84c11.22,0,23.82-1.21,36.37-4.85c1-0.29,1.68-1.22,1.65-2.26
			C1322.45,99.42,1321.72,98.53,1320.71,98.3z M1264.44,88.48h37.06v2.35h-37.06V88.48z M1255.39,100.28
			c3.75-1.7,6.29-3.79,7.48-4.89h39.7c2.14,2.04,5.67,3.7,8.99,4.92C1289.15,104.97,1267.24,102.42,1255.39,100.28z"/>
	</g>
	<g>
		<path class="st0" d="M84.3,86.19h-4.03c0-7.88-6.41-14.29-14.29-14.29c-5.29,0-10.12,2.9-12.61,7.56l-3.55-1.9
			c3.19-5.98,9.39-9.69,16.17-9.69C76.09,67.87,84.3,76.09,84.3,86.19z"/>
		<path class="st0" d="M84.3,86.19h-4.03c0-10.1,8.22-18.32,18.32-18.32c6.78,0,12.97,3.72,16.16,9.69l-3.55,1.9
			c-2.49-4.67-7.32-7.56-12.61-7.56C90.72,71.9,84.3,78.31,84.3,86.19z"/>
	</g>
	<g>
		<path class="st0" d="M1053.4,43.25h-3.67c0-7.19-5.85-13.04-13.03-13.04v-3.67C1045.9,26.54,1053.4,34.04,1053.4,43.25z"/>
		<path class="st0" d="M1053.4,43.25h-3.67c0-9.21,7.5-16.71,16.71-16.71v3.67C1059.24,30.22,1053.4,36.07,1053.4,43.25z"/>
	</g>
	<path class="st1" d="M1345.36,24.67c-0.01-0.16-0.02-0.33-0.02-0.5c0-3.27,2.65-5.92,5.92-5.92c0.58,0,1.14,0.08,1.67,0.24
		c-0.14-0.67-0.22-1.37-0.22-2.09c0-5.46,4.44-9.9,9.9-9.9c5.27,0,9.59,4.13,9.88,9.32c0.81-0.29,1.69-0.45,2.6-0.45
		c4.23,0,7.66,3.43,7.66,7.66c0,0.73-0.1,1.44-0.29,2.11l12.54,3.73l-14.96,0c-0.02,0.01-0.03,0.03-0.05,0.04l-9.8-0.01
		c-0.01-0.01-0.02-0.02-0.04-0.03l-15.31,0.01l-0.02,0.02l-7.13,0l-0.01-0.01l-16.38,0.01L1345.36,24.67z"/>
	<path class="st1" d="M333.34,83.14c-0.02-0.26-0.03-0.52-0.03-0.78c0-5.14,4.17-9.31,9.31-9.31c0.91,0,1.79,0.13,2.63,0.38
		c-0.23-1.06-0.35-2.16-0.35-3.28c0-8.59,6.97-15.56,15.56-15.56c8.29,0,15.07,6.49,15.54,14.66c1.28-0.46,2.65-0.71,4.08-0.71
		c6.64,0,12.04,5.39,12.04,12.04c0,1.15-0.16,2.26-0.46,3.31l19.72,5.87l-23.52,0.01c-0.03,0.02-0.05,0.04-0.08,0.06l-15.41-0.01
		c-0.02-0.02-0.04-0.03-0.06-0.05l-24.07,0.01l-0.03,0.02L337,89.78l-0.02-0.01l-25.76,0.01L333.34,83.14z"/>
	<path class="st1" d="M1281.96,50.01c-0.02-0.21-0.03-0.43-0.03-0.65c0-4.25,3.45-7.7,7.7-7.7c0.76,0,1.49,0.11,2.18,0.31
		c-0.19-0.88-0.29-1.78-0.29-2.72c0-7.11,5.77-12.88,12.88-12.88c6.86,0,12.47,5.37,12.86,12.13c1.06-0.38,2.19-0.59,3.38-0.59
		c5.5,0,9.96,4.46,9.96,9.96c0,0.95-0.13,1.87-0.38,2.74l16.32,4.86l-19.46,0c-0.02,0.02-0.04,0.04-0.06,0.05l-12.75-0.01
		c-0.02-0.01-0.03-0.03-0.05-0.04l-19.92,0.01l-0.03,0.02l-9.28-0.01l-0.01-0.01l-21.31,0.01L1281.96,50.01z"/>
	<path class="st1" d="M412.9,115.02c-0.02-0.21-0.03-0.42-0.03-0.63c0-4.12,3.34-7.46,7.46-7.46c0.73,0,1.44,0.11,2.11,0.3
		c-0.18-0.85-0.28-1.73-0.28-2.63c0-6.89,5.59-12.48,12.48-12.48c6.64,0,12.08,5.2,12.46,11.75c1.02-0.37,2.13-0.57,3.27-0.57
		c5.33,0,9.65,4.32,9.65,9.65c0,0.92-0.13,1.81-0.37,2.65l15.81,4.71l-18.86,0c-0.02,0.02-0.04,0.03-0.06,0.05l-12.36-0.01
		c-0.02-0.01-0.03-0.03-0.05-0.04l-19.3,0.01l-0.03,0.02l-8.99-0.01l-0.01-0.01l-20.65,0.01L412.9,115.02z"/>
	<path class="st0" d="M1385.82,191.11c6.75-0.03,0.03-5.12,0.03-5.12c-13.22-18.41-6.78-35.12-0.67-38.31
		c0.66-0.34,1.3-0.53,1.93-0.55c6.41-0.16,4.17-6.36,4.17-6.36c2.39-0.35,0.27-1.72,0.27-1.72c2.72-0.35,0.28-1.57,0.28-1.57
		l1.2-3.3c3.24,1.05,2.94-4.34-0.15-5.98c-3.09-1.62-5.77-5.82-5.87-9.8c-0.05-1.94-0.08-3.27-0.41-4.14
		c-0.33-0.91-0.99-1.3-2.3-1.34c-2.57-0.08-4.66-0.16-7-3.94c-1.81-2.92-4.76-5.05-8.9-5.59c-1.2-0.17-2.51-0.18-3.92-0.05
		c-1.14,0.11-2.06,0.06-2.83-0.06c-3.45-0.62-3.52-3.19-3.52-3.19c-7.83,0.91-6.27-6.67-6.27-6.67s-5.38,2.7-8.19,5.9
		c-2.8,3.2-4.62,7.8-4.65,12.78c-0.03,4.98,5.57,3.98,5.94,6.25c0.38,2.27,2.11,7.19,4.55,8.27c2.43,1.08,2.61,1.78,4.75,4.85
		c2.14,3.08,5.63-0.56,5.74,3.56c0.09,3.51,3.32,6.38,4.27,7.14c0.16,0.14,0.26,0.21,0.26,0.21s-0.11,1.92-0.59,8.33
		c-0.48,6.42-11.93,23.07-30.28,27.09c-18.35,4.03-19.59,13.38-19.59,13.38L1385.82,191.11z"/>
	<path class="st0" d="M1334.37,256.58h-28.76c-0.11-0.13-0.21-0.26-0.32-0.39c-1.23-1.42-2.5-2.8-3.8-4.17h31.49
		c1.36,0,2.46-0.89,2.46-1.99c0-1.1-1.1-1.99-2.46-1.99h-35.42c-28.71-27.82-71.79-44.17-117.64-44.17
		c-45.9,0-88.94,16.33-117.65,44.17h-30.96c-28.71-27.82-71.79-44.17-117.64-44.17c-45.9,0-88.94,16.33-117.65,44.17h-34.28
		c-28.71-27.82-71.8-44.17-117.64-44.17c-45.9,0-88.94,16.33-117.65,44.17h-28.59c-1.36,0-2.46,0.89-2.46,1.99
		c0,1.1,1.1,1.99,2.46,1.99h24.67c-1.41,1.49-2.8,3.01-4.13,4.56h-20.55c-1.36,0-2.46,0.89-2.46,1.99c0,1.1,1.1,1.99,2.46,1.99
		h17.28c-2.9,3.69-5.57,7.52-7.93,11.42c-0.6,0.99-0.09,2.18,1.13,2.66c0.35,0.14,0.72,0.2,1.08,0.2c0.91,0,1.78-0.41,2.21-1.11
		c2.75-4.53,5.92-8.94,9.41-13.17h22.8c-0.43,0.58-0.87,1.15-1.29,1.74c-2.8,3.9-5.36,7.99-7.63,12.17
		c-0.55,1.01,0.02,2.18,1.27,2.62c0.32,0.11,0.66,0.17,0.99,0.17c0.95,0,1.85-0.45,2.26-1.19c2.19-4.05,4.67-8.01,7.38-11.77
		c0.91-1.27,1.86-2.51,2.82-3.74h188.97c0.84,1.07,1.67,2.16,2.48,3.27c2.29,3.16,4.43,6.46,6.36,9.81c0.57,1,2.04,1.43,3.27,0.97
		c1.23-0.46,1.77-1.65,1.2-2.64c-1.99-3.47-4.21-6.88-6.58-10.15c-0.31-0.42-0.63-0.83-0.94-1.25h22.81c2.91,3.52,5.6,7.18,8,10.92
		c0.31,0.48,0.82,0.81,1.41,0.97c-0.23,0.87,0.29,1.78,1.32,2.19c0.35,0.14,0.72,0.2,1.08,0.2c0.91,0,1.78-0.41,2.21-1.11
		c2.75-4.53,5.92-8.95,9.41-13.17h22.8c-0.43,0.58-0.87,1.15-1.29,1.74c-2.8,3.9-5.36,7.99-7.63,12.17
		c-0.55,1.01,0.02,2.18,1.27,2.62c0.32,0.11,0.66,0.17,0.99,0.17c0.95,0,1.85-0.45,2.26-1.19c2.19-4.05,4.67-8.01,7.38-11.77
		c0.91-1.27,1.86-2.51,2.82-3.74h188.97c0.84,1.07,1.67,2.16,2.48,3.27c2.29,3.16,4.43,6.46,6.36,9.81c0.57,1,2.04,1.43,3.27,0.97
		c1.23-0.46,1.77-1.65,1.2-2.64c-1.99-3.47-4.21-6.88-6.58-10.15c-0.31-0.42-0.63-0.83-0.94-1.25h22.81
		c2.63,3.19,5.07,6.48,7.28,9.85c-0.33,0.52-0.68,1.04-1,1.57c-0.6,0.99-0.09,2.18,1.13,2.66c0.35,0.14,0.72,0.2,1.08,0.2
		c0.91,0,1.78-0.41,2.21-1.11c0.33-0.54,0.69-1.08,1.03-1.62c0.54-0.35,0.85-0.87,0.9-1.41c2.27-3.47,4.78-6.86,7.48-10.14h22.8
		c-0.43,0.58-0.87,1.15-1.29,1.74c-2.8,3.9-5.36,7.99-7.63,12.17c-0.55,1.01,0.02,2.18,1.27,2.62c0.32,0.11,0.66,0.17,0.99,0.17
		c0.95,0,1.85-0.45,2.26-1.19c2.19-4.05,4.67-8.01,7.38-11.77c0.91-1.27,1.86-2.51,2.82-3.74h188.97c0.84,1.07,1.67,2.16,2.48,3.27
		c2.29,3.16,4.43,6.46,6.36,9.81c0.57,1,2.04,1.43,3.27,0.97c1.23-0.46,1.77-1.65,1.2-2.64c-1.99-3.47-4.21-6.88-6.58-10.15
		c-0.31-0.42-0.63-0.83-0.94-1.25h22.81c2.91,3.52,5.6,7.18,8,10.92c0.63,0.98,2.11,1.36,3.32,0.85c1.21-0.51,1.68-1.71,1.05-2.68
		c-1.98-3.09-4.17-6.13-6.49-9.09h25.5c1.36,0,2.46-0.89,2.46-1.99C1336.83,257.47,1335.73,256.58,1334.37,256.58z M1299.55,256.58
		h-22.48c-1.2-1.47-2.44-2.9-3.7-4.31c0.04-0.08,0.07-0.17,0.1-0.25h21.75C1296.71,253.51,1298.15,255.03,1299.55,256.58z
		 M644.08,215.57c31.44,0,61.22,11.87,83.06,32.47H561.02C582.85,227.43,612.61,215.57,644.08,215.57z M732.82,231.86v15.46
		c-4.21-4.15-8.71-7.99-13.49-11.48c0.16-0.26,0.26-0.56,0.26-0.87v-10.62c4.58,2.17,9.01,4.54,13.28,7.1
		C732.84,231.59,732.82,231.73,732.82,231.86z M714.67,222.23v10.38c-4.34-2.87-8.87-5.48-13.56-7.8c0.21-0.29,0.33-0.62,0.33-0.98
		v-6.76c4.52,1.51,8.93,3.21,13.24,5.07C714.68,222.17,714.67,222.2,714.67,222.23z M696.52,222.67c-4.3-1.91-8.73-3.59-13.25-5.03
		c0.01-0.06,0.02-0.12,0.02-0.19v-5.39c4.48,0.98,8.9,2.12,13.23,3.43V222.67z M678.37,216.19c-4.33-1.19-8.75-2.15-13.22-2.88
		v-4.25c4.46,0.51,8.87,1.18,13.22,2V216.19z M660.22,212.6c-4.51-0.56-9.08-0.89-13.68-0.98v-3.74c4.6,0.06,9.16,0.29,13.68,0.68
		V212.6z M641.62,211.63c-4.45,0.08-8.86,0.39-13.23,0.91v-4.01c4.37-0.37,8.78-0.59,13.23-0.64V211.63z M623.47,213.23
		c-4.48,0.72-8.89,1.65-13.23,2.82v-5.08c4.35-0.81,8.77-1.47,13.23-1.97V213.23z M605.33,217.49c-4.52,1.41-8.93,3.07-13.23,4.96
		v-7.1c4.33-1.29,8.74-2.42,13.23-3.39v5.49C605.32,217.47,605.33,217.48,605.33,217.49z M587.39,224.64
		c-4.65,2.28-9.14,4.83-13.45,7.65v-10.06c0-0.1-0.02-0.19-0.04-0.29c4.31-1.85,8.73-3.54,13.26-5.05v6.93
		C587.17,224.11,587.25,224.39,587.39,224.64z M569.16,235.61c-4.72,3.43-9.19,7.19-13.36,11.27v-15.02c0-0.22-0.06-0.44-0.14-0.64
		c4.29-2.56,8.76-4.92,13.37-7.08v10.84C569.02,235.2,569.08,235.41,569.16,235.61z M557.01,252.02h174.13
		c1.42,1.48,2.81,3,4.15,4.56H552.86C554.21,255.02,555.59,253.5,557.01,252.02z M737.54,252.28c0.04-0.08,0.07-0.17,0.1-0.25h21.75
		c1.49,1.49,2.93,3.01,4.33,4.56h-22.48C740.05,255.11,738.81,253.68,737.54,252.28z M769.45,256.19c-1.23-1.42-2.5-2.8-3.8-4.17
		h26.43c-1.41,1.49-2.8,3.01-4.13,4.56h-18.18C769.66,256.45,769.56,256.32,769.45,256.19z M798.34,252.02h22.08
		c-1.35,1.49-2.67,3-3.94,4.56H794C795.4,255.03,796.85,253.51,798.34,252.02z M913.65,215.57c31.44,0,61.22,11.87,83.07,32.47
		H830.59C852.42,227.43,882.18,215.57,913.65,215.57z M1002.39,231.86v15.46c-4.21-4.15-8.71-7.99-13.48-11.48
		c0.16-0.26,0.26-0.56,0.26-0.87v-10.62c4.58,2.17,9.01,4.54,13.28,7.1C1002.41,231.59,1002.39,231.73,1002.39,231.86z
		 M984.24,222.23v10.38c-4.34-2.87-8.87-5.48-13.56-7.8c0.21-0.29,0.33-0.62,0.33-0.98v-6.76c4.52,1.51,8.94,3.21,13.24,5.07
		C984.25,222.17,984.24,222.2,984.24,222.23z M966.09,222.67c-4.3-1.91-8.73-3.59-13.25-5.03c0.01-0.06,0.02-0.12,0.02-0.19v-5.39
		c4.48,0.98,8.9,2.12,13.23,3.43V222.67z M947.94,216.19c-4.33-1.19-8.75-2.15-13.23-2.88v-4.25c4.46,0.51,8.87,1.18,13.23,2V216.19
		z M929.79,212.6c-4.51-0.56-9.08-0.89-13.68-0.98v-3.74c4.6,0.06,9.16,0.29,13.68,0.68V212.6z M911.19,211.63
		c-4.45,0.08-8.86,0.39-13.23,0.91v-4.01c4.37-0.37,8.78-0.59,13.23-0.64V211.63z M893.04,213.23c-4.48,0.72-8.89,1.65-13.22,2.82
		v-5.08c4.35-0.81,8.76-1.47,13.22-1.97V213.23z M874.9,217.49c-4.52,1.41-8.93,3.07-13.23,4.96v-7.1
		c4.33-1.29,8.74-2.42,13.23-3.39v5.49C874.89,217.47,874.9,217.48,874.9,217.49z M856.96,224.64c-4.65,2.28-9.14,4.83-13.44,7.65
		v-10.06c0-0.1-0.02-0.19-0.04-0.29c4.31-1.85,8.73-3.54,13.26-5.05v6.93C856.74,224.11,856.83,224.39,856.96,224.64z
		 M838.73,235.61c-4.72,3.43-9.19,7.19-13.36,11.27v-15.02c0-0.22-0.06-0.44-0.14-0.64c4.29-2.56,8.76-4.92,13.37-7.08v10.84
		C838.6,235.2,838.65,235.41,838.73,235.61z M826.58,252.02h174.13c1.42,1.48,2.81,3,4.15,4.56H822.43
		C823.78,255.02,825.16,253.5,826.58,252.02z M1007.11,252.28c0.04-0.08,0.07-0.17,0.1-0.25h21.75c1.49,1.49,2.93,3.01,4.33,4.56
		h-22.48C1009.62,255.11,1008.38,253.68,1007.11,252.28z M1039.02,256.19c-1.23-1.42-2.5-2.8-3.8-4.17h23.12
		c-1.41,1.49-2.8,3.01-4.13,4.56h-14.87C1039.23,256.45,1039.13,256.32,1039.02,256.19z M1064.6,252.02h22.08
		c-1.35,1.49-2.67,3-3.94,4.56h-22.47C1061.66,255.03,1063.11,253.51,1064.6,252.02z M1179.91,215.57
		c31.44,0,61.22,11.87,83.06,32.47h-166.13C1118.68,227.43,1148.44,215.57,1179.91,215.57z M1268.65,231.86v15.46
		c-4.21-4.15-8.71-7.99-13.49-11.48c0.16-0.26,0.26-0.56,0.26-0.87v-10.62c4.58,2.17,9.01,4.54,13.28,7.1
		C1268.67,231.59,1268.65,231.73,1268.65,231.86z M1250.5,222.23v10.38c-4.34-2.87-8.87-5.48-13.56-7.8
		c0.21-0.29,0.33-0.62,0.33-0.98v-6.76c4.52,1.51,8.94,3.21,13.24,5.07C1250.51,222.17,1250.5,222.2,1250.5,222.23z M1232.35,222.67
		c-4.3-1.91-8.72-3.59-13.25-5.03c0.01-0.06,0.02-0.12,0.02-0.19v-5.39c4.48,0.98,8.9,2.12,13.22,3.43V222.67z M1214.2,216.19
		c-4.33-1.19-8.75-2.15-13.23-2.88v-4.25c4.46,0.51,8.87,1.18,13.23,2V216.19z M1196.05,212.6c-4.51-0.56-9.08-0.89-13.68-0.98
		v-3.74c4.6,0.06,9.16,0.29,13.68,0.68V212.6z M1177.45,211.63c-4.45,0.08-8.86,0.39-13.23,0.91v-4.01
		c4.37-0.37,8.78-0.59,13.23-0.64V211.63z M1159.3,213.23c-4.48,0.72-8.89,1.65-13.23,2.82v-5.08c4.35-0.81,8.77-1.47,13.23-1.97
		V213.23z M1141.16,217.49c-4.52,1.41-8.93,3.07-13.23,4.96v-7.1c4.33-1.29,8.74-2.42,13.23-3.39v5.49
		C1141.15,217.47,1141.16,217.48,1141.16,217.49z M1123.22,224.64c-4.65,2.28-9.14,4.83-13.44,7.65v-10.06
		c0-0.1-0.02-0.19-0.04-0.29c4.31-1.85,8.73-3.54,13.26-5.05v6.93C1123,224.11,1123.08,224.39,1123.22,224.64z M1104.99,235.61
		c-4.72,3.43-9.19,7.19-13.36,11.27v-15.02c0-0.22-0.06-0.44-0.14-0.64c4.29-2.56,8.76-4.92,13.37-7.08v10.84
		C1104.85,235.2,1104.91,235.41,1104.99,235.61z M1092.84,252.02h174.13c1.42,1.48,2.81,3,4.15,4.56h-182.43
		C1090.03,255.02,1091.42,253.5,1092.84,252.02z M1273.57,248.04v-13.54c6.26,4.09,12.11,8.62,17.49,13.54H1273.57z M1086.7,234.21
		v13.83h-17.95C1074.26,243,1080.27,238.38,1086.7,234.21z M1007.31,248.04v-13.54c6.26,4.09,12.11,8.62,17.49,13.54H1007.31z
		 M820.45,234.21v13.83h-17.96C808,243,814.01,238.38,820.45,234.21z M737.74,248.04v-13.54c6.26,4.09,12.11,8.62,17.49,13.54
		H737.74z M550.88,234.21v13.83h-17.96C538.43,243,544.44,238.38,550.88,234.21z M528.77,252.02h22.08c-1.35,1.49-2.67,3-3.94,4.56
		h-22.47C525.83,255.03,527.28,253.51,528.77,252.02z M778.87,268.66c-1.8-2.75-3.76-5.46-5.83-8.1h11.65
		C782.61,263.2,780.67,265.91,778.87,268.66z M1046.8,266.2c-1.33-1.91-2.74-3.79-4.19-5.64h8.34
		C1049.49,262.41,1048.12,264.3,1046.8,266.2z"/>
</g>
</svg>
