<?xml version="1.0" encoding="utf-8"?>
<!-- Generator: Adobe Illustrator 23.0.3, SVG Export Plug-In . SVG Version: 6.00 Build 0)  -->
<svg version="1.1" id="圖層_1" xmlns="http://www.w3.org/2000/svg" xmlns:xlink="http://www.w3.org/1999/xlink" x="0px" y="0px"
	 viewBox="0 0 1684.84 2520.58" style="enable-background:new 0 0 1684.84 2520.58;" xml:space="preserve">
<style type="text/css">
	.st0{fill:#F2A38A;}
	.st1{fill-rule:evenodd;clip-rule:evenodd;fill:#F2A38A;}
</style>
<g id="组_135" transform="translate(0 403.986)">
	<path id="路径_241" class="st0" d="M86.04,27.08h-5.48c0-10.75-8.71-19.46-19.46-19.46c-7.19,0-13.79,3.96-17.17,10.3l-4.84-2.59
		C45.58,3.18,60.69-1.41,72.84,5.08C80.97,9.42,86.04,17.87,86.04,27.08z"/>
	<path id="路径_242" class="st0" d="M86.04,27.08h-5.48c0-13.78,11.17-24.95,24.95-24.94c9.21,0,17.67,5.07,22,13.2l-4.84,2.59
		c-5.06-9.48-16.85-13.07-26.33-8.01C90,13.29,86.04,19.89,86.04,27.08L86.04,27.08z"/>
</g>
<path id="路径_443" class="st1" d="M1573.04,340.9c-0.03-0.29-0.04-0.59-0.04-0.88c0.01-5.8,4.71-10.49,10.51-10.49
	c0.99,0,1.98,0.14,2.94,0.42c-2.04-9.47,3.98-18.8,13.45-20.84c9.47-2.04,18.8,3.98,20.84,13.45c0.19,0.88,0.31,1.77,0.36,2.67
	c7.05-2.54,14.82,1.12,17.36,8.17c0.96,2.68,1.06,5.59,0.28,8.32l22.22,6.61l-26.5,0.01l-0.08,0.07l-17.36-0.01l-0.06-0.05
	l-27.12,0.01l-0.04,0.03l-12.63-0.01l-0.02-0.02l-29.02,0.01L1573.04,340.9z"/>
<path id="路径_444" class="st1" d="M245.46,69.66c-0.02-0.28-0.04-0.57-0.04-0.86c0-5.61,4.55-10.16,10.17-10.16
	c0.97,0,1.93,0.14,2.86,0.41c-1.98-9.17,3.85-18.21,13.03-20.19c9.17-1.98,18.21,3.85,20.19,13.03c0.18,0.86,0.3,1.72,0.35,2.6
	c6.83-2.46,14.37,1.09,16.82,7.92c0.93,2.59,1.03,5.41,0.27,8.05l21.53,6.41l-25.67,0.01l-0.08,0.07l-16.82-0.01l-0.06-0.05
	l-26.27,0.01l-0.04,0.03l-12.24-0.01l-0.02-0.01l-28.12,0.01L245.46,69.66z"/>
<g id="组_135_1_" transform="translate(0 403.986)">
	<path id="路径_241_1_" class="st0" d="M1472.64,230.57h-5.48c0-10.75-8.71-19.46-19.46-19.46c-7.19,0-13.79,3.96-17.17,10.3
		l-4.84-2.59c6.49-12.15,21.6-16.74,33.75-10.25C1467.57,212.91,1472.64,221.37,1472.64,230.57z"/>
	<path id="路径_242_1_" class="st0" d="M1472.64,230.57h-5.48c0-13.78,11.17-24.95,24.95-24.94c9.21,0,17.67,5.07,22,13.2
		l-4.84,2.59c-5.06-9.48-16.85-13.07-26.33-8.01C1476.6,216.79,1472.64,223.39,1472.64,230.57L1472.64,230.57z"/>
</g>
<path id="路径_444_3_" class="st1" d="M1444.78,1411.95c-0.02-0.28-0.04-0.57-0.04-0.86c0-5.61,4.55-10.16,10.17-10.16
	c0.97,0,1.93,0.14,2.86,0.41c-1.98-9.17,3.85-18.21,13.03-20.19c9.17-1.98,18.21,3.85,20.19,13.03c0.18,0.86,0.3,1.72,0.35,2.6
	c6.83-2.46,14.37,1.09,16.82,7.92c0.93,2.59,1.03,5.41,0.27,8.05l21.53,6.41l-25.67,0.01l-0.08,0.07l-16.82-0.01l-0.06-0.05
	l-26.27,0.01l-0.04,0.03l-12.24-0.01l-0.02-0.01l-28.12,0.01L1444.78,1411.95z"/>
<path id="路径_444_4_" class="st1" d="M272.74,1487.21c-0.02-0.28-0.04-0.57-0.04-0.86c0-5.61,4.55-10.16,10.17-10.16
	c0.97,0,1.93,0.14,2.86,0.41c-1.98-9.17,3.85-18.21,13.03-20.19c9.17-1.98,18.21,3.85,20.19,13.03c0.18,0.86,0.3,1.72,0.35,2.6
	c6.83-2.46,14.37,1.09,16.82,7.92c0.93,2.59,1.03,5.41,0.27,8.05l21.53,6.41l-25.67,0.01l-0.08,0.07l-16.82-0.01l-0.06-0.05
	l-26.27,0.01l-0.04,0.03l-12.24-0.01l-0.02-0.01l-28.12,0.01L272.74,1487.21z"/>
<g>
	<path class="st0" d="M137.61,1216.53h-3.67c0-7.19-5.85-13.04-13.03-13.04v-3.67C130.11,1199.82,137.61,1207.32,137.61,1216.53z"/>
	<path class="st0" d="M137.61,1216.53h-3.67c0-9.21,7.5-16.71,16.71-16.71v3.67C143.46,1203.5,137.61,1209.35,137.61,1216.53z"/>
</g>
<g id="组_135_2_" transform="translate(0 403.986)">
	<path id="路径_241_2_" class="st0" d="M202.29,1820.23h-5.48c0-10.75-8.71-19.46-19.46-19.46c-7.19,0-13.79,3.96-17.17,10.3
		l-4.84-2.59c6.49-12.15,21.6-16.74,33.75-10.25C197.22,1802.57,202.29,1811.03,202.29,1820.23z"/>
	<path id="路径_242_2_" class="st0" d="M202.29,1820.23h-5.48c0-13.78,11.17-24.95,24.95-24.94c9.21,0,17.67,5.07,22,13.2
		l-4.84,2.59c-5.06-9.48-16.85-13.07-26.33-8.01C206.25,1806.45,202.29,1813.05,202.29,1820.23L202.29,1820.23z"/>
</g>
<path id="路径_444_6_" class="st1" d="M1588.04,2499.13c-0.02-0.28-0.04-0.57-0.04-0.86c0-5.61,4.55-10.16,10.17-10.16
	c0.97,0,1.93,0.14,2.86,0.41c-1.98-9.17,3.85-18.21,13.03-20.19c9.17-1.98,18.21,3.85,20.19,13.03c0.18,0.86,0.3,1.72,0.35,2.6
	c6.83-2.46,14.37,1.09,16.82,7.92c0.93,2.59,1.03,5.41,0.27,8.05l21.53,6.41l-25.67,0.01l-0.08,0.07l-16.82-0.01l-0.06-0.05
	l-26.27,0.01l-0.04,0.03l-12.24-0.01l-0.02-0.01l-28.12,0.01L1588.04,2499.13z"/>
<g>
	<path class="st0" d="M1452.91,2228.45h-3.67c0-7.19-5.85-13.04-13.03-13.04v-3.67C1445.41,2211.74,1452.91,2219.24,1452.91,2228.45
		z"/>
	<path class="st0" d="M1452.91,2228.45h-3.67c0-9.21,7.5-16.71,16.71-16.71v3.67C1458.75,2215.41,1452.91,2221.26,1452.91,2228.45z"
		/>
</g>
</svg>
