<?xml version="1.0" encoding="utf-8"?>
<!-- Generator: Adobe Illustrator 23.0.3, SVG Export Plug-In . SVG Version: 6.00 Build 0)  -->
<svg version="1.1" id="圖層_1" xmlns="http://www.w3.org/2000/svg" xmlns:xlink="http://www.w3.org/1999/xlink" x="0px" y="0px"
	 viewBox="0 0 1417.32 283.46" style="enable-background:new 0 0 1417.32 283.46;" xml:space="preserve">
<style type="text/css">
	.st0{fill-rule:evenodd;clip-rule:evenodd;fill:#F2A38A;}
</style>
<path id="路径_441" class="st0" d="M1332.34,89.66c-0.02-0.22-0.03-0.45-0.03-0.68c0-4.45,3.62-8.06,8.07-8.06
	c0.77,0,1.53,0.11,2.27,0.33c-1.57-7.28,3.06-14.45,10.34-16.02c7.28-1.57,14.45,3.06,16.02,10.34c0.15,0.68,0.24,1.37,0.28,2.06
	c5.42-1.95,11.4,0.86,13.35,6.28c0.74,2.06,0.82,4.29,0.22,6.4l17.08,5.08h-20.37l-0.06,0.06l-13.35-0.01l-0.05-0.04l-20.85,0.01
	l-0.03,0.02l-9.71-0.01l-0.02-0.01l-22.31,0.01L1332.34,89.66z"/>
<path id="路径_442" class="st0" d="M33.7,237.17c-0.03-0.35-0.05-0.71-0.05-1.07c0-7,5.69-12.68,12.69-12.67
	c1.21,0,2.41,0.17,3.56,0.51c-2.46-11.44,4.82-22.72,16.26-25.18c11.44-2.46,22.72,4.82,25.18,16.26c0.23,1.06,0.37,2.14,0.44,3.22
	c8.52-3.06,17.92,1.36,20.98,9.89c1.16,3.23,1.28,6.74,0.34,10.04l26.85,7.99l-32.02,0.01l-0.1,0.09l-20.98-0.01l-0.08-0.07
	L54,246.19l-0.04,0.03l-15.26-0.01l-0.02-0.02L3.6,246.21L33.7,237.17z"/>
</svg>
