<?xml version="1.0" encoding="utf-8"?>
<!-- Generator: Adobe Illustrator 23.0.3, SVG Export Plug-In . SVG Version: 6.00 Build 0)  -->
<svg version="1.1" id="圖層_1" xmlns="http://www.w3.org/2000/svg" xmlns:xlink="http://www.w3.org/1999/xlink" x="0px" y="0px"
	 viewBox="0 0 2426.63 800.51" style="enable-background:new 0 0 2426.63 800.51;" xml:space="preserve">
<style type="text/css">
	.st0{fill:#F2A38A;}
	.st1{fill:#EC746B;}
	.st2{fill:#F0A085;}
</style>
<g id="组_136" transform="translate(1602.595)">
	<g id="组_23" transform="translate(100.462 101.694)">
		<g id="组_4" transform="translate(94.684)">
			<path id="路径_34" class="st0" d="M82.15,105.66c0,0,1.98-36.23,2.15-39.18c0.38-6.71-0.18-9.9-2.15-9.9l0,0
				c-1.98,0-2.51,3.19-2.15,9.9C80.17,69.67,82.15,105.66,82.15,105.66z"/>
		</g>
		<g id="组_5" transform="translate(113.813 5.833)">
			<path id="路径_35" class="st0" d="M79.9,102.79c0,0,14.26-33.36,15.43-36.08c2.65-6.17,3.22-9.36,1.36-10.04l0,0
				c-1.86-0.67-3.44,2.14-5.41,8.56C90.34,68.3,79.9,102.79,79.9,102.79z"/>
		</g>
		<g id="组_6" transform="translate(128.656 22.658)">
			<path id="路径_36" class="st0" d="M79.9,94.53c0,0,24.81-26.48,26.83-28.63c4.6-4.89,6.23-7.69,4.71-8.97l0,0
				c-1.51-1.27-3.97,0.83-8.01,6.2C101.5,65.69,79.9,94.53,79.9,94.53z"/>
		</g>
		<g id="组_7" transform="translate(139.672 48.418)">
			<path id="路径_37" class="st0" d="M79.9,81.9c0,0,32.37-16.4,35.01-17.73c6-3.02,8.48-5.1,7.49-6.81l0,0
				c-0.99-1.71-4.01-0.58-9.65,3.08C110.07,62.19,79.9,81.9,79.9,81.9z"/>
		</g>
		<g id="组_8" transform="translate(145.538 79.814)">
			<path id="路径_38" class="st0" d="M79.9,66.6c0,0,36.02-4.33,38.96-4.68c6.67-0.79,9.72-1.89,9.37-3.84l0,0
				c-0.34-1.95-3.57-1.91-10.12-0.4C114.99,58.4,79.9,66.6,79.9,66.6z"/>
		</g>
		<g id="组_9" transform="translate(145.542 106.973)">
			<path id="路径_39" class="st0" d="M79.9,56.58c0,0,35.33,8.25,38.21,8.92c6.54,1.54,9.78,1.54,10.12-0.4l0,0
				c0.34-1.95-2.7-3.02-9.37-3.84C115.68,60.87,79.9,56.58,79.9,56.58z"/>
		</g>
		<g id="组_10" transform="translate(139.685 123.076)">
			<path id="路径_40" class="st0" d="M79.9,56.58c0,0,30.39,19.83,32.86,21.45c5.62,3.68,8.66,4.8,9.65,3.08l0,0
				c0.99-1.71-1.51-3.76-7.49-6.81C112.05,72.85,79.9,56.58,79.9,56.58z"/>
		</g>
		<g id="组_11" transform="translate(128.673 136.206)">
			<path id="路径_41" class="st0" d="M79.9,56.58c0,0,21.77,29.03,23.54,31.4c4.02,5.38,6.5,7.47,8.01,6.2l0,0
				c1.52-1.27-0.13-4.05-4.71-8.97C104.55,82.86,79.9,56.58,79.9,56.58z"/>
		</g>
		<g id="组_12" transform="translate(113.837 144.777)">
			<path id="路径_42" class="st0" d="M79.9,56.58c0,0,10.53,34.72,11.38,37.55c1.94,6.43,3.55,9.24,5.41,8.56l0,0
				c1.86-0.68,1.26-3.85-1.36-10.04C94.07,89.71,79.9,56.58,79.9,56.58z"/>
		</g>
		<g id="组_13" transform="translate(94.697 147.756)">
			<path id="路径_43" class="st0" d="M82.16,56.58c0,0-1.98,36.23-2.15,39.18c-0.38,6.71,0.18,9.9,2.15,9.9l0,0
				c1.98,0,2.51-3.19,2.15-9.9C84.15,92.56,82.16,56.58,82.16,56.58z"/>
		</g>
		<g id="组_14" transform="translate(62.214 144.785)">
			<path id="路径_44" class="st0" d="M97.77,56.58c0,0-14.26,33.37-15.42,36.08c-2.65,6.17-3.22,9.36-1.36,10.04l0,0
				c1.86,0.68,3.44-2.14,5.41-8.56C87.33,91.07,97.77,56.58,97.77,56.58z"/>
		</g>
		<g id="组_15" transform="translate(33.149 136.221)">
			<path id="路径_45" class="st0" d="M112,56.57c0,0-24.81,26.48-26.83,28.63c-4.6,4.89-6.23,7.69-4.71,8.97l0,0
				c1.51,1.27,3.97-0.83,8.01-6.2C90.39,85.42,112,56.57,112,56.57z"/>
		</g>
		<g id="组_16" transform="translate(11.514 123.098)">
			<path id="路径_46" class="st0" d="M122.61,56.58c0,0-32.37,16.4-35.01,17.73c-6,3.02-8.48,5.1-7.49,6.81l0,0
				c0.99,1.71,4.02,0.58,9.65-3.08C92.44,76.29,122.61,56.58,122.61,56.58z"/>
		</g>
		<g id="组_17" transform="translate(0.005 106.997)">
			<path id="路径_47" class="st0" d="M128.26,56.58c0,0-36.02,4.34-38.96,4.68c-6.67,0.79-9.72,1.89-9.37,3.84l0,0
				c0.34,1.95,3.57,1.91,10.12,0.4C93.17,64.78,128.26,56.58,128.26,56.58z"/>
		</g>
		<g id="组_18" transform="translate(0 79.827)">
			<path id="路径_48" class="st0" d="M128.26,66.61c0,0-35.33-8.25-38.21-8.92c-6.54-1.54-9.78-1.55-10.12,0.4l0,0
				c-0.34,1.95,2.7,3.02,9.37,3.84C92.48,62.32,128.26,66.61,128.26,66.61z"/>
		</g>
		<g id="组_19" transform="translate(11.502 48.434)">
			<path id="路径_49" class="st0" d="M122.61,81.9c0,0-30.38-19.83-32.86-21.46c-5.62-3.68-8.66-4.8-9.65-3.08l0,0
				c-0.99,1.71,1.51,3.77,7.49,6.81C90.46,65.63,122.61,81.9,122.61,81.9z"/>
		</g>
		<g id="组_20" transform="translate(33.132 22.672)">
			<path id="路径_50" class="st0" d="M111.99,94.53c0,0-21.77-29.03-23.54-31.4c-4.02-5.38-6.5-7.47-8.01-6.2l0,0
				c-1.51,1.27,0.13,4.05,4.71,8.96C87.34,68.25,111.99,94.53,111.99,94.53z"/>
		</g>
		<g id="组_21" transform="translate(62.199 5.842)">
			<path id="路径_51" class="st0" d="M97.77,102.79c0,0-10.53-34.72-11.38-37.56c-1.94-6.43-3.55-9.24-5.41-8.56l0,0
				c-1.86,0.67-1.26,3.85,1.36,10.04C83.59,69.66,97.77,102.79,97.77,102.79z"/>
		</g>
		<g id="组_22" transform="translate(94.684)">
			<path id="路径_52" class="st0" d="M82.15,105.66c0,0,1.98-36.23,2.15-39.18c0.38-6.71-0.18-9.9-2.15-9.9l0,0
				c-1.98,0-2.51,3.19-2.15,9.9C80.17,69.67,82.15,105.66,82.15,105.66z"/>
		</g>
	</g>
	<g id="组_43" transform="translate(133.774 136.649)">
		<g id="组_24" transform="translate(55.926)">
			<path id="路径_53" class="st0" d="M84.31,88.23c0,0-1.14-23.49-1.23-25.41c-0.2-4.35-0.78-6.37-2.05-6.24l0,0
				c-1.28,0.13-1.4,2.22-0.73,6.53C80.62,65.16,84.31,88.23,84.31,88.23z"/>
		</g>
		<g id="组_25" transform="translate(71.414 1.55)">
			<path id="路径_54" class="st0" d="M79.9,87.47c0,0,6.96-22.47,7.54-24.3c1.3-4.16,1.45-6.25,0.21-6.56l0,0
				c-1.24-0.31-2.08,1.61-2.92,5.88C84.33,64.53,79.9,87.47,79.9,87.47z"/>
		</g>
		<g id="组_26" transform="translate(81.556 10.449)">
			<path id="路径_55" class="st0" d="M79.9,83.1c0,0,14.23-18.73,15.39-20.25c2.64-3.46,3.5-5.38,2.44-6.09l0,0
				c-1.06-0.72-2.5,0.8-4.75,4.53C91.9,63.06,79.9,83.1,79.9,83.1z"/>
		</g>
		<g id="组_27" transform="translate(89.537 25.621)">
			<path id="路径_56" class="st0" d="M79.9,75.65c0,0,19.78-12.73,21.39-13.77c3.67-2.35,5.13-3.86,4.38-4.89l0,0
				c-0.75-1.04-2.63-0.1-6.01,2.63C98.03,60.93,79.9,75.65,79.9,75.65z"/>
		</g>
		<g id="组_28" transform="translate(94.394 45.163)">
			<path id="路径_57" class="st0" d="M79.9,66.1c0,0,22.94-5.2,24.81-5.62c4.25-0.95,6.14-1.87,5.79-3.1l0,0
				c-0.35-1.23-2.43-1-6.55,0.42C101.97,58.47,79.9,66.1,79.9,66.1z"/>
		</g>
		<g id="组_29" transform="translate(95.54 65.733)">
			<path id="路径_58" class="st0" d="M79.9,56.57c0,0,23.33,2.96,25.23,3.2c4.32,0.55,6.41,0.34,6.5-0.93l0,0
				c0.09-1.28-1.95-1.77-6.3-1.85C103.25,56.95,79.9,56.57,79.9,56.57z"/>
		</g>
		<g id="组_30" transform="translate(92.84 76.507)">
			<path id="路径_59" class="st0" d="M79.9,56.58c0,0,20.92,10.76,22.62,11.64c3.87,2,5.9,2.51,6.43,1.34l0,0
				c0.52-1.17-1.22-2.33-5.29-3.89C101.72,64.92,79.9,56.58,79.9,56.58z"/>
		</g>
		<g id="组_31" transform="translate(86.618 85.708)">
			<path id="路径_60" class="st0" d="M79.9,56.58c0,0,15.97,17.26,17.27,18.67c2.95,3.2,4.69,4.38,5.58,3.46l0,0
				c0.89-0.92-0.35-2.6-3.64-5.47C97.55,71.88,79.9,56.58,79.9,56.58z"/>
		</g>
		<g id="组_32" transform="translate(77.623 92.226)">
			<path id="路径_61" class="st0" d="M79.9,56.58c0,0,9.11,21.69,9.84,23.45c1.68,4.02,2.91,5.72,4.06,5.16l0,0
				c1.15-0.56,0.56-2.57-1.55-6.38C91.25,76.99,79.9,56.58,79.9,56.58z"/>
		</g>
		<g id="组_33" transform="translate(66.943 95.274)">
			<path id="路径_62" class="st0" d="M79.9,56.58c0,0,1.14,23.49,1.23,25.41c0.2,4.35,0.78,6.37,2.05,6.24l0,0
				c1.28-0.13,1.4-2.22,0.73-6.53C83.58,79.64,79.9,56.58,79.9,56.58z"/>
		</g>
		<g id="组_34" transform="translate(47.267 94.485)">
			<path id="路径_63" class="st0" d="M88.49,56.58c0,0-6.96,22.47-7.54,24.3c-1.3,4.16-1.45,6.25-0.21,6.56l0,0
				c1.24,0.31,2.08-1.61,2.92-5.88C84.07,79.51,88.49,56.58,88.49,56.58z"/>
		</g>
		<g id="组_35" transform="translate(27.45 89.955)">
			<path id="路径_64" class="st0" d="M98.17,56.58c0,0-14.23,18.73-15.39,20.25c-2.64,3.46-3.5,5.38-2.44,6.1l0,0
				c1.06,0.72,2.5-0.8,4.75-4.53C86.16,76.61,98.17,56.58,98.17,56.58z"/>
		</g>
		<g id="组_36" transform="translate(11.784 82.23)">
			<path id="路径_65" class="st0" d="M105.86,56.58c0,0-19.78,12.73-21.39,13.77c-3.67,2.35-5.13,3.86-4.38,4.89l0,0
				c0.75,1.04,2.63,0.1,6.01-2.63C87.72,71.3,105.86,56.58,105.86,56.58z"/>
		</g>
		<g id="组_37" transform="translate(2.248 72.24)">
			<path id="路径_66" class="st0" d="M110.53,56.58c0,0-22.94,5.2-24.81,5.62c-4.25,0.95-6.14,1.87-5.79,3.1l0,0
				c0.35,1.23,2.43,1,6.55-0.42C88.46,64.21,110.53,56.58,110.53,56.58z"/>
		</g>
		<g id="组_38" transform="translate(0 57.702)">
			<path id="路径_67" class="st0" d="M111.63,60.07c0,0-23.33-2.96-25.23-3.2c-4.32-0.56-6.41-0.34-6.5,0.93l0,0
				c-0.09,1.28,1.95,1.77,6.3,1.85C88.28,59.69,111.63,60.07,111.63,60.07z"/>
		</g>
		<g id="组_39" transform="translate(5.303 36.817)">
			<path id="路径_68" class="st0" d="M109.03,70.18c0,0-20.92-10.76-22.62-11.64c-3.87-2-5.9-2.52-6.43-1.34l0,0
				c-0.52,1.17,1.22,2.33,5.29,3.89C87.21,61.83,109.03,70.18,109.03,70.18z"/>
		</g>
		<g id="组_40" transform="translate(17.528 18.779)">
			<path id="路径_69" class="st0" d="M103.03,79.02c0,0-15.97-17.26-17.27-18.67c-2.95-3.2-4.69-4.38-5.58-3.46l0,0
				c-0.89,0.92,0.35,2.6,3.64,5.47C85.38,63.71,103.03,79.02,103.03,79.02z"/>
		</g>
		<g id="组_41" transform="translate(35.171 5.98)">
			<path id="路径_70" class="st0" d="M94.38,85.3c0,0-9.11-21.69-9.84-23.46c-1.68-4.02-2.91-5.72-4.06-5.16l0,0
				c-1.15,0.56-0.56,2.57,1.55,6.38C83.03,64.88,94.38,85.3,94.38,85.3z"/>
		</g>
		<g id="组_42" transform="translate(55.926)">
			<path id="路径_71" class="st0" d="M84.31,88.23c0,0-1.14-23.49-1.23-25.41c-0.2-4.35-0.78-6.37-2.05-6.24l0,0
				c-1.28,0.13-1.4,2.22-0.73,6.53C80.62,65.16,84.31,88.23,84.31,88.23z"/>
		</g>
	</g>
	<g id="组_63" transform="translate(150.871 153.596)">
		<g id="组_44" transform="translate(33.997 1.337)">
			<path id="路径_72" class="st0" d="M86.46,79.12c0,0-3.48-16.86-3.76-18.24c-0.64-3.12-1.28-4.52-2.19-4.28l0,0
				c-0.91,0.24-0.76,1.77,0.21,4.8C81.18,62.85,86.46,79.12,86.46,79.12z"/>
		</g>
		<g id="组_45" transform="translate(48.656)">
			<path id="路径_73" class="st0" d="M79.9,79.77c0,0,2.5-17.04,2.7-18.42c0.47-3.15,0.34-4.68-0.59-4.77l0,0
				c-0.93-0.08-1.32,1.4-1.44,4.58C80.51,62.68,79.9,79.77,79.9,79.77z"/>
		</g>
		<g id="组_46" transform="translate(56.504 4.182)">
			<path id="路径_74" class="st0" d="M79.9,77.72c0,0,8.17-15.16,8.84-16.39c1.52-2.8,1.92-4.29,1.07-4.68l0,0
				c-0.85-0.4-1.72,0.86-2.92,3.81C86.31,61.87,79.9,77.72,79.9,77.72z"/>
		</g>
		<g id="组_47" transform="translate(63.15 13.387)">
			<path id="路径_75" class="st0" d="M79.9,73.2c0,0,12.86-11.45,13.91-12.38c2.39-2.11,3.27-3.37,2.61-4.03l0,0
				c-0.66-0.67-1.91,0.22-4.05,2.58C91.35,60.5,79.9,73.2,79.9,73.2z"/>
		</g>
		<g id="组_48" transform="translate(67.793 26.479)">
			<path id="路径_76" class="st0" d="M79.9,66.79c0,0,16-6.36,17.31-6.87c2.96-1.17,4.23-2.05,3.83-2.9l0,0
				c-0.39-0.85-1.87-0.44-4.69,1.04C95,58.77,79.9,66.79,79.9,66.79z"/>
		</g>
		<g id="组_49" transform="translate(69.872 41.734)">
			<path id="路径_77" class="st0" d="M79.9,59.39c0,0,17.21-0.5,18.61-0.54c3.19-0.09,4.67-0.48,4.59-1.41l0,0
				c-0.08-0.93-1.61-1.06-4.77-0.62C96.83,57.02,79.9,59.39,79.9,59.39z"/>
		</g>
		<g id="组_50" transform="translate(69.138 52.647)">
			<path id="路径_78" class="st0" d="M79.9,56.58c0,0,16.34,5.42,17.68,5.86c3.02,1.01,4.55,1.15,4.8,0.24l0,0
				c0.24-0.91-1.15-1.54-4.27-2.22C96.62,60.14,79.9,56.58,79.9,56.58z"/>
		</g>
		<g id="组_51" transform="translate(65.678 60.005)">
			<path id="路径_79" class="st0" d="M79.9,56.58c0,0,13.51,10.68,14.6,11.55c2.5,1.98,3.89,2.64,4.43,1.87l0,0
				c0.54-0.77-0.55-1.84-3.25-3.54C94.39,65.65,79.9,56.58,79.9,56.58z"/>
		</g>
		<g id="组_52" transform="translate(59.909 65.737)">
			<path id="路径_80" class="st0" d="M79.9,56.58c0,0,9.04,14.66,9.77,15.85c1.67,2.72,2.75,3.81,3.52,3.27l0,0
				c0.77-0.53,0.11-1.92-1.84-4.44C90.42,70.06,79.9,56.58,79.9,56.58z"/>
		</g>
		<g id="组_53" transform="translate(52.529 69.151)">
			<path id="路径_81" class="st0" d="M79.9,56.58c0,0,3.48,16.86,3.76,18.24c0.64,3.12,1.28,4.52,2.19,4.28l0,0
				c0.91-0.24,0.76-1.77-0.21-4.8C85.17,72.84,79.9,56.58,79.9,56.58z"/>
		</g>
		<g id="组_54" transform="translate(41.46 69.833)">
			<path id="路径_82" class="st0" d="M82.86,56.58c0,0-2.5,17.04-2.7,18.42c-0.47,3.15-0.34,4.68,0.59,4.77l0,0
				c0.93,0.08,1.32-1.4,1.44-4.58C82.26,73.67,82.86,56.58,82.86,56.58z"/>
		</g>
		<g id="组_55" transform="translate(26.228 67.703)">
			<path id="路径_83" class="st0" d="M90.25,56.58c0,0-8.17,15.16-8.84,16.39c-1.52,2.8-1.92,4.28-1.08,4.68l0,0
				c0.85,0.4,1.72-0.86,2.93-3.82C83.83,72.43,90.25,56.58,90.25,56.58z"/>
		</g>
		<g id="组_56" transform="translate(13.197 63.018)">
			<path id="路径_84" class="st0" d="M96.63,56.58c0,0-12.86,11.45-13.91,12.38c-2.39,2.11-3.27,3.37-2.61,4.03l0,0
				c0.66,0.67,1.91-0.22,4.05-2.58C85.18,69.28,96.63,56.58,96.63,56.58z"/>
		</g>
		<g id="组_57" transform="translate(4.079 56.342)">
			<path id="路径_85" class="st0" d="M101.11,56.58c0,0-16,6.36-17.31,6.87c-2.96,1.17-4.23,2.04-3.83,2.9l0,0
				c0.39,0.85,1.87,0.44,4.69-1.04C86,64.59,101.11,56.58,101.11,56.58z"/>
		</g>
		<g id="组_58" transform="translate(0 48.482)">
			<path id="路径_86" class="st0" d="M103.11,56.58c0,0-17.21,0.5-18.61,0.54c-3.19,0.09-4.67,0.48-4.59,1.41l0,0
				c0.08,0.93,1.61,1.06,4.77,0.62C86.17,58.94,103.11,56.58,103.11,56.58z"/>
		</g>
		<g id="组_59" transform="translate(1.443 33.675)">
			<path id="路径_87" class="st0" d="M102.4,63.28c0,0-16.34-5.42-17.68-5.86c-3.02-1.01-4.55-1.15-4.8-0.24l0,0
				c-0.25,0.9,1.15,1.54,4.26,2.22C85.67,59.72,102.4,63.28,102.4,63.28z"/>
		</g>
		<g id="组_60" transform="translate(8.24 19.29)">
			<path id="路径_88" class="st0" d="M99.06,70.31c0,0-13.51-10.68-14.61-11.55c-2.5-1.98-3.89-2.64-4.43-1.87l0,0
				c-0.54,0.77,0.55,1.84,3.25,3.54C84.57,61.24,99.06,70.31,99.06,70.31z"/>
		</g>
		<g id="组_61" transform="translate(19.566 8.038)">
			<path id="路径_89" class="st0" d="M93.5,75.83c0,0-9.04-14.65-9.77-15.85c-1.67-2.72-2.75-3.81-3.52-3.27l0,0
				c-0.77,0.54-0.11,1.92,1.84,4.44C82.99,62.35,93.5,75.83,93.5,75.83z"/>
		</g>
		<g id="组_62" transform="translate(33.997 1.337)">
			<path id="路径_90" class="st0" d="M86.46,79.12c0,0-3.48-16.86-3.76-18.24c-0.64-3.12-1.28-4.52-2.19-4.28l0,0
				c-0.91,0.24-0.76,1.77,0.21,4.8C81.18,62.85,86.46,79.12,86.46,79.12z"/>
		</g>
	</g>
	<g id="组_83" transform="translate(73.693 77.717)">
		<g id="组_64" transform="translate(132.973)">
			<path id="路径_91" class="st0" d="M79.9,117.62c0,0,9.28-44.67,10.04-48.31c1.73-8.27,1.64-12.34-0.82-12.71l0,0
				c-2.46-0.37-3.71,3.49-4.54,11.9C84.19,72.51,79.9,117.62,79.9,117.62z"/>
		</g>
		<g id="组_65" transform="translate(153.397 13.481)">
			<path id="路径_92" class="st0" d="M79.9,111.01c0,0,23.99-38.81,25.96-41.97c4.46-7.17,5.76-11.03,3.58-12.22l0,0
				c-2.18-1.19-4.69,2.01-8.33,9.63C99.36,70.08,79.9,111.01,79.9,111.01z"/>
		</g>
		<g id="组_66" transform="translate(170.241 39.876)">
			<path id="路径_93" class="st0" d="M79.9,98.04c0,0,35.82-28.26,38.74-30.56c6.64-5.22,9.19-8.4,7.54-10.26l0,0
				c-1.64-1.86-5.09,0.29-11.12,6.2C112.18,66.24,79.9,98.04,79.9,98.04z"/>
		</g>
		<g id="组_67" transform="translate(181.476 75.911)">
			<path id="路径_94" class="st0" d="M79.9,80.4c0,0,43.32-14.3,46.86-15.46c8.03-2.63,11.5-4.75,10.6-7.06l0,0
				c-0.91-2.32-4.88-1.47-12.57,2.02C121.11,61.56,79.9,80.4,79.9,80.4z"/>
		</g>
		<g id="组_68" transform="translate(185.741 116.69)">
			<path id="路径_95" class="st0" d="M79.9,60.74c0,0,45.61,1.38,49.32,1.5c8.44,0.27,12.44-0.53,12.38-3.01l0,0
				c-0.06-2.48-4.09-3.05-12.51-2.4C125.07,57.13,79.9,60.74,79.9,60.74z"/>
		</g>
		<g id="组_69" transform="translate(182.528 142.161)">
			<path id="路径_96" class="st0" d="M79.9,56.58c0,0,42.39,16.89,45.84,18.28c7.84,3.14,11.87,3.76,12.66,1.4l0,0
				c0.79-2.35-2.8-4.26-10.93-6.53C123.58,68.64,79.9,56.58,79.9,56.58z"/>
		</g>
		<g id="组_70" transform="translate(172.221 161.083)">
			<path id="路径_97" class="st0" d="M79.9,56.58c0,0,34.05,30.37,36.82,32.85c6.29,5.64,9.86,7.59,11.42,5.65l0,0
				c1.55-1.94-1.17-4.96-8.04-9.88C116.82,82.85,79.9,56.58,79.9,56.58z"/>
		</g>
		<g id="组_71" transform="translate(156.065 175.338)">
			<path id="路径_98" class="st0" d="M79.9,56.58c0,0,21.61,40.18,23.36,43.46c3.98,7.45,6.67,10.51,8.8,9.21l0,0
				c2.12-1.29,0.6-5.06-4.17-12.03C105.61,93.89,79.9,56.58,79.9,56.58z"/>
		</g>
		<g id="组_72" transform="translate(136.006 183.208)">
			<path id="路径_99" class="st0" d="M79.9,56.57c0,0,6.56,45.15,7.09,48.83c1.2,8.36,2.68,12.16,5.11,11.66l0,0
				c2.44-0.49,2.3-4.55,0.19-12.73C91.29,100.44,79.9,56.57,79.9,56.57z"/>
		</g>
		<g id="组_73" transform="translate(103.246 183.742)">
			<path id="路径_100" class="st0" d="M91.12,56.58c0,0-9.28,44.67-10.04,48.31c-1.73,8.27-1.64,12.34,0.82,12.71l0,0
				c2.46,0.37,3.71-3.49,4.54-11.9C86.83,101.69,91.12,56.58,91.12,56.58z"/>
		</g>
		<g id="组_74" transform="translate(63.471 176.878)">
			<path id="路径_101" class="st0" d="M110.47,56.58c0,0-23.99,38.81-25.96,41.97c-4.46,7.17-5.76,11.03-3.58,12.22l0,0
				c2.18,1.19,4.69-2.01,8.33-9.63C91.01,97.5,110.47,56.58,110.47,56.58z"/>
		</g>
		<g id="组_75" transform="translate(30.425 163.442)">
			<path id="路径_102" class="st0" d="M126.67,56.58c0,0-35.82,28.26-38.74,30.56c-6.64,5.22-9.19,8.4-7.54,10.26l0,0
				c1.65,1.86,5.09-0.29,11.12-6.2C94.39,88.37,126.67,56.58,126.67,56.58z"/>
		</g>
		<g id="组_76" transform="translate(8.366 145.054)">
			<path id="路径_103" class="st0" d="M137.5,56.58c0,0-43.33,14.3-46.86,15.46c-8.03,2.63-11.51,4.75-10.6,7.06l0,0
				c0.91,2.31,4.88,1.47,12.57-2.02C96.28,75.42,137.5,56.58,137.5,56.58z"/>
		</g>
		<g id="组_77" transform="translate(0 122.388)">
			<path id="路径_104" class="st0" d="M141.59,58.12c0,0-45.61-1.38-49.32-1.5c-8.44-0.27-12.44,0.53-12.37,3.01l0,0
				c0.06,2.48,4.09,3.05,12.51,2.4C96.42,61.73,141.59,58.12,141.59,58.12z"/>
		</g>
		<g id="组_78" transform="translate(6.309 81.522)">
			<path id="路径_105" class="st0" d="M138.5,77.68c0,0-42.38-16.89-45.84-18.28c-7.84-3.14-11.87-3.76-12.66-1.4l0,0
				c-0.79,2.36,2.8,4.26,10.93,6.53C94.82,65.62,138.5,77.68,138.5,77.68z"/>
		</g>
		<g id="组_79" transform="translate(26.558 44.481)">
			<path id="路径_106" class="st0" d="M128.56,95.8c0,0-34.05-30.37-36.82-32.85c-6.29-5.64-9.87-7.59-11.42-5.65l0,0
				c-1.55,1.94,1.17,4.96,8.04,9.88C91.64,69.53,128.56,95.8,128.56,95.8z"/>
		</g>
		<g id="组_80" transform="translate(58.277 16.49)">
			<path id="路径_107" class="st0" d="M113,109.54c0,0-21.61-40.18-23.37-43.46c-3.98-7.45-6.67-10.51-8.8-9.21l0,0
				c-2.12,1.3-0.6,5.06,4.17,12.03C87.29,72.22,113,109.54,113,109.54z"/>
		</g>
		<g id="组_81" transform="translate(97.428 1.044)">
			<path id="路径_108" class="st0" d="M93.9,117.11c0,0-6.56-45.15-7.09-48.83c-1.2-8.36-2.68-12.15-5.11-11.66l0,0
				c-2.44,0.49-2.29,4.55-0.19,12.73C82.51,73.26,93.9,117.11,93.9,117.11z"/>
		</g>
		<g id="组_82" transform="translate(132.973)">
			<path id="路径_109" class="st0" d="M79.9,117.62c0,0,9.28-44.67,10.04-48.31c1.73-8.27,1.64-12.34-0.82-12.71l0,0
				c-2.46-0.37-3.71,3.49-4.54,11.9C84.19,72.51,79.9,117.62,79.9,117.62z"/>
		</g>
	</g>
	<g id="组_103">
		<g id="组_84" transform="translate(191.243)">
			<path id="路径_110" class="st0" d="M85.21,156.37c0,0,3.42-73.7,3.71-79.71c0.66-13.64-0.53-20.12-4.55-20.09l0,0
				c-4.02,0.03-5.04,6.53-4.21,20.16C80.56,83.24,85.21,156.37,85.21,156.37z"/>
		</g>
		<g id="组_85" transform="translate(230.915 11.299)">
			<path id="路径_111" class="st0" d="M79.9,150.83c0,0,28.42-68.08,30.75-73.63c5.29-12.59,6.39-19.09,2.6-20.43l0,0
				c-3.79-1.34-6.97,4.41-10.85,17.5C100.54,80.52,79.9,150.83,79.9,150.83z"/>
		</g>
		<g id="组_86" transform="translate(261.237 45.014)">
			<path id="路径_112" class="st0" d="M79.9,134.27c0,0,50-54.26,54.08-58.67c9.28-10.02,12.53-15.75,9.43-18.31l0,0
				c-3.1-2.56-8.06,1.76-16.18,12.74C123.35,75.27,79.9,134.27,79.9,134.27z"/>
		</g>
		<g id="组_87" transform="translate(283.861 97.028)">
			<path id="路径_113" class="st0" d="M79.9,108.75c0,0,65.54-33.89,70.89-36.64c12.15-6.25,17.16-10.52,15.12-13.98l0,0
				c-2.04-3.46-8.17-1.1-19.56,6.43C140.91,68.17,79.9,108.75,79.9,108.75z"/>
		</g>
		<g id="组_88" transform="translate(296.059 160.694)">
			<path id="路径_114" class="st0" d="M79.89,77.73c0,0,73.18-9.43,79.14-10.18c13.55-1.72,19.72-4.01,18.99-7.96l0,0
				c-0.73-3.95-7.3-3.83-20.58-0.65C151.11,60.45,79.89,77.73,79.89,77.73z"/>
		</g>
		<g id="组_89" transform="translate(296.358 216.684)">
			<path id="路径_115" class="st0" d="M79.9,56.58c0,0,71.99,16.17,77.85,17.5c13.32,3.02,19.9,2.98,20.57-0.99l0,0
				c0.67-3.96-5.55-6.1-19.12-7.65C152.72,64.7,79.9,56.58,79.9,56.58z"/>
		</g>
		<g id="组_90" transform="translate(284.723 249.526)">
			<path id="路径_116" class="st0" d="M79.9,56.58c0,0,62.11,39.82,67.17,43.07c11.48,7.39,17.69,9.6,19.67,6.1l0,0
				c1.98-3.5-3.13-7.63-15.35-13.73C145.55,89.12,79.9,56.58,79.9,56.58z"/>
		</g>
		<g id="组_91" transform="translate(262.557 276.408)">
			<path id="路径_117" class="st0" d="M79.9,56.58c0,0,44.75,58.66,48.39,63.45c8.26,10.88,13.33,15.07,16.39,12.47l0,0
				c3.06-2.61-0.33-8.24-9.73-18.15C130.46,109.61,79.9,56.58,79.9,56.58z"/>
		</g>
		<g id="组_92" transform="translate(232.533 294.087)">
			<path id="路径_118" class="st0" d="M79.9,56.58c0,0,21.99,70.43,23.77,76.17c4.04,13.05,7.38,18.73,11.14,17.32l0,0
				c3.77-1.41,2.5-7.86-2.94-20.38C109.27,123.71,79.9,56.58,79.9,56.58z"/>
		</g>
		<g id="组_93" transform="translate(194.386 300.431)">
			<path id="路径_119" class="st0" d="M83.78,56.58c0,0-3.42,73.7-3.71,79.71c-0.66,13.64,0.53,20.12,4.55,20.09l0,0
				c4.02-0.03,5.04-6.53,4.21-20.16C88.43,129.7,83.78,56.58,83.78,56.58z"/>
		</g>
		<g id="组_94" transform="translate(128.316 294.676)">
			<path id="路径_120" class="st0" d="M115.49,56.58c0,0-28.42,68.09-30.75,73.63c-5.29,12.59-6.39,19.09-2.6,20.43l0,0
				c3.79,1.34,6.97-4.41,10.85-17.5C94.85,126.89,115.49,56.58,115.49,56.58z"/>
		</g>
		<g id="组_95" transform="translate(68.94 277.515)">
			<path id="路径_121" class="st0" d="M144.55,56.58c0,0-50,54.26-54.08,58.67c-9.28,10.03-12.53,15.75-9.43,18.31l0,0
				c3.1,2.56,8.06-1.76,16.18-12.74C101.1,115.58,144.55,56.58,144.55,56.58z"/>
		</g>
		<g id="组_96" transform="translate(24.515 251.017)">
			<path id="路径_122" class="st0" d="M166.35,56.58c0,0-65.54,33.89-70.89,36.64c-12.15,6.25-17.16,10.52-15.12,13.98l0,0
				c2.04,3.46,8.17,1.1,19.56-6.43C105.34,97.16,166.35,56.58,166.35,56.58z"/>
		</g>
		<g id="组_97" transform="translate(0.577 218.38)">
			<path id="路径_123" class="st0" d="M178.09,56.58c0,0-73.18,9.43-79.14,10.18c-13.55,1.72-19.72,4.01-18.99,7.97l0,0
				c0.73,3.95,7.3,3.83,20.58,0.65C106.88,73.85,178.09,56.58,178.09,56.58z"/>
		</g>
		<g id="组_98" transform="translate(0 163.9)">
			<path id="路径_124" class="st0" d="M178.36,76.22c0,0-71.99-16.17-77.85-17.5c-13.32-3.02-19.9-2.98-20.57,0.99l0,0
				c-0.67,3.96,5.55,6.1,19.12,7.65C105.54,68.09,178.36,76.22,178.36,76.22z"/>
		</g>
		<g id="组_99" transform="translate(22.851 99.898)">
			<path id="路径_125" class="st0" d="M167.15,107.38c0,0-62.11-39.81-67.17-43.07c-11.48-7.39-17.69-9.6-19.67-6.11l0,0
				c-1.98,3.5,3.13,7.63,15.35,13.73C101.5,74.84,167.15,107.38,167.15,107.38z"/>
		</g>
		<g id="组_100" transform="translate(66.394 47.154)">
			<path id="路径_126" class="st0" d="M145.77,133.24c0,0-44.75-58.66-48.39-63.45c-8.26-10.88-13.34-15.07-16.39-12.46l0,0
				c-3.06,2.61,0.33,8.24,9.73,18.15C95.21,80.21,145.77,133.24,145.77,133.24z"/>
		</g>
		<g id="组_101" transform="translate(125.218 12.438)">
			<path id="路径_127" class="st0" d="M116.97,150.28c0,0-21.99-70.43-23.77-76.17c-4.04-13.05-7.38-18.73-11.14-17.32l0,0
				c-3.77,1.41-2.5,7.86,2.94,20.38C87.59,83.15,116.97,150.28,116.97,150.28z"/>
		</g>
		<g id="组_102" transform="translate(191.243)">
			<path id="路径_128" class="st0" d="M85.21,156.37c0,0,3.42-73.7,3.71-79.71c0.66-13.64-0.53-20.12-4.55-20.09l0,0
				c-4.02,0.03-5.04,6.53-4.21,20.16C80.56,83.24,85.21,156.37,85.21,156.37z"/>
		</g>
	</g>
</g>
<g id="组_137" transform="translate(1612.348 349.138)">
	<path id="路径_129" class="st1" d="M121.14,26.22c3.02-2.64,6.04-5.28,9.07-7.92c7.91-6.9,15.8-13.81,23.69-20.74
		c2.3-2.03,4.61-4.05,6.9-6.1c5.42-4.8,10.83-9.62,16.24-14.44c1.98-1.76,4.41-4.1,4.75-6.4c0.32-2.17-1.43-2.94-3.76-1.75
		c-4.21,2.15-7.5,6.04-10.96,9.47c-4.13,4.1-8.23,8.23-12.3,12.4c-5.55,5.69-11.04,11.44-16.45,17.24
		c-2.87,3.07-5.72,6.15-8.61,9.21C126.85,20.21,123.94,23.16,121.14,26.22z"/>
	<path id="路径_130" class="st1" d="M152.5,32.13c-4.02,1.23-8.03,2.47-12.06,3.67c-3.98,1.19-7.97,2.29-11.93,3.53
		c3.94-0.78,7.88-1.55,11.82-2.33c10.3-2.02,20.59-4.06,30.88-6.12c3.01-0.61,6.02-1.21,9.03-1.83c7.1-1.45,14.19-2.91,21.29-4.39
		c2.59-0.53,5.87-1.34,7.31-3.16c1.36-1.72,0.23-3.26-2.38-3.39c-4.72-0.24-9.52,1.48-14.23,2.72c-5.63,1.48-11.25,3.01-16.85,4.59
		C167.72,27.57,160.1,29.81,152.5,32.13z"/>
	<path id="路径_131" class="st1" d="M206.46,74.97c-3.96-2.57-8.98-3.47-13.69-4.76c-5.62-1.53-11.25-3.02-16.89-4.46
		c-7.71-1.96-15.43-3.84-23.16-5.63c-4.09-0.95-8.19-1.88-12.28-2.85c-4.04-0.96-8.05-2-12.1-2.9c3.8,1.29,7.6,2.59,11.4,3.89
		c9.93,3.4,19.86,6.78,29.8,10.14c2.91,0.98,5.81,1.97,8.73,2.92c6.87,2.29,13.75,4.57,20.63,6.85c2.51,0.84,5.76,1.77,7.91,0.91
		C208.86,78.29,208.65,76.39,206.46,74.97z"/>
	<path id="路径_132" class="st1" d="M168.56,113.26c-4.1-4.13-8.23-8.23-12.4-12.3c-5.69-5.56-11.44-11.04-17.24-16.46
		c-3.07-2.87-6.15-5.72-9.21-8.61c-3.02-2.85-5.97-5.76-9.02-8.56c2.64,3.02,5.28,6.04,7.92,9.07c6.9,7.91,13.81,15.8,20.74,23.68
		c2.03,2.3,4.06,4.61,6.1,6.9c4.81,5.42,9.62,10.83,14.44,16.24c1.76,1.98,4.1,4.41,6.4,4.75c2.17,0.32,2.94-1.43,1.75-3.76
		C175.89,120.01,171.99,116.72,168.56,113.26z"/>
	<path id="路径_133" class="st1" d="M128.79,152.66c0.24-4.72-1.48-9.52-2.72-14.23c-1.48-5.63-3.01-11.25-4.59-16.85
		c-2.15-7.66-4.39-15.28-6.71-22.87c-1.23-4.02-2.47-8.03-3.67-12.06c-1.19-3.98-2.29-7.97-3.54-11.93
		c0.78,3.94,1.55,7.88,2.33,11.82c2.02,10.3,4.06,20.59,6.12,30.88c0.61,3.01,1.21,6.02,1.83,9.03c1.45,7.1,2.93,14.19,4.39,21.29
		c0.53,2.6,1.34,5.87,3.16,7.31C127.12,156.39,128.65,155.26,128.79,152.66z"/>
	<path id="路径_134" class="st1" d="M78.48,115.75c-0.98,2.91-1.96,5.82-2.93,8.73c-2.29,6.87-4.57,13.75-6.85,20.63
		c-0.84,2.52-1.77,5.76-0.91,7.91c0.81,2.04,2.71,1.83,4.13-0.36c2.57-3.96,3.47-8.98,4.76-13.69c1.53-5.62,3.02-11.25,4.45-16.89
		c1.96-7.71,3.84-15.42,5.63-23.16c0.95-4.09,1.88-8.19,2.85-12.28c0.96-4.04,2-8.05,2.9-12.09c-1.29,3.8-2.59,7.6-3.89,11.4
		C85.23,95.87,81.85,105.81,78.48,115.75z"/>
	<path id="路径_135" class="st1" d="M79.57,66.88c-3.02,2.64-6.04,5.28-9.07,7.92c-7.91,6.9-15.8,13.81-23.69,20.74
		c-2.3,2.03-4.61,4.06-6.9,6.1c-5.42,4.81-10.83,9.62-16.24,14.44c-1.98,1.76-4.41,4.1-4.75,6.4c-0.32,2.17,1.43,2.94,3.76,1.75
		c4.21-2.15,7.5-6.04,10.96-9.47c4.13-4.1,8.23-8.24,12.3-12.4c5.56-5.69,11.04-11.44,16.45-17.24c2.87-3.07,5.72-6.15,8.61-9.21
		C73.86,72.89,76.77,69.94,79.57,66.88z"/>
	<path id="路径_136" class="st1" d="M48.2,60.97c4.02-1.23,8.03-2.46,12.06-3.67c3.98-1.19,7.97-2.29,11.93-3.54
		c-3.94,0.78-7.88,1.55-11.82,2.33c-10.3,2.02-20.59,4.04-30.88,6.12c-3.01,0.61-6.02,1.21-9.03,1.83
		c-7.1,1.45-14.19,2.93-21.29,4.38c-2.6,0.53-5.87,1.34-7.31,3.17c-1.36,1.72-0.23,3.26,2.38,3.39c4.72,0.24,9.52-1.48,14.23-2.72
		c5.63-1.48,11.25-3.01,16.86-4.59C32.99,65.52,40.61,63.29,48.2,60.97z"/>
	<path id="路径_137" class="st1" d="M7.93,22.88c5.62,1.53,11.25,3.02,16.89,4.46c7.71,1.96,15.42,3.84,23.16,5.63
		c4.09,0.95,8.19,1.88,12.28,2.85c4.04,0.96,8.05,2,12.09,2.9c-3.8-1.29-7.6-2.59-11.4-3.89c-9.93-3.4-19.86-6.78-29.8-10.14
		c-2.91-0.98-5.82-1.96-8.73-2.92c-6.87-2.29-13.75-4.57-20.63-6.85c-2.52-0.84-5.76-1.77-7.92-0.91c-2.04,0.81-1.83,2.71,0.36,4.13
		C-1.8,20.69,3.22,21.59,7.93,22.88z"/>
	<path id="路径_138" class="st1" d="M32.14-20.16c4.1,4.14,8.23,8.24,12.4,12.3C50.24-2.31,55.98,3.17,61.79,8.59
		c3.07,2.87,6.15,5.72,9.21,8.61c3.02,2.85,5.96,5.76,9.02,8.56c-2.64-3.02-5.28-6.04-7.92-9.07C65.2,8.78,58.29,0.89,51.36-7
		c-2.03-2.3-4.06-4.61-6.1-6.9c-4.81-5.42-9.62-10.83-14.44-16.24c-1.76-1.98-4.1-4.41-6.4-4.75c-2.17-0.32-2.94,1.43-1.75,3.75
		C24.82-26.92,28.71-23.63,32.14-20.16z"/>
	<path id="路径_139" class="st1" d="M71.91-59.56c-0.24,4.72,1.48,9.52,2.73,14.23c1.48,5.63,3.01,11.25,4.59,16.85
		c2.15,7.66,4.38,15.28,6.7,22.87c1.23,4.02,2.47,8.03,3.67,12.06c1.19,3.98,2.29,7.97,3.54,11.92c-0.78-3.94-1.55-7.88-2.33-11.81
		c-2.02-10.3-4.04-20.59-6.12-30.88c-0.61-3.01-1.21-6.02-1.83-9.03c-1.45-7.1-2.91-14.19-4.39-21.28c-0.53-2.6-1.34-5.87-3.16-7.31
		C73.59-63.3,72.05-62.16,71.91-59.56z"/>
	<path id="路径_140" class="st1" d="M122.22-22.65c0.98-2.91,1.96-5.82,2.92-8.73c2.29-6.87,4.57-13.75,6.85-20.63
		c0.84-2.51,1.77-5.76,0.92-7.91c-0.81-2.04-2.71-1.83-4.13,0.36c-2.57,3.96-3.47,8.98-4.76,13.69c-1.53,5.62-3.02,11.25-4.45,16.89
		c-1.96,7.71-3.84,15.43-5.63,23.16c-0.95,4.09-1.88,8.19-2.85,12.28c-0.96,4.04-2,8.05-2.9,12.1c1.29-3.8,2.59-7.6,3.89-11.4
		C115.48-2.78,118.86-12.71,122.22-22.65z"/>
	<path id="路径_141" class="st1" d="M70.31-69.66c4.48,0.24,4.85-6.73,0.37-6.96S65.82-69.9,70.31-69.66z"/>
	<path id="路径_142" class="st1" d="M14.86-40.78c4.48,0.23,4.85-6.73,0.37-6.96S10.37-41.01,14.86-40.78z"/>
	<path id="路径_143" class="st1" d="M-18.4,8.67c-4.48-0.24-4.85,6.73-0.37,6.96S-13.91,8.91-18.4,8.67z"/>
	<path id="路径_144" class="st1" d="M-17.12,72.75c-4.48-0.24-4.86,6.73-0.37,6.96S-12.64,72.99-17.12,72.75z"/>
	<path id="路径_145" class="st1" d="M10.6,128.14c-4.48-0.24-4.85,6.73-0.37,6.96S15.09,128.37,10.6,128.14z"/>
	<path id="路径_146" class="st1" d="M66.61,162.13c-4.48-0.24-4.86,6.73-0.37,6.96S71.1,162.37,66.61,162.13z"/>
	<path id="路径_147" class="st1" d="M130.24,162c-4.48-0.24-4.85,6.73-0.37,6.96S134.72,162.23,130.24,162z"/>
	<path id="路径_148" class="st1" d="M184.67,130.34c-4.48-0.24-4.85,6.73-0.37,6.96S189.16,130.58,184.67,130.34z"/>
	<path id="路径_149" class="st1" d="M217.36,76.98c-4.48-0.24-4.85,6.73-0.37,6.96S221.84,77.22,217.36,76.98z"/>
	<path id="路径_150" class="st1" d="M219.89,21.64c4.48,0.24,4.85-6.73,0.37-6.96S215.4,21.4,219.89,21.64z"/>
	<path id="路径_151" class="st1" d="M188.79-35.86c4.48,0.24,4.85-6.73,0.37-6.96S184.3-36.1,188.79-35.86z"/>
	<path id="路径_152" class="st1" d="M134.24-68.23c4.48,0.24,4.85-6.73,0.37-6.96S129.76-68.46,134.24-68.23z"/>
	<path id="路径_153" class="st1" d="M136.26-11.35c-0.91-0.59-8.6,9.63-17.18,22.83s-14.8,24.38-13.89,24.97s8.6-9.63,17.18-22.83
		S137.17-10.76,136.26-11.35z"/>
	
		<ellipse id="椭圆_4" transform="matrix(0.891 -0.454 0.454 0.891 2.0646 64.3373)" class="st1" cx="135.02" cy="27.87" rx="28.5" ry="1.97"/>
	<path id="路径_154" class="st1" d="M168.2,49.81c0.06-1.08-12.64-2.64-28.36-3.47s-28.51-0.62-28.57,0.46s12.64,2.64,28.36,3.47
		S168.15,50.89,168.2,49.81z"/>
	<path id="路径_155" class="st1" d="M132.54,70c13.2,8.58,24.38,14.8,24.97,13.89s-9.63-8.6-22.83-17.18s-24.38-14.8-24.97-13.89
		S119.34,61.42,132.54,70z"/>
	<path id="路径_156" class="st1" d="M131.21,108.05c0.97-0.49-4.04-12.27-11.18-26.29s-13.72-25-14.68-24.51
		s4.04,12.27,11.18,26.29S130.24,108.55,131.21,108.05z"/>
	
		<ellipse id="椭圆_5" transform="matrix(0.053 -0.9986 0.9986 0.053 5.4433 180.4462)" class="st1" cx="97.86" cy="87.35" rx="28.52" ry="1.97"/>
	<path id="路径_157" class="st1" d="M76.15,80.16c-8.58,13.2-14.8,24.38-13.89,24.97s8.6-9.63,17.18-22.83s14.8-24.38,13.89-24.97
		S84.73,66.96,76.15,80.16z"/>
	<path id="路径_158" class="st1" d="M38.1,78.83c0.49,0.97,12.27-4.04,26.29-11.18s25-13.72,24.51-14.68s-12.27,4.04-26.3,11.18
		S37.61,77.86,38.1,78.83z"/>
	
		<ellipse id="椭圆_6" transform="matrix(0.053 -0.9986 0.9986 0.053 10.2705 101.7923)" class="st1" cx="58.8" cy="45.48" rx="1.97" ry="28.52"/>
	<path id="路径_159" class="st1" d="M88.82,40.96c0.59-0.91-9.63-8.6-22.83-17.18S41.61,8.98,41.02,9.89s9.63,8.6,22.83,17.18
		S88.23,41.87,88.82,40.96z"/>
	<path id="路径_160" class="st1" d="M93.18,36.53c0.97-0.49-4.04-12.27-11.18-26.29s-13.72-25-14.68-24.51S71.36-2.01,78.5,12.02
		S92.22,37.03,93.18,36.53z"/>
	<path id="路径_161" class="st1" d="M99.18,34.88c1.08,0.06,2.64-12.64,3.46-28.36s0.62-28.51-0.46-28.57S99.55-9.41,98.72,6.31
		S98.1,34.82,99.18,34.88z"/>
</g>
<g id="组_138" transform="translate(1486.106 253.686)">
	<path id="路径_162" class="st2" d="M153.7-13.15c2.16-1.89,4.33-3.79,6.5-5.67c5.66-4.94,11.32-9.9,16.97-14.86
		c1.65-1.46,3.3-2.91,4.94-4.37c3.88-3.44,7.76-6.89,11.64-10.34c1.42-1.26,3.16-2.94,3.4-4.58c0.23-1.55-1.03-2.1-2.69-1.25
		c-3.01,1.54-5.37,4.33-7.85,6.79c-2.96,2.94-5.9,5.9-8.81,8.88c-3.98,4.08-7.91,8.19-11.79,12.35c-2.05,2.2-4.1,4.41-6.17,6.6
		C157.79-17.45,155.7-15.34,153.7-13.15z"/>
	<path id="路径_163" class="st2" d="M176.17-8.91c-2.88,0.88-5.76,1.77-8.64,2.63c-2.85,0.85-5.71,1.64-8.54,2.53
		c2.82-0.56,5.64-1.11,8.46-1.67c7.38-1.45,14.75-2.9,22.12-4.38c2.16-0.44,4.31-0.86,6.46-1.31c5.09-1.04,10.17-2.09,15.25-3.14
		c1.86-0.38,4.21-0.96,5.24-2.27c0.97-1.23,0.16-2.34-1.7-2.43c-3.38-0.18-6.82,1.06-10.2,1.95c-4.04,1.06-8.06,2.16-12.07,3.28
		C187.07-12.18,181.61-10.57,176.17-8.91z"/>
	<path id="路径_164" class="st2" d="M214.82,21.78c-2.84-1.84-6.43-2.49-9.8-3.41c-4.03-1.1-8.06-2.16-12.1-3.19
		c-5.52-1.41-11.05-2.75-16.59-4.03c-2.93-0.68-5.87-1.35-8.8-2.04c-2.89-0.69-5.77-1.44-8.67-2.08c2.72,0.93,5.44,1.86,8.16,2.79
		c7.11,2.43,14.23,4.85,21.35,7.26c2.08,0.7,4.17,1.41,6.26,2.1c4.92,1.64,9.85,3.27,14.78,4.9c1.8,0.6,4.13,1.27,5.67,0.66
		C216.54,24.16,216.39,22.8,214.82,21.78z"/>
	<path id="路径_165" class="st2" d="M187.67,49.21c-2.94-2.96-5.9-5.9-8.88-8.82c-4.08-3.98-8.19-7.91-12.35-11.79
		c-2.2-2.05-4.41-4.1-6.6-6.17c-2.16-2.04-4.27-4.13-6.46-6.13c1.89,2.16,3.79,4.33,5.68,6.5c4.94,5.66,9.9,11.32,14.86,16.97
		c1.45,1.65,2.9,3.3,4.37,4.94c3.44,3.88,6.89,7.76,10.34,11.64c1.26,1.42,2.94,3.16,4.58,3.4c1.56,0.23,2.1-1.03,1.25-2.69
		C192.92,54.05,190.13,51.69,187.67,49.21z"/>
	<path id="路径_166" class="st2" d="M159.18,77.43c0.18-3.38-1.06-6.82-1.95-10.19c-1.06-4.04-2.16-8.06-3.29-12.07
		c-1.54-5.49-3.14-10.95-4.8-16.39c-0.88-2.88-1.77-5.76-2.63-8.64c-0.85-2.85-1.64-5.71-2.53-8.54c0.56,2.82,1.11,5.64,1.67,8.46
		c1.45,7.38,2.9,14.75,4.39,22.12c0.44,2.16,0.86,4.31,1.31,6.47c1.04,5.08,2.1,10.16,3.14,15.25c0.38,1.86,0.96,4.21,2.27,5.24
		C157.98,80.11,159.08,79.3,159.18,77.43z"/>
	<path id="路径_167" class="st2" d="M123.14,50.99c-0.7,2.08-1.41,4.17-2.09,6.26c-1.64,4.92-3.28,9.85-4.9,14.78
		c-0.6,1.8-1.27,4.13-0.66,5.67c0.58,1.46,1.94,1.31,2.96-0.26c1.84-2.84,2.49-6.43,3.41-9.8c1.1-4.03,2.16-8.06,3.19-12.1
		c1.41-5.52,2.75-11.05,4.03-16.59c0.68-2.93,1.35-5.87,2.04-8.8c0.69-2.89,1.44-5.77,2.08-8.66c-0.93,2.72-1.86,5.44-2.79,8.16
		C127.97,36.75,125.55,43.87,123.14,50.99z"/>
	<path id="路径_168" class="st2" d="M123.92,15.98c-2.16,1.89-4.33,3.79-6.5,5.68c-5.67,4.94-11.32,9.9-16.97,14.86
		c-1.65,1.46-3.3,2.91-4.94,4.37c-3.88,3.44-7.76,6.89-11.64,10.34c-1.42,1.26-3.16,2.94-3.4,4.58c-0.23,1.55,1.03,2.1,2.69,1.25
		c3.02-1.54,5.37-4.33,7.85-6.79c2.96-2.94,5.9-5.9,8.81-8.88c3.98-4.08,7.91-8.19,11.79-12.35c2.05-2.2,4.1-4.41,6.17-6.6
		C119.83,20.28,121.91,18.17,123.92,15.98z"/>
	<path id="路径_169" class="st2" d="M101.45,11.75c2.88-0.88,5.76-1.77,8.64-2.63c2.85-0.85,5.71-1.64,8.54-2.53
		c-2.82,0.56-5.64,1.11-8.46,1.67c-7.38,1.45-14.75,2.9-22.12,4.38c-2.16,0.44-4.31,0.86-6.47,1.31
		c-5.08,1.04-10.17,2.09-15.25,3.14c-1.86,0.38-4.21,0.96-5.24,2.27c-0.97,1.23-0.16,2.34,1.7,2.43c3.38,0.18,6.82-1.06,10.19-1.95
		c4.04-1.06,8.06-2.16,12.08-3.29C90.55,15.01,96.01,13.41,101.45,11.75z"/>
	<path id="路径_170" class="st2" d="M72.59-15.53c4.03,1.1,8.06,2.16,12.1,3.19c5.52,1.41,11.05,2.75,16.59,4.03
		c2.93,0.68,5.87,1.35,8.8,2.04c2.9,0.69,5.77,1.44,8.67,2.08c-2.72-0.93-5.44-1.86-8.16-2.79c-7.11-2.43-14.23-4.86-21.35-7.27
		c-2.08-0.7-4.17-1.41-6.26-2.1c-4.92-1.64-9.85-3.27-14.78-4.9c-1.8-0.6-4.13-1.27-5.67-0.66c-1.46,0.58-1.31,1.94,0.26,2.96
		C65.63-17.1,69.23-16.46,72.59-15.53z"/>
	<path id="路径_171" class="st2" d="M89.95-46.37c2.94,2.96,5.9,5.9,8.88,8.82c4.08,3.98,8.19,7.91,12.35,11.79
		c2.2,2.05,4.41,4.1,6.6,6.17c2.16,2.04,4.27,4.12,6.46,6.13c-1.89-2.16-3.78-4.33-5.68-6.5c-4.94-5.66-9.9-11.32-14.86-16.97
		c-1.45-1.65-2.91-3.3-4.37-4.94C95.9-45.76,92.45-49.64,89-53.52c-1.26-1.42-2.94-3.16-4.58-3.4c-1.56-0.23-2.1,1.03-1.26,2.69
		C84.69-51.21,87.48-48.85,89.95-46.37z"/>
	<path id="路径_172" class="st2" d="M118.43-74.6c-0.18,3.38,1.06,6.82,1.95,10.19c1.07,4.04,2.16,8.06,3.29,12.08
		c1.54,5.48,3.14,10.95,4.8,16.39c0.88,2.88,1.77,5.75,2.63,8.64c0.85,2.85,1.64,5.71,2.53,8.54c-0.56-2.82-1.11-5.64-1.67-8.47
		c-1.45-7.38-2.9-14.75-4.38-22.12c-0.43-2.16-0.86-4.31-1.31-6.47c-1.04-5.08-2.09-10.17-3.14-15.25
		c-0.38-1.86-0.96-4.21-2.27-5.24C119.63-77.27,118.53-76.46,118.43-74.6z"/>
	<path id="路径_173" class="st2" d="M154.48-48.15c0.7-2.09,1.41-4.17,2.09-6.26c1.64-4.92,3.28-9.85,4.9-14.78
		c0.6-1.8,1.27-4.13,0.66-5.67c-0.58-1.46-1.94-1.31-2.96,0.26c-1.84,2.84-2.49,6.43-3.41,9.8c-1.1,4.03-2.16,8.06-3.19,12.1
		c-1.41,5.52-2.75,11.05-4.03,16.59c-0.68,2.93-1.35,5.87-2.04,8.8c-0.69,2.9-1.44,5.77-2.08,8.66c0.93-2.72,1.86-5.44,2.79-8.16
		C149.64-33.92,152.06-41.03,154.48-48.15z"/>
	<path id="路径_174" class="st2" d="M117.28-81.83c3.21,0.17,3.48-4.82,0.26-4.99S114.07-82,117.28-81.83z"/>
	<path id="路径_175" class="st2" d="M77.56-61.14c3.21,0.17,3.48-4.82,0.26-4.99S74.35-61.32,77.56-61.14z"/>
	<path id="路径_176" class="st2" d="M53.74-25.71c-3.21-0.17-3.48,4.82-0.26,4.99S56.95-25.54,53.74-25.71z"/>
	<path id="路径_177" class="st2" d="M54.65,20.19c-3.21-0.17-3.48,4.82-0.26,4.99S57.86,20.36,54.65,20.19z"/>
	<path id="路径_178" class="st2" d="M74.51,59.87c-3.21-0.17-3.48,4.82-0.26,4.99S77.73,60.04,74.51,59.87z"/>
	<path id="路径_179" class="st2" d="M114.63,84.22c-3.21-0.17-3.48,4.82-0.26,4.99S117.85,84.39,114.63,84.22z"/>
	<path id="路径_180" class="st2" d="M160.22,84.13c-3.21-0.17-3.48,4.82-0.26,4.99S163.43,84.29,160.22,84.13z"/>
	<path id="路径_181" class="st2" d="M199.21,61.45c-3.21-0.17-3.48,4.82-0.26,4.99S202.43,61.62,199.21,61.45z"/>
	<path id="路径_182" class="st2" d="M222.63,23.22c-3.21-0.17-3.48,4.82-0.26,4.99S225.84,23.39,222.63,23.22z"/>
	<path id="路径_183" class="st2" d="M224.44-16.42c3.21,0.17,3.48-4.82,0.26-4.99S221.23-16.59,224.44-16.42z"/>
	<path id="路径_184" class="st2" d="M202.16-57.62c3.21,0.17,3.48-4.82,0.26-4.99S198.94-57.79,202.16-57.62z"/>
	<path id="路径_185" class="st2" d="M163.09-80.8c3.21,0.17,3.48-4.82,0.26-4.99S159.87-80.97,163.09-80.8z"/>
	<path id="路径_186" class="st2" d="M164.53-40.06c-0.65-0.42-6.16,6.9-12.31,16.35s-10.6,17.47-9.95,17.89s6.16-6.9,12.31-16.35
		S165.18-39.64,164.53-40.06z"/>
	
		<ellipse id="椭圆_7" transform="matrix(0.891 -0.454 0.454 0.891 23.2679 72.9903)" class="st2" cx="163.64" cy="-11.96" rx="20.42" ry="1.41"/>
	<path id="路径_187" class="st2" d="M187.42,3.75c0.04-0.78-9.06-1.89-20.32-2.48s-20.43-0.45-20.47,0.33s9.06,1.89,20.32,2.48
		S187.37,4.53,187.42,3.75z"/>
	<path id="路径_188" class="st2" d="M161.86,18.22c9.46,6.15,17.47,10.6,17.89,9.95s-6.9-6.16-16.35-12.31s-17.47-10.6-17.89-9.95
		S152.41,12.07,161.86,18.22z"/>
	<path id="路径_189" class="st2" d="M160.91,45.48c0.69-0.35-2.89-8.79-8.01-18.84s-9.82-17.91-10.52-17.56s2.89,8.79,8.01,18.84
		S160.22,45.83,160.91,45.48z"/>
	
		<ellipse id="椭圆_8" transform="matrix(0.053 -0.9986 0.9986 0.053 99.1531 165.8561)" class="st2" cx="137.02" cy="30.65" rx="20.43" ry="1.41"/>
	<path id="路径_190" class="st2" d="M121.47,25.5c-6.15,9.46-10.6,17.47-9.95,17.89s6.16-6.9,12.31-16.35s10.6-17.47,9.95-17.89
		S127.62,16.04,121.47,25.5z"/>
	<path id="路径_191" class="st2" d="M94.21,24.55c0.35,0.69,8.79-2.89,18.84-8.01s17.91-9.83,17.56-10.52s-8.79,2.89-18.84,8.01
		S93.86,23.85,94.21,24.55z"/>
	
		<ellipse id="椭圆_9" transform="matrix(0.053 -0.9986 0.9986 0.053 102.611 109.5095)" class="st2" cx="109.04" cy="0.66" rx="1.41" ry="20.43"/>
	<path id="路径_192" class="st2" d="M130.55-2.58c0.43-0.65-6.9-6.16-16.35-12.31s-17.47-10.6-17.89-9.95s6.9,6.16,16.35,12.31
		S130.12-1.93,130.55-2.58z"/>
	<path id="路径_193" class="st2" d="M133.67-5.75c0.69-0.35-2.89-8.79-8.01-18.84s-9.82-17.91-10.52-17.56s2.89,8.79,8.01,18.84
		S132.98-5.4,133.67-5.75z"/>
	<path id="路径_194" class="st2" d="M137.97-6.94c0.78,0.04,1.89-9.06,2.48-20.32s0.45-20.42-0.33-20.47s-1.89,9.06-2.48,20.32
		S137.19-6.98,137.97-6.94z"/>
</g>
<g id="组_139" transform="translate(122.259 368.589)">
	<path id="路径_195" class="st2" d="M542.29,52.24c2.37-2.08,4.74-4.15,7.12-6.22c6.21-5.42,12.4-10.84,18.59-16.28
		c1.81-1.59,3.62-3.18,5.42-4.79c4.25-3.77,8.5-7.55,12.75-11.34c1.55-1.38,3.46-3.22,3.73-5.02c0.25-1.7-1.12-2.3-2.95-1.37
		c-3.3,1.68-5.89,4.74-8.6,7.44c-3.25,3.22-6.47,6.46-9.66,9.73c-4.36,4.47-8.67,8.98-12.92,13.53c-2.25,2.41-4.49,4.83-6.76,7.23
		C546.78,47.53,544.49,49.84,542.29,52.24z"/>
	<path id="路径_196" class="st2" d="M566.92,56.88c-3.15,0.96-6.3,1.94-9.47,2.88c-3.12,0.93-6.26,1.8-9.36,2.78
		c3.09-0.61,6.18-1.22,9.28-1.83c8.08-1.59,16.17-3.17,24.24-4.8c2.36-0.48,4.73-0.95,7.08-1.44c5.57-1.14,11.14-2.29,16.71-3.44
		c2.04-0.42,4.61-1.05,5.74-2.48c1.07-1.35,0.18-2.56-1.86-2.66c-3.7-0.19-7.47,1.16-11.17,2.14c-4.42,1.16-8.83,2.36-13.23,3.6
		C578.86,53.3,572.88,55.06,566.92,56.88z"/>
	<path id="路径_197" class="st2" d="M609.27,90.51c-3.11-2.02-7.05-2.73-10.74-3.73c-4.41-1.2-8.83-2.37-13.26-3.5
		c-6.05-1.54-12.11-3.02-18.18-4.42c-3.21-0.74-6.43-1.48-9.64-2.24c-3.17-0.75-6.32-1.57-9.49-2.28c2.98,1.02,5.97,2.03,8.95,3.05
		c7.79,2.67,15.59,5.32,23.4,7.96c2.28,0.77,4.57,1.54,6.85,2.3c5.39,1.8,10.79,3.59,16.19,5.37c1.97,0.66,4.52,1.39,6.21,0.72
		C611.16,93.12,610.99,91.63,609.27,90.51z"/>
	<path id="路径_198" class="st2" d="M579.52,120.56c-3.22-3.25-6.46-6.47-9.73-9.66c-4.47-4.36-8.98-8.67-13.54-12.92
		c-2.41-2.25-4.83-4.49-7.23-6.76c-2.37-2.24-4.68-4.52-7.08-6.72c2.08,2.37,4.15,4.74,6.22,7.12c5.42,6.21,10.84,12.4,16.28,18.59
		c1.59,1.81,3.18,3.62,4.79,5.41c3.77,4.25,7.55,8.5,11.33,12.75c1.38,1.55,3.22,3.47,5.02,3.73c1.7,0.25,2.3-1.12,1.38-2.95
		C585.27,125.87,582.22,123.28,579.52,120.56z"/>
	<path id="路径_199" class="st2" d="M548.3,151.49c0.19-3.7-1.16-7.47-2.14-11.17c-1.16-4.42-2.36-8.83-3.6-13.23
		c-1.69-6.01-3.44-11.99-5.26-17.95c-0.96-3.16-1.93-6.3-2.88-9.47c-0.93-3.12-1.79-6.26-2.77-9.36c0.61,3.09,1.22,6.18,1.83,9.27
		c1.59,8.08,3.17,16.17,4.8,24.24c0.48,2.36,0.95,4.72,1.44,7.08c1.14,5.57,2.3,11.14,3.44,16.71c0.42,2.04,1.06,4.61,2.48,5.74
		C546.99,154.43,548.2,153.54,548.3,151.49z"/>
	<path id="路径_200" class="st2" d="M508.81,122.52c-0.77,2.28-1.54,4.57-2.3,6.85c-1.8,5.39-3.59,10.79-5.37,16.19
		c-0.66,1.97-1.39,4.52-0.72,6.21c0.64,1.6,2.13,1.43,3.24-0.28c2.02-3.11,2.73-7.05,3.73-10.74c1.2-4.41,2.37-8.83,3.5-13.26
		c1.54-6.05,3.02-12.11,4.42-18.18c0.74-3.21,1.48-6.43,2.24-9.64c0.75-3.17,1.57-6.32,2.28-9.49c-1.02,2.98-2.03,5.96-3.05,8.95
		C514.11,106.92,511.45,114.72,508.81,122.52z"/>
	<path id="路径_201" class="st2" d="M509.67,84.16c-2.37,2.07-4.75,4.15-7.12,6.22c-6.2,5.42-12.4,10.84-18.59,16.28
		c-1.81,1.59-3.62,3.18-5.42,4.79c-4.26,3.77-8.51,7.55-12.75,11.34c-1.55,1.38-3.46,3.22-3.73,5.02c-0.25,1.7,1.12,2.3,2.95,1.37
		c3.3-1.68,5.89-4.74,8.61-7.44c3.25-3.22,6.47-6.46,9.66-9.73c4.36-4.47,8.67-8.98,12.92-13.53c2.25-2.41,4.49-4.83,6.76-7.23
		C505.18,88.87,507.47,86.56,509.67,84.16z"/>
	<path id="路径_202" class="st2" d="M485.04,79.52c3.15-0.96,6.31-1.93,9.47-2.88c3.12-0.93,6.26-1.8,9.36-2.78
		c-3.09,0.61-6.18,1.22-9.27,1.83c-8.08,1.59-16.17,3.17-24.24,4.8c-2.36,0.48-4.73,0.95-7.08,1.44c-5.57,1.14-11.14,2.3-16.71,3.44
		c-2.04,0.42-4.61,1.05-5.74,2.48c-1.07,1.35-0.18,2.56,1.86,2.66c3.7,0.19,7.47-1.16,11.17-2.14c4.42-1.16,8.83-2.36,13.23-3.6
		C473.1,83.09,479.08,81.34,485.04,79.52z"/>
	<path id="路径_203" class="st2" d="M453.43,49.62c4.41,1.2,8.83,2.37,13.26,3.5c6.05,1.54,12.11,3.01,18.18,4.42
		c3.21,0.74,6.43,1.48,9.64,2.24c3.17,0.75,6.32,1.57,9.5,2.28c-2.98-1.02-5.96-2.03-8.95-3.05c-7.79-2.67-15.59-5.32-23.4-7.96
		c-2.28-0.77-4.57-1.54-6.86-2.3c-5.39-1.8-10.79-3.59-16.19-5.37c-1.97-0.66-4.52-1.39-6.21-0.72c-1.6,0.64-1.43,2.12,0.28,3.24
		C445.79,47.9,449.73,48.61,453.43,49.62z"/>
	<path id="路径_204" class="st2" d="M472.44,15.83c3.22,3.25,6.46,6.47,9.73,9.66c4.47,4.36,8.98,8.67,13.53,12.92
		c2.41,2.25,4.83,4.49,7.23,6.76c2.37,2.24,4.68,4.52,7.08,6.72c-2.08-2.37-4.15-4.74-6.22-7.12c-5.42-6.21-10.84-12.4-16.28-18.59
		c-1.59-1.81-3.18-3.62-4.79-5.41c-3.77-4.25-7.55-8.5-11.34-12.75c-1.38-1.55-3.22-3.47-5.02-3.73c-1.7-0.25-2.3,1.12-1.37,2.95
		C466.68,10.53,469.74,13.11,472.44,15.83z"/>
	<path id="路径_205" class="st2" d="M503.66-15.09c-0.19,3.7,1.16,7.47,2.14,11.17c1.17,4.42,2.37,8.83,3.6,13.23
		c1.69,6.01,3.44,11.99,5.26,17.95c0.96,3.16,1.93,6.3,2.88,9.47c0.93,3.12,1.8,6.26,2.78,9.36c-0.61-3.09-1.22-6.18-1.83-9.27
		c-1.59-8.08-3.17-16.17-4.8-24.24c-0.48-2.36-0.95-4.73-1.44-7.08c-1.14-5.57-2.3-11.14-3.44-16.71c-0.42-2.04-1.06-4.61-2.48-5.74
		C504.97-18.03,503.76-17.14,503.66-15.09z"/>
	<path id="路径_206" class="st2" d="M543.15,13.88c0.77-2.28,1.54-4.57,2.29-6.85c1.8-5.39,3.59-10.79,5.37-16.19
		c0.66-1.97,1.39-4.52,0.72-6.21c-0.64-1.6-2.13-1.43-3.24,0.28c-2.02,3.11-2.73,7.05-3.73,10.74c-1.2,4.41-2.37,8.83-3.5,13.26
		c-1.54,6.05-3.02,12.11-4.42,18.18c-0.74,3.21-1.48,6.43-2.24,9.64c-0.75,3.17-1.57,6.32-2.28,9.49c1.02-2.98,2.04-5.96,3.05-8.95
		C537.85,29.48,540.5,21.68,543.15,13.88z"/>
	<path id="路径_207" class="st2" d="M502.4-23.02c3.52,0.19,3.81-5.28,0.29-5.47S498.87-23.21,502.4-23.02z"/>
	<path id="路径_208" class="st2" d="M458.87-0.35c3.52,0.18,3.81-5.28,0.29-5.47S455.35-0.54,458.87-0.35z"/>
	<path id="路径_209" class="st2" d="M432.77,38.47c-3.52-0.18-3.81,5.28-0.29,5.47S436.29,38.65,432.77,38.47z"/>
	<path id="路径_210" class="st2" d="M433.76,88.77c-3.52-0.19-3.81,5.28-0.29,5.47S437.29,88.95,433.76,88.77z"/>
	<path id="路径_211" class="st2" d="M455.52,132.24c-3.52-0.19-3.81,5.28-0.29,5.47S459.05,132.43,455.52,132.24z"/>
	<path id="路径_212" class="st2" d="M499.49,158.93c-3.52-0.19-3.81,5.28-0.29,5.47S503.01,159.11,499.49,158.93z"/>
	<path id="路径_213" class="st2" d="M549.44,158.82c-3.52-0.18-3.81,5.28-0.29,5.47C552.67,164.47,552.96,159.01,549.44,158.82z"
		/>
	<path id="路径_214" class="st2" d="M592.17,133.97c-3.52-0.18-3.81,5.28-0.29,5.47S595.68,134.16,592.17,133.97z"/>
	<path id="路径_215" class="st2" d="M617.82,92.09c-3.52-0.18-3.81,5.28-0.29,5.47S621.35,92.27,617.82,92.09z"/>
	<path id="路径_216" class="st2" d="M619.81,48.65c3.52,0.19,3.81-5.28,0.29-5.47S616.29,48.46,619.81,48.65z"/>
	<path id="路径_217" class="st2" d="M595.4,3.51c3.52,0.19,3.81-5.28,0.29-5.47C592.16-2.14,591.87,3.33,595.4,3.51z"/>
	<path id="路径_218" class="st2" d="M552.58-21.9c3.52,0.18,3.81-5.28,0.29-5.47C549.35-27.55,549.06-22.08,552.58-21.9z"/>
	<path id="路径_219" class="st2" d="M554.17,22.75c-0.71-0.46-6.75,7.56-13.49,17.92c-6.74,10.36-11.61,19.14-10.9,19.6
		c0.71,0.46,6.75-7.56,13.49-17.92C550,31.98,554.88,23.21,554.17,22.75z"/>
	
		<ellipse id="椭圆_10" transform="matrix(0.891 -0.454 0.454 0.891 35.9921 256.985)" class="st2" cx="553.19" cy="53.54" rx="22.37" ry="1.54"/>
	<path id="路径_220" class="st2" d="M579.24,70.76c0.05-0.85-9.92-2.07-22.26-2.72c-12.34-0.65-22.38-0.49-22.43,0.36
		c-0.05,0.85,9.92,2.07,22.26,2.72C569.15,71.77,579.2,71.61,579.24,70.76z"/>
	<path id="路径_221" class="st2" d="M551.24,86.61c10.36,6.73,19.14,11.61,19.6,10.9c0.46-0.71-7.56-6.75-17.92-13.49
		s-19.14-11.61-19.6-10.9S540.88,79.87,551.24,86.61z"/>
	<path id="路径_222" class="st2" d="M550.2,116.48c0.76-0.39-3.17-9.63-8.77-20.64S530.66,76.21,529.9,76.6s3.17,9.63,8.77,20.64
		S549.44,116.86,550.2,116.48z"/>
	
		<ellipse id="椭圆_11" transform="matrix(0.053 -0.9986 0.9986 0.053 396.1697 618.2051)" class="st2" cx="524.02" cy="100.23" rx="22.38" ry="1.54"/>
	<path id="路径_223" class="st2" d="M506.98,94.58c-6.73,10.36-11.61,19.14-10.9,19.6s6.75-7.56,13.49-17.92
		s11.61-19.14,10.9-19.6C519.76,76.2,513.72,84.22,506.98,94.58z"/>
	<path id="路径_224" class="st2" d="M477.12,93.54c0.39,0.76,9.63-3.17,20.64-8.78S517.38,74,517,73.24s-9.63,3.17-20.64,8.78
		S476.73,92.78,477.12,93.54z"/>
	
		<ellipse id="椭圆_12" transform="matrix(0.053 -0.9986 0.9986 0.053 399.9595 556.4639)" class="st2" cx="493.36" cy="67.36" rx="1.54" ry="22.38"/>
	<path id="路径_225" class="st2" d="M516.93,63.81c0.46-0.72-7.56-6.75-17.92-13.49s-19.14-11.61-19.6-10.9s7.56,6.75,17.92,13.49
		S516.46,64.53,516.93,63.81z"/>
	<path id="路径_226" class="st2" d="M520.35,60.34c0.76-0.39-3.17-9.63-8.77-20.64c-5.6-11.01-10.77-19.63-11.53-19.24
		s3.17,9.63,8.77,20.64S519.59,60.72,520.35,60.34z"/>
	<path id="路径_227" class="st2" d="M525.06,59.04c0.85,0.04,2.07-9.92,2.72-22.26c0.65-12.34,0.49-22.38-0.36-22.42
		c-0.85-0.04-2.07,9.92-2.72,22.26C524.05,48.96,524.21,58.99,525.06,59.04z"/>
</g>
<g id="组_140" transform="translate(-114.718 -208.685)">
	<path id="路径_445" class="st1" d="M728.13,441.8c2.4-4.76,4.8-9.51,7.21-14.27c6.29-12.43,12.56-24.87,18.81-37.32
		c1.82-3.64,3.65-7.29,5.45-10.94c4.27-8.61,8.54-17.23,12.79-25.86c1.56-3.15,3.39-7.25,2.66-10.24c-0.69-2.83-3.22-2.9-5.49-0.28
		c-4.11,4.74-6.22,11.17-8.77,17.12c-3.05,7.11-6.03,14.24-8.96,21.39c-4,9.77-7.89,19.57-11.66,29.41
		c-2,5.21-3.98,10.42-6.01,15.62C732.17,431.56,730.06,436.64,728.13,441.8z"/>
	<path id="路径_446" class="st1" d="M769.68,433.44c-4.33,3.51-8.66,7.03-13.01,10.52c-4.3,3.45-8.67,6.79-12.91,10.29
		c4.46-2.92,8.92-5.84,13.38-8.75c11.66-7.62,23.31-15.26,34.95-22.91c3.4-2.25,6.81-4.48,10.19-6.75
		c8.01-5.32,16.01-10.66,24.01-16c2.93-1.95,6.56-4.58,7.42-7.54c0.82-2.8-1.34-4.12-4.61-2.99c-5.93,2.05-10.97,6.56-16.15,10.44
		c-6.19,4.63-12.35,9.31-18.46,14.04C786.13,420.26,777.86,426.81,769.68,433.44z"/>
	<path id="路径_447" class="st1" d="M857.41,459.29c-6.15-1.19-12.78,0.2-19.21,0.97c-7.68,0.91-15.35,1.89-23,2.93
		c-10.46,1.42-20.89,2.96-31.3,4.61c-5.51,0.88-11.02,1.76-16.53,2.61c-5.45,0.83-10.9,1.54-16.33,2.45
		c5.32-0.3,10.64-0.6,15.96-0.89c13.91-0.77,27.82-1.53,41.72-2.37c4.07-0.25,8.14-0.48,12.2-0.75c9.6-0.6,19.19-1.24,28.79-1.85
		c3.51-0.22,7.97-0.69,10.19-2.82C862.02,462.17,860.81,459.94,857.41,459.29z"/>
	<path id="路径_448" class="st1" d="M829.84,525.28c-7.11-3.05-14.24-6.03-21.39-8.96c-9.77-4-19.57-7.89-29.41-11.66
		c-5.21-2-10.42-3.98-15.62-6.01c-5.13-2-10.21-4.11-15.37-6.04c4.76,2.4,9.51,4.8,14.27,7.21c12.43,6.29,24.87,12.56,37.32,18.81
		c3.65,1.82,7.29,3.65,10.94,5.45c8.61,4.28,17.23,8.54,25.86,12.79c3.15,1.56,7.25,3.39,10.24,2.66c2.83-0.69,2.9-3.22,0.28-5.49
		C842.23,529.94,835.79,527.83,829.84,525.28z"/>
	<path id="路径_449" class="st1" d="M800.53,593.56c-2.05-5.92-6.56-10.97-10.44-16.15c-4.63-6.19-9.31-12.34-14.04-18.46
		c-6.46-8.35-13.01-16.62-19.64-24.8c-3.51-4.33-7.03-8.66-10.53-13.01c-3.45-4.3-6.78-8.67-10.29-12.91
		c2.92,4.46,5.84,8.92,8.75,13.38c7.62,11.66,15.26,23.31,22.91,34.95c2.25,3.4,4.48,6.8,6.75,10.19c5.32,8.01,10.66,16.01,16,24.01
		c1.95,2.93,4.58,6.56,7.54,7.42C800.33,598.99,801.66,596.83,800.53,593.56z"/>
	<path id="路径_450" class="st1" d="M720.24,573.21c0.25,4.07,0.48,8.14,0.75,12.2c0.6,9.6,1.24,19.19,1.85,28.79
		c0.22,3.51,0.69,7.97,2.82,10.19c2.01,2.1,4.24,0.9,4.9-2.5c1.19-6.16-0.2-12.78-0.96-19.21c-0.92-7.68-1.89-15.35-2.93-23
		c-1.42-10.46-2.96-20.89-4.61-31.3c-0.87-5.51-1.76-11.01-2.61-16.53c-0.83-5.45-1.54-10.9-2.46-16.33
		c0.3,5.32,0.6,10.64,0.89,15.96C718.64,545.39,719.4,559.3,720.24,573.21z"/>
	<path id="路径_451" class="st1" d="M697.24,512.54c-2.4,4.76-4.8,9.51-7.21,14.27c-6.29,12.43-12.56,24.87-18.81,37.32
		c-1.82,3.65-3.65,7.29-5.45,10.94c-4.28,8.61-8.54,17.23-12.79,25.86c-1.56,3.15-3.39,7.25-2.66,10.24
		c0.69,2.83,3.23,2.9,5.49,0.28c4.11-4.74,6.22-11.17,8.77-17.12c3.05-7.11,6.03-14.24,8.96-21.39c4-9.77,7.89-19.57,11.66-29.41
		c2-5.21,3.98-10.42,6.01-15.62C693.2,522.77,695.31,517.69,697.24,512.54z"/>
	<path id="路径_452" class="st1" d="M655.7,520.89c4.33-3.51,8.66-7.03,13.01-10.53c4.3-3.45,8.67-6.78,12.91-10.29
		c-4.46,2.92-8.92,5.84-13.38,8.75c-11.66,7.62-23.31,15.26-34.95,22.91c-3.4,2.25-6.81,4.48-10.19,6.75
		c-8.01,5.32-16.01,10.65-24.01,16c-2.93,1.95-6.56,4.58-7.42,7.54c-0.82,2.79,1.34,4.12,4.62,2.99
		c5.93-2.05,10.97-6.57,16.15-10.44c6.19-4.63,12.34-9.31,18.45-14.04C639.24,534.07,647.51,527.52,655.7,520.89z"/>
	<path id="路径_453" class="st1" d="M587.17,494.08c7.68-0.91,15.35-1.89,23-2.93c10.46-1.42,20.89-2.96,31.3-4.61
		c5.51-0.88,11.01-1.77,16.53-2.61c5.45-0.83,10.9-1.54,16.33-2.46c-5.32,0.3-10.64,0.6-15.96,0.89
		c-13.91,0.77-27.82,1.53-41.73,2.37c-4.07,0.24-8.14,0.48-12.2,0.75c-9.6,0.6-19.19,1.24-28.79,1.85
		c-3.51,0.22-7.97,0.69-10.2,2.82c-2.1,2.01-0.9,4.24,2.5,4.9C574.11,496.23,580.74,494.84,587.17,494.08z"/>
	<path id="路径_454" class="st1" d="M595.53,429.05c7.11,3.05,14.24,6.03,21.39,8.96c9.77,4,19.57,7.89,29.41,11.66
		c5.21,2,10.42,3.98,15.62,6.01c5.14,2,10.21,4.11,15.37,6.04c-4.76-2.4-9.51-4.8-14.27-7.21c-12.43-6.29-24.87-12.56-37.32-18.81
		c-3.65-1.82-7.29-3.65-10.94-5.45c-8.61-4.28-17.23-8.54-25.86-12.79c-3.15-1.56-7.25-3.39-10.24-2.66
		c-2.83,0.69-2.9,3.22-0.28,5.49C583.14,424.39,589.58,426.51,595.53,429.05z"/>
	<path id="路径_455" class="st1" d="M624.84,360.77c2.05,5.93,6.56,10.97,10.44,16.15c4.63,6.19,9.31,12.34,14.04,18.45
		c6.46,8.35,13.01,16.62,19.64,24.8c3.51,4.33,7.03,8.66,10.52,13.01c3.45,4.3,6.79,8.67,10.29,12.91
		c-2.92-4.46-5.84-8.92-8.75-13.38c-7.62-11.66-15.26-23.31-22.91-34.95c-2.25-3.4-4.48-6.81-6.75-10.19
		c-5.32-8.01-10.65-16.01-16-24.01c-1.95-2.93-4.58-6.56-7.54-7.42C625.03,355.34,623.71,357.5,624.84,360.77z"/>
	<path id="路径_456" class="st1" d="M705.12,381.12c-0.25-4.07-0.48-8.14-0.75-12.2c-0.6-9.6-1.24-19.19-1.85-28.79
		c-0.22-3.51-0.69-7.97-2.82-10.19c-2.01-2.11-4.24-0.9-4.9,2.5c-1.19,6.15,0.2,12.78,0.96,19.21c0.91,7.68,1.89,15.34,2.93,23
		c1.42,10.46,2.96,20.89,4.61,31.3c0.88,5.51,1.77,11.01,2.61,16.53c0.84,5.45,1.54,10.9,2.46,16.33c-0.3-5.32-0.6-10.64-0.89-15.96
		C706.72,408.94,705.96,395.03,705.12,381.12z"/>
	<path id="路径_457" class="st1" d="M617.83,349.14c5.63-1.94,2.62-10.7-3.02-8.75C609.17,342.33,612.19,351.08,617.83,349.14z"/>
	<path id="路径_458" class="st1" d="M563.99,412.3c5.63-1.94,2.62-10.7-3.02-8.75S558.35,414.24,563.99,412.3z"/>
	<path id="路径_459" class="st1" d="M547.7,489.71c-5.63,1.94-2.62,10.7,3.02,8.75C556.36,496.52,553.34,487.77,547.7,489.71z"/>
	<path id="路径_460" class="st1" d="M581.18,567.92c-5.63,1.94-2.62,10.7,3.02,8.75S586.83,565.98,581.18,567.92z"/>
	<path id="路径_461" class="st1" d="M642.89,622.27c-5.63,1.94-2.62,10.7,3.02,8.75S648.53,620.32,642.89,622.27z"/>
	<path id="路径_462" class="st1" d="M728.74,636.19c-5.63,1.94-2.62,10.7,3.02,8.75S734.38,634.25,728.74,636.19z"/>
	<path id="路径_463" class="st1" d="M806.96,604.34c-5.63,1.94-2.62,10.7,3.02,8.75S812.6,602.39,806.96,604.34z"/>
	<path id="路径_464" class="st1" d="M858.18,538.27c-5.63,1.94-2.62,10.7,3.02,8.75S863.81,536.33,858.18,538.27z"/>
	<path id="路径_465" class="st1" d="M871.81,456.33c-5.63,1.94-2.62,10.7,3.02,8.75C880.47,463.14,877.45,454.39,871.81,456.33z"
		/>
	<path id="路径_466" class="st1" d="M847.36,386.97c5.63-1.94,2.62-10.7-3.02-8.75S841.72,388.92,847.36,386.97z"/>
	<path id="路径_467" class="st1" d="M780.45,331.71c5.63-1.94,2.62-10.7-3.02-8.75C771.79,324.9,774.81,333.65,780.45,331.71z"/>
	<path id="路径_468" class="st1" d="M697.21,319.06c5.63-1.94,2.62-10.7-3.02-8.75C688.56,312.25,691.58,321,697.21,319.06z"/>
	<path id="路径_469" class="st1" d="M728.03,388.03c-1.42-0.27-5.79,16.13-9.77,36.65c-3.98,20.51-6.06,37.37-4.65,37.64
		c1.41,0.27,5.79-16.13,9.77-36.65C727.36,405.16,729.44,388.31,728.03,388.03z"/>
	
		<ellipse id="椭圆_14" transform="matrix(0.6558 -0.7549 0.7549 0.6558 -73.0721 713.5687)" class="st1" cx="746.05" cy="436.92" rx="37.84" ry="2.61"/>
	<path id="路径_470" class="st1" d="M797.8,447.38c-0.47-1.36-16.87,3.05-36.62,9.86c-19.76,6.81-35.39,13.43-34.92,14.8
		s16.87-3.05,36.62-9.86S798.27,448.74,797.8,447.38z"/>
	<path id="路径_471" class="st1" d="M763.97,489.99c20.52,3.98,37.37,6.06,37.64,4.65c0.28-1.41-16.13-5.79-36.65-9.77
		c-20.51-3.98-37.37-6.06-37.64-4.65C727.05,481.64,743.45,486.01,763.97,489.99z"/>
	<path id="路径_472" class="st1" d="M781.29,537.48c0.95-1.09-11.08-13.08-26.85-26.79c-15.78-13.71-29.33-23.93-30.28-22.84
		c-0.95,1.09,11.08,13.08,26.85,26.79C766.79,528.34,780.34,538.56,781.29,537.48z"/>
	
		<ellipse id="椭圆_15" transform="matrix(0.9454 -0.3258 0.3258 0.9454 -132.4167 266.7003)" class="st1" cx="729.93" cy="528.64" rx="2.61" ry="37.84"/>
	<path id="路径_473" class="st1" d="M699.65,530.58c-3.98,20.52-6.06,37.37-4.65,37.64c1.41,0.27,5.79-16.13,9.77-36.65
		c3.98-20.52,6.06-37.37,4.65-37.64C708.01,493.66,703.63,510.07,699.65,530.58z"/>
	<path id="路径_474" class="st1" d="M652.17,547.9c1.09,0.95,13.08-11.08,26.79-26.85c13.71-15.78,23.93-29.33,22.85-30.28
		s-13.08,11.08-26.79,26.85C661.31,533.4,651.08,546.95,652.17,547.9z"/>
	
		<ellipse id="椭圆_16" transform="matrix(0.9454 -0.3258 0.3258 0.9454 -125.7228 242.4895)" class="st1" cx="661.01" cy="496.55" rx="37.84" ry="2.61"/>
	<path id="路径_475" class="st1" d="M695.71,476.03c0.27-1.42-16.13-5.79-36.65-9.77c-20.51-3.98-37.37-6.06-37.64-4.65
		c-0.27,1.41,16.13,5.79,36.65,9.77S695.44,477.45,695.71,476.03z"/>
	<path id="路径_476" class="st1" d="M698.88,468.41c0.95-1.09-11.08-13.08-26.85-26.79s-29.33-23.93-30.28-22.85
		s11.08,13.08,26.85,26.79S697.93,469.5,698.88,468.41z"/>
	<path id="路径_477" class="st1" d="M705.43,463.39c1.36-0.47-3.05-16.87-9.86-36.62s-13.43-35.39-14.8-34.92
		c-1.37,0.47,3.05,16.87,9.86,36.62S704.07,463.86,705.43,463.39z"/>
</g>
</svg>
