<?xml version="1.0" encoding="utf-8"?>
<!-- Generator: Adobe Illustrator 23.0.3, SVG Export Plug-In . SVG Version: 6.00 Build 0)  -->
<svg version="1.1" id="圖層_1" xmlns="http://www.w3.org/2000/svg" xmlns:xlink="http://www.w3.org/1999/xlink" x="0px" y="0px"
	 viewBox="0 0 1671.73 410.33" style="enable-background:new 0 0 1671.73 410.33;" xml:space="preserve">
<style type="text/css">
	.st0{fill:#F2A38A;}
	.st1{fill:#EC746B;}
	.st2{fill:#F0A085;}
</style>
<g id="组_136" transform="translate(1602.595)">
	<g id="组_23" transform="translate(100.462 101.694)">
		<g id="组_4" transform="translate(94.684)">
			<path id="路径_34" class="st0" d="M-335.21,49.08c0,0,1.98-36.23,2.15-39.18c0.38-6.71-0.18-9.9-2.15-9.9l0,0
				c-1.98,0-2.51,3.19-2.15,9.9C-337.2,13.1-335.21,49.08-335.21,49.08z"/>
		</g>
		<g id="组_5" transform="translate(113.813 5.833)">
			<path id="路径_35" class="st0" d="M-337.46,46.22c0,0,14.26-33.36,15.43-36.08c2.65-6.17,3.22-9.36,1.36-10.04l0,0
				c-1.86-0.67-3.44,2.14-5.41,8.56C-327.02,11.73-337.46,46.22-337.46,46.22z"/>
		</g>
		<g id="组_6" transform="translate(128.656 22.658)">
			<path id="路径_36" class="st0" d="M-337.46,37.96c0,0,24.81-26.48,26.83-28.63c4.6-4.89,6.23-7.69,4.71-8.97l0,0
				c-1.51-1.27-3.97,0.83-8.01,6.2C-315.86,9.12-337.46,37.96-337.46,37.96z"/>
		</g>
		<g id="组_7" transform="translate(139.672 48.418)">
			<path id="路径_37" class="st0" d="M-337.46,25.32c0,0,32.37-16.4,35.01-17.73c6-3.02,8.48-5.1,7.49-6.81l0,0
				c-0.99-1.71-4.01-0.58-9.65,3.08C-307.29,5.61-337.46,25.32-337.46,25.32z"/>
		</g>
		<g id="组_8" transform="translate(145.538 79.814)">
			<path id="路径_38" class="st0" d="M-337.46,10.03c0,0,36.02-4.33,38.96-4.68c6.67-0.79,9.72-1.89,9.37-3.84l0,0
				c-0.34-1.95-3.57-1.91-10.12-0.4C-302.37,1.82-337.46,10.03-337.46,10.03z"/>
		</g>
		<g id="组_9" transform="translate(145.542 106.973)">
			<path id="路径_39" class="st0" d="M-337.46,0c0,0,35.33,8.25,38.21,8.92c6.54,1.54,9.78,1.54,10.12-0.4l0,0
				c0.34-1.95-2.7-3.02-9.37-3.84C-301.69,4.29-337.46,0-337.46,0z"/>
		</g>
		<g id="组_10" transform="translate(139.685 123.076)">
			<path id="路径_40" class="st0" d="M-337.46,0c0,0,30.39,19.83,32.86,21.45c5.62,3.68,8.66,4.8,9.65,3.08l0,0
				c0.99-1.71-1.51-3.76-7.49-6.81C-305.31,16.27-337.46,0-337.46,0z"/>
		</g>
		<g id="组_11" transform="translate(128.673 136.206)">
			<path id="路径_41" class="st0" d="M-337.46,0c0,0,21.77,29.03,23.54,31.4c4.02,5.38,6.5,7.47,8.01,6.2l0,0
				c1.52-1.27-0.13-4.05-4.71-8.97C-312.82,26.29-337.46,0-337.46,0z"/>
		</g>
		<g id="组_12" transform="translate(113.837 144.777)">
			<path id="路径_42" class="st0" d="M-337.46,0c0,0,10.53,34.72,11.38,37.55c1.94,6.43,3.55,9.24,5.41,8.56l0,0
				c1.86-0.68,1.26-3.85-1.36-10.04C-323.29,33.13-337.46,0-337.46,0z"/>
		</g>
		<g id="组_13" transform="translate(94.697 147.756)">
			<path id="路径_43" class="st0" d="M-335.2,0c0,0-1.98,36.23-2.15,39.18c-0.38,6.71,0.18,9.9,2.15,9.9l0,0
				c1.98,0,2.51-3.19,2.15-9.9C-333.21,35.98-335.2,0-335.2,0z"/>
		</g>
		<g id="组_14" transform="translate(62.214 144.785)">
			<path id="路径_44" class="st0" d="M-319.59,0c0,0-14.26,33.37-15.42,36.08c-2.65,6.17-3.22,9.36-1.36,10.04l0,0
				c1.86,0.68,3.44-2.14,5.41-8.56C-330.03,34.49-319.59,0-319.59,0z"/>
		</g>
		<g id="组_15" transform="translate(33.149 136.221)">
			<path id="路径_45" class="st0" d="M-305.37,0c0,0-24.81,26.48-26.83,28.63c-4.6,4.89-6.23,7.69-4.71,8.97l0,0
				c1.51,1.27,3.97-0.83,8.01-6.2C-326.98,28.84-305.37,0-305.37,0z"/>
		</g>
		<g id="组_16" transform="translate(11.514 123.098)">
			<path id="路径_46" class="st0" d="M-294.75,0c0,0-32.37,16.4-35.01,17.73c-6,3.02-8.48,5.1-7.49,6.81l0,0
				c0.99,1.71,4.02,0.58,9.65-3.08C-324.92,19.71-294.75,0-294.75,0z"/>
		</g>
		<g id="组_17" transform="translate(0.005 106.997)">
			<path id="路径_47" class="st0" d="M-289.11,0c0,0-36.02,4.34-38.96,4.68c-6.67,0.79-9.72,1.89-9.37,3.84l0,0
				c0.34,1.95,3.57,1.91,10.12,0.4C-324.2,8.2-289.11,0-289.11,0z"/>
		</g>
		<g id="组_18" transform="translate(0 79.827)">
			<path id="路径_48" class="st0" d="M-289.1,10.04c0,0-35.33-8.25-38.21-8.92c-6.54-1.54-9.78-1.55-10.12,0.4l0,0
				c-0.34,1.95,2.7,3.02,9.37,3.84C-324.88,5.74-289.1,10.04-289.1,10.04z"/>
		</g>
		<g id="组_19" transform="translate(11.502 48.434)">
			<path id="路径_49" class="st0" d="M-294.75,25.33c0,0-30.38-19.83-32.86-21.46c-5.62-3.68-8.66-4.8-9.65-3.08l0,0
				c-0.99,1.71,1.51,3.77,7.49,6.81C-326.9,9.05-294.75,25.33-294.75,25.33z"/>
		</g>
		<g id="组_20" transform="translate(33.132 22.672)">
			<path id="路径_50" class="st0" d="M-305.37,37.96c0,0-21.77-29.03-23.54-31.4c-4.02-5.38-6.5-7.47-8.01-6.2l0,0
				c-1.51,1.27,0.13,4.05,4.71,8.96C-330.02,11.67-305.37,37.96-305.37,37.96z"/>
		</g>
		<g id="组_21" transform="translate(62.199 5.842)">
			<path id="路径_51" class="st0" d="M-319.59,46.22c0,0-10.53-34.72-11.38-37.56c-1.94-6.43-3.55-9.24-5.41-8.56l0,0
				c-1.86,0.67-1.26,3.85,1.36,10.04C-333.77,13.08-319.59,46.22-319.59,46.22z"/>
		</g>
		<g id="组_22" transform="translate(94.684)">
			<path id="路径_52" class="st0" d="M-335.21,49.08c0,0,1.98-36.23,2.15-39.18c0.38-6.71-0.18-9.9-2.15-9.9l0,0
				c-1.98,0-2.51,3.19-2.15,9.9C-337.2,13.1-335.21,49.08-335.21,49.08z"/>
		</g>
	</g>
	<g id="组_43" transform="translate(133.774 136.649)">
		<g id="组_24" transform="translate(55.926)">
			<path id="路径_53" class="st0" d="M-333.05,31.65c0,0-1.14-23.49-1.23-25.41c-0.2-4.35-0.78-6.37-2.05-6.24l0,0
				c-1.28,0.13-1.4,2.22-0.73,6.53C-336.74,8.58-333.05,31.65-333.05,31.65z"/>
		</g>
		<g id="组_25" transform="translate(71.414 1.55)">
			<path id="路径_54" class="st0" d="M-337.46,30.89c0,0,6.96-22.47,7.54-24.3c1.3-4.16,1.45-6.25,0.21-6.56l0,0
				c-1.24-0.31-2.08,1.61-2.92,5.88C-333.04,7.95-337.46,30.89-337.46,30.89z"/>
		</g>
		<g id="组_26" transform="translate(81.556 10.449)">
			<path id="路径_55" class="st0" d="M-337.46,26.52c0,0,14.23-18.73,15.39-20.25c2.64-3.46,3.5-5.38,2.44-6.09l0,0
				c-1.06-0.72-2.5,0.8-4.75,4.53C-325.46,6.48-337.46,26.52-337.46,26.52z"/>
		</g>
		<g id="组_27" transform="translate(89.537 25.621)">
			<path id="路径_56" class="st0" d="M-337.46,19.07c0,0,19.78-12.73,21.39-13.77c3.67-2.35,5.13-3.86,4.38-4.89l0,0
				c-0.75-1.04-2.63-0.1-6.01,2.63C-319.33,4.36-337.46,19.07-337.46,19.07z"/>
		</g>
		<g id="组_28" transform="translate(94.394 45.163)">
			<path id="路径_57" class="st0" d="M-337.46,9.52c0,0,22.94-5.2,24.81-5.62c4.25-0.95,6.14-1.87,5.79-3.1l0,0
				c-0.35-1.23-2.43-1-6.55,0.42C-315.39,1.89-337.46,9.52-337.46,9.52z"/>
		</g>
		<g id="组_29" transform="translate(95.54 65.733)">
			<path id="路径_58" class="st0" d="M-337.46,0c0,0,23.33,2.96,25.23,3.2c4.32,0.55,6.41,0.34,6.5-0.93l0,0
				c0.09-1.28-1.95-1.77-6.3-1.85C-314.11,0.38-337.46,0-337.46,0z"/>
		</g>
		<g id="组_30" transform="translate(92.84 76.507)">
			<path id="路径_59" class="st0" d="M-337.46,0c0,0,20.92,10.76,22.62,11.64c3.87,2,5.9,2.51,6.43,1.34l0,0
				c0.52-1.17-1.22-2.33-5.29-3.89C-315.65,8.34-337.46,0-337.46,0z"/>
		</g>
		<g id="组_31" transform="translate(86.618 85.708)">
			<path id="路径_60" class="st0" d="M-337.46,0c0,0,15.97,17.26,17.27,18.67c2.95,3.2,4.69,4.38,5.58,3.46l0,0
				c0.89-0.92-0.35-2.6-3.64-5.47C-319.82,15.3-337.46,0-337.46,0z"/>
		</g>
		<g id="组_32" transform="translate(77.623 92.226)">
			<path id="路径_61" class="st0" d="M-337.46,0c0,0,9.11,21.69,9.84,23.45c1.68,4.02,2.91,5.72,4.06,5.16l0,0
				c1.15-0.56,0.56-2.57-1.55-6.38C-326.11,20.42-337.46,0-337.46,0z"/>
		</g>
		<g id="组_33" transform="translate(66.943 95.274)">
			<path id="路径_62" class="st0" d="M-337.46,0c0,0,1.14,23.49,1.23,25.41c0.2,4.35,0.78,6.37,2.05,6.24l0,0
				c1.28-0.13,1.4-2.22,0.73-6.53C-333.78,23.07-337.46,0-337.46,0z"/>
		</g>
		<g id="组_34" transform="translate(47.267 94.485)">
			<path id="路径_63" class="st0" d="M-328.87,0c0,0-6.96,22.47-7.54,24.3c-1.3,4.16-1.45,6.25-0.21,6.56l0,0
				c1.24,0.31,2.08-1.61,2.92-5.88C-333.29,22.94-328.87,0-328.87,0z"/>
		</g>
		<g id="组_35" transform="translate(27.45 89.955)">
			<path id="路径_64" class="st0" d="M-319.19,0.01c0,0-14.23,18.73-15.39,20.25c-2.64,3.46-3.5,5.38-2.44,6.1l0,0
				c1.06,0.72,2.5-0.8,4.75-4.53C-331.2,20.04-319.19,0.01-319.19,0.01z"/>
		</g>
		<g id="组_36" transform="translate(11.784 82.23)">
			<path id="路径_65" class="st0" d="M-311.51,0c0,0-19.78,12.73-21.39,13.77c-3.67,2.35-5.13,3.86-4.38,4.89l0,0
				c0.75,1.04,2.63,0.1,6.01-2.63C-329.64,14.72-311.51,0-311.51,0z"/>
		</g>
		<g id="组_37" transform="translate(2.248 72.24)">
			<path id="路径_66" class="st0" d="M-306.83,0c0,0-22.94,5.2-24.81,5.62c-4.25,0.95-6.14,1.87-5.79,3.1l0,0
				c0.35,1.23,2.43,1,6.55-0.42C-328.91,7.63-306.83,0-306.83,0z"/>
		</g>
		<g id="组_38" transform="translate(0 57.702)">
			<path id="路径_67" class="st0" d="M-305.73,3.49c0,0-23.33-2.96-25.23-3.2c-4.32-0.56-6.41-0.34-6.5,0.93l0,0
				c-0.09,1.28,1.95,1.77,6.3,1.85C-329.08,3.11-305.73,3.49-305.73,3.49z"/>
		</g>
		<g id="组_39" transform="translate(5.303 36.817)">
			<path id="路径_68" class="st0" d="M-308.33,13.6c0,0-20.92-10.76-22.62-11.64c-3.87-2-5.9-2.52-6.43-1.34l0,0
				c-0.52,1.17,1.22,2.33,5.29,3.89C-330.15,5.26-308.33,13.6-308.33,13.6z"/>
		</g>
		<g id="组_40" transform="translate(17.528 18.779)">
			<path id="路径_69" class="st0" d="M-314.33,22.44c0,0-15.97-17.26-17.27-18.67c-2.95-3.2-4.69-4.38-5.58-3.46l0,0
				c-0.89,0.92,0.35,2.6,3.64,5.47C-331.98,7.14-314.33,22.44-314.33,22.44z"/>
		</g>
		<g id="组_41" transform="translate(35.171 5.98)">
			<path id="路径_70" class="st0" d="M-322.98,28.72c0,0-9.11-21.69-9.84-23.46c-1.68-4.02-2.91-5.72-4.06-5.16l0,0
				c-1.15,0.56-0.56,2.57,1.55,6.38C-334.33,8.3-322.98,28.72-322.98,28.72z"/>
		</g>
		<g id="组_42" transform="translate(55.926)">
			<path id="路径_71" class="st0" d="M-333.05,31.65c0,0-1.14-23.49-1.23-25.41c-0.2-4.35-0.78-6.37-2.05-6.24l0,0
				c-1.28,0.13-1.4,2.22-0.73,6.53C-336.74,8.58-333.05,31.65-333.05,31.65z"/>
		</g>
	</g>
	<g id="组_63" transform="translate(150.871 153.596)">
		<g id="组_44" transform="translate(33.997 1.337)">
			<path id="路径_72" class="st0" d="M-330.9,22.54c0,0-3.48-16.86-3.76-18.24c-0.64-3.12-1.28-4.52-2.19-4.28l0,0
				c-0.91,0.24-0.76,1.77,0.21,4.8C-336.18,6.28-330.9,22.54-330.9,22.54z"/>
		</g>
		<g id="组_45" transform="translate(48.656)">
			<path id="路径_73" class="st0" d="M-337.46,23.2c0,0,2.5-17.04,2.7-18.42c0.47-3.15,0.34-4.68-0.59-4.77l0,0
				c-0.93-0.08-1.32,1.4-1.44,4.58C-336.86,6.11-337.46,23.2-337.46,23.2z"/>
		</g>
		<g id="组_46" transform="translate(56.504 4.182)">
			<path id="路径_74" class="st0" d="M-337.46,21.15c0,0,8.17-15.16,8.84-16.39c1.52-2.8,1.92-4.29,1.07-4.68l0,0
				c-0.85-0.4-1.72,0.86-2.92,3.81C-331.05,5.29-337.46,21.15-337.46,21.15z"/>
		</g>
		<g id="组_47" transform="translate(63.15 13.387)">
			<path id="路径_75" class="st0" d="M-337.46,16.63c0,0,12.86-11.45,13.91-12.38c2.39-2.11,3.27-3.37,2.61-4.03l0,0
				c-0.66-0.67-1.91,0.22-4.05,2.58C-326.02,3.93-337.46,16.63-337.46,16.63z"/>
		</g>
		<g id="组_48" transform="translate(67.793 26.479)">
			<path id="路径_76" class="st0" d="M-337.46,10.21c0,0,16-6.36,17.31-6.87c2.96-1.17,4.23-2.05,3.83-2.9l0,0
				c-0.39-0.85-1.87-0.44-4.69,1.04C-322.36,2.19-337.46,10.21-337.46,10.21z"/>
		</g>
		<g id="组_49" transform="translate(69.872 41.734)">
			<path id="路径_77" class="st0" d="M-337.46,2.82c0,0,17.21-0.5,18.61-0.54c3.19-0.09,4.67-0.48,4.59-1.41l0,0
				c-0.08-0.93-1.61-1.06-4.77-0.62C-320.53,0.45-337.46,2.82-337.46,2.82z"/>
		</g>
		<g id="组_50" transform="translate(69.138 52.647)">
			<path id="路径_78" class="st0" d="M-337.46,0c0,0,16.34,5.42,17.68,5.86c3.02,1.01,4.55,1.15,4.8,0.24l0,0
				c0.24-0.91-1.15-1.54-4.27-2.22C-320.74,3.57-337.46,0-337.46,0z"/>
		</g>
		<g id="组_51" transform="translate(65.678 60.005)">
			<path id="路径_79" class="st0" d="M-337.46,0c0,0,13.51,10.68,14.6,11.55c2.5,1.98,3.89,2.64,4.43,1.87l0,0
				c0.54-0.77-0.55-1.84-3.25-3.54C-322.97,9.07-337.46,0-337.46,0z"/>
		</g>
		<g id="组_52" transform="translate(59.909 65.737)">
			<path id="路径_80" class="st0" d="M-337.46,0c0,0,9.04,14.66,9.77,15.85c1.67,2.72,2.75,3.81,3.52,3.27l0,0
				c0.77-0.53,0.11-1.92-1.84-4.44C-326.95,13.48-337.46,0-337.46,0z"/>
		</g>
		<g id="组_53" transform="translate(52.529 69.151)">
			<path id="路径_81" class="st0" d="M-337.46,0c0,0,3.48,16.86,3.76,18.24c0.64,3.12,1.28,4.52,2.19,4.28l0,0
				c0.91-0.24,0.76-1.77-0.21-4.8C-332.19,16.27-337.46,0-337.46,0z"/>
		</g>
		<g id="组_54" transform="translate(41.46 69.833)">
			<path id="路径_82" class="st0" d="M-334.5,0c0,0-2.5,17.04-2.7,18.42c-0.47,3.15-0.34,4.68,0.59,4.77l0,0
				c0.93,0.08,1.32-1.4,1.44-4.58C-335.11,17.09-334.5,0-334.5,0z"/>
		</g>
		<g id="组_55" transform="translate(26.228 67.703)">
			<path id="路径_83" class="st0" d="M-327.11,0c0,0-8.17,15.16-8.84,16.39c-1.52,2.8-1.92,4.28-1.08,4.68l0,0
				c0.85,0.4,1.72-0.86,2.93-3.82C-333.53,15.85-327.11,0-327.11,0z"/>
		</g>
		<g id="组_56" transform="translate(13.197 63.018)">
			<path id="路径_84" class="st0" d="M-320.73,0c0,0-12.86,11.45-13.91,12.38c-2.39,2.11-3.27,3.37-2.61,4.03l0,0
				c0.66,0.67,1.91-0.22,4.05-2.58C-332.18,12.7-320.73,0-320.73,0z"/>
		</g>
		<g id="组_57" transform="translate(4.079 56.342)">
			<path id="路径_85" class="st0" d="M-316.25,0c0,0-16,6.36-17.31,6.87c-2.96,1.17-4.23,2.04-3.83,2.9l0,0
				c0.39,0.85,1.87,0.44,4.69-1.04C-331.36,8.02-316.25,0-316.25,0z"/>
		</g>
		<g id="组_58" transform="translate(0 48.482)">
			<path id="路径_86" class="st0" d="M-314.25,0c0,0-17.21,0.5-18.61,0.54c-3.19,0.09-4.67,0.48-4.59,1.41l0,0
				c0.08,0.93,1.61,1.06,4.77,0.62C-331.19,2.37-314.25,0-314.25,0z"/>
		</g>
		<g id="组_59" transform="translate(1.443 33.675)">
			<path id="路径_87" class="st0" d="M-314.96,6.71c0,0-16.34-5.42-17.68-5.86c-3.02-1.01-4.55-1.15-4.8-0.24l0,0
				c-0.25,0.9,1.15,1.54,4.26,2.22C-331.69,3.14-314.96,6.71-314.96,6.71z"/>
		</g>
		<g id="组_60" transform="translate(8.24 19.29)">
			<path id="路径_88" class="st0" d="M-318.3,13.74c0,0-13.51-10.68-14.61-11.55c-2.5-1.98-3.89-2.64-4.43-1.87l0,0
				c-0.54,0.77,0.55,1.84,3.25,3.54C-332.79,4.66-318.3,13.74-318.3,13.74z"/>
		</g>
		<g id="组_61" transform="translate(19.566 8.038)">
			<path id="路径_89" class="st0" d="M-323.86,19.26c0,0-9.04-14.65-9.77-15.85c-1.67-2.72-2.75-3.81-3.52-3.27l0,0
				c-0.77,0.54-0.11,1.92,1.84,4.44C-334.38,5.77-323.86,19.26-323.86,19.26z"/>
		</g>
		<g id="组_62" transform="translate(33.997 1.337)">
			<path id="路径_90" class="st0" d="M-330.9,22.54c0,0-3.48-16.86-3.76-18.24c-0.64-3.12-1.28-4.52-2.19-4.28l0,0
				c-0.91,0.24-0.76,1.77,0.21,4.8C-336.18,6.28-330.9,22.54-330.9,22.54z"/>
		</g>
	</g>
	<g id="组_83" transform="translate(73.693 77.717)">
		<g id="组_64" transform="translate(132.973)">
			<path id="路径_91" class="st0" d="M-337.46,61.05c0,0,9.28-44.67,10.04-48.31c1.73-8.27,1.64-12.34-0.82-12.71l0,0
				c-2.46-0.37-3.71,3.49-4.54,11.9C-333.17,15.94-337.46,61.05-337.46,61.05z"/>
		</g>
		<g id="组_65" transform="translate(153.397 13.481)">
			<path id="路径_92" class="st0" d="M-337.46,54.43c0,0,23.99-38.81,25.96-41.97c4.46-7.17,5.76-11.03,3.58-12.22l0,0
				c-2.18-1.19-4.69,2.01-8.33,9.63C-318,13.51-337.46,54.43-337.46,54.43z"/>
		</g>
		<g id="组_66" transform="translate(170.241 39.876)">
			<path id="路径_93" class="st0" d="M-337.46,41.47c0,0,35.82-28.26,38.74-30.56c6.64-5.22,9.19-8.4,7.54-10.26l0,0
				c-1.64-1.86-5.09,0.29-11.12,6.2C-305.18,9.67-337.46,41.47-337.46,41.47z"/>
		</g>
		<g id="组_67" transform="translate(181.476 75.911)">
			<path id="路径_94" class="st0" d="M-337.46,23.82c0,0,43.32-14.3,46.86-15.46c8.03-2.63,11.5-4.75,10.6-7.06l0,0
				c-0.91-2.32-4.88-1.47-12.57,2.02C-296.25,4.99-337.46,23.82-337.46,23.82z"/>
		</g>
		<g id="组_68" transform="translate(185.741 116.69)">
			<path id="路径_95" class="st0" d="M-337.46,4.17c0,0,45.61,1.38,49.32,1.5c8.44,0.27,12.44-0.53,12.38-3.01l0,0
				c-0.06-2.48-4.09-3.05-12.51-2.4C-292.29,0.56-337.46,4.17-337.46,4.17z"/>
		</g>
		<g id="组_69" transform="translate(182.528 142.161)">
			<path id="路径_96" class="st0" d="M-337.46,0c0,0,42.39,16.89,45.84,18.28c7.84,3.14,11.87,3.76,12.66,1.4l0,0
				c0.79-2.35-2.8-4.26-10.93-6.53C-293.78,12.06-337.46,0-337.46,0z"/>
		</g>
		<g id="组_70" transform="translate(172.221 161.083)">
			<path id="路径_97" class="st0" d="M-337.46,0c0,0,34.05,30.37,36.82,32.85c6.29,5.64,9.86,7.59,11.42,5.65l0,0
				c1.55-1.94-1.17-4.96-8.04-9.88C-300.54,26.27-337.46,0-337.46,0z"/>
		</g>
		<g id="组_71" transform="translate(156.065 175.338)">
			<path id="路径_98" class="st0" d="M-337.46,0c0,0,21.61,40.18,23.36,43.46c3.98,7.45,6.67,10.51,8.8,9.21l0,0
				c2.12-1.29,0.6-5.06-4.17-12.03C-311.76,37.32-337.46,0-337.46,0z"/>
		</g>
		<g id="组_72" transform="translate(136.006 183.208)">
			<path id="路径_99" class="st0" d="M-337.46,0c0,0,6.56,45.15,7.09,48.83c1.2,8.36,2.68,12.16,5.11,11.66l0,0
				c2.44-0.49,2.3-4.55,0.19-12.73C-326.07,43.86-337.46,0-337.46,0z"/>
		</g>
		<g id="组_73" transform="translate(103.246 183.742)">
			<path id="路径_100" class="st0" d="M-326.24,0c0,0-9.28,44.67-10.04,48.31c-1.73,8.27-1.64,12.34,0.82,12.71l0,0
				c2.46,0.37,3.71-3.49,4.54-11.9C-330.54,45.11-326.24,0-326.24,0z"/>
		</g>
		<g id="组_74" transform="translate(63.471 176.878)">
			<path id="路径_101" class="st0" d="M-306.89,0c0,0-23.99,38.81-25.96,41.97c-4.46,7.17-5.76,11.03-3.58,12.22l0,0
				c2.18,1.19,4.69-2.01,8.33-9.63C-326.36,40.92-306.89,0-306.89,0z"/>
		</g>
		<g id="组_75" transform="translate(30.425 163.442)">
			<path id="路径_102" class="st0" d="M-290.69,0c0,0-35.82,28.26-38.74,30.56c-6.64,5.22-9.19,8.4-7.54,10.26l0,0
				c1.65,1.86,5.09-0.29,11.12-6.2C-322.98,31.8-290.69,0-290.69,0z"/>
		</g>
		<g id="组_76" transform="translate(8.366 145.054)">
			<path id="路径_103" class="st0" d="M-279.87,0c0,0-43.33,14.3-46.86,15.46c-8.03,2.63-11.51,4.75-10.6,7.06l0,0
				c0.91,2.31,4.88,1.47,12.57-2.02C-321.08,18.84-279.87,0-279.87,0z"/>
		</g>
		<g id="组_77" transform="translate(0 122.388)">
			<path id="路径_104" class="st0" d="M-275.77,1.55c0,0-45.61-1.38-49.32-1.5c-8.44-0.27-12.44,0.53-12.37,3.01l0,0
				c0.06,2.48,4.09,3.05,12.51,2.4C-320.94,5.15-275.77,1.55-275.77,1.55z"/>
		</g>
		<g id="组_78" transform="translate(6.309 81.522)">
			<path id="路径_105" class="st0" d="M-278.86,21.11c0,0-42.38-16.89-45.84-18.28c-7.84-3.14-11.87-3.76-12.66-1.4l0,0
				c-0.79,2.36,2.8,4.26,10.93,6.53C-322.54,9.05-278.86,21.11-278.86,21.11z"/>
		</g>
		<g id="组_79" transform="translate(26.558 44.481)">
			<path id="路径_106" class="st0" d="M-288.8,39.23c0,0-34.05-30.37-36.82-32.85c-6.29-5.64-9.87-7.59-11.42-5.65l0,0
				c-1.55,1.94,1.17,4.96,8.04,9.88C-325.73,12.95-288.8,39.23-288.8,39.23z"/>
		</g>
		<g id="组_80" transform="translate(58.277 16.49)">
			<path id="路径_107" class="st0" d="M-304.37,52.96c0,0-21.61-40.18-23.37-43.46c-3.98-7.45-6.67-10.51-8.8-9.21l0,0
				c-2.12,1.3-0.6,5.06,4.17,12.03C-330.08,15.64-304.37,52.96-304.37,52.96z"/>
		</g>
		<g id="组_81" transform="translate(97.428 1.044)">
			<path id="路径_108" class="st0" d="M-323.46,60.54c0,0-6.56-45.15-7.09-48.83c-1.2-8.36-2.68-12.15-5.11-11.66l0,0
				c-2.44,0.49-2.29,4.55-0.19,12.73C-334.86,16.68-323.46,60.54-323.46,60.54z"/>
		</g>
		<g id="组_82" transform="translate(132.973)">
			<path id="路径_109" class="st0" d="M-337.46,61.05c0,0,9.28-44.67,10.04-48.31c1.73-8.27,1.64-12.34-0.82-12.71l0,0
				c-2.46-0.37-3.71,3.49-4.54,11.9C-333.17,15.94-337.46,61.05-337.46,61.05z"/>
		</g>
	</g>
	<g id="组_103">
		<g id="组_84" transform="translate(191.243)">
			<path id="路径_110" class="st0" d="M-332.16,99.79c0,0,3.42-73.7,3.71-79.71c0.66-13.64-0.53-20.12-4.55-20.09l0,0
				c-4.02,0.03-5.04,6.53-4.21,20.16C-336.8,26.66-332.16,99.79-332.16,99.79z"/>
		</g>
		<g id="组_85" transform="translate(230.915 11.299)">
			<path id="路径_111" class="st0" d="M-337.46,94.25c0,0,28.42-68.08,30.75-73.63c5.29-12.59,6.39-19.09,2.6-20.43l0,0
				c-3.79-1.34-6.97,4.41-10.85,17.5C-316.82,23.94-337.46,94.25-337.46,94.25z"/>
		</g>
		<g id="组_86" transform="translate(261.237 45.014)">
			<path id="路径_112" class="st0" d="M-337.46,77.69c0,0,50-54.26,54.08-58.67c9.28-10.02,12.53-15.75,9.43-18.31l0,0
				c-3.1-2.56-8.06,1.76-16.18,12.74C-294.02,18.69-337.46,77.69-337.46,77.69z"/>
		</g>
		<g id="组_87" transform="translate(283.861 97.028)">
			<path id="路径_113" class="st0" d="M-337.46,52.18c0,0,65.54-33.89,70.89-36.64c12.15-6.25,17.16-10.52,15.12-13.98l0,0
				c-2.04-3.46-8.17-1.1-19.56,6.43C-276.46,11.59-337.46,52.18-337.46,52.18z"/>
		</g>
		<g id="组_88" transform="translate(296.059 160.694)">
			<path id="路径_114" class="st0" d="M-337.47,21.15c0,0,73.18-9.43,79.14-10.18c13.55-1.72,19.72-4.01,18.99-7.96l0,0
				c-0.73-3.95-7.3-3.83-20.58-0.65C-266.25,3.88-337.47,21.15-337.47,21.15z"/>
		</g>
		<g id="组_89" transform="translate(296.358 216.684)">
			<path id="路径_115" class="st0" d="M-337.46,0c0,0,71.99,16.17,77.85,17.5c13.32,3.02,19.9,2.98,20.57-0.99l0,0
				c0.67-3.96-5.55-6.1-19.12-7.65C-264.64,8.12-337.46,0-337.46,0z"/>
		</g>
		<g id="组_90" transform="translate(284.723 249.526)">
			<path id="路径_116" class="st0" d="M-337.46,0c0,0,62.11,39.82,67.17,43.07c11.48,7.39,17.69,9.6,19.67,6.1l0,0
				c1.98-3.5-3.13-7.63-15.35-13.73C-271.81,32.54-337.46,0-337.46,0z"/>
		</g>
		<g id="组_91" transform="translate(262.557 276.408)">
			<path id="路径_117" class="st0" d="M-337.46,0c0,0,44.75,58.66,48.39,63.45c8.26,10.88,13.33,15.07,16.39,12.47l0,0
				c3.06-2.61-0.33-8.24-9.73-18.15C-286.9,53.03-337.46,0-337.46,0z"/>
		</g>
		<g id="组_92" transform="translate(232.533 294.087)">
			<path id="路径_118" class="st0" d="M-337.46,0c0,0,21.99,70.43,23.77,76.17c4.04,13.05,7.38,18.73,11.14,17.32l0,0
				c3.77-1.41,2.5-7.86-2.94-20.38C-308.09,67.13-337.46,0-337.46,0z"/>
		</g>
		<g id="组_93" transform="translate(194.386 300.431)">
			<path id="路径_119" class="st0" d="M-333.58,0c0,0-3.42,73.7-3.71,79.71c-0.66,13.64,0.53,20.12,4.55,20.09l0,0
				c4.02-0.03,5.04-6.53,4.21-20.16C-328.93,73.13-333.58,0-333.58,0z"/>
		</g>
		<g id="组_94" transform="translate(128.316 294.676)">
			<path id="路径_120" class="st0" d="M-301.87,0c0,0-28.42,68.09-30.75,73.63c-5.29,12.59-6.39,19.09-2.6,20.43l0,0
				c3.79,1.34,6.97-4.41,10.85-17.5C-322.52,70.31-301.87,0-301.87,0z"/>
		</g>
		<g id="组_95" transform="translate(68.94 277.515)">
			<path id="路径_121" class="st0" d="M-272.82,0c0,0-50,54.26-54.08,58.67c-9.28,10.03-12.53,15.75-9.43,18.31l0,0
				c3.1,2.56,8.06-1.76,16.18-12.74C-316.26,59.01-272.82,0-272.82,0z"/>
		</g>
		<g id="组_96" transform="translate(24.515 251.017)">
			<path id="路径_122" class="st0" d="M-251.02,0c0,0-65.54,33.89-70.89,36.64c-12.15,6.25-17.16,10.52-15.12,13.98l0,0
				c2.04,3.46,8.17,1.1,19.56-6.43C-312.02,40.59-251.02,0-251.02,0z"/>
		</g>
		<g id="组_97" transform="translate(0.577 218.38)">
			<path id="路径_123" class="st0" d="M-239.27,0c0,0-73.18,9.43-79.14,10.18c-13.55,1.72-19.72,4.01-18.99,7.97l0,0
				c0.73,3.95,7.3,3.83,20.58,0.65C-310.49,17.27-239.27,0-239.27,0z"/>
		</g>
		<g id="组_98" transform="translate(0 163.9)">
			<path id="路径_124" class="st0" d="M-239,19.64c0,0-71.99-16.17-77.85-17.5c-13.32-3.02-19.9-2.98-20.57,0.99l0,0
				c-0.67,3.96,5.55,6.1,19.12,7.65C-311.82,11.52-239,19.64-239,19.64z"/>
		</g>
		<g id="组_99" transform="translate(22.851 99.898)">
			<path id="路径_125" class="st0" d="M-250.21,50.8c0,0-62.12-39.81-67.17-43.07c-11.48-7.39-17.69-9.6-19.67-6.11l0,0
				c-1.98,3.5,3.13,7.63,15.35,13.73C-315.87,18.26-250.21,50.8-250.21,50.8z"/>
		</g>
		<g id="组_100" transform="translate(66.394 47.154)">
			<path id="路径_126" class="st0" d="M-271.59,76.66c0,0-44.75-58.66-48.39-63.45c-8.26-10.88-13.34-15.07-16.39-12.46l0,0
				c-3.06,2.61,0.33,8.24,9.73,18.15C-322.16,23.63-271.59,76.66-271.59,76.66z"/>
		</g>
		<g id="组_101" transform="translate(125.218 12.438)">
			<path id="路径_127" class="st0" d="M-300.39,93.7c0,0-21.99-70.43-23.77-76.17c-4.04-13.05-7.38-18.73-11.14-17.32l0,0
				c-3.77,1.41-2.5,7.86,2.94,20.38C-329.77,26.57-300.39,93.7-300.39,93.7z"/>
		</g>
		<g id="组_102" transform="translate(191.243)">
			<path id="路径_128" class="st0" d="M-332.16,99.79c0,0,3.42-73.7,3.71-79.71c0.66-13.64-0.53-20.12-4.55-20.09l0,0
				c-4.02,0.03-5.04,6.53-4.21,20.16C-336.8,26.66-332.16,99.79-332.16,99.79z"/>
		</g>
	</g>
</g>
<g id="组_137" transform="translate(1612.348 349.138)">
	<path id="路径_129" class="st1" d="M-371.04-81.69c3.02-2.64,6.04-5.28,9.07-7.92c7.91-6.9,15.8-13.81,23.69-20.74
		c2.3-2.03,4.61-4.05,6.9-6.1c5.42-4.8,10.83-9.62,16.24-14.44c1.98-1.76,4.41-4.1,4.75-6.4c0.32-2.17-1.43-2.94-3.76-1.75
		c-4.21,2.15-7.5,6.04-10.96,9.47c-4.13,4.1-8.23,8.23-12.3,12.4c-5.55,5.69-11.04,11.44-16.45,17.24
		c-2.87,3.07-5.72,6.15-8.61,9.21C-365.33-87.7-368.24-84.75-371.04-81.69z"/>
	<path id="路径_130" class="st1" d="M-339.67-75.78c-4.02,1.23-8.03,2.47-12.06,3.67c-3.98,1.19-7.97,2.29-11.93,3.53
		c3.94-0.78,7.88-1.55,11.82-2.33c10.3-2.02,20.59-4.06,30.88-6.12c3.01-0.61,6.02-1.21,9.03-1.83c7.1-1.45,14.19-2.91,21.29-4.39
		c2.59-0.53,5.87-1.34,7.31-3.16c1.36-1.72,0.23-3.26-2.38-3.39c-4.72-0.24-9.52,1.48-14.23,2.72c-5.63,1.48-11.25,3.01-16.85,4.59
		C-324.45-80.33-332.08-78.1-339.67-75.78z"/>
	<path id="路径_131" class="st1" d="M-285.71-32.94c-3.96-2.57-8.98-3.47-13.69-4.76c-5.62-1.53-11.25-3.02-16.89-4.46
		c-7.71-1.96-15.43-3.84-23.16-5.63c-4.09-0.95-8.19-1.88-12.28-2.85c-4.04-0.96-8.05-2-12.1-2.9c3.8,1.29,7.6,2.59,11.4,3.89
		c9.93,3.4,19.86,6.78,29.8,10.14c2.91,0.98,5.81,1.97,8.73,2.92c6.87,2.29,13.75,4.57,20.63,6.85c2.51,0.84,5.76,1.77,7.91,0.91
		C-283.31-29.62-283.52-31.51-285.71-32.94z"/>
	<path id="路径_132" class="st1" d="M-323.61,5.35c-4.1-4.13-8.23-8.23-12.4-12.3c-5.69-5.56-11.44-11.04-17.24-16.46
		c-3.07-2.87-6.15-5.72-9.21-8.61c-3.02-2.85-5.97-5.76-9.02-8.56c2.64,3.02,5.28,6.04,7.92,9.07c6.9,7.91,13.81,15.8,20.74,23.68
		c2.03,2.3,4.06,4.61,6.1,6.9c4.81,5.42,9.62,10.83,14.44,16.24c1.76,1.98,4.1,4.41,6.4,4.75c2.17,0.32,2.94-1.43,1.75-3.76
		C-316.29,12.11-320.18,8.82-323.61,5.35z"/>
	<path id="路径_133" class="st1" d="M-363.38,44.75c0.24-4.72-1.48-9.52-2.72-14.23c-1.48-5.63-3.01-11.25-4.59-16.85
		c-2.15-7.66-4.39-15.28-6.71-22.87c-1.23-4.02-2.47-8.03-3.67-12.06c-1.19-3.98-2.29-7.97-3.54-11.93
		c0.78,3.94,1.55,7.88,2.33,11.82c2.02,10.3,4.06,20.59,6.12,30.88c0.61,3.01,1.21,6.02,1.83,9.03c1.45,7.1,2.93,14.19,4.39,21.29
		c0.53,2.6,1.34,5.87,3.16,7.31C-365.06,48.49-363.52,47.35-363.38,44.75z"/>
	<path id="路径_134" class="st1" d="M-413.69,7.84c-0.98,2.91-1.96,5.82-2.93,8.73c-2.29,6.87-4.57,13.75-6.85,20.63
		c-0.84,2.52-1.77,5.76-0.91,7.91c0.81,2.04,2.71,1.83,4.13-0.36c2.57-3.96,3.47-8.98,4.76-13.69c1.53-5.62,3.02-11.25,4.45-16.89
		c1.96-7.71,3.84-15.42,5.63-23.16c0.95-4.09,1.88-8.19,2.85-12.28c0.96-4.04,2-8.05,2.9-12.09c-1.29,3.8-2.59,7.6-3.89,11.4
		C-406.95-12.04-410.33-2.1-413.69,7.84z"/>
	<path id="路径_135" class="st1" d="M-412.61-41.03c-3.02,2.64-6.04,5.28-9.07,7.92c-7.91,6.9-15.8,13.81-23.69,20.74
		c-2.3,2.03-4.61,4.06-6.9,6.1c-5.42,4.81-10.83,9.62-16.24,14.44c-1.98,1.76-4.41,4.1-4.75,6.4c-0.32,2.17,1.43,2.94,3.76,1.75
		c4.21-2.15,7.5-6.04,10.96-9.47c4.13-4.1,8.23-8.24,12.3-12.4c5.56-5.69,11.04-11.44,16.45-17.24c2.87-3.07,5.72-6.15,8.61-9.21
		C-418.32-35.02-415.41-37.97-412.61-41.03z"/>
	<path id="路径_136" class="st1" d="M-443.97-46.94c4.02-1.23,8.03-2.46,12.06-3.67c3.98-1.19,7.97-2.29,11.93-3.54
		c-3.94,0.78-7.88,1.55-11.82,2.33c-10.3,2.02-20.59,4.04-30.88,6.12c-3.01,0.61-6.02,1.21-9.03,1.83
		c-7.1,1.45-14.19,2.93-21.29,4.38c-2.6,0.53-5.87,1.34-7.31,3.17c-1.36,1.72-0.23,3.26,2.38,3.39c4.72,0.24,9.52-1.48,14.23-2.72
		c5.63-1.48,11.25-3.01,16.86-4.59C-459.19-42.38-451.56-44.62-443.97-46.94z"/>
	<path id="路径_137" class="st1" d="M-484.25-85.03c5.62,1.53,11.25,3.02,16.89,4.46c7.71,1.96,15.42,3.84,23.16,5.63
		c4.09,0.95,8.19,1.88,12.28,2.85c4.04,0.96,8.05,2,12.09,2.9c-3.8-1.29-7.6-2.59-11.4-3.89c-9.93-3.4-19.86-6.78-29.8-10.14
		c-2.91-0.98-5.82-1.96-8.73-2.92c-6.87-2.29-13.75-4.57-20.63-6.85c-2.52-0.84-5.76-1.77-7.92-0.91c-2.04,0.81-1.83,2.71,0.36,4.13
		C-493.97-87.22-488.95-86.31-484.25-85.03z"/>
	<path id="路径_138" class="st1" d="M-460.03-128.07c4.1,4.14,8.23,8.24,12.4,12.3c5.69,5.55,11.44,11.04,17.24,16.45
		c3.07,2.87,6.15,5.72,9.21,8.61c3.02,2.85,5.96,5.76,9.02,8.56c-2.64-3.02-5.28-6.04-7.92-9.07c-6.9-7.91-13.81-15.8-20.74-23.69
		c-2.03-2.3-4.06-4.61-6.1-6.9c-4.81-5.42-9.62-10.83-14.44-16.24c-1.76-1.98-4.1-4.41-6.4-4.75c-2.17-0.32-2.94,1.43-1.75,3.75
		C-467.36-134.83-463.46-131.53-460.03-128.07z"/>
	<path id="路径_139" class="st1" d="M-420.26-167.47c-0.24,4.72,1.48,9.52,2.73,14.23c1.48,5.63,3.01,11.25,4.59,16.85
		c2.15,7.66,4.38,15.28,6.7,22.87c1.23,4.02,2.47,8.03,3.67,12.06c1.19,3.98,2.29,7.97,3.54,11.92c-0.78-3.94-1.55-7.88-2.33-11.81
		c-2.02-10.3-4.04-20.59-6.12-30.88c-0.61-3.01-1.21-6.02-1.83-9.03c-1.45-7.1-2.91-14.19-4.39-21.28c-0.53-2.6-1.34-5.87-3.16-7.31
		C-418.59-171.2-420.13-170.07-420.26-167.47z"/>
	<path id="路径_140" class="st1" d="M-369.95-130.56c0.98-2.91,1.96-5.82,2.92-8.73c2.29-6.87,4.57-13.75,6.85-20.63
		c0.84-2.51,1.77-5.76,0.92-7.91c-0.81-2.04-2.71-1.83-4.13,0.36c-2.57,3.96-3.47,8.98-4.76,13.69c-1.53,5.62-3.02,11.25-4.45,16.89
		c-1.96,7.71-3.84,15.43-5.63,23.16c-0.95,4.09-1.88,8.19-2.85,12.28c-0.96,4.04-2,8.05-2.9,12.1c1.29-3.8,2.59-7.6,3.89-11.4
		C-376.7-110.68-373.32-120.62-369.95-130.56z"/>
	<path id="路径_141" class="st1" d="M-421.87-177.57c4.48,0.24,4.85-6.73,0.37-6.96S-426.35-177.81-421.87-177.57z"/>
	<path id="路径_142" class="st1" d="M-477.31-148.69c4.48,0.23,4.85-6.73,0.37-6.96S-481.8-148.92-477.31-148.69z"/>
	<path id="路径_143" class="st1" d="M-510.57-99.23c-4.48-0.24-4.85,6.73-0.37,6.96C-506.45-92.03-506.08-99-510.57-99.23z"/>
	<path id="路径_144" class="st1" d="M-509.3-35.16c-4.48-0.24-4.86,6.73-0.37,6.96C-505.18-27.96-504.81-34.92-509.3-35.16z"/>
	<path id="路径_145" class="st1" d="M-481.58,20.23c-4.48-0.24-4.85,6.73-0.37,6.96S-477.09,20.47-481.58,20.23z"/>
	<path id="路径_146" class="st1" d="M-425.57,54.22c-4.48-0.24-4.86,6.73-0.37,6.96S-421.08,54.46-425.57,54.22z"/>
	<path id="路径_147" class="st1" d="M-361.94,54.09c-4.48-0.24-4.85,6.73-0.37,6.96S-357.45,54.33-361.94,54.09z"/>
	<path id="路径_148" class="st1" d="M-307.51,22.43c-4.48-0.24-4.85,6.73-0.37,6.96S-303.02,22.67-307.51,22.43z"/>
	<path id="路径_149" class="st1" d="M-274.82-30.93c-4.48-0.24-4.85,6.73-0.37,6.96S-270.33-30.69-274.82-30.93z"/>
	<path id="路径_150" class="st1" d="M-272.29-86.27c4.48,0.24,4.85-6.73,0.37-6.96S-276.78-86.5-272.29-86.27z"/>
	<path id="路径_151" class="st1" d="M-303.39-143.77c4.48,0.24,4.85-6.73,0.37-6.96S-307.88-144.01-303.39-143.77z"/>
	<path id="路径_152" class="st1" d="M-357.93-176.13c4.48,0.24,4.85-6.73,0.37-6.96S-362.42-176.37-357.93-176.13z"/>
	<path id="路径_153" class="st1" d="M-355.91-119.26c-0.91-0.59-8.6,9.63-17.18,22.83s-14.8,24.38-13.89,24.97
		s8.6-9.63,17.18-22.83S-355-118.67-355.91-119.26z"/>
	
		<ellipse id="椭圆_4" transform="matrix(0.891 -0.454 0.454 0.891 -2.5915 -170.8722)" class="st1" cx="-357.15" cy="-80.04" rx="28.5" ry="1.97"/>
	<path id="路径_154" class="st1" d="M-323.97-58.1c0.06-1.08-12.64-2.64-28.36-3.47s-28.51-0.62-28.57,0.46s12.64,2.64,28.36,3.47
		S-324.03-57.02-323.97-58.1z"/>
	<path id="路径_155" class="st1" d="M-359.64-37.91c13.2,8.58,24.38,14.8,24.97,13.89s-9.63-8.6-22.83-17.18
		s-24.38-14.8-24.97-13.89S-372.84-46.49-359.64-37.91z"/>
	<path id="路径_156" class="st1" d="M-360.97,0.14c0.97-0.49-4.04-12.27-11.18-26.29s-13.72-25-14.68-24.51
		s4.04,12.27,11.18,26.29S-361.93,0.64-360.97,0.14z"/>
	
		<ellipse id="椭圆_5" transform="matrix(0.053 -0.9986 0.9986 0.053 -352.9001 -413.2285)" class="st1" cx="-394.32" cy="-20.55" rx="28.52" ry="1.97"/>
	<path id="路径_157" class="st1" d="M-416.02-27.75c-8.58,13.2-14.8,24.38-13.89,24.97s8.6-9.63,17.18-22.83
		s14.8-24.38,13.89-24.97S-407.44-40.94-416.02-27.75z"/>
	<path id="路径_158" class="st1" d="M-454.07-29.08c0.49,0.97,12.27-4.04,26.29-11.18s25-13.72,24.51-14.68
		s-12.27,4.04-26.3,11.18S-454.57-30.05-454.07-29.08z"/>
	
		<ellipse id="椭圆_6" transform="matrix(0.053 -0.9986 0.9986 0.053 -348.073 -491.8825)" class="st1" cx="-433.37" cy="-62.43" rx="1.97" ry="28.52"/>
	<path id="路径_159" class="st1" d="M-403.35-66.95c0.59-0.91-9.63-8.6-22.83-17.18s-24.38-14.8-24.97-13.89s9.63,8.6,22.83,17.18
		S-403.94-66.04-403.35-66.95z"/>
	<path id="路径_160" class="st1" d="M-398.99-71.37c0.97-0.49-4.04-12.27-11.18-26.29s-13.72-25-14.68-24.51
		s4.04,12.27,11.18,26.29S-399.96-70.88-398.99-71.37z"/>
	<path id="路径_161" class="st1" d="M-393-73.03c1.08,0.06,2.64-12.64,3.46-28.36s0.62-28.51-0.46-28.57s-2.64,12.64-3.46,28.36
		S-394.08-73.08-393-73.03z"/>
</g>
<g id="组_138" transform="translate(1486.106 253.686)">
	<path id="路径_162" class="st2" d="M-247-101.38c2.16-1.89,4.33-3.79,6.5-5.67c5.66-4.94,11.32-9.9,16.97-14.86
		c1.65-1.46,3.3-2.91,4.94-4.37c3.88-3.44,7.76-6.89,11.64-10.34c1.42-1.26,3.16-2.94,3.4-4.58c0.23-1.55-1.03-2.1-2.69-1.25
		c-3.01,1.54-5.37,4.33-7.85,6.79c-2.96,2.94-5.9,5.9-8.81,8.88c-3.98,4.08-7.91,8.19-11.79,12.35c-2.05,2.2-4.1,4.41-6.17,6.6
		C-242.91-105.68-245-103.57-247-101.38z"/>
	<path id="路径_163" class="st2" d="M-224.53-97.14c-2.88,0.88-5.76,1.77-8.64,2.63c-2.85,0.85-5.71,1.64-8.54,2.53
		c2.82-0.56,5.64-1.11,8.46-1.67c7.38-1.45,14.75-2.9,22.12-4.38c2.16-0.44,4.31-0.86,6.46-1.31c5.09-1.04,10.17-2.09,15.25-3.14
		c1.86-0.38,4.21-0.96,5.24-2.27c0.97-1.23,0.16-2.34-1.7-2.43c-3.38-0.18-6.82,1.06-10.2,1.95c-4.04,1.06-8.06,2.16-12.07,3.28
		C-213.63-100.41-219.09-98.81-224.53-97.14z"/>
	<path id="路径_164" class="st2" d="M-185.88-66.45c-2.84-1.84-6.43-2.49-9.8-3.41c-4.03-1.1-8.06-2.16-12.1-3.19
		c-5.52-1.41-11.05-2.75-16.59-4.03c-2.93-0.68-5.87-1.35-8.8-2.04c-2.89-0.69-5.77-1.44-8.67-2.08c2.72,0.93,5.44,1.86,8.16,2.79
		c7.11,2.43,14.23,4.85,21.35,7.26c2.08,0.7,4.17,1.41,6.26,2.1c4.92,1.64,9.85,3.27,14.78,4.9c1.8,0.6,4.13,1.27,5.67,0.66
		C-184.16-64.07-184.31-65.43-185.88-66.45z"/>
	<path id="路径_165" class="st2" d="M-213.03-39.02c-2.94-2.96-5.9-5.9-8.88-8.82c-4.08-3.98-8.19-7.91-12.35-11.79
		c-2.2-2.05-4.41-4.1-6.6-6.17c-2.16-2.04-4.27-4.13-6.46-6.13c1.89,2.16,3.79,4.33,5.68,6.5c4.94,5.66,9.9,11.32,14.86,16.97
		c1.45,1.65,2.9,3.3,4.37,4.94c3.44,3.88,6.89,7.76,10.34,11.64c1.26,1.42,2.94,3.16,4.58,3.4c1.56,0.23,2.1-1.03,1.25-2.69
		C-207.78-34.18-210.57-36.54-213.03-39.02z"/>
	<path id="路径_166" class="st2" d="M-241.52-10.8c0.18-3.38-1.06-6.82-1.95-10.19c-1.06-4.04-2.16-8.06-3.29-12.07
		c-1.54-5.49-3.14-10.95-4.8-16.39c-0.88-2.88-1.77-5.76-2.63-8.64c-0.85-2.85-1.64-5.71-2.53-8.54c0.56,2.82,1.11,5.64,1.67,8.46
		c1.45,7.38,2.9,14.75,4.39,22.12c0.44,2.16,0.86,4.31,1.31,6.47c1.04,5.08,2.1,10.16,3.14,15.25c0.38,1.86,0.96,4.21,2.27,5.24
		C-242.72-8.12-241.62-8.93-241.52-10.8z"/>
	<path id="路径_167" class="st2" d="M-277.56-37.24c-0.7,2.08-1.41,4.17-2.09,6.26c-1.64,4.92-3.28,9.85-4.9,14.78
		c-0.6,1.8-1.27,4.13-0.66,5.67c0.58,1.46,1.94,1.31,2.96-0.26c1.84-2.84,2.49-6.43,3.41-9.8c1.1-4.03,2.16-8.06,3.19-12.1
		c1.41-5.52,2.75-11.05,4.03-16.59c0.68-2.93,1.35-5.87,2.04-8.8c0.69-2.89,1.44-5.77,2.08-8.66c-0.93,2.72-1.86,5.44-2.79,8.16
		C-272.73-51.48-275.15-44.36-277.56-37.24z"/>
	<path id="路径_168" class="st2" d="M-276.78-72.25c-2.16,1.89-4.33,3.79-6.5,5.68c-5.67,4.94-11.32,9.9-16.97,14.86
		c-1.65,1.46-3.3,2.91-4.94,4.37c-3.88,3.44-7.76,6.89-11.64,10.34c-1.42,1.26-3.16,2.94-3.4,4.58c-0.23,1.55,1.03,2.1,2.69,1.25
		c3.02-1.54,5.37-4.33,7.85-6.79c2.96-2.94,5.9-5.9,8.81-8.88c3.98-4.08,7.91-8.19,11.79-12.35c2.05-2.2,4.1-4.41,6.17-6.6
		C-280.88-67.95-278.79-70.06-276.78-72.25z"/>
	<path id="路径_169" class="st2" d="M-299.25-76.48c2.88-0.88,5.76-1.77,8.64-2.63c2.85-0.85,5.71-1.64,8.54-2.53
		c-2.82,0.56-5.64,1.11-8.46,1.67c-7.38,1.45-14.75,2.9-22.12,4.38c-2.16,0.44-4.31,0.86-6.47,1.31
		c-5.08,1.04-10.17,2.09-15.25,3.14c-1.86,0.38-4.21,0.96-5.24,2.27c-0.97,1.23-0.16,2.34,1.7,2.43c3.38,0.18,6.82-1.06,10.19-1.95
		c4.04-1.06,8.06-2.16,12.08-3.29C-310.15-73.22-304.69-74.82-299.25-76.48z"/>
	<path id="路径_170" class="st2" d="M-328.11-103.77c4.03,1.1,8.06,2.16,12.1,3.19c5.52,1.41,11.05,2.75,16.59,4.03
		c2.93,0.68,5.87,1.35,8.8,2.04c2.9,0.69,5.77,1.44,8.67,2.08c-2.72-0.93-5.44-1.86-8.16-2.79c-7.11-2.43-14.23-4.86-21.35-7.27
		c-2.08-0.7-4.17-1.41-6.26-2.1c-4.92-1.64-9.85-3.27-14.78-4.9c-1.8-0.6-4.13-1.27-5.67-0.66c-1.46,0.58-1.31,1.94,0.26,2.96
		C-335.08-105.34-331.48-104.69-328.11-103.77z"/>
	<path id="路径_171" class="st2" d="M-310.76-134.61c2.94,2.96,5.9,5.9,8.88,8.82c4.08,3.98,8.19,7.91,12.35,11.79
		c2.2,2.05,4.41,4.1,6.6,6.17c2.16,2.04,4.27,4.12,6.46,6.13c-1.89-2.16-3.78-4.33-5.68-6.5c-4.94-5.66-9.9-11.32-14.86-16.97
		c-1.45-1.65-2.91-3.3-4.37-4.94c-3.44-3.88-6.89-7.76-10.34-11.64c-1.26-1.42-2.94-3.16-4.58-3.4c-1.56-0.23-2.1,1.03-1.26,2.69
		C-316.01-139.44-313.22-137.09-310.76-134.61z"/>
	<path id="路径_172" class="st2" d="M-282.27-162.83c-0.18,3.38,1.06,6.82,1.95,10.19c1.07,4.04,2.16,8.06,3.29,12.08
		c1.54,5.48,3.14,10.95,4.8,16.39c0.88,2.88,1.77,5.75,2.63,8.64c0.85,2.85,1.64,5.71,2.53,8.54c-0.56-2.82-1.11-5.64-1.67-8.47
		c-1.45-7.38-2.9-14.75-4.38-22.12c-0.43-2.16-0.86-4.31-1.31-6.47c-1.04-5.08-2.09-10.17-3.14-15.25
		c-0.38-1.86-0.96-4.21-2.27-5.24C-281.07-165.5-282.17-164.69-282.27-162.83z"/>
	<path id="路径_173" class="st2" d="M-246.23-136.39c0.7-2.09,1.41-4.17,2.09-6.26c1.64-4.92,3.28-9.85,4.9-14.78
		c0.6-1.8,1.27-4.13,0.66-5.67c-0.58-1.46-1.94-1.31-2.96,0.26c-1.84,2.84-2.49,6.43-3.41,9.8c-1.1,4.03-2.16,8.06-3.19,12.1
		c-1.41,5.52-2.75,11.05-4.03,16.59c-0.68,2.93-1.35,5.87-2.04,8.8c-0.69,2.9-1.44,5.77-2.08,8.66c0.93-2.72,1.86-5.44,2.79-8.16
		C-251.06-122.15-248.64-129.26-246.23-136.39z"/>
	<path id="路径_174" class="st2" d="M-283.42-170.06c3.21,0.17,3.48-4.82,0.26-4.99S-286.63-170.23-283.42-170.06z"/>
	<path id="路径_175" class="st2" d="M-323.14-149.37c3.21,0.17,3.48-4.82,0.26-4.99S-326.35-149.55-323.14-149.37z"/>
	<path id="路径_176" class="st2" d="M-346.96-113.95c-3.21-0.17-3.48,4.82-0.26,4.99S-343.75-113.78-346.96-113.95z"/>
	<path id="路径_177" class="st2" d="M-346.05-68.04c-3.21-0.17-3.48,4.82-0.26,4.99S-342.84-67.87-346.05-68.04z"/>
	<path id="路径_178" class="st2" d="M-326.19-28.36c-3.21-0.17-3.48,4.82-0.26,4.99S-322.98-28.19-326.19-28.36z"/>
	<path id="路径_179" class="st2" d="M-286.07-4.01c-3.21-0.17-3.48,4.82-0.26,4.99S-282.85-3.84-286.07-4.01z"/>
	<path id="路径_180" class="st2" d="M-240.48-4.11c-3.21-0.17-3.48,4.82-0.26,4.99S-237.27-3.94-240.48-4.11z"/>
	<path id="路径_181" class="st2" d="M-201.49-26.78c-3.21-0.17-3.48,4.82-0.26,4.99S-198.28-26.61-201.49-26.78z"/>
	<path id="路径_182" class="st2" d="M-178.07-65.01c-3.21-0.17-3.48,4.82-0.26,4.99S-174.86-64.84-178.07-65.01z"/>
	<path id="路径_183" class="st2" d="M-176.26-104.66c3.21,0.17,3.48-4.82,0.26-4.99S-179.47-104.83-176.26-104.66z"/>
	<path id="路径_184" class="st2" d="M-198.54-145.85c3.21,0.17,3.48-4.82,0.26-4.99S-201.76-146.02-198.54-145.85z"/>
	<path id="路径_185" class="st2" d="M-237.61-169.04c3.21,0.17,3.48-4.82,0.26-4.99S-240.83-169.21-237.61-169.04z"/>
	<path id="路径_186" class="st2" d="M-236.17-128.29c-0.65-0.42-6.16,6.9-12.31,16.35s-10.6,17.47-9.95,17.89
		s6.16-6.9,12.31-16.35S-235.52-127.87-236.17-128.29z"/>
	
		<ellipse id="椭圆_7" transform="matrix(0.891 -0.454 0.454 0.891 19.6492 -118.5456)" class="st2" cx="-237.06" cy="-100.19" rx="20.42" ry="1.41"/>
	<path id="路径_187" class="st2" d="M-213.28-84.48c0.04-0.78-9.06-1.89-20.32-2.48s-20.43-0.45-20.47,0.33s9.06,1.89,20.32,2.48
		S-213.33-83.7-213.28-84.48z"/>
	<path id="路径_188" class="st2" d="M-238.84-70.01c9.46,6.15,17.47,10.6,17.89,9.95s-6.9-6.16-16.35-12.31
		s-17.47-10.6-17.89-9.95S-248.29-76.16-238.84-70.01z"/>
	<path id="路径_189" class="st2" d="M-239.79-42.75c0.69-0.35-2.89-8.79-8.01-18.84s-9.82-17.91-10.52-17.56s2.89,8.79,8.01,18.84
		S-240.48-42.4-239.79-42.75z"/>
	
		<ellipse id="椭圆_8" transform="matrix(0.053 -0.9986 0.9986 0.053 -192.2121 -317.8399)" class="st2" cx="-263.68" cy="-57.58" rx="20.43" ry="1.41"/>
	<path id="路径_190" class="st2" d="M-279.23-62.73c-6.15,9.46-10.6,17.47-9.95,17.89s6.16-6.9,12.31-16.35s10.6-17.47,9.95-17.89
		S-273.08-72.19-279.23-62.73z"/>
	<path id="路径_191" class="st2" d="M-306.49-63.68c0.35,0.69,8.79-2.89,18.84-8.01s17.91-9.83,17.56-10.52s-8.79,2.89-18.84,8.01
		S-306.84-64.38-306.49-63.68z"/>
	
		<ellipse id="椭圆_9" transform="matrix(0.053 -0.9986 0.9986 0.053 -188.7542 -374.1865)" class="st2" cx="-291.66" cy="-87.58" rx="1.41" ry="20.43"/>
	<path id="路径_192" class="st2" d="M-270.15-90.82c0.43-0.65-6.9-6.16-16.35-12.31s-17.47-10.6-17.89-9.95s6.9,6.16,16.35,12.31
		S-270.58-90.16-270.15-90.82z"/>
	<path id="路径_193" class="st2" d="M-267.03-93.98c0.69-0.35-2.89-8.79-8.01-18.84s-9.82-17.91-10.52-17.56s2.89,8.79,8.01,18.84
		S-267.72-93.63-267.03-93.98z"/>
	<path id="路径_194" class="st2" d="M-262.73-95.17c0.78,0.04,1.89-9.06,2.48-20.32s0.45-20.42-0.33-20.47s-1.89,9.06-2.48,20.32
		S-263.51-95.21-262.73-95.17z"/>
</g>
<g id="组_139" transform="translate(122.259 368.589)">
	<path id="路径_195" class="st2" d="M276.01-103.57c2.37-2.08,4.74-4.15,7.12-6.22c6.21-5.42,12.4-10.84,18.59-16.28
		c1.81-1.59,3.62-3.18,5.42-4.79c4.25-3.77,8.5-7.55,12.75-11.34c1.55-1.38,3.46-3.22,3.73-5.02c0.25-1.7-1.12-2.3-2.95-1.37
		c-3.3,1.68-5.89,4.74-8.6,7.44c-3.25,3.22-6.47,6.46-9.66,9.73c-4.36,4.47-8.67,8.98-12.92,13.53c-2.25,2.41-4.49,4.83-6.76,7.23
		C280.5-108.28,278.21-105.97,276.01-103.57z"/>
	<path id="路径_196" class="st2" d="M300.63-98.93c-3.15,0.96-6.3,1.94-9.47,2.88c-3.12,0.93-6.26,1.8-9.36,2.78
		c3.09-0.61,6.18-1.22,9.27-1.83c8.08-1.59,16.17-3.17,24.24-4.8c2.36-0.48,4.73-0.95,7.08-1.44c5.57-1.14,11.14-2.29,16.71-3.44
		c2.04-0.42,4.61-1.05,5.74-2.48c1.07-1.35,0.18-2.56-1.86-2.66c-3.7-0.19-7.47,1.16-11.17,2.14c-4.42,1.16-8.83,2.36-13.23,3.6
		C312.58-102.51,306.59-100.75,300.63-98.93z"/>
	<path id="路径_197" class="st2" d="M342.99-65.3c-3.11-2.02-7.05-2.73-10.74-3.73c-4.41-1.2-8.83-2.37-13.26-3.5
		c-6.05-1.54-12.11-3.02-18.18-4.42c-3.21-0.74-6.43-1.48-9.64-2.24c-3.17-0.75-6.32-1.57-9.49-2.28c2.98,1.02,5.97,2.03,8.95,3.05
		c7.79,2.67,15.59,5.32,23.4,7.96c2.28,0.77,4.57,1.54,6.85,2.3c5.39,1.8,10.79,3.59,16.19,5.37c1.97,0.66,4.52,1.39,6.21,0.72
		C344.87-62.69,344.71-64.18,342.99-65.3z"/>
	<path id="路径_198" class="st2" d="M313.24-35.25c-3.22-3.25-6.46-6.47-9.73-9.66c-4.47-4.36-8.98-8.67-13.54-12.92
		c-2.41-2.25-4.83-4.49-7.23-6.76c-2.37-2.24-4.68-4.52-7.08-6.72c2.08,2.37,4.15,4.74,6.22,7.12c5.42,6.21,10.84,12.4,16.28,18.59
		c1.59,1.81,3.18,3.62,4.79,5.41c3.77,4.25,7.55,8.5,11.33,12.75c1.38,1.55,3.22,3.47,5.02,3.73c1.7,0.25,2.3-1.12,1.38-2.95
		C318.99-29.94,315.93-32.53,313.24-35.25z"/>
	<path id="路径_199" class="st2" d="M282.02-4.32c0.19-3.7-1.16-7.47-2.14-11.17c-1.16-4.42-2.36-8.83-3.6-13.23
		c-1.69-6.01-3.44-11.99-5.26-17.95c-0.96-3.16-1.93-6.3-2.88-9.47c-0.93-3.12-1.8-6.26-2.77-9.36c0.61,3.09,1.22,6.18,1.83,9.27
		c1.59,8.08,3.17,16.17,4.8,24.24c0.48,2.36,0.95,4.72,1.44,7.08c1.14,5.57,2.3,11.14,3.44,16.71c0.42,2.04,1.06,4.61,2.48,5.74
		C280.71-1.38,281.91-2.27,282.02-4.32z"/>
	<path id="路径_200" class="st2" d="M242.53-33.29c-0.77,2.28-1.54,4.57-2.3,6.85c-1.8,5.39-3.59,10.79-5.37,16.19
		c-0.66,1.97-1.39,4.52-0.72,6.21c0.64,1.6,2.13,1.43,3.24-0.28c2.02-3.11,2.73-7.05,3.73-10.74c1.2-4.41,2.37-8.83,3.5-13.26
		c1.54-6.05,3.02-12.11,4.42-18.18c0.74-3.21,1.48-6.43,2.24-9.64c0.75-3.17,1.57-6.32,2.28-9.49c-1.02,2.98-2.03,5.96-3.05,8.95
		C247.82-48.89,245.17-41.09,242.53-33.29z"/>
	<path id="路径_201" class="st2" d="M243.38-71.65c-2.37,2.07-4.75,4.15-7.12,6.22c-6.2,5.42-12.4,10.84-18.59,16.28
		c-1.81,1.59-3.62,3.18-5.42,4.79c-4.26,3.77-8.51,7.55-12.75,11.34c-1.55,1.38-3.46,3.22-3.73,5.02c-0.25,1.7,1.12,2.3,2.95,1.37
		c3.3-1.68,5.89-4.74,8.61-7.44c3.25-3.22,6.47-6.46,9.66-9.73c4.36-4.47,8.67-8.98,12.92-13.53c2.25-2.41,4.49-4.83,6.76-7.23
		C238.89-66.94,241.18-69.25,243.38-71.65z"/>
	<path id="路径_202" class="st2" d="M218.76-76.29c3.15-0.96,6.31-1.93,9.47-2.88c3.12-0.93,6.26-1.8,9.36-2.78
		c-3.09,0.61-6.18,1.22-9.27,1.83c-8.08,1.59-16.17,3.17-24.24,4.8c-2.36,0.48-4.73,0.95-7.08,1.44c-5.57,1.14-11.14,2.3-16.71,3.44
		c-2.04,0.42-4.61,1.05-5.74,2.48c-1.07,1.35-0.18,2.56,1.86,2.66c3.7,0.19,7.47-1.16,11.17-2.14c4.42-1.16,8.83-2.36,13.23-3.6
		C206.81-72.72,212.8-74.47,218.76-76.29z"/>
	<path id="路径_203" class="st2" d="M187.14-106.19c4.41,1.2,8.83,2.37,13.26,3.5c6.05,1.54,12.11,3.01,18.18,4.42
		c3.21,0.74,6.43,1.48,9.64,2.24c3.17,0.75,6.32,1.57,9.5,2.28c-2.98-1.02-5.96-2.03-8.95-3.05c-7.79-2.67-15.59-5.32-23.4-7.96
		c-2.28-0.77-4.57-1.54-6.86-2.3c-5.39-1.8-10.79-3.59-16.19-5.37c-1.97-0.66-4.52-1.39-6.21-0.72c-1.6,0.64-1.43,2.12,0.28,3.24
		C179.51-107.91,183.45-107.2,187.14-106.19z"/>
	<path id="路径_204" class="st2" d="M206.15-139.98c3.22,3.25,6.46,6.47,9.73,9.66c4.47,4.36,8.98,8.67,13.53,12.92
		c2.41,2.25,4.83,4.49,7.23,6.76c2.37,2.24,4.68,4.52,7.08,6.72c-2.08-2.37-4.15-4.74-6.22-7.12c-5.42-6.21-10.84-12.4-16.28-18.59
		c-1.59-1.81-3.18-3.62-4.79-5.41c-3.77-4.25-7.55-8.5-11.34-12.75c-1.38-1.55-3.22-3.47-5.02-3.73c-1.7-0.25-2.3,1.12-1.37,2.95
		C200.4-145.28,203.45-142.7,206.15-139.98z"/>
	<path id="路径_205" class="st2" d="M237.37-170.9c-0.19,3.7,1.16,7.47,2.14,11.17c1.17,4.42,2.37,8.83,3.6,13.23
		c1.69,6.01,3.44,11.99,5.26,17.95c0.96,3.16,1.93,6.3,2.88,9.47c0.93,3.12,1.8,6.26,2.78,9.36c-0.61-3.09-1.22-6.18-1.83-9.27
		c-1.59-8.08-3.17-16.17-4.8-24.24c-0.48-2.36-0.95-4.73-1.44-7.08c-1.14-5.57-2.3-11.14-3.44-16.71c-0.42-2.04-1.06-4.61-2.48-5.74
		C238.68-173.84,237.48-172.95,237.37-170.9z"/>
	<path id="路径_206" class="st2" d="M276.86-141.93c0.77-2.28,1.54-4.57,2.29-6.85c1.8-5.39,3.59-10.79,5.37-16.19
		c0.66-1.97,1.39-4.52,0.72-6.21c-0.64-1.6-2.13-1.43-3.24,0.28c-2.02,3.11-2.73,7.05-3.73,10.74c-1.2,4.41-2.37,8.83-3.5,13.26
		c-1.54,6.05-3.02,12.11-4.42,18.18c-0.74,3.21-1.48,6.43-2.24,9.64c-0.75,3.17-1.57,6.32-2.28,9.49c1.02-2.98,2.04-5.96,3.05-8.95
		C271.56-126.33,274.22-134.13,276.86-141.93z"/>
	<path id="路径_207" class="st2" d="M236.11-178.83c3.52,0.19,3.81-5.28,0.29-5.47S232.59-179.02,236.11-178.83z"/>
	<path id="路径_208" class="st2" d="M192.59-156.16c3.52,0.18,3.81-5.28,0.29-5.47S189.06-156.35,192.59-156.16z"/>
	<path id="路径_209" class="st2" d="M166.48-117.34c-3.52-0.18-3.81,5.28-0.29,5.47S170-117.16,166.48-117.34z"/>
	<path id="路径_210" class="st2" d="M167.48-67.04c-3.52-0.19-3.81,5.28-0.29,5.47S171-66.86,167.48-67.04z"/>
	<path id="路径_211" class="st2" d="M189.24-23.57c-3.52-0.19-3.81,5.28-0.29,5.47S192.76-23.38,189.24-23.57z"/>
	<path id="路径_212" class="st2" d="M233.21,3.12c-3.52-0.19-3.81,5.28-0.29,5.47S236.73,3.3,233.21,3.12z"/>
	<path id="路径_213" class="st2" d="M283.15,3.01c-3.52-0.18-3.81,5.28-0.29,5.47S286.68,3.2,283.15,3.01z"/>
	<path id="路径_214" class="st2" d="M325.88-21.84c-3.52-0.18-3.81,5.28-0.29,5.47S329.4-21.65,325.88-21.84z"/>
	<path id="路径_215" class="st2" d="M351.54-63.72c-3.52-0.18-3.81,5.28-0.29,5.47S355.06-63.54,351.54-63.72z"/>
	<path id="路径_216" class="st2" d="M353.53-107.16c3.52,0.19,3.81-5.28,0.29-5.47S350-107.35,353.53-107.16z"/>
	<path id="路径_217" class="st2" d="M329.11-152.3c3.52,0.19,3.81-5.28,0.29-5.47S325.59-152.48,329.11-152.3z"/>
	<path id="路径_218" class="st2" d="M286.3-177.71c3.52,0.18,3.81-5.28,0.29-5.47S282.77-177.89,286.3-177.71z"/>
	<path id="路径_219" class="st2" d="M287.88-133.06c-0.71-0.46-6.75,7.56-13.49,17.92s-11.61,19.14-10.9,19.6
		s6.75-7.56,13.49-17.92S288.6-132.6,287.88-133.06z"/>
	
		<ellipse id="椭圆_10" transform="matrix(0.891 -0.454 0.454 0.891 77.7053 119.1082)" class="st2" cx="286.91" cy="-102.27" rx="22.37" ry="1.54"/>
	<path id="路径_220" class="st2" d="M312.96-85.05c0.05-0.85-9.92-2.07-22.26-2.72s-22.38-0.49-22.43,0.36s9.92,2.07,22.26,2.72
		S312.91-84.2,312.96-85.05z"/>
	<path id="路径_221" class="st2" d="M284.96-69.2c10.36,6.73,19.14,11.61,19.6,10.9s-7.56-6.75-17.92-13.49
		s-19.14-11.61-19.6-10.9S274.6-75.94,284.96-69.2z"/>
	<path id="路径_222" class="st2" d="M283.91-39.33c0.76-0.39-3.17-9.63-8.77-20.64s-10.77-19.63-11.53-19.24s3.17,9.63,8.77,20.64
		S283.15-38.95,283.91-39.33z"/>
	
		<ellipse id="椭圆_11" transform="matrix(0.053 -0.9986 0.9986 0.053 299.5835 204.7383)" class="st2" cx="257.74" cy="-55.58" rx="22.38" ry="1.54"/>
	<path id="路径_223" class="st2" d="M240.7-61.23c-6.73,10.36-11.61,19.14-10.9,19.6s6.75-7.56,13.49-17.92s11.61-19.14,10.9-19.6
		S247.43-71.59,240.7-61.23z"/>
	<path id="路径_224" class="st2" d="M210.83-62.27c0.39,0.76,9.63-3.17,20.64-8.78s19.63-10.77,19.24-11.53s-9.63,3.17-20.64,8.78
		S210.44-63.03,210.83-62.27z"/>
	
		<ellipse id="椭圆_12" transform="matrix(0.053 -0.9986 0.9986 0.053 303.3733 142.997)" class="st2" cx="227.08" cy="-88.45" rx="1.54" ry="22.38"/>
	<path id="路径_225" class="st2" d="M250.64-92c0.46-0.72-7.56-6.75-17.92-13.49s-19.14-11.61-19.6-10.9s7.56,6.75,17.92,13.49
		S250.18-91.28,250.64-92z"/>
	<path id="路径_226" class="st2" d="M254.07-95.47c0.76-0.39-3.17-9.63-8.77-20.64s-10.77-19.63-11.53-19.24s3.17,9.63,8.77,20.64
		S253.31-95.09,254.07-95.47z"/>
	<path id="路径_227" class="st2" d="M258.77-96.77c0.85,0.04,2.07-9.92,2.72-22.26s0.49-22.38-0.36-22.42s-2.07,9.92-2.72,22.26
		S257.92-96.82,258.77-96.77z"/>
</g>
<g id="组_140" transform="translate(-114.718 -208.685)">
	<path id="路径_445" class="st1" d="M357.56,383.3c2.4-4.76,4.8-9.51,7.21-14.27c6.29-12.43,12.56-24.87,18.81-37.32
		c1.82-3.64,3.65-7.29,5.45-10.94c4.27-8.61,8.54-17.23,12.79-25.86c1.56-3.15,3.39-7.25,2.66-10.24c-0.69-2.83-3.23-2.9-5.49-0.28
		c-4.11,4.74-6.22,11.17-8.77,17.12c-3.05,7.11-6.03,14.24-8.96,21.39c-4,9.77-7.89,19.57-11.66,29.41
		c-2,5.21-3.98,10.42-6.01,15.62C361.6,373.06,359.49,378.14,357.56,383.3z"/>
	<path id="路径_446" class="st1" d="M399.11,374.94c-4.33,3.51-8.66,7.03-13.01,10.52c-4.3,3.45-8.67,6.79-12.91,10.29
		c4.46-2.92,8.92-5.84,13.38-8.75c11.66-7.62,23.31-15.26,34.95-22.91c3.4-2.25,6.81-4.48,10.19-6.75
		c8.01-5.32,16.01-10.66,24.01-16c2.93-1.95,6.56-4.58,7.42-7.54c0.82-2.8-1.34-4.12-4.61-2.99c-5.93,2.05-10.97,6.56-16.15,10.44
		c-6.19,4.63-12.35,9.31-18.45,14.04C415.56,361.76,407.29,368.31,399.11,374.94z"/>
	<path id="路径_447" class="st1" d="M486.84,400.79c-6.15-1.19-12.78,0.2-19.21,0.97c-7.68,0.91-15.35,1.89-23,2.93
		c-10.46,1.42-20.89,2.96-31.3,4.61c-5.51,0.88-11.02,1.76-16.53,2.61c-5.45,0.83-10.9,1.54-16.33,2.45
		c5.32-0.3,10.64-0.6,15.96-0.89c13.91-0.77,27.82-1.53,41.73-2.37c4.07-0.25,8.14-0.48,12.2-0.75c9.6-0.6,19.19-1.24,28.79-1.85
		c3.51-0.22,7.97-0.69,10.19-2.82C491.45,403.67,490.24,401.44,486.84,400.79z"/>
	<path id="路径_448" class="st1" d="M459.27,466.78c-7.11-3.05-14.24-6.03-21.39-8.96c-9.77-4-19.57-7.89-29.41-11.66
		c-5.21-2-10.42-3.98-15.62-6.01c-5.13-2-10.21-4.11-15.37-6.04c4.76,2.4,9.51,4.8,14.27,7.21c12.43,6.29,24.87,12.56,37.32,18.81
		c3.64,1.82,7.29,3.65,10.94,5.45c8.61,4.28,17.23,8.54,25.86,12.79c3.15,1.56,7.25,3.39,10.24,2.66c2.83-0.69,2.9-3.22,0.28-5.49
		C471.66,471.44,465.22,469.33,459.27,466.78z"/>
	<path id="路径_449" class="st1" d="M429.96,535.06c-2.05-5.92-6.56-10.97-10.44-16.15c-4.63-6.19-9.31-12.35-14.04-18.46
		c-6.46-8.35-13.01-16.62-19.64-24.8c-3.51-4.33-7.03-8.66-10.52-13.01c-3.45-4.3-6.79-8.67-10.29-12.91
		c2.92,4.46,5.84,8.92,8.75,13.38c7.62,11.66,15.26,23.31,22.91,34.95c2.25,3.4,4.48,6.8,6.75,10.19c5.32,8.01,10.66,16.01,16,24.01
		c1.95,2.93,4.58,6.56,7.54,7.42C429.76,540.5,431.09,538.34,429.96,535.06z"/>
	<path id="路径_450" class="st1" d="M349.67,514.71c0.25,4.07,0.48,8.14,0.75,12.2c0.6,9.6,1.24,19.19,1.85,28.79
		c0.22,3.51,0.69,7.97,2.82,10.19c2.01,2.1,4.24,0.9,4.9-2.5c1.19-6.16-0.2-12.78-0.96-19.21c-0.92-7.68-1.89-15.35-2.93-23
		c-1.42-10.46-2.96-20.89-4.61-31.3c-0.87-5.51-1.76-11.01-2.61-16.53c-0.83-5.45-1.54-10.9-2.46-16.33
		c0.3,5.32,0.6,10.64,0.89,15.96C348.07,486.89,348.83,500.8,349.67,514.71z"/>
	<path id="路径_451" class="st1" d="M326.67,454.04c-2.4,4.76-4.8,9.51-7.21,14.27c-6.29,12.43-12.56,24.87-18.81,37.32
		c-1.82,3.65-3.65,7.29-5.45,10.94c-4.28,8.61-8.54,17.23-12.79,25.86c-1.56,3.15-3.39,7.25-2.66,10.24
		c0.69,2.83,3.23,2.9,5.49,0.28c4.11-4.74,6.22-11.17,8.77-17.12c3.05-7.11,6.03-14.24,8.96-21.39c4-9.77,7.89-19.57,11.66-29.41
		c2-5.21,3.98-10.42,6.01-15.62C322.63,464.27,324.74,459.19,326.67,454.04z"/>
	<path id="路径_452" class="st1" d="M285.13,462.39c4.33-3.51,8.66-7.03,13.01-10.53c4.3-3.45,8.67-6.78,12.91-10.29
		c-4.46,2.92-8.92,5.84-13.38,8.75c-11.66,7.62-23.31,15.26-34.95,22.91c-3.4,2.25-6.81,4.48-10.19,6.75
		c-8.01,5.32-16.01,10.65-24.01,16c-2.93,1.95-6.56,4.58-7.42,7.54c-0.82,2.79,1.34,4.12,4.62,2.99
		c5.93-2.05,10.97-6.57,16.15-10.44c6.19-4.63,12.34-9.31,18.45-14.04C268.67,475.57,276.94,469.03,285.13,462.39z"/>
	<path id="路径_453" class="st1" d="M216.6,435.58c7.68-0.91,15.35-1.89,23-2.93c10.46-1.42,20.89-2.96,31.3-4.61
		c5.51-0.88,11.01-1.77,16.53-2.61c5.45-0.83,10.9-1.54,16.33-2.46c-5.32,0.3-10.64,0.6-15.96,0.89
		c-13.91,0.77-27.82,1.53-41.73,2.37c-4.07,0.24-8.13,0.48-12.2,0.75c-9.6,0.6-19.19,1.24-28.79,1.85
		c-3.51,0.22-7.97,0.69-10.2,2.82c-2.1,2.01-0.9,4.24,2.5,4.9C203.54,437.74,210.17,436.35,216.6,435.58z"/>
	<path id="路径_454" class="st1" d="M224.96,370.56c7.11,3.05,14.24,6.03,21.39,8.96c9.77,4,19.57,7.89,29.41,11.66
		c5.21,2,10.42,3.98,15.62,6.01c5.13,2,10.21,4.11,15.37,6.04c-4.76-2.4-9.51-4.8-14.27-7.21c-12.43-6.29-24.87-12.56-37.32-18.81
		c-3.65-1.82-7.29-3.65-10.94-5.45c-8.61-4.28-17.23-8.54-25.86-12.79c-3.15-1.56-7.25-3.39-10.24-2.66
		c-2.83,0.69-2.9,3.22-0.28,5.49C212.57,365.9,219.01,368.01,224.96,370.56z"/>
	<path id="路径_455" class="st1" d="M254.27,302.27c2.05,5.93,6.56,10.97,10.44,16.15c4.63,6.19,9.31,12.34,14.04,18.45
		c6.46,8.35,13.01,16.62,19.64,24.8c3.51,4.33,7.04,8.66,10.52,13.01c3.45,4.3,6.78,8.67,10.29,12.91
		c-2.92-4.46-5.84-8.92-8.75-13.38c-7.62-11.66-15.26-23.31-22.91-34.95c-2.25-3.4-4.48-6.81-6.75-10.19
		c-5.32-8.01-10.65-16.01-16-24.01c-1.95-2.93-4.58-6.56-7.54-7.42C254.46,296.84,253.14,299,254.27,302.27z"/>
	<path id="路径_456" class="st1" d="M334.55,322.63c-0.25-4.07-0.48-8.14-0.75-12.2c-0.6-9.6-1.24-19.19-1.85-28.79
		c-0.22-3.51-0.69-7.97-2.82-10.19c-2.01-2.11-4.24-0.9-4.9,2.5c-1.19,6.15,0.2,12.78,0.96,19.21c0.91,7.68,1.89,15.34,2.93,23
		c1.42,10.46,2.96,20.89,4.61,31.3c0.88,5.51,1.77,11.01,2.61,16.53c0.83,5.45,1.54,10.9,2.46,16.33c-0.3-5.32-0.6-10.64-0.89-15.96
		C336.15,350.44,335.39,336.53,334.55,322.63z"/>
	<path id="路径_457" class="st1" d="M247.26,290.64c5.63-1.94,2.62-10.7-3.02-8.75S241.62,292.58,247.26,290.64z"/>
	<path id="路径_458" class="st1" d="M193.42,353.8c5.63-1.94,2.62-10.7-3.02-8.75S187.78,355.74,193.42,353.8z"/>
	<path id="路径_459" class="st1" d="M177.13,431.21c-5.63,1.94-2.62,10.7,3.02,8.75C185.79,438.02,182.77,429.27,177.13,431.21z"
		/>
	<path id="路径_460" class="st1" d="M210.61,509.43c-5.63,1.94-2.62,10.7,3.02,8.75S216.26,507.48,210.61,509.43z"/>
	<path id="路径_461" class="st1" d="M272.32,563.77c-5.63,1.94-2.62,10.7,3.02,8.75C280.97,570.57,277.96,561.82,272.32,563.77z"
		/>
	<path id="路径_462" class="st1" d="M358.17,577.69c-5.63,1.94-2.62,10.7,3.02,8.75S363.81,575.75,358.17,577.69z"/>
	<path id="路径_463" class="st1" d="M436.39,545.84c-5.63,1.94-2.62,10.7,3.02,8.75S442.03,543.89,436.39,545.84z"/>
	<path id="路径_464" class="st1" d="M487.61,479.78c-5.63,1.94-2.62,10.7,3.02,8.75S493.24,477.83,487.61,479.78z"/>
	<path id="路径_465" class="st1" d="M501.24,397.83c-5.63,1.94-2.62,10.7,3.02,8.75S506.88,395.89,501.24,397.83z"/>
	<path id="路径_466" class="st1" d="M476.79,328.47c5.63-1.94,2.62-10.7-3.02-8.75S471.15,330.42,476.79,328.47z"/>
	<path id="路径_467" class="st1" d="M409.88,273.21c5.63-1.94,2.62-10.7-3.02-8.75S404.24,275.15,409.88,273.21z"/>
	<path id="路径_468" class="st1" d="M326.64,260.56c5.63-1.94,2.62-10.7-3.02-8.75S321.01,262.5,326.64,260.56z"/>
	<path id="路径_469" class="st1" d="M357.46,329.53c-1.42-0.27-5.79,16.13-9.77,36.65s-6.06,37.37-4.65,37.64
		s5.79-16.13,9.77-36.65S358.87,329.81,357.46,329.53z"/>
	
		<ellipse id="椭圆_14" transform="matrix(0.6558 -0.7549 0.7549 0.6558 -156.4481 413.6904)" class="st1" cx="375.48" cy="378.42" rx="37.84" ry="2.61"/>
	<path id="路径_470" class="st1" d="M427.23,388.88c-0.47-1.36-16.87,3.05-36.62,9.86s-35.39,13.43-34.92,14.8
		s16.87-3.05,36.62-9.86S427.7,390.24,427.23,388.88z"/>
	<path id="路径_471" class="st1" d="M393.4,431.49c20.51,3.98,37.37,6.06,37.64,4.65s-16.13-5.79-36.65-9.77
		s-37.37-6.06-37.64-4.65S372.88,427.51,393.4,431.49z"/>
	<path id="路径_472" class="st1" d="M410.72,478.98c0.95-1.09-11.08-13.08-26.85-26.79s-29.33-23.93-30.28-22.84
		s11.08,13.08,26.85,26.79S409.77,480.06,410.72,478.98z"/>
	
		<ellipse id="椭圆_15" transform="matrix(0.9454 -0.3258 0.3258 0.9454 -133.5798 142.7577)" class="st1" cx="359.36" cy="470.14" rx="2.61" ry="37.84"/>
	<path id="路径_473" class="st1" d="M329.08,472.08c-3.98,20.52-6.06,37.37-4.65,37.64s5.79-16.13,9.77-36.65
		s6.06-37.37,4.65-37.64S333.06,451.57,329.08,472.08z"/>
	<path id="路径_474" class="st1" d="M281.6,489.4c1.09,0.95,13.08-11.08,26.79-26.85c13.7-15.78,23.93-29.33,22.85-30.28
		s-13.08,11.08-26.79,26.85C290.74,474.9,280.51,488.45,281.6,489.4z"/>
	
		<ellipse id="椭圆_16" transform="matrix(0.9454 -0.3258 0.3258 0.9454 -126.886 118.5469)" class="st1" cx="290.44" cy="438.05" rx="37.84" ry="2.61"/>
	<path id="路径_475" class="st1" d="M325.14,417.53c0.27-1.42-16.13-5.79-36.65-9.77c-20.52-3.98-37.37-6.06-37.64-4.65
		s16.13,5.79,36.65,9.77C308.01,416.87,324.87,418.95,325.14,417.53z"/>
	<path id="路径_476" class="st1" d="M328.31,409.91c0.95-1.09-11.08-13.08-26.85-26.79s-29.33-23.93-30.28-22.85
		s11.08,13.08,26.85,26.79S327.36,411,328.31,409.91z"/>
	<path id="路径_477" class="st1" d="M334.86,404.89c1.36-0.47-3.05-16.87-9.86-36.62s-13.43-35.39-14.8-34.92
		s3.05,16.87,9.86,36.62S333.5,405.36,334.86,404.89z"/>
</g>
</svg>
