<?xml version="1.0" encoding="utf-8"?>
<!-- Generator: Adobe Illustrator 23.0.3, SVG Export Plug-In . SVG Version: 6.00 Build 0)  -->
<svg version="1.1" id="圖層_1" xmlns="http://www.w3.org/2000/svg" xmlns:xlink="http://www.w3.org/1999/xlink" x="0px" y="0px"
	 viewBox="0 0 1417.32 283.46" style="enable-background:new 0 0 1417.32 283.46;" xml:space="preserve">
<style type="text/css">
	.st0{fill-rule:evenodd;clip-rule:evenodd;fill:#F2A38A;}
</style>
<path class="st0" d="M1262.83,52.95c-0.02-0.26-0.03-0.52-0.03-0.78c0-5.14,4.17-9.31,9.31-9.31c0.91,0,1.79,0.13,2.63,0.38
	c-0.23-1.06-0.35-2.16-0.35-3.28c0-8.59,6.97-15.56,15.56-15.56c8.29,0,15.07,6.49,15.54,14.66c1.28-0.46,2.65-0.71,4.08-0.71
	c6.64,0,12.04,5.39,12.04,12.04c0,1.15-0.16,2.26-0.46,3.31l19.72,5.87l-23.52,0.01c-0.03,0.02-0.05,0.04-0.08,0.06l-15.41-0.01
	c-0.02-0.02-0.04-0.03-0.06-0.05l-24.07,0.01l-0.03,0.02l-11.21-0.02l-0.02-0.01l-25.76,0.01L1262.83,52.95z"/>
<path class="st0" d="M1168.67,107.75c-0.02-0.21-0.03-0.43-0.03-0.65c0-4.25,3.45-7.7,7.7-7.7c0.76,0,1.49,0.11,2.18,0.31
	c-0.19-0.88-0.29-1.78-0.29-2.72c0-7.11,5.77-12.88,12.88-12.88c6.86,0,12.47,5.37,12.86,12.13c1.06-0.38,2.19-0.59,3.38-0.59
	c5.5,0,9.96,4.46,9.96,9.96c0,0.95-0.13,1.87-0.38,2.74l16.32,4.86h-19.46c-0.02,0.02-0.04,0.04-0.06,0.05l-12.75-0.01
	c-0.02-0.01-0.03-0.03-0.05-0.04l-19.92,0.01l-0.03,0.02l-9.28-0.01l-0.01-0.01l-21.31,0.01L1168.67,107.75z"/>
<path class="st0" d="M1348.91,78.77c-0.02-0.21-0.03-0.42-0.03-0.63c0-4.12,3.34-7.46,7.46-7.46c0.73,0,1.44,0.11,2.11,0.3
	c-0.18-0.85-0.28-1.73-0.28-2.63c0-6.89,5.59-12.48,12.48-12.48c6.64,0,12.08,5.2,12.46,11.75c1.02-0.37,2.13-0.57,3.27-0.57
	c5.33,0,9.65,4.32,9.65,9.65c0,0.92-0.13,1.81-0.37,2.65l15.81,4.71h-18.86c-0.02,0.02-0.04,0.03-0.06,0.05l-12.36-0.01
	c-0.02-0.01-0.03-0.03-0.05-0.04l-19.3,0.01l-0.03,0.02l-8.99-0.01l-0.01-0.01l-20.65,0.01L1348.91,78.77z"/>
<path class="st0" d="M37.41,236.91c-0.02-0.26-0.03-0.52-0.03-0.78c0-5.14,4.17-9.31,9.31-9.31c0.91,0,1.79,0.13,2.63,0.38
	c-0.23-1.06-0.35-2.16-0.35-3.28c0-8.59,6.97-15.56,15.56-15.56c8.29,0,15.07,6.49,15.54,14.66c1.28-0.46,2.65-0.71,4.08-0.71
	c6.64,0,12.04,5.39,12.04,12.04c0,1.15-0.16,2.26-0.46,3.31l19.72,5.87l-23.52,0.01c-0.03,0.02-0.05,0.04-0.08,0.06l-15.41-0.01
	c-0.02-0.02-0.04-0.03-0.06-0.05l-24.07,0.01l-0.03,0.02l-11.21-0.02l-0.02-0.01l-25.76,0.01L37.41,236.91z"/>
<path class="st0" d="M138.95,270.29c-0.02-0.21-0.03-0.43-0.03-0.65c0-4.25,3.45-7.7,7.7-7.7c0.76,0,1.49,0.11,2.18,0.31
	c-0.19-0.88-0.29-1.78-0.29-2.72c0-7.11,5.77-12.88,12.88-12.88c6.86,0,12.47,5.37,12.86,12.13c1.06-0.38,2.19-0.59,3.38-0.59
	c5.5,0,9.96,4.46,9.96,9.96c0,0.95-0.13,1.87-0.38,2.74l16.32,4.86h-19.46c-0.02,0.02-0.04,0.04-0.06,0.05l-12.75-0.01
	c-0.02-0.01-0.03-0.03-0.05-0.04l-19.92,0.01l-0.03,0.02l-9.28-0.01l-0.01-0.01l-21.31,0.01L138.95,270.29z"/>
</svg>
