<?xml version="1.0" encoding="utf-8"?>
<!-- Generator: Adobe Illustrator 23.0.3, SVG Export Plug-In . SVG Version: 6.00 Build 0)  -->
<svg version="1.1" id="圖層_1" xmlns="http://www.w3.org/2000/svg" xmlns:xlink="http://www.w3.org/1999/xlink" x="0px" y="0px"
	 viewBox="0 0 358.9 283.5" style="enable-background:new 0 0 358.9 283.5;" xml:space="preserve">
<style type="text/css">
	.st0{fill-rule:evenodd;clip-rule:evenodd;fill:#F2A38A;}
</style>
<path id="路径_441" class="st0" d="M291.3,179.7c0-0.2,0-0.4,0-0.7c0-4.4,3.6-8.1,8.1-8.1c0.8,0,1.5,0.1,2.3,0.3
	c-1.6-7.3,3.1-14.4,10.3-16s14.5,3.1,16,10.3c0.1,0.7,0.2,1.4,0.3,2.1c5.4-1.9,11.4,0.9,13.4,6.3c0.7,2.1,0.8,4.3,0.2,6.4l17.1,5.1
	h-20.4l-0.1,0.1l-13.4,0l0,0l-20.9,0l0,0l-9.7,0l0,0l-22.3,0L291.3,179.7z"/>
<path id="路径_442" class="st0" d="M33.7,237.2c0-0.4,0-0.7,0-1.1c0-7,5.7-12.7,12.7-12.7c1.2,0,2.4,0.2,3.6,0.5
	c-2.5-11.4,4.8-22.7,16.3-25.2s22.7,4.8,25.2,16.3c0.2,1.1,0.4,2.1,0.4,3.2c8.5-3.1,17.9,1.4,21,9.9c1.2,3.2,1.3,6.7,0.3,10l26.9,8
	l-32,0l-0.1,0.1l-21,0l-0.1-0.1l-32.8,0l0,0l-15.3,0l0,0l-35.1,0L33.7,237.2z"/>
</svg>
