<?xml version="1.0" encoding="utf-8"?>
<!-- Generator: Adobe Illustrator 23.0.3, SVG Export Plug-In . SVG Version: 6.00 Build 0)  -->
<svg version="1.1" id="圖層_1" xmlns="http://www.w3.org/2000/svg" xmlns:xlink="http://www.w3.org/1999/xlink" x="0px" y="0px"
	 viewBox="0 0 370 370" style="enable-background:new 0 0 370 370;" xml:space="preserve">
<style type="text/css">
	.st0{fill:none;}
	.st1{fill:#231815;}
</style>
<polygon class="st0" points="124.58,295.26 259.08,295.26 192.58,356.76 "/>
<g>
	<g>
		<g>
			<path class="st1" d="M23.85,248.82h172.29c0.63,0,1.13-0.51,1.13-1.13c0-0.63-0.51-1.13-1.13-1.13H23.85
				c-0.63,0-1.13,0.51-1.13,1.13C22.71,248.31,23.22,248.82,23.85,248.82z"/>
			<path class="st1" d="M197.06,251.31H23.85c-0.63,0-1.13,0.51-1.13,1.13s0.51,1.13,1.13,1.13h173.21c0.63,0,1.13-0.51,1.13-1.13
				S197.69,251.31,197.06,251.31z"/>
		</g>
		<path class="st1" d="M87.59,253.35c-0.64-1.38-1.64-3.77-2.43-5.04c-5.81-9.32-15.58-14.47-26.66-14.47
			c-11.14,0-20.95,5.22-26.75,14.62c-0.88,1.43-2.09,2.94-2.78,4.5L35.4,253c-0.1-0.09,1.03-1.75,1.62-2.9
			c4.66-8.99,12.54-14.91,21.49-14.91c8.9,0,16.75,5.85,21.41,14.76c0.5,0.96,0.97,2.35,1.4,3.38L87.59,253.35z"/>
		<path class="st1" d="M81.34,253.26c0.64-1.38,1.64-3.77,2.43-5.04c5.81-9.32,15.58-14.47,26.66-14.47
			c11.14,0,20.95,5.22,26.75,14.62c0.88,1.43,2.09,2.93,2.78,4.5l-6.42,0.03c0.1-0.09-1.03-1.75-1.62-2.9
			c-4.66-8.99-12.54-14.91-21.49-14.91c-8.9,0-16.75,5.85-21.41,14.76c-0.5,0.96-0.97,2.35-1.4,3.38L81.34,253.26z"/>
		<path class="st1" d="M192.12,253.26c-0.64-1.38-1.64-3.77-2.43-5.04c-5.81-9.32-15.58-14.47-26.66-14.47
			c-11.14,0-20.95,5.22-26.75,14.62c-0.88,1.43-2.09,2.93-2.78,4.5l6.42,0.03c-0.1-0.09,1.03-1.75,1.62-2.9
			c4.66-8.99,12.54-14.91,21.49-14.91c8.9,0,16.75,5.85,21.41,14.76c0.5,0.96,0.97,2.35,1.4,3.38L192.12,253.26z"/>
	</g>
	<g>
		<rect x="41.01" y="239.46" class="st1" width="1.04" height="13.63"/>
		<rect x="44.42" y="239.46" class="st1" width="1.04" height="13.63"/>
		<rect x="47.83" y="236.8" class="st1" width="1.04" height="16.29"/>
		<rect x="51.23" y="235.8" class="st1" width="1.04" height="17.29"/>
		<rect x="54.64" y="234.81" class="st1" width="1.04" height="18.29"/>
		<rect x="58.05" y="234.31" class="st1" width="1.04" height="18.79"/>
		<rect x="61.46" y="234.81" class="st1" width="1.04" height="18.29"/>
		<rect x="64.87" y="235.3" class="st1" width="1.04" height="17.79"/>
		<rect x="68.27" y="236.3" class="st1" width="1.04" height="16.79"/>
		<rect x="71.68" y="237.55" class="st1" width="1.04" height="15.54"/>
		<rect x="75.09" y="239.46" class="st1" width="1.04" height="13.63"/>
	</g>
	<g>
		<rect x="92.13" y="239.46" class="st1" width="1.04" height="13.63"/>
		<rect x="95.54" y="239.46" class="st1" width="1.04" height="13.63"/>
		<rect x="98.95" y="236.8" class="st1" width="1.04" height="16.29"/>
		<rect x="102.36" y="235.8" class="st1" width="1.04" height="17.29"/>
		<rect x="105.77" y="234.81" class="st1" width="1.04" height="18.29"/>
		<rect x="109.17" y="234.31" class="st1" width="1.04" height="18.79"/>
		<rect x="112.58" y="234.81" class="st1" width="1.04" height="18.29"/>
		<rect x="115.99" y="235.3" class="st1" width="1.04" height="17.79"/>
		<rect x="119.4" y="236.3" class="st1" width="1.04" height="16.79"/>
		<rect x="122.81" y="237.55" class="st1" width="1.04" height="15.54"/>
		<rect x="126.22" y="239.46" class="st1" width="1.04" height="13.63"/>
	</g>
	<g>
		<rect x="146.25" y="239.46" class="st1" width="1.04" height="13.63"/>
		<rect x="149.66" y="239.46" class="st1" width="1.04" height="13.63"/>
		<rect x="153.07" y="236.8" class="st1" width="1.04" height="16.29"/>
		<rect x="156.47" y="235.8" class="st1" width="1.04" height="17.29"/>
		<rect x="159.88" y="234.81" class="st1" width="1.04" height="18.29"/>
		<rect x="163.29" y="234.31" class="st1" width="1.04" height="18.79"/>
		<rect x="166.7" y="234.81" class="st1" width="1.04" height="18.29"/>
		<rect x="170.11" y="235.3" class="st1" width="1.04" height="17.79"/>
		<rect x="173.52" y="236.3" class="st1" width="1.04" height="16.79"/>
		<rect x="176.92" y="237.55" class="st1" width="1.04" height="15.54"/>
		<rect x="180.33" y="239.46" class="st1" width="1.04" height="13.63"/>
	</g>
</g>
<g>
	<g>
		<path class="st1" d="M60.93,179.21H45.46c-0.88-0.72-1.48-1.8-1.82-3.22c-0.34-1.42-0.51-3.44-0.51-6.04v-12.44
			c0-1.25-0.44-2.01-1.32-2.28c-0.88-0.26-2.09-0.4-3.64-0.4v24.38H22.71v-50.65h19.21c5.12,0,9.11,0.82,11.98,2.45
			c2.86,1.63,4.3,3.79,4.3,6.48v6.05c0,1.68-0.37,2.98-1.1,3.89c-1.34,1.68-4.15,3.03-8.44,4.03c3.95,0.72,6.66,1.86,8.13,3.4
			c0.94,1.02,1.41,2.42,1.41,4.2v10.94c0.13,1.79,0.27,3.14,0.4,4.06C59.07,176.92,59.85,178.64,60.93,179.21z M43.14,145.95v-8.28
			c0-1.25-0.44-2-1.32-2.27c-0.88-0.26-2.09-0.4-3.64-0.4v13.6c1.62,0,2.67-0.07,3.16-0.22C42.54,148.01,43.14,147.19,43.14,145.95z
			"/>
		<path class="st1" d="M96.91,179.21H82.86v-1.39c-0.74,0.54-1.87,1-3.39,1.39c-1.52,0.39-3.29,0.58-5.31,0.58
			c-2.97,0-5.41-0.56-7.33-1.66c-1.92-1.11-2.88-2.46-2.88-4.05v-35.89h14.05v33.29c0,1.25,0.81,1.88,2.43,1.88
			c0.81,0,1.42-0.16,1.82-0.47c0.41-0.31,0.61-0.76,0.61-1.34v-33.36h14.05V179.21z"/>
		<path class="st1" d="M133.91,173.06c0,1.69-1.05,3.18-3.13,4.49c-2.43,1.5-5.7,2.24-9.81,2.24c-2.36,0-4.25-0.24-5.66-0.72
			c-1.28-0.63-2.12-1.04-2.53-1.23l-1.21,1.37h-10.61v-50.65h14.05v10.85c0.87-0.53,2.04-0.92,3.49-1.16
			c1.45-0.24,3.18-0.36,5.21-0.36c2.96,0,5.41,0.56,7.33,1.66c1.92,1.11,2.88,2.46,2.88,4.05V173.06z M119.86,171.54v-25.4
			c0-1.25-0.81-1.88-2.43-1.88c-0.81,0-1.42,0.14-1.82,0.43c-0.41,0.29-0.61,0.75-0.61,1.37v25.47c0,0.63,0.2,1.1,0.61,1.41
			c0.4,0.31,1.01,0.47,1.82,0.47s1.42-0.16,1.82-0.47C119.66,172.64,119.86,172.17,119.86,171.54z"/>
		<path class="st1" d="M175.06,138.19l-10.95,40.74c-0.81,2.92-1.42,4.71-1.83,5.39c-0.74,1.17-2.3,2.16-4.66,2.99
			c-0.74,0.24-1.56,0.4-2.43,0.48c-0.88,0.07-2.16,0.11-3.85,0.11h-9.53v-5.57h4.87c1.22,0,2.08-0.24,2.59-0.72
			c0.51-0.48,0.76-1.13,0.76-1.95c0-0.48-0.1-0.94-0.3-1.37l-13.07-40.09h14.05l5.91,21.67l4.6-21.67H175.06z"/>
	</g>
</g>
<g>
	<g>
		<path class="st1" d="M245.57,171.83c0,1.98-1.35,3.74-4.04,5.28c-3.1,1.79-7.11,2.68-12.03,2.68c-5.26,0-9.5-0.75-12.74-2.24
			c-3.51-1.64-5.26-3.93-5.26-6.87v-32.63c0-3.23,1.28-5.62,3.84-7.16c2.96-1.78,7.68-2.68,14.15-2.68c5.59,0,9.77,0.89,12.54,2.68
			c2.36,1.54,3.54,3.64,3.54,6.3v9.19h-14.05v-10.12c0-0.44-0.18-0.75-0.53-0.95c-0.35-0.19-0.92-0.29-1.69-0.29
			c-0.78,0-1.36,0.1-1.75,0.29c-0.39,0.19-0.58,0.51-0.58,0.94v35.3c0,0.39,0.23,0.69,0.69,0.91c0.46,0.22,1,0.33,1.64,0.33
			c0.78,0,1.34-0.11,1.69-0.33c0.35-0.22,0.53-0.52,0.53-0.91v-12.58h14.05V171.83z"/>
		<path class="st1" d="M282.87,171.47c0,3.09-1.62,5.31-4.85,6.66c-2.63,1.11-6.44,1.66-11.42,1.66c-5.05,0-8.96-0.6-11.73-1.81
			c-3.3-1.45-4.95-3.74-4.95-6.87v-24.53c0-3.09,1.65-5.35,4.95-6.8c2.83-1.25,6.74-1.88,11.73-1.88c4.58,0,8.44,0.71,11.58,2.13
			c3.13,1.42,4.7,3.49,4.7,6.19V171.47z M268.82,171.33v-25.05c0-0.67-0.2-1.18-0.61-1.52c-0.4-0.34-1.01-0.51-1.82-0.51
			c-0.67,0-1.25,0.17-1.72,0.51c-0.47,0.34-0.71,0.84-0.71,1.52v25.05c0,0.67,0.2,1.19,0.61,1.55c0.41,0.36,1.01,0.54,1.82,0.54
			c0.81,0,1.42-0.18,1.82-0.54C268.61,172.52,268.82,172.01,268.82,171.33z"/>
		<path class="st1" d="M319.46,179.21h-14.05v-32.99c0-1.26-0.81-1.88-2.43-1.88c-0.81,0-1.42,0.15-1.82,0.45
			c-0.4,0.3-0.61,0.78-0.61,1.43v32.99h-14.05v-41.02h14.05v1.37c0.81-0.48,1.97-0.88,3.49-1.19c1.52-0.31,3.25-0.47,5.21-0.47
			c2.97,0,5.41,0.57,7.33,1.7c1.92,1.13,2.88,2.52,2.88,4.16V179.21z"/>
		<path class="st1" d="M341.07,134.28c0.74-0.1,2.29-0.14,4.65-0.14v-5.57h-8.9c-6.13,0-9.99,0.32-11.42,1.81
			c-1.7,1.75-1.82,3.57-1.82,7.81v41.02h14.05v-31.87h8.09v-6.15h-8.09l0.03-2.71C337.67,135.9,338.78,134.57,341.07,134.28z"/>
	</g>
</g>
<g>
	<path class="st1" d="M150.21,272.87h-4.01v21.49h-7.13v-21.49h-4.01v-3.17h15.15V272.87z"/>
	<path class="st1" d="M170.96,294.36h-7.04l-1.24-6.62h-3.3l-1.24,6.62h-7.04l5.37-24.66h9.11L170.96,294.36z M162.06,284.35
		l-1.05-7.4l-1,7.4H162.06z"/>
	<path class="st1" d="M179.21,294.36h-7.13V269.7h7.13V294.36z"/>
	<path class="st1" d="M208.99,269.7l-4.21,24.66h-8.49l-2.56-13.6l-2.42,13.6h-7.33l-4.07-24.66h6.48l1.79,11.38l2.47-11.38h8.06
		l1.96,11.38l2.4-11.38H208.99z"/>
	<path class="st1" d="M229.27,294.36h-7.04l-1.24-6.62h-3.3l-1.24,6.62h-7.04l5.37-24.66h9.11L229.27,294.36z M220.37,284.35
		l-1.05-7.4l-1,7.4H220.37z"/>
	<path class="st1" d="M248.61,294.36h-7.36l-4.89-13.15v13.15h-5.97V269.7h8.16l4.1,11.25V269.7h5.97V294.36z"/>
</g>
<g>
	<polygon class="st1" points="171.53,226.06 171.53,221.58 164.49,215.75 161.31,218.34 161.31,203.77 132.46,203.77 132.46,226.06 
		129.46,226.06 129.46,213.74 126.57,213.74 126.57,209.2 110.08,209.2 110.08,213.33 87.23,218.41 87.23,225.67 80.44,225.67 
		80.44,199.5 62.91,199.5 62.91,188.48 37.41,188.48 37.41,216.71 32.08,212.42 22.71,218.37 22.71,227.81 24.89,227.66 
		24.89,219.57 31.93,215.09 37.39,219.49 37.39,226.96 37.41,228.05 39.59,228.05 39.59,190.66 60.74,190.66 60.74,226.57 
		60.76,227.66 62.94,227.66 62.94,201.68 78.27,201.68 78.27,227.85 89.41,227.85 89.41,220.66 112.26,215.51 112.26,211.37 
		124.39,211.37 124.39,215.92 127.29,215.92 127.29,228.24 134.64,228.24 134.64,205.95 159.14,205.95 159.14,220.11 157.34,221.57 
		157.34,230.35 159.32,230.35 159.32,222.13 164.48,218.46 169.35,222.13 169.34,230.77 171.53,230.77 171.53,228.24 186.58,228.24 
		186.58,226.06 	"/>
	<rect x="43.99" y="216.54" class="st1" width="4.72" height="3.99"/>
	<rect x="43.99" y="209.3" class="st1" width="4.72" height="4.01"/>
	<rect x="43.99" y="194.85" class="st1" width="4.72" height="4"/>
	<rect x="52.54" y="216.54" class="st1" width="4.72" height="3.99"/>
	<rect x="43.99" y="223.39" class="st1" width="4.72" height="3.99"/>
	<rect x="52.54" y="223.39" class="st1" width="4.72" height="3.99"/>
	<rect x="52.54" y="202.08" class="st1" width="4.72" height="4"/>
	<rect x="52.54" y="194.85" class="st1" width="4.72" height="4"/>
	<rect x="71.89" y="223.35" class="st1" width="3.2" height="2.66"/>
	<rect x="71.89" y="218.54" class="st1" width="3.2" height="2.67"/>
	<rect x="71.89" y="208.93" class="st1" width="3.2" height="2.66"/>
	<rect x="71.89" y="204.12" class="st1" width="3.2" height="2.67"/>
	<rect x="65.56" y="223.35" class="st1" width="3.2" height="2.66"/>
	<rect x="65.56" y="218.54" class="st1" width="3.2" height="2.67"/>
	<rect x="65.56" y="204.12" class="st1" width="3.2" height="2.67"/>
	<rect x="28.47" y="220.23" class="st1" width="4.14" height="6.23"/>
	<rect x="161.79" y="223.05" class="st1" width="4.14" height="6.23"/>
	<rect x="139" y="209.81" class="st1" width="1.69" height="17.94"/>
	<rect x="143.56" y="209.81" class="st1" width="1.7" height="17.94"/>
	<rect x="148.31" y="209.81" class="st1" width="1.69" height="17.94"/>
	<rect x="152.86" y="209.81" class="st1" width="1.7" height="17.94"/>
	<rect x="110.44" y="223.66" class="st1" width="3.92" height="3.88"/>
	<rect x="118.58" y="223.66" class="st1" width="3.92" height="3.88"/>
	<rect x="118.58" y="216.66" class="st1" width="3.92" height="3.88"/>
</g>
<path class="st1" d="M193.47,262.69l86.18-5.23l-87.02-0.7c0.01,0,0.01-0.01,0.02-0.01l-0.77,0.01l-0.77-0.01
	c0.01,0,0.01,0.01,0.02,0.01l-87.02,0.7l86.92,5.23c-0.01,0.06-0.02,0.1-0.02,0.1l1.24-0.05l1.24,0.05
	C193.5,262.79,193.49,262.75,193.47,262.69z"/>
<g>
	<polygon class="st1" points="194.77,80.98 193.84,80.98 193.47,104.14 195.14,104.14 	"/>
	<polygon class="st1" points="203.61,137.7 206.07,125.68 196.84,125.68 196.84,127.82 191.77,127.82 191.77,125.68 182.54,125.68 
		185,137.7 	"/>
	<polygon class="st1" points="203.61,151.42 206.07,139.39 196.84,139.39 196.84,141.53 191.77,141.53 191.77,139.39 182.54,139.39 
		185,151.42 	"/>
	<polygon class="st1" points="203.61,165.13 206.07,153.11 196.84,153.11 196.84,155.24 191.77,155.24 191.77,153.11 182.54,153.11 
		185,165.13 	"/>
	<polygon class="st1" points="203.61,178.85 206.07,166.82 196.84,166.82 196.84,168.96 191.77,168.96 191.77,166.82 182.54,166.82 
		185,178.85 	"/>
	<polygon class="st1" points="203.61,192.56 206.07,180.54 196.84,180.54 196.84,182.67 191.77,182.67 191.77,180.54 182.54,180.54 
		185,192.56 	"/>
	<polygon class="st1" points="203.61,206.27 206.07,194.25 196.84,194.25 196.84,196.39 191.77,196.39 191.77,194.25 182.54,194.25 
		185,206.27 	"/>
	<polygon class="st1" points="203.61,219.99 206.07,207.97 196.84,207.96 196.84,210.1 191.77,210.1 191.77,207.96 182.54,207.96 
		185,219.99 	"/>
	<polygon class="st1" points="190.43,121.54 190.05,124.72 198.56,124.72 198.18,121.54 	"/>
	<polygon class="st1" points="196.16,107.83 196.6,105.14 192,105.14 192.44,107.83 	"/>
	<polygon class="st1" points="189.77,112.44 190.41,120.48 198.19,120.48 198.83,112.44 	"/>
	<polygon class="st1" points="199.1,111.36 199.58,110.26 199.1,109.17 189.51,109.17 189.02,110.26 189.51,111.36 	"/>
	<rect x="191.96" y="232.32" class="st1" width="4.68" height="4.5"/>
	<path class="st1" d="M189.57,233.92c0.2-2.36,2.23-4.22,4.73-4.22s4.53,1.86,4.73,4.22h4.58l2.46-12.02l-9.23,0v2.14h-5.07v-2.14
		l-9.23,0l2.46,12.02H189.57z"/>
	<path class="st1" d="M203.61,235.45h-4.57c-0.17,2.38-2.21,4.26-4.73,4.26s-4.56-1.89-4.73-4.26H185l-5.5,23.56l29.6,0
		L203.61,235.45z"/>
</g>
<path class="st1" d="M298.71,260.09c-0.39-0.35-0.71-0.47-1.2-0.47c-0.55,0-1.1,0.22-1.49,0.66l-103.45,88.17l-76.98-64.78
	c-0.86-0.71-1.88-0.92-2.58-0.06c-0.33,0.41-0.44,0.73-0.41,1.22c0.03,0.55,0.28,1.08,0.74,1.46l78.77,78.46l106.43-102.09
	C299.27,261.84,299.54,260.84,298.71,260.09z"/>
<g>
	<path class="st1" d="M117.35,71.46c-0.69,0.74-1.3,1.61-1.83,2.61C116.09,73.18,116.7,72.29,117.35,71.46z"/>
	<path class="st1" d="M334.19,119.07l-47.8-52.46l-154.52-0.3c-7.2,0.74-11.77,2.23-14.48,5.11c-0.01,0.01-0.02,0.03-0.03,0.04
		c-0.66,0.83-1.26,1.72-1.83,2.61c-0.67,1.25-1.22,2.73-1.67,4.44l0.03,0.02l168.33-0.1l49.53,43.09c0.41,0.43,0.96,0.64,1.51,0.63
		c0.49-0.01,0.81-0.14,1.19-0.5C335.24,120.87,334.95,119.87,334.19,119.07z"/>
	<path class="st1" d="M93.24,70.42c-0.7-0.57-1.51-1.06-2.42-1.5l-46.68,49.9c-0.77,0.81-1.06,1.8-0.25,2.57
		c0.38,0.36,0.7,0.49,1.19,0.5c0.55,0.01,1.1-0.2,1.51-0.63l50.77-44.43C96.36,73.87,95.02,71.85,93.24,70.42z"/>
</g>
<path class="st1" d="M152.56,56.27h-6.32c-35.65-0.36-38.64-5.33-38.64-46.31V8.51h-0.07V6.85c0-0.94-0.73-1.72-1.62-1.72h-0.26
	c-0.89,0-1.62,0.77-1.62,1.72v11c0,0.1,0.01,0.2,0.03,0.29c-0.53,33.47-5.47,37.78-38.58,38.12h-6.34c-0.89,0-1.62,0.77-1.62,1.72
	v0.28c0,0.89,0.65,1.62,1.48,1.7v0.03h1.36c37.26,0,43,2.94,43.68,36.81c0,0.02-0.01,0.03-0.01,0.05v11c0,0.94,0.73,1.72,1.62,1.72
	h0.26c0.89,0,1.62-0.77,1.62-1.72v-0.08h0.07v-1.44c0-42.87,3.27-46.34,43.76-46.34h1.36v-0.03c0.81-0.09,1.45-0.82,1.45-1.7v-0.28
	C154.18,57.04,153.45,56.27,152.56,56.27z M110.2,62.75c-2.06,2.18-3.45,5.05-4.35,9.19c-0.9-4.14-2.29-7.01-4.35-9.19
	s-4.77-3.65-8.68-4.61c3.91-0.95,6.62-2.43,8.68-4.61c2.06-2.18,3.45-5.05,4.35-9.19c0.9,4.14,2.29,7.01,4.35,9.19
	c2.06,2.18,4.77,3.65,8.68,4.61C114.97,59.1,112.26,60.57,110.2,62.75z"/>
<g>
	<polygon class="st1" points="259.41,220.94 259.41,219.15 244.37,219.15 245.39,220.94 	"/>
	<polygon class="st1" points="257.5,241.37 257.5,222.94 245.47,222.94 239.2,241 204.31,241 204.31,243.43 242.24,243.43 
		244.04,241.37 248.24,241.37 238.12,253.21 247.77,253.21 	"/>
	<polygon class="st1" points="295.32,220.94 309.5,220.94 310.52,219.15 295.32,219.15 	"/>
	<path class="st1" d="M277.75,218.45h1.09v-3.81h-3.1v3.81h1.22c0.13-0.01,0.26-0.02,0.39-0.02
		C277.49,218.43,277.62,218.44,277.75,218.45z"/>
	<path class="st1" d="M244.84,210.65h9.9l4.27-1.69l5.56-4.63h1.72l-4.44,5.25l1.9,1.06h27.56l1.83-0.63l-4.65-5.69h2.01l5.56,4.63
		l4.27,1.69h9.89l6.79-1.44l-15.01-4.88h0.27l2.23-2.36h2.81l5.12-0.86l-7.81-1.3c-8.31-2.23-18.17-5.75-23.73-7.81l15.28,8.18
		h-4.91l-3.93-2.57l-9.02-5.84h-1.95l-12.94,8.41h-3.78l14.55-8.18c-5.56,2.06-15.43,5.58-23.73,7.81l-7.8,1.3l5.19,0.86l2.73,0
		l2.22,2.36h0.27l-15.01,4.88L244.84,210.65z M280.11,201.98h9.96l3.16-0.98l-0.04-0.03H295l3.24,1h3.31l-1.59,1.57h-19.85V201.98z
		 M256.81,201.98l3.24-1h1.82l-0.04,0.03l3.16,0.98h10.36v1.57h-20.17l-1.48-1.57L256.81,201.98z"/>
	<polygon class="st1" points="280.34,190.52 279.17,187.56 277.52,187.56 275.88,187.56 274.71,190.52 277.52,190.52 	"/>
	<path class="st1" d="M277.52,185.87h1.64c0,0,1.14-1.27,1.14-3.02c0,0,0,0,0-0.01c0-1.49-1.25-2.7-2.79-2.7
		c-1.54,0-2.79,1.21-2.79,2.7c0,0,0,0,0,0.01c0,1.75,1.14,3.02,1.14,3.02H277.52z"/>
	<path class="st1" d="M293.93,241l0-23.43h11.02v-1.93H281v-1.93h20.6v-1.68h-48.86v1.68h21.17v-0.79h6.74v6.78
		c4.24,1.16,7.31,4.48,7.31,8.41l0,12.89h-2.45v-12.14c0-3.98-3.64-7.22-8.12-7.22c-4.48,0-8.12,3.24-8.12,7.22V241h-2.39
		l-0.06-12.89c0-3.86,2.98-7.14,7.11-8.35v-4.12h-23.98v1.93h11.02l-0.1,23.43l-8.83,12.29h50.13L293.95,241H293.93z"/>
	<polygon class="st1" points="315.69,241 309.42,222.94 296.91,222.94 296.91,241 305.76,253.21 315.28,253.21 305.89,241.37 
		309.11,241.37 310.91,243.43 347.83,243.43 347.83,241 	"/>
	<polygon class="st1" points="315,248.13 347.83,248.13 347.83,245.74 312.92,245.74 	"/>
	<polygon class="st1" points="319.5,253.28 347.83,253.28 347.83,250.83 317.36,250.83 	"/>
	<polygon class="st1" points="240.23,245.74 204.31,245.74 204.31,248.13 238.14,248.13 	"/>
	<polygon class="st1" points="204.31,253.28 233.65,253.28 235.78,250.83 204.31,250.83 	"/>
</g>
</svg>
