<?xml version="1.0" encoding="utf-8"?>
<!-- Generator: Adobe Illustrator 23.0.3, SVG Export Plug-In . SVG Version: 6.00 Build 0)  -->
<svg version="1.1" id="圖層_1" xmlns="http://www.w3.org/2000/svg" xmlns:xlink="http://www.w3.org/1999/xlink" x="0px" y="0px"
	 viewBox="0 0 370 370" style="enable-background:new 0 0 370 370;" xml:space="preserve">
<style type="text/css">
	.st0{fill:url(#SVGID_1_);}
	.st1{fill:url(#SVGID_2_);}
	.st2{fill:url(#SVGID_3_);}
	.st3{fill:#E50012;}
	.st4{fill:#E61F19;}
</style>
<g>
	<linearGradient id="SVGID_1_" gradientUnits="userSpaceOnUse" x1="218.2395" y1="76.2591" x2="218.2395" y2="110.3179">
		<stop  offset="0" style="stop-color:#E61F19"/>
		<stop  offset="1" style="stop-color:#FFFFFF;stop-opacity:0"/>
	</linearGradient>
	<path class="st0" d="M111.88,112.26H324.6l-36.25-37.25H115.81C112.6,81.97,111.9,93.57,111.88,112.26z"/>
	<linearGradient id="SVGID_2_" gradientUnits="userSpaceOnUse" x1="77.1338" y1="76.2591" x2="77.1338" y2="110.3179">
		<stop  offset="0" style="stop-color:#E61F19"/>
		<stop  offset="1" style="stop-color:#FFFFFF;stop-opacity:0"/>
	</linearGradient>
	<path class="st1" d="M100.67,102.14c-0.29-13.51-1.39-21.8-3.83-27.13h-1.98c0,0-40.75,37.25-41.25,37.25h47.07L100.67,102.14z"/>
</g>
<linearGradient id="SVGID_3_" gradientUnits="userSpaceOnUse" x1="192.3496" y1="330.7592" x2="192.3496" y2="272.21">
	<stop  offset="0" style="stop-color:#E61F19"/>
	<stop  offset="1" style="stop-color:#FFFFFF;stop-opacity:0"/>
</linearGradient>
<polygon class="st2" points="125.1,295.26 259.6,295.26 193.1,356.76 "/>
<g>
	<g>
		<g>
			<path class="st3" d="M24.37,248.82h172.29c0.63,0,1.13-0.51,1.13-1.13c0-0.63-0.51-1.13-1.13-1.13H24.37
				c-0.63,0-1.13,0.51-1.13,1.13C23.23,248.31,23.74,248.82,24.37,248.82z"/>
			<path class="st3" d="M197.58,251.31H24.37c-0.63,0-1.13,0.51-1.13,1.13s0.51,1.13,1.13,1.13h173.21c0.63,0,1.13-0.51,1.13-1.13
				S198.21,251.31,197.58,251.31z"/>
		</g>
		<path class="st3" d="M88.11,253.35c-0.64-1.38-1.64-3.77-2.43-5.04c-5.81-9.32-15.58-14.47-26.66-14.47
			c-11.14,0-20.95,5.22-26.75,14.62c-0.88,1.43-2.09,2.94-2.78,4.5l6.42,0.03c-0.1-0.09,1.03-1.75,1.62-2.9
			c4.66-8.99,12.54-14.91,21.49-14.91c8.9,0,16.75,5.85,21.41,14.76c0.5,0.96,0.97,2.35,1.4,3.38L88.11,253.35z"/>
		<path class="st3" d="M81.86,253.26c0.64-1.38,1.64-3.77,2.43-5.04c5.81-9.32,15.58-14.47,26.66-14.47
			c11.14,0,20.95,5.22,26.75,14.62c0.88,1.43,2.09,2.93,2.78,4.5l-6.42,0.03c0.1-0.09-1.03-1.75-1.62-2.9
			c-4.66-8.99-12.54-14.91-21.49-14.91c-8.9,0-16.75,5.85-21.41,14.76c-0.5,0.96-0.97,2.35-1.4,3.38L81.86,253.26z"/>
		<path class="st3" d="M192.64,253.26c-0.64-1.38-1.64-3.77-2.43-5.04c-5.81-9.32-15.58-14.47-26.66-14.47
			c-11.14,0-20.95,5.22-26.75,14.62c-0.88,1.43-2.09,2.93-2.78,4.5l6.42,0.03c-0.1-0.09,1.03-1.75,1.62-2.9
			c4.66-8.99,12.54-14.91,21.49-14.91c8.9,0,16.75,5.85,21.41,14.76c0.5,0.96,0.97,2.35,1.4,3.38L192.64,253.26z"/>
	</g>
	<g>
		<rect x="41.53" y="239.46" class="st3" width="1.04" height="13.63"/>
		<rect x="44.94" y="239.46" class="st3" width="1.04" height="13.63"/>
		<rect x="48.35" y="236.8" class="st3" width="1.04" height="16.29"/>
		<rect x="51.75" y="235.8" class="st3" width="1.04" height="17.29"/>
		<rect x="55.16" y="234.81" class="st3" width="1.04" height="18.29"/>
		<rect x="58.57" y="234.31" class="st3" width="1.04" height="18.79"/>
		<rect x="61.98" y="234.81" class="st3" width="1.04" height="18.29"/>
		<rect x="65.39" y="235.3" class="st3" width="1.04" height="17.79"/>
		<rect x="68.79" y="236.3" class="st3" width="1.04" height="16.79"/>
		<rect x="72.2" y="237.55" class="st3" width="1.04" height="15.54"/>
		<rect x="75.61" y="239.46" class="st3" width="1.04" height="13.63"/>
	</g>
	<g>
		<rect x="92.65" y="239.46" class="st3" width="1.04" height="13.63"/>
		<rect x="96.06" y="239.46" class="st3" width="1.04" height="13.63"/>
		<rect x="99.47" y="236.8" class="st3" width="1.04" height="16.29"/>
		<rect x="102.88" y="235.8" class="st3" width="1.04" height="17.29"/>
		<rect x="106.29" y="234.81" class="st3" width="1.04" height="18.29"/>
		<rect x="109.69" y="234.31" class="st3" width="1.04" height="18.79"/>
		<rect x="113.1" y="234.81" class="st3" width="1.04" height="18.29"/>
		<rect x="116.51" y="235.3" class="st3" width="1.04" height="17.79"/>
		<rect x="119.92" y="236.3" class="st3" width="1.04" height="16.79"/>
		<rect x="123.33" y="237.55" class="st3" width="1.04" height="15.54"/>
		<rect x="126.74" y="239.46" class="st3" width="1.04" height="13.63"/>
	</g>
	<g>
		<rect x="146.77" y="239.46" class="st3" width="1.04" height="13.63"/>
		<rect x="150.18" y="239.46" class="st3" width="1.04" height="13.63"/>
		<rect x="153.59" y="236.8" class="st3" width="1.04" height="16.29"/>
		<rect x="156.99" y="235.8" class="st3" width="1.04" height="17.29"/>
		<rect x="160.4" y="234.81" class="st3" width="1.04" height="18.29"/>
		<rect x="163.81" y="234.31" class="st3" width="1.04" height="18.79"/>
		<rect x="167.22" y="234.81" class="st3" width="1.04" height="18.29"/>
		<rect x="170.63" y="235.3" class="st3" width="1.04" height="17.79"/>
		<rect x="174.04" y="236.3" class="st3" width="1.04" height="16.79"/>
		<rect x="177.44" y="237.55" class="st3" width="1.04" height="15.54"/>
		<rect x="180.85" y="239.46" class="st3" width="1.04" height="13.63"/>
	</g>
</g>
<g>
	<g>
		<path class="st4" d="M61.45,179.21H45.98c-0.88-0.72-1.48-1.8-1.82-3.22c-0.34-1.42-0.51-3.44-0.51-6.04v-12.44
			c0-1.25-0.44-2.01-1.32-2.28c-0.88-0.26-2.09-0.4-3.64-0.4v24.38H23.23v-50.65h19.21c5.12,0,9.11,0.82,11.98,2.45
			c2.86,1.63,4.3,3.79,4.3,6.48v6.05c0,1.68-0.37,2.98-1.1,3.89c-1.34,1.68-4.15,3.03-8.44,4.03c3.95,0.72,6.66,1.86,8.13,3.4
			c0.94,1.02,1.41,2.42,1.41,4.2v10.94c0.13,1.79,0.27,3.14,0.4,4.06C59.59,176.92,60.37,178.64,61.45,179.21z M43.66,145.95v-8.28
			c0-1.25-0.44-2-1.32-2.27c-0.88-0.26-2.09-0.4-3.64-0.4v13.6c1.62,0,2.67-0.07,3.16-0.22C43.06,148.01,43.66,147.19,43.66,145.95z
			"/>
		<path class="st4" d="M97.43,179.21H83.38v-1.39c-0.74,0.54-1.87,1-3.39,1.39c-1.52,0.39-3.29,0.58-5.31,0.58
			c-2.97,0-5.41-0.56-7.33-1.66c-1.92-1.11-2.88-2.46-2.88-4.05v-35.89h14.05v33.29c0,1.25,0.81,1.88,2.43,1.88
			c0.81,0,1.42-0.16,1.82-0.47c0.41-0.31,0.61-0.76,0.61-1.34v-33.36h14.05V179.21z"/>
		<path class="st4" d="M134.43,173.06c0,1.69-1.05,3.18-3.13,4.49c-2.43,1.5-5.7,2.24-9.81,2.24c-2.36,0-4.25-0.24-5.66-0.72
			c-1.28-0.63-2.12-1.04-2.53-1.23l-1.21,1.37h-10.61v-50.65h14.05v10.85c0.87-0.53,2.04-0.92,3.49-1.16
			c1.45-0.24,3.18-0.36,5.21-0.36c2.96,0,5.41,0.56,7.33,1.66c1.92,1.11,2.88,2.46,2.88,4.05V173.06z M120.38,171.54v-25.4
			c0-1.25-0.81-1.88-2.43-1.88c-0.81,0-1.42,0.14-1.82,0.43c-0.41,0.29-0.61,0.75-0.61,1.37v25.47c0,0.63,0.2,1.1,0.61,1.41
			c0.4,0.31,1.01,0.47,1.82,0.47c0.81,0,1.42-0.16,1.82-0.47C120.18,172.64,120.38,172.17,120.38,171.54z"/>
		<path class="st4" d="M175.58,138.19l-10.95,40.74c-0.81,2.92-1.42,4.71-1.83,5.39c-0.74,1.17-2.3,2.16-4.66,2.99
			c-0.74,0.24-1.56,0.4-2.43,0.48c-0.88,0.07-2.16,0.11-3.85,0.11h-9.53v-5.57h4.87c1.22,0,2.08-0.24,2.59-0.72
			c0.51-0.48,0.76-1.13,0.76-1.95c0-0.48-0.1-0.94-0.3-1.37l-13.07-40.09h14.05l5.91,21.67l4.6-21.67H175.58z"/>
	</g>
</g>
<g>
	<g>
		<path class="st4" d="M246.09,171.83c0,1.98-1.35,3.74-4.04,5.28c-3.1,1.79-7.11,2.68-12.03,2.68c-5.26,0-9.5-0.75-12.74-2.24
			c-3.51-1.64-5.26-3.93-5.26-6.87v-32.63c0-3.23,1.28-5.62,3.84-7.16c2.96-1.78,7.68-2.68,14.15-2.68c5.59,0,9.77,0.89,12.54,2.68
			c2.36,1.54,3.54,3.64,3.54,6.3v9.19h-14.05v-10.12c0-0.44-0.18-0.75-0.53-0.95c-0.35-0.19-0.92-0.29-1.69-0.29
			c-0.78,0-1.36,0.1-1.75,0.29c-0.39,0.19-0.58,0.51-0.58,0.94v35.3c0,0.39,0.23,0.69,0.69,0.91c0.46,0.22,1,0.33,1.64,0.33
			c0.78,0,1.34-0.11,1.69-0.33c0.35-0.22,0.53-0.52,0.53-0.91v-12.58h14.05V171.83z"/>
		<path class="st4" d="M283.39,171.47c0,3.09-1.62,5.31-4.85,6.66c-2.63,1.11-6.44,1.66-11.42,1.66c-5.05,0-8.96-0.6-11.73-1.81
			c-3.3-1.45-4.95-3.74-4.95-6.87v-24.53c0-3.09,1.65-5.35,4.95-6.8c2.83-1.25,6.74-1.88,11.73-1.88c4.58,0,8.44,0.71,11.58,2.13
			c3.13,1.42,4.7,3.49,4.7,6.19V171.47z M269.34,171.33v-25.05c0-0.67-0.2-1.18-0.61-1.52c-0.4-0.34-1.01-0.51-1.82-0.51
			c-0.67,0-1.25,0.17-1.72,0.51c-0.47,0.34-0.71,0.84-0.71,1.52v25.05c0,0.67,0.2,1.19,0.61,1.55c0.41,0.36,1.01,0.54,1.82,0.54
			c0.81,0,1.42-0.18,1.82-0.54C269.13,172.52,269.34,172.01,269.34,171.33z"/>
		<path class="st4" d="M319.98,179.21h-14.05v-32.99c0-1.26-0.81-1.88-2.43-1.88c-0.81,0-1.42,0.15-1.82,0.45
			c-0.4,0.3-0.61,0.78-0.61,1.43v32.99h-14.05v-41.02h14.05v1.37c0.81-0.48,1.97-0.88,3.49-1.19c1.52-0.31,3.25-0.47,5.21-0.47
			c2.97,0,5.41,0.57,7.33,1.7c1.92,1.13,2.88,2.52,2.88,4.16V179.21z"/>
		<path class="st4" d="M341.59,134.28c0.74-0.1,2.29-0.14,4.65-0.14v-5.57h-8.9c-6.13,0-9.99,0.32-11.42,1.81
			c-1.7,1.75-1.82,3.57-1.82,7.81v41.02h14.05v-31.87h8.09v-6.15h-8.09l0.03-2.71C338.19,135.9,339.3,134.57,341.59,134.28z"/>
	</g>
</g>
<g>
	<path class="st3" d="M150.73,272.87h-4.01v21.49h-7.13v-21.49h-4.01v-3.17h15.15V272.87z"/>
	<path class="st3" d="M171.48,294.36h-7.04l-1.24-6.62h-3.3l-1.24,6.62h-7.04l5.37-24.66h9.11L171.48,294.36z M162.58,284.35
		l-1.05-7.4l-1,7.4H162.58z"/>
	<path class="st3" d="M179.73,294.36h-7.13V269.7h7.13V294.36z"/>
	<path class="st3" d="M209.51,269.7l-4.21,24.66h-8.49l-2.56-13.6l-2.42,13.6h-7.33l-4.07-24.66h6.48l1.79,11.38l2.47-11.38h8.06
		l1.96,11.38l2.4-11.38H209.51z"/>
	<path class="st3" d="M229.79,294.36h-7.04l-1.24-6.62h-3.3l-1.24,6.62h-7.04l5.37-24.66h9.11L229.79,294.36z M220.89,284.35
		l-1.05-7.4l-1,7.4H220.89z"/>
	<path class="st3" d="M249.13,294.36h-7.36l-4.89-13.15v13.15h-5.97V269.7h8.16l4.1,11.25V269.7h5.97V294.36z"/>
</g>
<g>
	<polygon class="st3" points="172.05,226.06 172.05,221.58 165.01,215.75 161.83,218.34 161.83,203.77 132.98,203.77 132.98,226.06 
		129.98,226.06 129.98,213.74 127.09,213.74 127.09,209.2 110.6,209.2 110.6,213.33 87.75,218.41 87.75,225.67 80.96,225.67 
		80.96,199.5 63.43,199.5 63.43,188.48 37.93,188.48 37.93,216.71 32.6,212.42 23.23,218.37 23.23,227.81 25.41,227.66 
		25.41,219.57 32.45,215.09 37.91,219.49 37.91,226.96 37.93,228.05 40.11,228.05 40.11,190.66 61.26,190.66 61.26,226.57 
		61.28,227.66 63.46,227.66 63.46,201.68 78.79,201.68 78.79,227.85 89.93,227.85 89.93,220.66 112.78,215.51 112.78,211.37 
		124.91,211.37 124.91,215.92 127.81,215.92 127.81,228.24 135.16,228.24 135.16,205.95 159.66,205.95 159.66,220.11 157.86,221.57 
		157.86,230.35 159.84,230.35 159.84,222.13 165,218.46 169.87,222.13 169.86,230.77 172.05,230.77 172.05,228.24 187.1,228.24 
		187.1,226.06 	"/>
	<rect x="44.51" y="216.54" class="st3" width="4.72" height="3.99"/>
	<rect x="44.51" y="209.3" class="st3" width="4.72" height="4.01"/>
	<rect x="44.51" y="194.85" class="st3" width="4.72" height="4"/>
	<rect x="53.06" y="216.54" class="st3" width="4.72" height="3.99"/>
	<rect x="44.51" y="223.39" class="st3" width="4.72" height="3.99"/>
	<rect x="53.06" y="223.39" class="st3" width="4.72" height="3.99"/>
	<rect x="53.06" y="202.08" class="st3" width="4.72" height="4"/>
	<rect x="53.06" y="194.85" class="st3" width="4.72" height="4"/>
	<rect x="72.41" y="223.35" class="st3" width="3.2" height="2.66"/>
	<rect x="72.41" y="218.54" class="st3" width="3.2" height="2.67"/>
	<rect x="72.41" y="208.93" class="st3" width="3.2" height="2.66"/>
	<rect x="72.41" y="204.12" class="st3" width="3.2" height="2.67"/>
	<rect x="66.08" y="223.35" class="st3" width="3.2" height="2.66"/>
	<rect x="66.08" y="218.54" class="st3" width="3.2" height="2.67"/>
	<rect x="66.08" y="204.12" class="st3" width="3.2" height="2.67"/>
	<rect x="28.99" y="220.23" class="st3" width="4.14" height="6.23"/>
	<rect x="162.31" y="223.05" class="st3" width="4.14" height="6.23"/>
	<rect x="139.52" y="209.81" class="st3" width="1.69" height="17.94"/>
	<rect x="144.08" y="209.81" class="st3" width="1.7" height="17.94"/>
	<rect x="148.83" y="209.81" class="st3" width="1.69" height="17.94"/>
	<rect x="153.38" y="209.81" class="st3" width="1.7" height="17.94"/>
	<rect x="110.96" y="223.66" class="st3" width="3.92" height="3.88"/>
	<rect x="119.1" y="223.66" class="st3" width="3.92" height="3.88"/>
	<rect x="119.1" y="216.66" class="st3" width="3.92" height="3.88"/>
</g>
<path class="st3" d="M193.99,262.69l86.18-5.23l-87.02-0.7c0.01,0,0.01-0.01,0.02-0.01l-0.77,0.01l-0.77-0.01
	c0.01,0,0.01,0.01,0.02,0.01l-87.02,0.7l86.92,5.23c-0.01,0.06-0.02,0.1-0.02,0.1l1.24-0.05l1.24,0.05
	C194.02,262.79,194.01,262.75,193.99,262.69z"/>
<g>
	<polygon class="st3" points="195.29,80.98 194.36,80.98 193.99,104.14 195.66,104.14 	"/>
	<polygon class="st3" points="204.13,137.7 206.59,125.68 197.36,125.68 197.36,127.82 192.29,127.82 192.29,125.68 183.06,125.68 
		185.52,137.7 	"/>
	<polygon class="st3" points="204.13,151.42 206.59,139.39 197.36,139.39 197.36,141.53 192.29,141.53 192.29,139.39 183.06,139.39 
		185.52,151.42 	"/>
	<polygon class="st3" points="204.13,165.13 206.59,153.11 197.36,153.11 197.36,155.24 192.29,155.24 192.29,153.11 183.06,153.11 
		185.52,165.13 	"/>
	<polygon class="st3" points="204.13,178.85 206.59,166.82 197.36,166.82 197.36,168.96 192.29,168.96 192.29,166.82 183.06,166.82 
		185.52,178.85 	"/>
	<polygon class="st3" points="204.13,192.56 206.59,180.54 197.36,180.54 197.36,182.67 192.29,182.67 192.29,180.54 183.06,180.54 
		185.52,192.56 	"/>
	<polygon class="st3" points="204.13,206.27 206.59,194.25 197.36,194.25 197.36,196.39 192.29,196.39 192.29,194.25 183.06,194.25 
		185.52,206.27 	"/>
	<polygon class="st3" points="204.13,219.99 206.59,207.97 197.36,207.96 197.36,210.1 192.29,210.1 192.29,207.96 183.06,207.96 
		185.52,219.99 	"/>
	<polygon class="st3" points="190.95,121.54 190.57,124.72 199.08,124.72 198.7,121.54 	"/>
	<polygon class="st3" points="196.68,107.83 197.12,105.14 192.52,105.14 192.96,107.83 	"/>
	<polygon class="st3" points="190.29,112.44 190.93,120.48 198.71,120.48 199.35,112.44 	"/>
	<polygon class="st3" points="199.62,111.36 200.1,110.26 199.62,109.17 190.03,109.17 189.54,110.26 190.03,111.36 	"/>
	<rect x="192.48" y="232.32" class="st3" width="4.68" height="4.5"/>
	<path class="st3" d="M190.09,233.92c0.2-2.36,2.23-4.22,4.73-4.22s4.53,1.86,4.73,4.22h4.58l2.46-12.02l-9.23,0v2.14h-5.07v-2.14
		l-9.23,0l2.46,12.02H190.09z"/>
	<path class="st3" d="M204.13,235.45h-4.57c-0.17,2.38-2.21,4.26-4.73,4.26s-4.56-1.89-4.73-4.26h-4.57l-5.5,23.56l29.6,0
		L204.13,235.45z"/>
</g>
<path class="st3" d="M299.23,260.09c-0.39-0.35-0.71-0.47-1.2-0.47c-0.55,0-1.1,0.22-1.49,0.66l-103.45,88.17l-76.98-64.78
	c-0.86-0.71-1.88-0.92-2.58-0.06c-0.33,0.41-0.44,0.73-0.41,1.22c0.03,0.55,0.28,1.08,0.74,1.46l78.77,78.46l106.43-102.09
	C299.79,261.84,300.06,260.84,299.23,260.09z"/>
<g>
	<path class="st3" d="M117.87,71.46c-0.69,0.74-1.3,1.61-1.83,2.61C116.61,73.18,117.22,72.29,117.87,71.46z"/>
	<path class="st3" d="M334.71,119.07l-47.8-52.46l-154.52-0.3c-7.2,0.74-11.77,2.23-14.48,5.11c-0.01,0.01-0.02,0.03-0.03,0.04
		c-0.66,0.83-1.26,1.72-1.83,2.61c-0.67,1.25-1.22,2.73-1.67,4.44l0.03,0.02l168.33-0.1l49.53,43.09c0.41,0.43,0.96,0.64,1.51,0.63
		c0.49-0.01,0.81-0.14,1.19-0.5C335.76,120.87,335.47,119.87,334.71,119.07z"/>
	<path class="st3" d="M93.76,70.42c-0.7-0.57-1.51-1.06-2.42-1.5l-46.68,49.9c-0.77,0.81-1.06,1.8-0.25,2.57
		c0.38,0.36,0.7,0.49,1.19,0.5c0.55,0.01,1.1-0.2,1.51-0.63l50.77-44.43C96.88,73.87,95.54,71.85,93.76,70.42z"/>
</g>
<path class="st3" d="M153.08,56.27h-6.32c-35.65-0.36-38.64-5.33-38.64-46.31V8.51h-0.07V6.85c0-0.94-0.73-1.72-1.62-1.72h-0.26
	c-0.89,0-1.62,0.77-1.62,1.72v11c0,0.1,0.01,0.2,0.03,0.29c-0.53,33.47-5.47,37.78-38.58,38.12h-6.34c-0.89,0-1.62,0.77-1.62,1.72
	v0.28c0,0.89,0.65,1.62,1.48,1.7v0.03h1.36c37.26,0,43,2.94,43.68,36.81c0,0.02-0.01,0.03-0.01,0.05v11c0,0.94,0.73,1.72,1.62,1.72
	h0.26c0.89,0,1.62-0.77,1.62-1.72v-0.08h0.07v-1.44c0-42.87,3.27-46.34,43.76-46.34h1.36v-0.03c0.81-0.09,1.45-0.82,1.45-1.7v-0.28
	C154.7,57.04,153.97,56.27,153.08,56.27z M110.72,62.75c-2.06,2.18-3.45,5.05-4.35,9.19c-0.9-4.14-2.29-7.01-4.35-9.19
	s-4.77-3.65-8.68-4.61c3.91-0.95,6.62-2.43,8.68-4.61c2.06-2.18,3.45-5.05,4.35-9.19c0.9,4.14,2.29,7.01,4.35,9.19
	c2.06,2.18,4.77,3.65,8.68,4.61C115.49,59.1,112.78,60.57,110.72,62.75z"/>
<g>
	<polygon class="st3" points="259.93,220.94 259.93,219.15 244.89,219.15 245.91,220.94 	"/>
	<polygon class="st3" points="258.02,241.37 258.02,222.94 245.99,222.94 239.72,241 204.83,241 204.83,243.43 242.76,243.43 
		244.56,241.37 248.76,241.37 238.64,253.21 248.29,253.21 	"/>
	<polygon class="st3" points="295.84,220.94 310.02,220.94 311.04,219.15 295.84,219.15 	"/>
	<path class="st3" d="M278.27,218.45h1.09v-3.81h-3.1v3.81h1.22c0.13-0.01,0.26-0.02,0.39-0.02
		C278.01,218.43,278.14,218.44,278.27,218.45z"/>
	<path class="st3" d="M245.36,210.65h9.9l4.27-1.69l5.56-4.63h1.72l-4.44,5.25l1.9,1.06h27.56l1.83-0.63l-4.65-5.69h2.01l5.56,4.63
		l4.27,1.69h9.89l6.79-1.44l-15.01-4.88h0.27l2.23-2.36h2.81l5.12-0.86l-7.81-1.3c-8.31-2.23-18.17-5.75-23.73-7.81l15.28,8.18
		h-4.91l-3.93-2.57l-9.02-5.84h-1.95l-12.94,8.41h-3.78l14.55-8.18c-5.56,2.06-15.43,5.58-23.73,7.81l-7.8,1.3l5.19,0.86l2.73,0
		l2.22,2.36h0.27l-15.01,4.88L245.36,210.65z M280.63,201.98h9.96l3.16-0.98l-0.04-0.03h1.82l3.24,1h3.31l-1.59,1.57h-19.85V201.98z
		 M257.33,201.98l3.24-1h1.82l-0.04,0.03l3.16,0.98h10.36v1.57h-20.17l-1.48-1.57L257.33,201.98z"/>
	<polygon class="st3" points="280.86,190.52 279.69,187.56 278.04,187.56 276.4,187.56 275.23,190.52 278.04,190.52 	"/>
	<path class="st3" d="M278.04,185.87h1.64c0,0,1.14-1.27,1.14-3.02c0,0,0,0,0-0.01c0-1.49-1.25-2.7-2.79-2.7
		c-1.54,0-2.79,1.21-2.79,2.7c0,0,0,0,0,0.01c0,1.75,1.14,3.02,1.14,3.02H278.04z"/>
	<path class="st3" d="M294.45,241l0-23.43h11.02v-1.93h-23.94v-1.93h20.6v-1.68h-48.86v1.68h21.17v-0.79h6.74v6.78
		c4.24,1.16,7.31,4.48,7.31,8.41l0,12.89h-2.45v-12.14c0-3.98-3.64-7.22-8.12-7.22c-4.48,0-8.12,3.24-8.12,7.22V241h-2.39
		l-0.06-12.89c0-3.86,2.98-7.14,7.11-8.35v-4.12h-23.98v1.93h11.02l-0.1,23.43l-8.83,12.29h50.13L294.47,241H294.45z"/>
	<polygon class="st3" points="316.21,241 309.94,222.94 297.43,222.94 297.43,241 306.28,253.21 315.8,253.21 306.41,241.37 
		309.63,241.37 311.43,243.43 348.35,243.43 348.35,241 	"/>
	<polygon class="st3" points="315.52,248.13 348.35,248.13 348.35,245.74 313.44,245.74 	"/>
	<polygon class="st3" points="320.02,253.28 348.35,253.28 348.35,250.83 317.88,250.83 	"/>
	<polygon class="st3" points="240.75,245.74 204.83,245.74 204.83,248.13 238.66,248.13 	"/>
	<polygon class="st3" points="204.83,253.28 234.17,253.28 236.3,250.83 204.83,250.83 	"/>
</g>
</svg>
